G04 (created by PCBNEW (2013-may-18)-stable) date Tue 25 Feb 2014 10:12:37 PM CET*
%MOIN*%
G04 Gerber Fmt 3.4, Leading zero omitted, Abs format*
%FSLAX34Y34*%
G01*
G70*
G90*
G04 APERTURE LIST*
%ADD10C,0.00590551*%
%ADD11C,0.0511811*%
%ADD12C,0.0394*%
%ADD13C,0.0629921*%
%ADD14C,0.0787402*%
%ADD15R,0.06X0.06*%
%ADD16C,0.06*%
%ADD17C,0.062*%
%ADD18C,0.056*%
%ADD19C,0.0314961*%
%ADD20O,0.0787402X0.393701*%
%ADD21C,0.019685*%
%ADD22O,0.393701X0.0787402*%
%ADD23O,0.0787402X0.19685*%
%ADD24O,0.19685X0.0787402*%
G04 APERTURE END LIST*
G54D10*
X49606Y-56771D02*
X49606Y-48897D01*
X44055Y-56771D02*
X44055Y-57086D01*
X44842Y-56771D02*
X44055Y-56771D01*
X49606Y-56771D02*
X44842Y-56771D01*
X43385Y-23858D02*
X49606Y-23858D01*
X42874Y-23346D02*
G75*
G03X43385Y-23858I511J0D01*
G74*
G01*
X44133Y-41062D02*
X44094Y-41062D01*
X44094Y-41062D02*
G75*
G03X43700Y-41456I0J-393D01*
G74*
G01*
X43700Y-41456D02*
G75*
G03X44094Y-41850I393J0D01*
G74*
G01*
X44842Y-41850D02*
X44094Y-41850D01*
X21653Y-55984D02*
X21653Y-55944D01*
X22440Y-55984D02*
X22440Y-55944D01*
X22440Y-55944D02*
G75*
G03X22047Y-55551I-393J0D01*
G74*
G01*
X22047Y-55551D02*
G75*
G03X21653Y-55944I0J-393D01*
G74*
G01*
X34645Y-54015D02*
X34645Y-53976D01*
X33858Y-54015D02*
X33858Y-53976D01*
X34645Y-53976D02*
G75*
G03X34251Y-53582I-393J0D01*
G74*
G01*
X34251Y-53582D02*
G75*
G03X33858Y-53976I0J-393D01*
G74*
G01*
X44055Y-57125D02*
X44055Y-57086D01*
X10236Y-41850D02*
X10236Y-58070D01*
X11811Y-41850D02*
X10236Y-41850D01*
X11771Y-41062D02*
X11692Y-41062D01*
X12204Y-41417D02*
G75*
G03X11771Y-41062I-393J-39D01*
G74*
G01*
X11811Y-41850D02*
G75*
G03X12204Y-41456I0J393D01*
G74*
G01*
X10236Y-41062D02*
X11692Y-41062D01*
X10236Y-30472D02*
X10236Y-41062D01*
X13464Y-30472D02*
X10236Y-30472D01*
X12480Y-29685D02*
X13425Y-29685D01*
X13858Y-30039D02*
G75*
G03X13425Y-29685I-393J-39D01*
G74*
G01*
X13464Y-30472D02*
G75*
G03X13858Y-30078I0J393D01*
G74*
G01*
X10236Y-29685D02*
X12480Y-29685D01*
X10236Y-21614D02*
X10236Y-29685D01*
X21653Y-21614D02*
X10236Y-21614D01*
X21653Y-25000D02*
X21653Y-21614D01*
X33858Y-25000D02*
X21653Y-25000D01*
X34645Y-24685D02*
X34645Y-25000D01*
X33858Y-25000D02*
G75*
G03X34251Y-25393I393J0D01*
G74*
G01*
X34251Y-25393D02*
G75*
G03X34645Y-25000I0J393D01*
G74*
G01*
X34645Y-23346D02*
X34645Y-24685D01*
X42874Y-23346D02*
X34645Y-23346D01*
X49606Y-28700D02*
X49606Y-23858D01*
X46102Y-28700D02*
X46102Y-28740D01*
X49606Y-28700D02*
X46102Y-28700D01*
X46102Y-41062D02*
X46102Y-28700D01*
X44133Y-41062D02*
X46102Y-41062D01*
X49606Y-41850D02*
X44842Y-41850D01*
X49606Y-48110D02*
X49606Y-41850D01*
X48740Y-48110D02*
X49606Y-48110D01*
X49015Y-48897D02*
X48740Y-48897D01*
X48740Y-48110D02*
G75*
G03X48346Y-48503I0J-393D01*
G74*
G01*
X48346Y-48503D02*
G75*
G03X48740Y-48897I393J0D01*
G74*
G01*
X49606Y-48897D02*
X49015Y-48897D01*
X44055Y-57322D02*
X44055Y-57125D01*
X44055Y-58070D02*
X44055Y-57322D01*
X34645Y-58070D02*
X44055Y-58070D01*
X34645Y-54015D02*
X34645Y-58070D01*
X33858Y-54015D02*
X33858Y-58070D01*
X22440Y-58070D02*
X33858Y-58070D01*
X22440Y-55984D02*
X22440Y-58070D01*
X21653Y-55984D02*
X21653Y-58070D01*
X10236Y-58070D02*
X21653Y-58070D01*
G54D11*
X24901Y-31496D03*
X24901Y-33464D03*
X28444Y-31003D03*
X28444Y-29035D03*
X31791Y-33366D03*
X31791Y-31397D03*
G54D12*
X36700Y-46343D03*
X36700Y-44611D03*
X39832Y-56246D03*
X38100Y-56246D03*
X27576Y-56200D03*
X25844Y-56200D03*
X16253Y-39142D03*
X14521Y-39142D03*
G54D13*
X23689Y-35202D03*
X23689Y-39139D03*
X25658Y-37170D03*
G54D14*
X23689Y-37170D03*
X25658Y-39139D03*
X25658Y-38155D03*
X25658Y-36186D03*
X25658Y-35202D03*
G54D15*
X48062Y-47417D03*
G54D16*
X47062Y-47417D03*
X46062Y-47417D03*
G54D15*
X24610Y-50500D03*
G54D16*
X24610Y-49500D03*
X24610Y-48500D03*
G54D15*
X31930Y-35970D03*
G54D16*
X31930Y-36970D03*
X31930Y-37970D03*
G54D15*
X41263Y-25029D03*
G54D16*
X41263Y-26029D03*
X41263Y-27029D03*
G54D15*
X43000Y-42377D03*
G54D16*
X43000Y-43377D03*
G54D15*
X39000Y-42377D03*
G54D16*
X39000Y-43377D03*
G54D15*
X42000Y-46377D03*
G54D16*
X43000Y-46377D03*
G54D15*
X35366Y-49546D03*
G54D16*
X35366Y-50546D03*
X35366Y-51546D03*
X35366Y-52546D03*
X35366Y-53546D03*
X35366Y-54546D03*
G54D15*
X43366Y-49546D03*
G54D16*
X43366Y-50546D03*
X43366Y-51546D03*
X43366Y-52546D03*
X43366Y-53546D03*
X43366Y-54546D03*
G54D15*
X43477Y-31258D03*
G54D16*
X42477Y-31258D03*
X41477Y-31258D03*
X40477Y-31258D03*
X39477Y-31258D03*
X38477Y-31258D03*
X37477Y-31258D03*
X36477Y-31258D03*
G54D15*
X43477Y-39258D03*
G54D16*
X42477Y-39258D03*
X41477Y-39258D03*
X40477Y-39258D03*
X39477Y-39258D03*
X38477Y-39258D03*
X37477Y-39258D03*
X36477Y-39258D03*
G54D15*
X47683Y-55783D03*
G54D16*
X48683Y-55783D03*
G54D15*
X47683Y-49783D03*
G54D16*
X48683Y-49783D03*
G54D15*
X11000Y-49500D03*
G54D16*
X11000Y-48500D03*
X11000Y-47500D03*
X11000Y-46500D03*
X11000Y-45500D03*
X11000Y-44500D03*
X11000Y-43500D03*
X11000Y-42500D03*
G54D15*
X21000Y-49500D03*
G54D16*
X21000Y-48500D03*
X21000Y-47500D03*
X21000Y-46500D03*
X21000Y-45500D03*
X21000Y-44500D03*
X21000Y-43500D03*
X21000Y-42500D03*
G54D15*
X11000Y-50500D03*
G54D16*
X11000Y-51500D03*
X11000Y-52500D03*
X11000Y-53500D03*
X11000Y-54500D03*
X11000Y-55500D03*
X11000Y-56500D03*
X11000Y-57500D03*
G54D15*
X21000Y-57500D03*
G54D16*
X21000Y-56500D03*
X21000Y-55500D03*
X21000Y-54500D03*
X21000Y-53500D03*
X21000Y-52500D03*
X21000Y-51500D03*
X21000Y-50500D03*
G54D15*
X19000Y-43500D03*
G54D16*
X18000Y-43500D03*
X17000Y-43500D03*
X19000Y-42500D03*
X18000Y-42500D03*
X17000Y-42500D03*
G54D15*
X23110Y-42500D03*
G54D16*
X23110Y-43500D03*
X23110Y-44500D03*
X23110Y-45500D03*
X23110Y-46500D03*
X23110Y-47500D03*
X23110Y-48500D03*
X23110Y-49500D03*
G54D15*
X23110Y-57500D03*
G54D16*
X23110Y-56500D03*
X23110Y-55500D03*
X23110Y-54500D03*
X23110Y-53500D03*
X23110Y-52500D03*
X23110Y-51500D03*
X23110Y-50500D03*
G54D15*
X33110Y-49500D03*
G54D16*
X33110Y-48500D03*
X33110Y-47500D03*
X33110Y-46500D03*
X33110Y-45500D03*
X33110Y-44500D03*
X33110Y-43500D03*
X33110Y-42500D03*
G54D15*
X31110Y-43500D03*
G54D16*
X30110Y-43500D03*
X29110Y-43500D03*
X31110Y-42500D03*
X30110Y-42500D03*
X29110Y-42500D03*
G54D15*
X12514Y-28907D03*
G54D16*
X13514Y-28907D03*
X14514Y-28907D03*
X15514Y-28907D03*
X16514Y-28907D03*
X17514Y-28907D03*
X18514Y-28907D03*
X19514Y-28907D03*
G54D15*
X17014Y-23407D03*
G54D16*
X16014Y-23407D03*
X15014Y-23407D03*
X17014Y-22407D03*
X16014Y-22407D03*
X15014Y-22407D03*
G54D15*
X43724Y-24818D03*
G54D16*
X43724Y-25818D03*
X43724Y-26818D03*
X43724Y-27818D03*
G54D15*
X48924Y-27818D03*
G54D16*
X48924Y-26818D03*
X48924Y-25818D03*
X48924Y-24818D03*
G54D15*
X10987Y-31042D03*
G54D16*
X10987Y-32042D03*
X10987Y-33042D03*
X10987Y-34042D03*
X10987Y-35042D03*
X10987Y-36042D03*
G54D15*
X19987Y-31042D03*
G54D16*
X19987Y-32042D03*
X19987Y-33042D03*
X19987Y-34042D03*
X19987Y-35042D03*
X19987Y-36042D03*
G54D14*
X26419Y-26570D03*
X25041Y-26570D03*
X29419Y-26570D03*
X28041Y-26570D03*
X32519Y-26570D03*
X31141Y-26570D03*
G54D15*
X38263Y-28029D03*
G54D16*
X37263Y-28029D03*
G54D17*
X16080Y-43980D03*
X13320Y-43980D03*
X13815Y-43000D03*
X15585Y-43000D03*
X27990Y-43980D03*
X25230Y-43980D03*
X25725Y-43000D03*
X27495Y-43000D03*
X19634Y-27687D03*
X19634Y-24927D03*
X20614Y-25422D03*
X20614Y-27192D03*
G54D18*
X36877Y-33897D03*
X36877Y-35819D03*
X19300Y-55561D03*
X19300Y-53639D03*
X32010Y-53639D03*
X32010Y-55561D03*
G54D19*
X35463Y-25745D03*
X35463Y-25312D03*
G54D20*
X22047Y-45708D03*
G54D21*
X44940Y-50590D03*
X44940Y-49015D03*
X44940Y-50196D03*
X44940Y-49409D03*
X44940Y-49803D03*
X43956Y-49803D03*
X43956Y-49409D03*
X43956Y-50196D03*
X43956Y-49015D03*
X43956Y-50590D03*
X34744Y-43543D03*
X34744Y-41968D03*
X34744Y-43149D03*
X34744Y-42362D03*
X34744Y-42755D03*
X33759Y-42755D03*
X33759Y-42362D03*
X33759Y-43149D03*
X33759Y-41968D03*
X33759Y-43543D03*
X34744Y-47480D03*
X34744Y-45905D03*
X34744Y-47086D03*
X34744Y-46299D03*
X34744Y-46692D03*
X33759Y-46692D03*
X33759Y-46299D03*
X33759Y-47086D03*
X33759Y-45905D03*
X33759Y-47480D03*
X37598Y-40964D03*
X36023Y-40964D03*
X37204Y-40964D03*
X36417Y-40964D03*
X36811Y-40964D03*
X36811Y-41948D03*
X36417Y-41948D03*
X37204Y-41948D03*
X36023Y-41948D03*
X37598Y-41948D03*
G54D20*
X22047Y-51614D03*
G54D21*
X48149Y-48011D03*
X46574Y-48011D03*
X47755Y-48011D03*
X46968Y-48011D03*
X47362Y-48011D03*
X47362Y-48996D03*
X46968Y-48996D03*
X47755Y-48996D03*
X46574Y-48996D03*
X48149Y-48996D03*
G54D22*
X16141Y-41456D03*
G54D21*
X22539Y-49448D03*
X22539Y-47874D03*
X22539Y-49055D03*
X22539Y-48267D03*
X22539Y-48661D03*
X21555Y-48661D03*
X21555Y-48267D03*
X21555Y-49055D03*
X21555Y-47874D03*
X21555Y-49448D03*
G54D22*
X39763Y-41456D03*
G54D21*
X34763Y-48996D03*
X36338Y-48996D03*
X35157Y-48996D03*
X35944Y-48996D03*
X35551Y-48996D03*
X35551Y-48011D03*
X35944Y-48011D03*
X35157Y-48011D03*
X36338Y-48011D03*
X34763Y-48011D03*
G54D22*
X27952Y-41456D03*
G54D21*
X24212Y-41948D03*
X25787Y-41948D03*
X24606Y-41948D03*
X25393Y-41948D03*
X25000Y-41948D03*
X25000Y-40964D03*
X25393Y-40964D03*
X24606Y-40964D03*
X25787Y-40964D03*
X24212Y-40964D03*
G54D22*
X22047Y-41456D03*
G54D21*
X18307Y-41948D03*
X19881Y-41948D03*
X18700Y-41948D03*
X19488Y-41948D03*
X19094Y-41948D03*
X19094Y-40964D03*
X19488Y-40964D03*
X18700Y-40964D03*
X19881Y-40964D03*
X18307Y-40964D03*
G54D22*
X33858Y-41456D03*
G54D23*
X34251Y-44724D03*
G54D21*
X44940Y-47992D03*
X44940Y-46417D03*
X44940Y-47598D03*
X44940Y-46811D03*
X44940Y-47204D03*
X43956Y-47204D03*
X43956Y-46811D03*
X43956Y-47598D03*
X43956Y-46417D03*
X43956Y-47992D03*
X22539Y-55354D03*
X22539Y-53779D03*
X22539Y-54960D03*
X22539Y-54173D03*
X22539Y-54566D03*
X21555Y-54566D03*
X21555Y-54173D03*
X21555Y-54960D03*
X21555Y-53779D03*
X21555Y-55354D03*
X19960Y-30570D03*
X21535Y-30570D03*
X20354Y-30570D03*
X21141Y-30570D03*
X20748Y-30570D03*
X20748Y-29586D03*
X21141Y-29586D03*
X20354Y-29586D03*
X21535Y-29586D03*
X19960Y-29586D03*
X22539Y-43543D03*
X22539Y-41968D03*
X22539Y-43149D03*
X22539Y-42362D03*
X22539Y-42755D03*
X21555Y-42755D03*
X21555Y-42362D03*
X21555Y-43149D03*
X21555Y-41968D03*
X21555Y-43543D03*
X22539Y-29133D03*
X22539Y-27559D03*
X22539Y-28740D03*
X22539Y-27952D03*
X22539Y-28346D03*
X21555Y-28346D03*
X21555Y-27952D03*
X21555Y-28740D03*
X21555Y-27559D03*
X21555Y-29133D03*
X21555Y-39370D03*
X21555Y-40944D03*
X21555Y-39763D03*
X21555Y-40551D03*
X21555Y-40157D03*
X22539Y-40157D03*
X22539Y-40551D03*
X22539Y-39763D03*
X22539Y-40944D03*
X22539Y-39370D03*
X12401Y-41948D03*
X13976Y-41948D03*
X12795Y-41948D03*
X13582Y-41948D03*
X13188Y-41948D03*
X13188Y-40964D03*
X13582Y-40964D03*
X12795Y-40964D03*
X13976Y-40964D03*
X12401Y-40964D03*
X30118Y-41948D03*
X31692Y-41948D03*
X30511Y-41948D03*
X31299Y-41948D03*
X30905Y-41948D03*
X30905Y-40964D03*
X31299Y-40964D03*
X30511Y-40964D03*
X31692Y-40964D03*
X30118Y-40964D03*
X41929Y-41948D03*
X43503Y-41948D03*
X42322Y-41948D03*
X43110Y-41948D03*
X42716Y-41948D03*
X42716Y-40964D03*
X43110Y-40964D03*
X42322Y-40964D03*
X43503Y-40964D03*
X41929Y-40964D03*
G54D20*
X34251Y-49645D03*
G54D21*
X34744Y-53385D03*
X34744Y-51811D03*
X34744Y-52992D03*
X34744Y-52204D03*
X34744Y-52598D03*
X33759Y-52598D03*
X33759Y-52204D03*
X33759Y-52992D03*
X33759Y-51811D03*
X33759Y-53385D03*
G54D22*
X38503Y-48503D03*
G54D21*
X40669Y-48996D03*
X42244Y-48996D03*
X41062Y-48996D03*
X41850Y-48996D03*
X41456Y-48996D03*
X41456Y-48011D03*
X41850Y-48011D03*
X41062Y-48011D03*
X42244Y-48011D03*
X40669Y-48011D03*
G54D22*
X44409Y-48503D03*
G54D20*
X44448Y-52755D03*
G54D21*
X44940Y-56496D03*
X44940Y-54921D03*
X44940Y-56102D03*
X44940Y-55314D03*
X44940Y-55708D03*
X43956Y-55708D03*
X43956Y-55314D03*
X43956Y-56102D03*
X43956Y-54921D03*
X43956Y-56496D03*
G54D20*
X22047Y-37204D03*
G54D23*
X44448Y-45236D03*
G54D21*
X44940Y-44055D03*
X44940Y-42480D03*
X44940Y-43661D03*
X44940Y-42874D03*
X44940Y-43267D03*
X43956Y-43267D03*
X43956Y-42874D03*
X43956Y-43661D03*
X43956Y-42480D03*
X43956Y-44055D03*
X42972Y-28582D03*
X42972Y-27007D03*
X42972Y-28188D03*
X42972Y-27401D03*
X42972Y-27795D03*
X41988Y-27795D03*
X41988Y-27401D03*
X41988Y-28188D03*
X41988Y-27007D03*
X41988Y-28582D03*
X34744Y-40944D03*
X34744Y-39370D03*
X34744Y-40551D03*
X34744Y-39763D03*
X34744Y-40157D03*
X33759Y-40157D03*
X33759Y-39763D03*
X33759Y-40551D03*
X33759Y-39370D03*
X33759Y-40944D03*
X34744Y-33070D03*
X34744Y-31496D03*
X34744Y-32677D03*
X34744Y-31889D03*
X34744Y-32283D03*
X33759Y-32283D03*
X33759Y-31889D03*
X33759Y-32677D03*
X33759Y-31496D03*
X33759Y-33070D03*
G54D20*
X34251Y-29330D03*
G54D21*
X36338Y-28602D03*
X34763Y-28602D03*
X35944Y-28602D03*
X35157Y-28602D03*
X35551Y-28602D03*
X35551Y-29586D03*
X35157Y-29586D03*
X35944Y-29586D03*
X34763Y-29586D03*
X36338Y-29586D03*
G54D23*
X34251Y-38188D03*
G54D21*
X34744Y-37007D03*
X34744Y-35433D03*
X34744Y-36614D03*
X34744Y-35826D03*
X34744Y-36220D03*
X33759Y-36220D03*
X33759Y-35826D03*
X33759Y-36614D03*
X33759Y-35433D03*
X33759Y-37007D03*
G54D23*
X34251Y-34251D03*
G54D21*
X34744Y-27165D03*
X34744Y-25590D03*
X34744Y-26771D03*
X34744Y-25984D03*
X34744Y-26377D03*
X33759Y-26377D03*
X33759Y-25984D03*
X33759Y-26771D03*
X33759Y-25590D03*
X33759Y-27165D03*
G54D22*
X42440Y-29094D03*
G54D21*
X38700Y-29586D03*
X40275Y-29586D03*
X39094Y-29586D03*
X39881Y-29586D03*
X39488Y-29586D03*
X39488Y-28602D03*
X39881Y-28602D03*
X39094Y-28602D03*
X40275Y-28602D03*
X38700Y-28602D03*
G54D24*
X37519Y-29094D03*
G54D21*
X44606Y-29586D03*
X45000Y-29586D03*
X45787Y-29586D03*
X45393Y-29586D03*
X45393Y-28602D03*
X45787Y-28602D03*
X45000Y-28602D03*
X46181Y-28602D03*
X44606Y-28602D03*
G54D23*
X42480Y-25826D03*
G54D21*
X42972Y-24645D03*
X42972Y-24251D03*
X42972Y-23858D03*
X41988Y-23858D03*
X41988Y-23464D03*
X41988Y-24251D03*
X41988Y-24645D03*
X22539Y-35039D03*
X22539Y-33464D03*
X22539Y-34645D03*
X22539Y-33858D03*
X22539Y-34251D03*
X21555Y-34251D03*
X21555Y-33858D03*
X21555Y-34645D03*
X21555Y-33464D03*
X21555Y-35039D03*
G54D20*
X22047Y-31299D03*
G54D22*
X17795Y-30078D03*
G54D21*
X14055Y-30570D03*
X15629Y-30570D03*
X14448Y-30570D03*
X15236Y-30570D03*
X14842Y-30570D03*
X14842Y-29586D03*
X15236Y-29586D03*
X14448Y-29586D03*
X15629Y-29586D03*
X14055Y-29586D03*
G54D23*
X22047Y-26377D03*
G54D21*
X22539Y-25196D03*
X21555Y-24409D03*
X21555Y-24015D03*
X21555Y-24803D03*
X21555Y-23622D03*
X21555Y-25196D03*
M02*
