M48
;DRILL file {Pcbnew (2013-may-18)-stable} date Wed 26 Feb 2014 10:24:43 PM CET

;FORMAT={2:4/ absolute / inch / keep zeros}

FMAT,2

INCH,TZ

T1C0.020
T2C0.025
T3C0.030
T4C0.035
T5C0.039
T6C0.040
T7C0.047
T8C0.051
T9C0.063
%
G90
G05
M72
T1
X035464Y-025313

X035464Y-025746

T2
X012323Y-038110

X012323Y-040236

X012913Y-048465

X013189Y-049291

X013346Y-033701

X013622Y-031850

X013740Y-035039

X014213Y-031693

X014370Y-033780

X014409Y-031220

X014803Y-050433

X014803Y-051850

X014882Y-035827

X015079Y-030945

X015276Y-051772

X015512Y-026614

X015512Y-052480

X015591Y-045512

X015669Y-030984

X015669Y-053504

X015906Y-025551

X015945Y-026063

X015945Y-035827

X016024Y-051220

X016220Y-056299

X016339Y-026575

X016614Y-033504

X016614Y-046654

X016890Y-026181

X016929Y-031102

X017008Y-031811

X017087Y-035039

X017205Y-032441

X017441Y-025118

X017992Y-045276

X018031Y-046496

X018189Y-053386

X018228Y-027992

X018386Y-038110

X018386Y-040276

X018583Y-026299

X018976Y-051732

X019173Y-046142

X019528Y-045276

X020039Y-024055

X024055Y-057008

X024094Y-043189

X025236Y-045512

X025276Y-048543

X025512Y-050512

X025551Y-054331

X025669Y-051024

X025984Y-051378

X026220Y-047992

X026654Y-046024

X026811Y-051811

X026811Y-052795

X026850Y-046535

X026969Y-040236

X026969Y-047638

X027205Y-049764

X027244Y-052362

X028031Y-046732

X028031Y-050394

X028425Y-034961

X028465Y-046417

X028661Y-044134

X028780Y-052205

X028819Y-047283

X029173Y-050866

X029528Y-055079

X029528Y-057323

X029567Y-038976

X029567Y-045236

X029764Y-034921

X030512Y-045591

X030591Y-052205

X031457Y-044488

X032283Y-042441

X032598Y-052717

X036024Y-053504

X036063Y-050906

X036417Y-054843

X037205Y-053465

X038268Y-050591

X038425Y-032047

X038425Y-032520

X038425Y-032992

X038465Y-049252

X038583Y-052008

X038622Y-044567

X038780Y-053819

X038858Y-036654

X038937Y-052480

X039370Y-050945

X039409Y-051732

X039685Y-049449

X039685Y-050472

X040000Y-045433

X040197Y-036614

X040787Y-035472

X040787Y-036614

X041693Y-053150

X041772Y-050591

X042362Y-052677

X042992Y-044055

X045354Y-046417

X045709Y-049252

X048819Y-046417

T3
X019300Y-053639

X019300Y-055561

X032010Y-053639

X032010Y-055561

X036877Y-033898

X036877Y-035820

T4
X024902Y-031496

X024902Y-033465

X028445Y-029035

X028445Y-031004

X031791Y-031398

X031791Y-033366

X014521Y-039143

X016253Y-039143

X025844Y-056200

X027576Y-056200

X036700Y-044612

X036700Y-046344

X038101Y-056246

X039833Y-056246

T5
X015014Y-022408

X015014Y-023408

X016014Y-022408

X016014Y-023408

X017000Y-042500

X017000Y-043500

X017014Y-022408

X017014Y-023408

X018000Y-042500

X018000Y-043500

X019000Y-042500

X019000Y-043500

X024610Y-048500

X024610Y-049500

X024610Y-050500

X029110Y-042500

X029110Y-043500

X030110Y-042500

X030110Y-043500

X031110Y-042500

X031110Y-043500

X031931Y-035971

X031931Y-036971

X031931Y-037971

X041264Y-025029

X041264Y-026029

X041264Y-027029

X046063Y-047417

X047063Y-047417

X048063Y-047417

X013815Y-043000

X015585Y-043000

X020614Y-025423

X020614Y-027193

X025725Y-043000

X027495Y-043000

T6
X010987Y-031043

X010987Y-032043

X010987Y-033043

X010987Y-034043

X010987Y-035043

X010987Y-036043

X011000Y-042500

X011000Y-043500

X011000Y-044500

X011000Y-045500

X011000Y-046500

X011000Y-047500

X011000Y-048500

X011000Y-049500

X011000Y-050500

X011000Y-051500

X011000Y-052500

X011000Y-053500

X011000Y-054500

X011000Y-055500

X011000Y-056500

X011000Y-057500

X012514Y-028908

X013514Y-028908

X014514Y-028908

X015514Y-028908

X016514Y-028908

X017514Y-028908

X018514Y-028908

X019514Y-028908

X019987Y-031043

X019987Y-032043

X019987Y-033043

X019987Y-034043

X019987Y-035043

X019987Y-036043

X021000Y-042500

X021000Y-043500

X021000Y-044500

X021000Y-045500

X021000Y-046500

X021000Y-047500

X021000Y-048500

X021000Y-049500

X021000Y-050500

X021000Y-051500

X021000Y-052500

X021000Y-053500

X021000Y-054500

X021000Y-055500

X021000Y-056500

X021000Y-057500

X023110Y-042500

X023110Y-043500

X023110Y-044500

X023110Y-045500

X023110Y-046500

X023110Y-047500

X023110Y-048500

X023110Y-049500

X023110Y-050500

X023110Y-051500

X023110Y-052500

X023110Y-053500

X023110Y-054500

X023110Y-055500

X023110Y-056500

X023110Y-057500

X033110Y-042500

X033110Y-043500

X033110Y-044500

X033110Y-045500

X033110Y-046500

X033110Y-047500

X033110Y-048500

X033110Y-049500

X035367Y-049546

X035367Y-050546

X035367Y-051546

X035367Y-052546

X035367Y-053546

X035367Y-054546

X036477Y-031259

X036477Y-039259

X037264Y-028029

X037477Y-031259

X037477Y-039259

X038264Y-028029

X038477Y-031259

X038477Y-039259

X039000Y-042378

X039000Y-043378

X039477Y-031259

X039477Y-039259

X040477Y-031259

X040477Y-039259

X041477Y-031259

X041477Y-039259

X042000Y-046378

X042477Y-031259

X042477Y-039259

X043000Y-042378

X043000Y-043378

X043000Y-046378

X043367Y-049546

X043367Y-050546

X043367Y-051546

X043367Y-052546

X043367Y-053546

X043367Y-054546

X043477Y-031259

X043477Y-039259

X043724Y-024819

X043724Y-025819

X043724Y-026819

X043724Y-027819

X047683Y-049784

X047683Y-055784

X048683Y-049784

X048683Y-055784

X048924Y-024819

X048924Y-025819

X048924Y-026819

X048924Y-027819

T7
X015394Y-032638

X025042Y-026571

X026420Y-026571

X028042Y-026571

X028898Y-036969

X029420Y-026571

X031142Y-026571

X032520Y-026571

X039488Y-034843

T8
X023690Y-037171

X025658Y-035202

X025658Y-036187

X025658Y-038155

X025658Y-039139

X013320Y-043980

X016080Y-043980

X019634Y-024928

X019634Y-027688

X025230Y-043980

X027990Y-043980

T9
X023690Y-035202

X023690Y-039139

X025658Y-037171

T0
M30
