M48
;DRILL file {Pcbnew (2013-may-18)-stable} date Mon 24 Feb 2014 10:43:02 PM CET

;FORMAT={2:4/ absolute / inch / keep zeros}

FMAT,2

INCH,TZ

T1C0.020
T2C0.025
T3C0.030
T4C0.035
T5C0.039
T6C0.040
T7C0.047
T8C0.051
T9C0.063
T10C0.079
%
G90
G05
M72
T1
X035464Y-025313

X035464Y-025746

X012402Y-040965

X012402Y-041949

X012795Y-040965

X012795Y-041949

X013189Y-040965

X013189Y-041949

X013583Y-040965

X013583Y-041949

X013976Y-040965

X013976Y-041949

X014055Y-029587

X014055Y-030571

X014449Y-029587

X014449Y-030571

X014843Y-029587

X014843Y-030571

X015236Y-029587

X015236Y-030571

X015630Y-029587

X015630Y-030571

X018307Y-040965

X018307Y-041949

X018701Y-040965

X018701Y-041949

X019094Y-040965

X019094Y-041949

X019488Y-040965

X019488Y-041949

X019882Y-040965

X019882Y-041949

X019961Y-029587

X019961Y-030571

X020354Y-029587

X020354Y-030571

X020748Y-029587

X020748Y-030571

X021142Y-029587

X021142Y-030571

X021535Y-029587

X021535Y-030571

X021555Y-023622

X021555Y-024016

X021555Y-024409

X021555Y-024803

X021555Y-025197

X021555Y-027559

X021555Y-027953

X021555Y-028346

X021555Y-028740

X021555Y-029134

X021555Y-033465

X021555Y-033858

X021555Y-034252

X021555Y-034646

X021555Y-035039

X021555Y-039370

X021555Y-039764

X021555Y-040157

X021555Y-040551

X021555Y-040945

X021555Y-041969

X021555Y-042362

X021555Y-042756

X021555Y-043150

X021555Y-043543

X021555Y-047874

X021555Y-048268

X021555Y-048661

X021555Y-049055

X021555Y-049449

X021555Y-053780

X021555Y-054173

X021555Y-054567

X021555Y-054961

X021555Y-055354

X022539Y-025197

X022539Y-027559

X022539Y-027953

X022539Y-028346

X022539Y-028740

X022539Y-029134

X022539Y-033465

X022539Y-033858

X022539Y-034252

X022539Y-034646

X022539Y-035039

X022539Y-039370

X022539Y-039764

X022539Y-040157

X022539Y-040551

X022539Y-040945

X022539Y-041969

X022539Y-042362

X022539Y-042756

X022539Y-043150

X022539Y-043543

X022539Y-047874

X022539Y-048268

X022539Y-048661

X022539Y-049055

X022539Y-049449

X022539Y-053780

X022539Y-054173

X022539Y-054567

X022539Y-054961

X022539Y-055354

X024213Y-040965

X024213Y-041949

X024606Y-040965

X024606Y-041949

X025000Y-040965

X025000Y-041949

X025394Y-040965

X025394Y-041949

X025787Y-040965

X025787Y-041949

X030118Y-040965

X030118Y-041949

X030512Y-040965

X030512Y-041949

X030906Y-040965

X030906Y-041949

X031299Y-040965

X031299Y-041949

X031693Y-040965

X031693Y-041949

X033760Y-025591

X033760Y-025984

X033760Y-026378

X033760Y-026772

X033760Y-027165

X033760Y-031496

X033760Y-031890

X033760Y-032283

X033760Y-032677

X033760Y-033071

X033760Y-035433

X033760Y-035827

X033760Y-036220

X033760Y-036614

X033760Y-037008

X033760Y-039370

X033760Y-039764

X033760Y-040157

X033760Y-040551

X033760Y-040945

X033760Y-041969

X033760Y-042362

X033760Y-042756

X033760Y-043150

X033760Y-043543

X033760Y-045906

X033760Y-046299

X033760Y-046693

X033760Y-047087

X033760Y-047480

X033760Y-051811

X033760Y-052205

X033760Y-052598

X033760Y-052992

X033760Y-053386

X034744Y-025591

X034744Y-025984

X034744Y-026378

X034744Y-026772

X034744Y-027165

X034744Y-031496

X034744Y-031890

X034744Y-032283

X034744Y-032677

X034744Y-033071

X034744Y-035433

X034744Y-035827

X034744Y-036220

X034744Y-036614

X034744Y-037008

X034744Y-039370

X034744Y-039764

X034744Y-040157

X034744Y-040551

X034744Y-040945

X034744Y-041969

X034744Y-042362

X034744Y-042756

X034744Y-043150

X034744Y-043543

X034744Y-045906

X034744Y-046299

X034744Y-046693

X034744Y-047087

X034744Y-047480

X034744Y-051811

X034744Y-052205

X034744Y-052598

X034744Y-052992

X034744Y-053386

X034764Y-028602

X034764Y-029587

X034764Y-048012

X034764Y-048996

X035157Y-028602

X035157Y-029587

X035157Y-048012

X035157Y-048996

X035551Y-028602

X035551Y-029587

X035551Y-048012

X035551Y-048996

X035945Y-028602

X035945Y-029587

X035945Y-048012

X035945Y-048996

X036024Y-040965

X036024Y-041949

X036339Y-028602

X036339Y-029587

X036339Y-048012

X036339Y-048996

X036417Y-040965

X036417Y-041949

X036811Y-040965

X036811Y-041949

X037205Y-040965

X037205Y-041949

X037598Y-040965

X037598Y-041949

X038701Y-028602

X038701Y-029587

X039094Y-028602

X039094Y-029587

X039488Y-028602

X039488Y-029587

X039882Y-028602

X039882Y-029587

X040276Y-028602

X040276Y-029587

X040669Y-048012

X040669Y-048996

X041063Y-048012

X041063Y-048996

X041457Y-048012

X041457Y-048996

X041850Y-048012

X041850Y-048996

X041929Y-040965

X041929Y-041949

X041988Y-023465

X041988Y-023858

X041988Y-024252

X041988Y-024646

X041988Y-027008

X041988Y-027402

X041988Y-027795

X041988Y-028189

X041988Y-028583

X042244Y-048012

X042244Y-048996

X042323Y-040965

X042323Y-041949

X042717Y-040965

X042717Y-041949

X042972Y-023858

X042972Y-024252

X042972Y-024646

X042972Y-027008

X042972Y-027402

X042972Y-027795

X042972Y-028189

X042972Y-028583

X043110Y-040965

X043110Y-041949

X043504Y-040965

X043504Y-041949

X043957Y-042480

X043957Y-042874

X043957Y-043268

X043957Y-043661

X043957Y-044055

X043957Y-046417

X043957Y-046811

X043957Y-047205

X043957Y-047598

X043957Y-047992

X043957Y-049016

X043957Y-049409

X043957Y-049803

X043957Y-050197

X043957Y-050591

X043957Y-054921

X043957Y-055315

X043957Y-055709

X043957Y-056102

X043957Y-056496

X044606Y-028602

X044606Y-029587

X044941Y-042480

X044941Y-042874

X044941Y-043268

X044941Y-043661

X044941Y-044055

X044941Y-046417

X044941Y-046811

X044941Y-047205

X044941Y-047598

X044941Y-047992

X044941Y-049016

X044941Y-049409

X044941Y-049803

X044941Y-050197

X044941Y-050591

X044941Y-054921

X044941Y-055315

X044941Y-055709

X044941Y-056102

X044941Y-056496

X045000Y-028602

X045000Y-029587

X045394Y-028602

X045394Y-029587

X045787Y-028602

X045787Y-029587

X046181Y-028602

X046575Y-048012

X046575Y-048996

X046969Y-048012

X046969Y-048996

X047362Y-048012

X047362Y-048996

X047756Y-048012

X047756Y-048996

X048150Y-048012

X048150Y-048996

T2
X012323Y-038110

X012323Y-040236

X012913Y-048465

X013189Y-049291

X013346Y-033701

X013622Y-031850

X013740Y-035039

X014213Y-031693

X014370Y-033780

X014409Y-031220

X014803Y-050433

X014803Y-051850

X014882Y-035827

X015079Y-030945

X015276Y-051772

X015512Y-026614

X015512Y-052480

X015591Y-045512

X015669Y-030984

X015669Y-053504

X015906Y-025551

X015945Y-026063

X015945Y-035827

X016024Y-051220

X016220Y-056299

X016339Y-026575

X016614Y-033504

X016614Y-046654

X016890Y-026181

X016929Y-031102

X017008Y-031811

X017087Y-035039

X017205Y-032441

X017441Y-025118

X017992Y-045276

X018031Y-046496

X018189Y-053386

X018228Y-027992

X018386Y-038110

X018386Y-040276

X018583Y-026299

X018976Y-051732

X019173Y-046142

X019528Y-045276

X020039Y-024055

X024055Y-057008

X024094Y-043189

X025236Y-045512

X025276Y-048543

X025512Y-050512

X025551Y-054331

X025669Y-051024

X025984Y-051378

X026220Y-047992

X026654Y-046024

X026811Y-051811

X026811Y-052795

X026850Y-046535

X026969Y-040236

X026969Y-047638

X027205Y-049764

X027244Y-052362

X028031Y-046732

X028031Y-050394

X028425Y-034961

X028465Y-046417

X028661Y-044134

X028780Y-052205

X028819Y-047283

X029173Y-050866

X029528Y-055079

X029528Y-057323

X029567Y-038976

X029567Y-045236

X029764Y-034921

X030512Y-045591

X030591Y-052205

X031457Y-044488

X032283Y-042441

X032598Y-052717

X036024Y-053504

X036063Y-050906

X036417Y-054843

X037205Y-053465

X038268Y-050591

X038425Y-032047

X038425Y-032520

X038425Y-032992

X038465Y-049252

X038583Y-052008

X038622Y-044567

X038780Y-053819

X038858Y-036654

X038937Y-052480

X039370Y-050945

X039409Y-051732

X039685Y-049449

X039685Y-050472

X040000Y-045433

X040197Y-036614

X040787Y-035472

X040787Y-036614

X041693Y-053150

X041772Y-050591

X042362Y-052677

X042992Y-044055

X045354Y-046417

X045709Y-049252

X048819Y-046417

T3
X019300Y-053639

X019300Y-055561

X032010Y-053639

X032010Y-055561

X036877Y-033898

X036877Y-035820

T4
X024902Y-031496

X024902Y-033465

X028445Y-029035

X028445Y-031004

X031791Y-031398

X031791Y-033366

X014521Y-039143

X016253Y-039143

X025844Y-056200

X027576Y-056200

X036700Y-044612

X036700Y-046344

X038101Y-056246

X039833Y-056246

T5
X015014Y-022408

X015014Y-023408

X016014Y-022408

X016014Y-023408

X017000Y-042500

X017000Y-043500

X017014Y-022408

X017014Y-023408

X018000Y-042500

X018000Y-043500

X019000Y-042500

X019000Y-043500

X024610Y-048500

X024610Y-049500

X024610Y-050500

X029110Y-042500

X029110Y-043500

X030110Y-042500

X030110Y-043500

X031110Y-042500

X031110Y-043500

X031931Y-035971

X031931Y-036971

X031931Y-037971

X041264Y-025029

X041264Y-026029

X041264Y-027029

X046063Y-047417

X047063Y-047417

X048063Y-047417

X013815Y-043000

X015585Y-043000

X020614Y-025423

X020614Y-027193

X025725Y-043000

X027495Y-043000

T6
X010987Y-031043

X010987Y-032043

X010987Y-033043

X010987Y-034043

X010987Y-035043

X010987Y-036043

X011000Y-042500

X011000Y-043500

X011000Y-044500

X011000Y-045500

X011000Y-046500

X011000Y-047500

X011000Y-048500

X011000Y-049500

X011000Y-050500

X011000Y-051500

X011000Y-052500

X011000Y-053500

X011000Y-054500

X011000Y-055500

X011000Y-056500

X011000Y-057500

X012514Y-028908

X013514Y-028908

X014514Y-028908

X015514Y-028908

X016514Y-028908

X017514Y-028908

X018514Y-028908

X019514Y-028908

X019987Y-031043

X019987Y-032043

X019987Y-033043

X019987Y-034043

X019987Y-035043

X019987Y-036043

X021000Y-042500

X021000Y-043500

X021000Y-044500

X021000Y-045500

X021000Y-046500

X021000Y-047500

X021000Y-048500

X021000Y-049500

X021000Y-050500

X021000Y-051500

X021000Y-052500

X021000Y-053500

X021000Y-054500

X021000Y-055500

X021000Y-056500

X021000Y-057500

X023110Y-042500

X023110Y-043500

X023110Y-044500

X023110Y-045500

X023110Y-046500

X023110Y-047500

X023110Y-048500

X023110Y-049500

X023110Y-050500

X023110Y-051500

X023110Y-052500

X023110Y-053500

X023110Y-054500

X023110Y-055500

X023110Y-056500

X023110Y-057500

X033110Y-042500

X033110Y-043500

X033110Y-044500

X033110Y-045500

X033110Y-046500

X033110Y-047500

X033110Y-048500

X033110Y-049500

X035367Y-049546

X035367Y-050546

X035367Y-051546

X035367Y-052546

X035367Y-053546

X035367Y-054546

X036477Y-031259

X036477Y-039259

X037264Y-028029

X037477Y-031259

X037477Y-039259

X038264Y-028029

X038477Y-031259

X038477Y-039259

X039000Y-042378

X039000Y-043378

X039477Y-031259

X039477Y-039259

X040477Y-031259

X040477Y-039259

X041477Y-031259

X041477Y-039259

X042000Y-046378

X042477Y-031259

X042477Y-039259

X043000Y-042378

X043000Y-043378

X043000Y-046378

X043367Y-049546

X043367Y-050546

X043367Y-051546

X043367Y-052546

X043367Y-053546

X043367Y-054546

X043477Y-031259

X043477Y-039259

X043724Y-024819

X043724Y-025819

X043724Y-026819

X043724Y-027819

X047683Y-049784

X047683Y-055784

X048683Y-049784

X048683Y-055784

X048924Y-024819

X048924Y-025819

X048924Y-026819

X048924Y-027819

T7
X015394Y-032638

X025042Y-026571

X026420Y-026571

X028042Y-026571

X028898Y-036969

X029420Y-026571

X031142Y-026571

X032520Y-026571

X039488Y-034843

T8
X023690Y-037171

X025658Y-035202

X025658Y-036187

X025658Y-038155

X025658Y-039139

X013320Y-043980

X016080Y-043980

X019634Y-024928

X019634Y-027688

X025230Y-043980

X027990Y-043980

T9
X023690Y-035202

X023690Y-039139

X025658Y-037171

T10
X017717Y-041457G85X014567Y-041457

G05

X016220Y-030079G85X019370Y-030079

G05

X022047Y-026969G85X022047Y-025787

G05

X022047Y-032874G85X022047Y-029724

G05

X022047Y-038780G85X022047Y-035630

G05

X020472Y-041457G85X023622Y-041457

G05

X022047Y-047283G85X022047Y-044134

G05

X022047Y-053189G85X022047Y-050039

G05

X026378Y-041457G85X029528Y-041457

G05

X032283Y-041457G85X035433Y-041457

G05

X034252Y-030906G85X034252Y-027756

G05

X034252Y-034843G85X034252Y-033661

G05

X034252Y-038780G85X034252Y-037598

G05

X034252Y-045315G85X034252Y-044134

G05

X034252Y-051220G85X034252Y-048071

G05

X036929Y-029094G85X038110Y-029094

G05

X036929Y-048504G85X040079Y-048504

G05

X038189Y-041457G85X041339Y-041457

G05

X040866Y-029094G85X044016Y-029094

G05

X042480Y-026417G85X042480Y-025236

G05

X042835Y-048504G85X045984Y-048504

G05

X044449Y-045827G85X044449Y-044646

G05

X044449Y-054331G85X044449Y-051181

G05

T0
M30
