G04 (created by PCBNEW (2013-may-18)-stable) date Tue 25 Feb 2014 10:12:37 PM CET*
%MOIN*%
G04 Gerber Fmt 3.4, Leading zero omitted, Abs format*
%FSLAX34Y34*%
G01*
G70*
G90*
G04 APERTURE LIST*
%ADD10C,0.00590551*%
%ADD11R,0.0393701X0.149606*%
%ADD12R,0.0393701X0.133858*%
%ADD13R,0.133858X0.0393701*%
%ADD14R,0.0393701X0.125984*%
%ADD15R,0.149606X0.0393701*%
%ADD16R,0.055X0.035*%
%ADD17R,0.035X0.055*%
%ADD18C,0.0511811*%
%ADD19R,0.0472X0.0472*%
%ADD20R,0.0472441X0.0472441*%
%ADD21R,0.038189X0.0255906*%
%ADD22R,0.0866142X0.019685*%
%ADD23R,0.0984X0.0787*%
%ADD24R,0.0886X0.0197*%
%ADD25C,0.0394*%
%ADD26R,0.0787X0.0984*%
%ADD27R,0.0197X0.0886*%
%ADD28R,0.159843X0.0598425*%
%ADD29C,0.0629921*%
%ADD30C,0.0787402*%
%ADD31R,0.06X0.06*%
%ADD32C,0.06*%
%ADD33R,0.0866142X0.0551181*%
%ADD34C,0.062*%
%ADD35R,0.0866142X0.015748*%
%ADD36R,0.0177165X0.0590551*%
%ADD37R,0.023622X0.0787402*%
%ADD38R,0.144X0.08*%
%ADD39R,0.04X0.08*%
%ADD40R,0.0787402X0.011811*%
%ADD41R,0.011811X0.0787402*%
%ADD42R,0.0610236X0.023622*%
%ADD43C,0.056*%
%ADD44C,0.0314961*%
%ADD45R,0.025X0.045*%
%ADD46R,0.045X0.025*%
%ADD47O,0.0787402X0.393701*%
%ADD48C,0.019685*%
%ADD49O,0.393701X0.0787402*%
%ADD50O,0.0787402X0.19685*%
%ADD51O,0.19685X0.0787402*%
G04 APERTURE END LIST*
G54D10*
X49606Y-56771D02*
X49606Y-48897D01*
X44055Y-56771D02*
X44055Y-57086D01*
X44842Y-56771D02*
X44055Y-56771D01*
X49606Y-56771D02*
X44842Y-56771D01*
X43385Y-23858D02*
X49606Y-23858D01*
X42874Y-23346D02*
G75*
G03X43385Y-23858I511J0D01*
G74*
G01*
X44133Y-41062D02*
X44094Y-41062D01*
X44094Y-41062D02*
G75*
G03X43700Y-41456I0J-393D01*
G74*
G01*
X43700Y-41456D02*
G75*
G03X44094Y-41850I393J0D01*
G74*
G01*
X44842Y-41850D02*
X44094Y-41850D01*
X21653Y-55984D02*
X21653Y-55944D01*
X22440Y-55984D02*
X22440Y-55944D01*
X22440Y-55944D02*
G75*
G03X22047Y-55551I-393J0D01*
G74*
G01*
X22047Y-55551D02*
G75*
G03X21653Y-55944I0J-393D01*
G74*
G01*
X34645Y-54015D02*
X34645Y-53976D01*
X33858Y-54015D02*
X33858Y-53976D01*
X34645Y-53976D02*
G75*
G03X34251Y-53582I-393J0D01*
G74*
G01*
X34251Y-53582D02*
G75*
G03X33858Y-53976I0J-393D01*
G74*
G01*
X44055Y-57125D02*
X44055Y-57086D01*
X10236Y-41850D02*
X10236Y-58070D01*
X11811Y-41850D02*
X10236Y-41850D01*
X11771Y-41062D02*
X11692Y-41062D01*
X12204Y-41417D02*
G75*
G03X11771Y-41062I-393J-39D01*
G74*
G01*
X11811Y-41850D02*
G75*
G03X12204Y-41456I0J393D01*
G74*
G01*
X10236Y-41062D02*
X11692Y-41062D01*
X10236Y-30472D02*
X10236Y-41062D01*
X13464Y-30472D02*
X10236Y-30472D01*
X12480Y-29685D02*
X13425Y-29685D01*
X13858Y-30039D02*
G75*
G03X13425Y-29685I-393J-39D01*
G74*
G01*
X13464Y-30472D02*
G75*
G03X13858Y-30078I0J393D01*
G74*
G01*
X10236Y-29685D02*
X12480Y-29685D01*
X10236Y-21614D02*
X10236Y-29685D01*
X21653Y-21614D02*
X10236Y-21614D01*
X21653Y-25000D02*
X21653Y-21614D01*
X33858Y-25000D02*
X21653Y-25000D01*
X34645Y-24685D02*
X34645Y-25000D01*
X33858Y-25000D02*
G75*
G03X34251Y-25393I393J0D01*
G74*
G01*
X34251Y-25393D02*
G75*
G03X34645Y-25000I0J393D01*
G74*
G01*
X34645Y-23346D02*
X34645Y-24685D01*
X42874Y-23346D02*
X34645Y-23346D01*
X49606Y-28700D02*
X49606Y-23858D01*
X46102Y-28700D02*
X46102Y-28740D01*
X49606Y-28700D02*
X46102Y-28700D01*
X46102Y-41062D02*
X46102Y-28700D01*
X44133Y-41062D02*
X46102Y-41062D01*
X49606Y-41850D02*
X44842Y-41850D01*
X49606Y-48110D02*
X49606Y-41850D01*
X48740Y-48110D02*
X49606Y-48110D01*
X49015Y-48897D02*
X48740Y-48897D01*
X48740Y-48110D02*
G75*
G03X48346Y-48503I0J-393D01*
G74*
G01*
X48346Y-48503D02*
G75*
G03X48740Y-48897I393J0D01*
G74*
G01*
X49606Y-48897D02*
X49015Y-48897D01*
X44055Y-57322D02*
X44055Y-57125D01*
X44055Y-58070D02*
X44055Y-57322D01*
X34645Y-58070D02*
X44055Y-58070D01*
X34645Y-54015D02*
X34645Y-58070D01*
X33858Y-54015D02*
X33858Y-58070D01*
X22440Y-58070D02*
X33858Y-58070D01*
X22440Y-55984D02*
X22440Y-58070D01*
X21653Y-55984D02*
X21653Y-58070D01*
X10236Y-58070D02*
X21653Y-58070D01*
G54D11*
X35419Y-32916D03*
X35419Y-35278D03*
X35419Y-37641D03*
G54D12*
X35419Y-30593D03*
G54D13*
X35892Y-30121D03*
X35892Y-40396D03*
G54D14*
X35419Y-39924D03*
G54D15*
X38215Y-30121D03*
X40577Y-30121D03*
X42939Y-30121D03*
G54D13*
X45223Y-30121D03*
G54D15*
X38215Y-40436D03*
X40577Y-40396D03*
X42939Y-40396D03*
G54D13*
X45223Y-40396D03*
G54D12*
X45695Y-30593D03*
G54D11*
X45695Y-32916D03*
X45695Y-37641D03*
G54D12*
X45695Y-39924D03*
G54D16*
X42000Y-42502D03*
X42000Y-43252D03*
X41266Y-51721D03*
X41266Y-50971D03*
X42266Y-51721D03*
X42266Y-50971D03*
G54D17*
X38241Y-53846D03*
X37491Y-53846D03*
X39491Y-53846D03*
X40241Y-53846D03*
G54D16*
X38966Y-50321D03*
X38966Y-49571D03*
G54D17*
X38852Y-37258D03*
X38102Y-37258D03*
X38852Y-38258D03*
X38102Y-38258D03*
X43852Y-32508D03*
X44602Y-32508D03*
X40102Y-38008D03*
X40852Y-38008D03*
G54D16*
X41727Y-35133D03*
X41727Y-34383D03*
X43227Y-35133D03*
X43227Y-34383D03*
G54D17*
X42102Y-38008D03*
X42852Y-38008D03*
X45708Y-55783D03*
X46458Y-55783D03*
X45708Y-51983D03*
X46458Y-51983D03*
X46458Y-49883D03*
X45708Y-49883D03*
X47487Y-46417D03*
X48237Y-46417D03*
X46637Y-46417D03*
X45887Y-46417D03*
G54D16*
X16200Y-54825D03*
X16200Y-55575D03*
X14900Y-54825D03*
X14900Y-55575D03*
X17559Y-54115D03*
X17559Y-53365D03*
X17559Y-55571D03*
X17559Y-54821D03*
G54D17*
X31632Y-51929D03*
X32382Y-51929D03*
G54D16*
X27710Y-53325D03*
X27710Y-54075D03*
X25410Y-51825D03*
X25410Y-52575D03*
X30410Y-55475D03*
X30410Y-54725D03*
X30410Y-53775D03*
X30410Y-53025D03*
G54D17*
X15639Y-28007D03*
X16389Y-28007D03*
X46699Y-25018D03*
X45949Y-25018D03*
G54D16*
X17887Y-32867D03*
X17887Y-33617D03*
X18887Y-32867D03*
X18887Y-33617D03*
G54D17*
X14862Y-36542D03*
X14112Y-36542D03*
X15912Y-36542D03*
X16662Y-36542D03*
G54D16*
X12487Y-32867D03*
X12487Y-33617D03*
G54D17*
X28758Y-33858D03*
X29508Y-33858D03*
G54D18*
X24901Y-31496D03*
X24901Y-33464D03*
G54D16*
X28030Y-40245D03*
X28030Y-39495D03*
G54D18*
X28444Y-31003D03*
X28444Y-29035D03*
G54D16*
X27598Y-33601D03*
X27598Y-34351D03*
G54D18*
X31791Y-33366D03*
X31791Y-31397D03*
G54D17*
X29055Y-40170D03*
X29805Y-40170D03*
X35388Y-24429D03*
X36138Y-24429D03*
G54D16*
X35563Y-26554D03*
X35563Y-27304D03*
G54D17*
X38138Y-24429D03*
X37388Y-24429D03*
G54D19*
X36413Y-42577D03*
X35587Y-42577D03*
G54D20*
X40000Y-47429D03*
X40000Y-46326D03*
X41000Y-47429D03*
X41000Y-46326D03*
G54D19*
X40885Y-50157D03*
X40059Y-50157D03*
X37053Y-50246D03*
X37879Y-50246D03*
G54D21*
X48868Y-51183D03*
X47498Y-51183D03*
G54D19*
X14600Y-45913D03*
X14600Y-45087D03*
X12500Y-45913D03*
X12500Y-45087D03*
X26010Y-45913D03*
X26010Y-45087D03*
X24410Y-45913D03*
X24410Y-45087D03*
X19314Y-23194D03*
X19314Y-24020D03*
X12514Y-26220D03*
X12514Y-25394D03*
X18800Y-31942D03*
X17974Y-31942D03*
X12224Y-31929D03*
X13050Y-31929D03*
G54D22*
X14400Y-27057D03*
X14400Y-26557D03*
X14400Y-26057D03*
X14400Y-25557D03*
X17628Y-27057D03*
X17628Y-26557D03*
X17628Y-26057D03*
X17628Y-25557D03*
G54D23*
X35570Y-47229D03*
X37716Y-47229D03*
X35570Y-43725D03*
X37716Y-43725D03*
G54D24*
X37765Y-45477D03*
X37765Y-45792D03*
X37765Y-46107D03*
X37765Y-45162D03*
X37765Y-44847D03*
G54D25*
X36700Y-46343D03*
X36700Y-44611D03*
G54D26*
X40718Y-57376D03*
X40718Y-55230D03*
X37214Y-57376D03*
X37214Y-55230D03*
G54D27*
X38966Y-55181D03*
X39281Y-55181D03*
X39596Y-55181D03*
X38651Y-55181D03*
X38336Y-55181D03*
G54D25*
X39832Y-56246D03*
X38100Y-56246D03*
G54D28*
X45177Y-34258D03*
X45177Y-35258D03*
X45177Y-36258D03*
X45177Y-34258D03*
X45177Y-36258D03*
G54D26*
X28462Y-57330D03*
X28462Y-55184D03*
X24958Y-57330D03*
X24958Y-55184D03*
G54D27*
X26710Y-55135D03*
X27025Y-55135D03*
X27340Y-55135D03*
X26395Y-55135D03*
X26080Y-55135D03*
G54D25*
X27576Y-56200D03*
X25844Y-56200D03*
G54D26*
X17139Y-40272D03*
X17139Y-38126D03*
X13635Y-40272D03*
X13635Y-38126D03*
G54D27*
X15387Y-38077D03*
X15702Y-38077D03*
X16017Y-38077D03*
X15072Y-38077D03*
X14757Y-38077D03*
G54D25*
X16253Y-39142D03*
X14521Y-39142D03*
G54D29*
X23689Y-35202D03*
X23689Y-39139D03*
X25658Y-37170D03*
G54D30*
X23689Y-37170D03*
X25658Y-39139D03*
X25658Y-38155D03*
X25658Y-36186D03*
X25658Y-35202D03*
G54D31*
X48062Y-47417D03*
G54D32*
X47062Y-47417D03*
X46062Y-47417D03*
G54D31*
X24610Y-50500D03*
G54D32*
X24610Y-49500D03*
X24610Y-48500D03*
G54D31*
X31930Y-35970D03*
G54D32*
X31930Y-36970D03*
X31930Y-37970D03*
G54D31*
X41263Y-25029D03*
G54D32*
X41263Y-26029D03*
X41263Y-27029D03*
G54D17*
X42852Y-33258D03*
X42102Y-33258D03*
G54D16*
X41727Y-36133D03*
X41727Y-36883D03*
X43227Y-36133D03*
X43227Y-36883D03*
G54D33*
X48183Y-54587D03*
X48183Y-52579D03*
G54D31*
X43000Y-42377D03*
G54D32*
X43000Y-43377D03*
G54D31*
X39000Y-42377D03*
G54D32*
X39000Y-43377D03*
G54D31*
X42000Y-46377D03*
G54D32*
X43000Y-46377D03*
G54D31*
X35366Y-49546D03*
G54D32*
X35366Y-50546D03*
X35366Y-51546D03*
X35366Y-52546D03*
X35366Y-53546D03*
X35366Y-54546D03*
G54D31*
X43366Y-49546D03*
G54D32*
X43366Y-50546D03*
X43366Y-51546D03*
X43366Y-52546D03*
X43366Y-53546D03*
X43366Y-54546D03*
G54D31*
X43477Y-31258D03*
G54D32*
X42477Y-31258D03*
X41477Y-31258D03*
X40477Y-31258D03*
X39477Y-31258D03*
X38477Y-31258D03*
X37477Y-31258D03*
X36477Y-31258D03*
G54D31*
X43477Y-39258D03*
G54D32*
X42477Y-39258D03*
X41477Y-39258D03*
X40477Y-39258D03*
X39477Y-39258D03*
X38477Y-39258D03*
X37477Y-39258D03*
X36477Y-39258D03*
G54D31*
X47683Y-55783D03*
G54D32*
X48683Y-55783D03*
G54D31*
X47683Y-49783D03*
G54D32*
X48683Y-49783D03*
G54D31*
X11000Y-49500D03*
G54D32*
X11000Y-48500D03*
X11000Y-47500D03*
X11000Y-46500D03*
X11000Y-45500D03*
X11000Y-44500D03*
X11000Y-43500D03*
X11000Y-42500D03*
G54D31*
X21000Y-49500D03*
G54D32*
X21000Y-48500D03*
X21000Y-47500D03*
X21000Y-46500D03*
X21000Y-45500D03*
X21000Y-44500D03*
X21000Y-43500D03*
X21000Y-42500D03*
G54D31*
X11000Y-50500D03*
G54D32*
X11000Y-51500D03*
X11000Y-52500D03*
X11000Y-53500D03*
X11000Y-54500D03*
X11000Y-55500D03*
X11000Y-56500D03*
X11000Y-57500D03*
G54D31*
X21000Y-57500D03*
G54D32*
X21000Y-56500D03*
X21000Y-55500D03*
X21000Y-54500D03*
X21000Y-53500D03*
X21000Y-52500D03*
X21000Y-51500D03*
X21000Y-50500D03*
G54D31*
X19000Y-43500D03*
G54D32*
X18000Y-43500D03*
X17000Y-43500D03*
X19000Y-42500D03*
X18000Y-42500D03*
X17000Y-42500D03*
G54D31*
X23110Y-42500D03*
G54D32*
X23110Y-43500D03*
X23110Y-44500D03*
X23110Y-45500D03*
X23110Y-46500D03*
X23110Y-47500D03*
X23110Y-48500D03*
X23110Y-49500D03*
G54D31*
X23110Y-57500D03*
G54D32*
X23110Y-56500D03*
X23110Y-55500D03*
X23110Y-54500D03*
X23110Y-53500D03*
X23110Y-52500D03*
X23110Y-51500D03*
X23110Y-50500D03*
G54D31*
X33110Y-49500D03*
G54D32*
X33110Y-48500D03*
X33110Y-47500D03*
X33110Y-46500D03*
X33110Y-45500D03*
X33110Y-44500D03*
X33110Y-43500D03*
X33110Y-42500D03*
G54D31*
X31110Y-43500D03*
G54D32*
X30110Y-43500D03*
X29110Y-43500D03*
X31110Y-42500D03*
X30110Y-42500D03*
X29110Y-42500D03*
G54D31*
X12514Y-28907D03*
G54D32*
X13514Y-28907D03*
X14514Y-28907D03*
X15514Y-28907D03*
X16514Y-28907D03*
X17514Y-28907D03*
X18514Y-28907D03*
X19514Y-28907D03*
G54D31*
X17014Y-23407D03*
G54D32*
X16014Y-23407D03*
X15014Y-23407D03*
X17014Y-22407D03*
X16014Y-22407D03*
X15014Y-22407D03*
G54D31*
X43724Y-24818D03*
G54D32*
X43724Y-25818D03*
X43724Y-26818D03*
X43724Y-27818D03*
G54D31*
X48924Y-27818D03*
G54D32*
X48924Y-26818D03*
X48924Y-25818D03*
X48924Y-24818D03*
G54D31*
X10987Y-31042D03*
G54D32*
X10987Y-32042D03*
X10987Y-33042D03*
X10987Y-34042D03*
X10987Y-35042D03*
X10987Y-36042D03*
G54D31*
X19987Y-31042D03*
G54D32*
X19987Y-32042D03*
X19987Y-33042D03*
X19987Y-34042D03*
X19987Y-35042D03*
X19987Y-36042D03*
G54D30*
X26419Y-26570D03*
X25041Y-26570D03*
X29419Y-26570D03*
X28041Y-26570D03*
X32519Y-26570D03*
X31141Y-26570D03*
G54D31*
X38263Y-28029D03*
G54D32*
X37263Y-28029D03*
G54D34*
X16080Y-43980D03*
X13320Y-43980D03*
X13815Y-43000D03*
X15585Y-43000D03*
X27990Y-43980D03*
X25230Y-43980D03*
X25725Y-43000D03*
X27495Y-43000D03*
X19634Y-27687D03*
X19634Y-24927D03*
X20614Y-25422D03*
X20614Y-27192D03*
G54D35*
X37864Y-50972D03*
X37864Y-51222D03*
X37864Y-51472D03*
X37864Y-51722D03*
X37864Y-51972D03*
X37864Y-52222D03*
X37864Y-52472D03*
X37864Y-52722D03*
X40069Y-52722D03*
X40069Y-52472D03*
X40069Y-52222D03*
X40069Y-51972D03*
X40069Y-51722D03*
X40069Y-51472D03*
X40069Y-51222D03*
X40069Y-50972D03*
G54D36*
X40373Y-33697D03*
X40117Y-33697D03*
X39861Y-33697D03*
X39605Y-33697D03*
X39349Y-33697D03*
X39093Y-33697D03*
X38837Y-33697D03*
X38581Y-33697D03*
X38581Y-36020D03*
X38837Y-36020D03*
X39093Y-36020D03*
X39349Y-36020D03*
X39605Y-36020D03*
X39861Y-36020D03*
X40117Y-36020D03*
X40373Y-36020D03*
G54D37*
X46457Y-53193D03*
X46083Y-53193D03*
X45709Y-53193D03*
X45689Y-54374D03*
X46457Y-54374D03*
G54D38*
X47062Y-42617D03*
G54D39*
X47062Y-45217D03*
X47962Y-45217D03*
X46162Y-45217D03*
G54D10*
G36*
X17954Y-51683D02*
X17829Y-51808D01*
X17272Y-51252D01*
X17397Y-51126D01*
X17954Y-51683D01*
X17954Y-51683D01*
G37*
G36*
X17731Y-51906D02*
X17606Y-52031D01*
X17049Y-51474D01*
X17175Y-51349D01*
X17731Y-51906D01*
X17731Y-51906D01*
G37*
G36*
X17508Y-52128D02*
X17383Y-52254D01*
X16827Y-51697D01*
X16952Y-51572D01*
X17508Y-52128D01*
X17508Y-52128D01*
G37*
G36*
X17286Y-52351D02*
X17160Y-52476D01*
X16604Y-51920D01*
X16729Y-51795D01*
X17286Y-52351D01*
X17286Y-52351D01*
G37*
G36*
X17063Y-52574D02*
X16938Y-52699D01*
X16381Y-52143D01*
X16506Y-52017D01*
X17063Y-52574D01*
X17063Y-52574D01*
G37*
G36*
X16840Y-52797D02*
X16715Y-52922D01*
X16159Y-52365D01*
X16284Y-52240D01*
X16840Y-52797D01*
X16840Y-52797D01*
G37*
G36*
X16617Y-53019D02*
X16492Y-53145D01*
X15936Y-52588D01*
X16061Y-52463D01*
X16617Y-53019D01*
X16617Y-53019D01*
G37*
G36*
X16395Y-53242D02*
X16270Y-53367D01*
X15713Y-52811D01*
X15838Y-52686D01*
X16395Y-53242D01*
X16395Y-53242D01*
G37*
G36*
X13733Y-50578D02*
X13608Y-50703D01*
X13051Y-50146D01*
X13177Y-50021D01*
X13733Y-50578D01*
X13733Y-50578D01*
G37*
G36*
X15296Y-49015D02*
X15171Y-49140D01*
X14614Y-48584D01*
X14739Y-48459D01*
X15296Y-49015D01*
X15296Y-49015D01*
G37*
G36*
X15070Y-49241D02*
X14944Y-49366D01*
X14388Y-48810D01*
X14513Y-48685D01*
X15070Y-49241D01*
X15070Y-49241D01*
G37*
G36*
X14843Y-49468D02*
X14718Y-49593D01*
X14162Y-49036D01*
X14287Y-48911D01*
X14843Y-49468D01*
X14843Y-49468D01*
G37*
G36*
X14624Y-49687D02*
X14499Y-49812D01*
X13942Y-49255D01*
X14068Y-49130D01*
X14624Y-49687D01*
X14624Y-49687D01*
G37*
G36*
X14398Y-49913D02*
X14273Y-50038D01*
X13716Y-49482D01*
X13841Y-49357D01*
X14398Y-49913D01*
X14398Y-49913D01*
G37*
G36*
X14179Y-50132D02*
X14053Y-50257D01*
X13497Y-49701D01*
X13622Y-49576D01*
X14179Y-50132D01*
X14179Y-50132D01*
G37*
G36*
X13952Y-50359D02*
X13827Y-50484D01*
X13271Y-49927D01*
X13396Y-49802D01*
X13952Y-50359D01*
X13952Y-50359D01*
G37*
G36*
X15283Y-52814D02*
X14727Y-53370D01*
X14601Y-53245D01*
X15158Y-52688D01*
X15283Y-52814D01*
X15283Y-52814D01*
G37*
G36*
X15061Y-52592D02*
X14505Y-53148D01*
X14379Y-53023D01*
X14936Y-52466D01*
X15061Y-52592D01*
X15061Y-52592D01*
G37*
G36*
X14838Y-52368D02*
X14281Y-52925D01*
X14156Y-52799D01*
X14712Y-52243D01*
X14838Y-52368D01*
X14838Y-52368D01*
G37*
G36*
X14616Y-52146D02*
X14059Y-52703D01*
X13934Y-52577D01*
X14490Y-52021D01*
X14616Y-52146D01*
X14616Y-52146D01*
G37*
G36*
X14392Y-51923D02*
X13836Y-52479D01*
X13711Y-52354D01*
X14267Y-51798D01*
X14392Y-51923D01*
X14392Y-51923D01*
G37*
G36*
X14170Y-51701D02*
X13614Y-52257D01*
X13488Y-52132D01*
X14045Y-51575D01*
X14170Y-51701D01*
X14170Y-51701D01*
G37*
G36*
X13947Y-51477D02*
X13390Y-52034D01*
X13265Y-51909D01*
X13822Y-51352D01*
X13947Y-51477D01*
X13947Y-51477D01*
G37*
G36*
X13725Y-51255D02*
X13168Y-51812D01*
X13043Y-51687D01*
X13600Y-51130D01*
X13725Y-51255D01*
X13725Y-51255D01*
G37*
G36*
X17955Y-50139D02*
X17398Y-50696D01*
X17273Y-50571D01*
X17829Y-50014D01*
X17955Y-50139D01*
X17955Y-50139D01*
G37*
G36*
X17735Y-49920D02*
X17179Y-50477D01*
X17054Y-50351D01*
X17610Y-49795D01*
X17735Y-49920D01*
X17735Y-49920D01*
G37*
G36*
X17509Y-49694D02*
X16953Y-50250D01*
X16827Y-50125D01*
X17384Y-49569D01*
X17509Y-49694D01*
X17509Y-49694D01*
G37*
G36*
X17290Y-49475D02*
X16733Y-50031D01*
X16608Y-49906D01*
X17165Y-49350D01*
X17290Y-49475D01*
X17290Y-49475D01*
G37*
G36*
X17071Y-49255D02*
X16514Y-49812D01*
X16389Y-49687D01*
X16946Y-49130D01*
X17071Y-49255D01*
X17071Y-49255D01*
G37*
G36*
X16844Y-49029D02*
X16288Y-49586D01*
X16163Y-49461D01*
X16719Y-48904D01*
X16844Y-49029D01*
X16844Y-49029D01*
G37*
G36*
X16618Y-48803D02*
X16062Y-49359D01*
X15936Y-49234D01*
X16493Y-48678D01*
X16618Y-48803D01*
X16618Y-48803D01*
G37*
G36*
X16392Y-48577D02*
X15835Y-49133D01*
X15710Y-49008D01*
X16267Y-48451D01*
X16392Y-48577D01*
X16392Y-48577D01*
G37*
G36*
X31264Y-50583D02*
X31139Y-50708D01*
X30582Y-50152D01*
X30708Y-50026D01*
X31264Y-50583D01*
X31264Y-50583D01*
G37*
G36*
X31041Y-50806D02*
X30916Y-50931D01*
X30360Y-50374D01*
X30485Y-50249D01*
X31041Y-50806D01*
X31041Y-50806D01*
G37*
G36*
X30819Y-51028D02*
X30693Y-51154D01*
X30137Y-50597D01*
X30262Y-50472D01*
X30819Y-51028D01*
X30819Y-51028D01*
G37*
G36*
X30596Y-51251D02*
X30471Y-51376D01*
X29914Y-50820D01*
X30039Y-50695D01*
X30596Y-51251D01*
X30596Y-51251D01*
G37*
G36*
X30373Y-51474D02*
X30248Y-51599D01*
X29691Y-51043D01*
X29817Y-50917D01*
X30373Y-51474D01*
X30373Y-51474D01*
G37*
G36*
X30150Y-51697D02*
X30025Y-51822D01*
X29469Y-51265D01*
X29594Y-51140D01*
X30150Y-51697D01*
X30150Y-51697D01*
G37*
G36*
X29928Y-51919D02*
X29803Y-52045D01*
X29246Y-51488D01*
X29371Y-51363D01*
X29928Y-51919D01*
X29928Y-51919D01*
G37*
G36*
X29705Y-52142D02*
X29580Y-52267D01*
X29023Y-51711D01*
X29148Y-51586D01*
X29705Y-52142D01*
X29705Y-52142D01*
G37*
G36*
X27043Y-49478D02*
X26918Y-49603D01*
X26362Y-49046D01*
X26487Y-48921D01*
X27043Y-49478D01*
X27043Y-49478D01*
G37*
G36*
X28606Y-47915D02*
X28481Y-48040D01*
X27924Y-47484D01*
X28050Y-47359D01*
X28606Y-47915D01*
X28606Y-47915D01*
G37*
G36*
X28380Y-48141D02*
X28255Y-48266D01*
X27698Y-47710D01*
X27823Y-47585D01*
X28380Y-48141D01*
X28380Y-48141D01*
G37*
G36*
X28154Y-48368D02*
X28028Y-48493D01*
X27472Y-47936D01*
X27597Y-47811D01*
X28154Y-48368D01*
X28154Y-48368D01*
G37*
G36*
X27934Y-48587D02*
X27809Y-48712D01*
X27253Y-48155D01*
X27378Y-48030D01*
X27934Y-48587D01*
X27934Y-48587D01*
G37*
G36*
X27708Y-48813D02*
X27583Y-48938D01*
X27026Y-48382D01*
X27152Y-48257D01*
X27708Y-48813D01*
X27708Y-48813D01*
G37*
G36*
X27489Y-49032D02*
X27364Y-49157D01*
X26807Y-48601D01*
X26932Y-48476D01*
X27489Y-49032D01*
X27489Y-49032D01*
G37*
G36*
X27263Y-49259D02*
X27137Y-49384D01*
X26581Y-48827D01*
X26706Y-48702D01*
X27263Y-49259D01*
X27263Y-49259D01*
G37*
G36*
X28593Y-51714D02*
X28037Y-52270D01*
X27912Y-52145D01*
X28468Y-51588D01*
X28593Y-51714D01*
X28593Y-51714D01*
G37*
G36*
X28371Y-51492D02*
X27815Y-52048D01*
X27690Y-51923D01*
X28246Y-51366D01*
X28371Y-51492D01*
X28371Y-51492D01*
G37*
G36*
X28148Y-51268D02*
X27591Y-51825D01*
X27466Y-51699D01*
X28023Y-51143D01*
X28148Y-51268D01*
X28148Y-51268D01*
G37*
G36*
X27926Y-51046D02*
X27369Y-51603D01*
X27244Y-51477D01*
X27801Y-50921D01*
X27926Y-51046D01*
X27926Y-51046D01*
G37*
G36*
X27702Y-50823D02*
X27146Y-51379D01*
X27021Y-51254D01*
X27577Y-50698D01*
X27702Y-50823D01*
X27702Y-50823D01*
G37*
G36*
X27480Y-50601D02*
X26924Y-51157D01*
X26799Y-51032D01*
X27355Y-50475D01*
X27480Y-50601D01*
X27480Y-50601D01*
G37*
G36*
X27257Y-50377D02*
X26700Y-50934D01*
X26575Y-50809D01*
X27132Y-50252D01*
X27257Y-50377D01*
X27257Y-50377D01*
G37*
G36*
X27035Y-50155D02*
X26478Y-50712D01*
X26353Y-50587D01*
X26910Y-50030D01*
X27035Y-50155D01*
X27035Y-50155D01*
G37*
G36*
X31265Y-49039D02*
X30708Y-49596D01*
X30583Y-49471D01*
X31140Y-48914D01*
X31265Y-49039D01*
X31265Y-49039D01*
G37*
G36*
X31046Y-48820D02*
X30489Y-49377D01*
X30364Y-49251D01*
X30920Y-48695D01*
X31046Y-48820D01*
X31046Y-48820D01*
G37*
G36*
X30819Y-48594D02*
X30263Y-49150D01*
X30138Y-49025D01*
X30694Y-48469D01*
X30819Y-48594D01*
X30819Y-48594D01*
G37*
G36*
X30600Y-48375D02*
X30044Y-48931D01*
X29918Y-48806D01*
X30475Y-48250D01*
X30600Y-48375D01*
X30600Y-48375D01*
G37*
G36*
X30381Y-48155D02*
X29824Y-48712D01*
X29699Y-48587D01*
X30256Y-48030D01*
X30381Y-48155D01*
X30381Y-48155D01*
G37*
G36*
X30155Y-47929D02*
X29598Y-48486D01*
X29473Y-48361D01*
X30029Y-47804D01*
X30155Y-47929D01*
X30155Y-47929D01*
G37*
G36*
X29928Y-47703D02*
X29372Y-48259D01*
X29247Y-48134D01*
X29803Y-47578D01*
X29928Y-47703D01*
X29928Y-47703D01*
G37*
G36*
X29702Y-47477D02*
X29146Y-48033D01*
X29020Y-47908D01*
X29577Y-47351D01*
X29702Y-47477D01*
X29702Y-47477D01*
G37*
G54D22*
X47938Y-25968D03*
X47938Y-26468D03*
X47938Y-26968D03*
X47938Y-27468D03*
X44710Y-25968D03*
X44710Y-26468D03*
X44710Y-26968D03*
X44710Y-27468D03*
G54D40*
X14442Y-32258D03*
X14442Y-32514D03*
X14442Y-32770D03*
X14442Y-33026D03*
G54D41*
X15003Y-33587D03*
X15259Y-33587D03*
X15515Y-33587D03*
X15771Y-33587D03*
G54D40*
X16332Y-33026D03*
X16332Y-32770D03*
X16332Y-32514D03*
X16332Y-32258D03*
G54D41*
X15515Y-31697D03*
X15259Y-31697D03*
X15003Y-31697D03*
X15771Y-31697D03*
G54D36*
X27779Y-38132D03*
X28035Y-38132D03*
X28290Y-38132D03*
X28546Y-38132D03*
X28802Y-38132D03*
X29058Y-38132D03*
X29314Y-38132D03*
X29570Y-38132D03*
X29826Y-38132D03*
X30082Y-38132D03*
X30082Y-35809D03*
X29826Y-35809D03*
X29570Y-35809D03*
X29314Y-35809D03*
X29058Y-35809D03*
X28802Y-35809D03*
X28546Y-35809D03*
X28290Y-35809D03*
X28035Y-35809D03*
X27779Y-35809D03*
G54D42*
X36700Y-25279D03*
X36700Y-25779D03*
X36700Y-26279D03*
X36700Y-26779D03*
X38826Y-26779D03*
X38826Y-26279D03*
X38826Y-25779D03*
X38826Y-25279D03*
G54D43*
X36877Y-33897D03*
X36877Y-35819D03*
X19300Y-55561D03*
X19300Y-53639D03*
X32010Y-53639D03*
X32010Y-55561D03*
G54D44*
X35463Y-25745D03*
X35463Y-25312D03*
G54D45*
X37800Y-42577D03*
X37200Y-42577D03*
G54D46*
X40500Y-44177D03*
X40500Y-43577D03*
X42000Y-44577D03*
X42000Y-45177D03*
X43000Y-44577D03*
X43000Y-45177D03*
X39000Y-47277D03*
X39000Y-46677D03*
G54D45*
X40166Y-49446D03*
X40766Y-49446D03*
X37766Y-49446D03*
X37166Y-49446D03*
G54D46*
X36566Y-53446D03*
X36566Y-54046D03*
G54D45*
X41166Y-52646D03*
X41766Y-52646D03*
X36866Y-52646D03*
X36266Y-52646D03*
X45783Y-50983D03*
X46383Y-50983D03*
G54D46*
X14600Y-47300D03*
X14600Y-46700D03*
X12500Y-47300D03*
X12500Y-46700D03*
X15800Y-47300D03*
X15800Y-46700D03*
X26010Y-54000D03*
X26010Y-53400D03*
X26810Y-54000D03*
X26810Y-53400D03*
X26010Y-47300D03*
X26010Y-46700D03*
X24410Y-47300D03*
X24410Y-46700D03*
G54D45*
X27622Y-45157D03*
X27022Y-45157D03*
G54D46*
X18414Y-23907D03*
X18414Y-23307D03*
X12514Y-27707D03*
X12514Y-27107D03*
X19314Y-26007D03*
X19314Y-26607D03*
G54D45*
X18087Y-31042D03*
X18687Y-31042D03*
X12298Y-31023D03*
X12898Y-31023D03*
G54D46*
X12987Y-36142D03*
X12987Y-36742D03*
X15987Y-34742D03*
X15987Y-35342D03*
X14787Y-34742D03*
X14787Y-35342D03*
X32930Y-35370D03*
X32930Y-35970D03*
X32930Y-37570D03*
X32930Y-38170D03*
X39763Y-24329D03*
X39763Y-24929D03*
X40463Y-24929D03*
X40463Y-25529D03*
X40063Y-27829D03*
X40063Y-27229D03*
G54D47*
X22047Y-45708D03*
G54D48*
X44940Y-50590D03*
X44940Y-49015D03*
X44940Y-50196D03*
X44940Y-49409D03*
X44940Y-49803D03*
X43956Y-49803D03*
X43956Y-49409D03*
X43956Y-50196D03*
X43956Y-49015D03*
X43956Y-50590D03*
X34744Y-43543D03*
X34744Y-41968D03*
X34744Y-43149D03*
X34744Y-42362D03*
X34744Y-42755D03*
X33759Y-42755D03*
X33759Y-42362D03*
X33759Y-43149D03*
X33759Y-41968D03*
X33759Y-43543D03*
X34744Y-47480D03*
X34744Y-45905D03*
X34744Y-47086D03*
X34744Y-46299D03*
X34744Y-46692D03*
X33759Y-46692D03*
X33759Y-46299D03*
X33759Y-47086D03*
X33759Y-45905D03*
X33759Y-47480D03*
X37598Y-40964D03*
X36023Y-40964D03*
X37204Y-40964D03*
X36417Y-40964D03*
X36811Y-40964D03*
X36811Y-41948D03*
X36417Y-41948D03*
X37204Y-41948D03*
X36023Y-41948D03*
X37598Y-41948D03*
G54D47*
X22047Y-51614D03*
G54D48*
X48149Y-48011D03*
X46574Y-48011D03*
X47755Y-48011D03*
X46968Y-48011D03*
X47362Y-48011D03*
X47362Y-48996D03*
X46968Y-48996D03*
X47755Y-48996D03*
X46574Y-48996D03*
X48149Y-48996D03*
G54D49*
X16141Y-41456D03*
G54D48*
X22539Y-49448D03*
X22539Y-47874D03*
X22539Y-49055D03*
X22539Y-48267D03*
X22539Y-48661D03*
X21555Y-48661D03*
X21555Y-48267D03*
X21555Y-49055D03*
X21555Y-47874D03*
X21555Y-49448D03*
G54D49*
X39763Y-41456D03*
G54D48*
X34763Y-48996D03*
X36338Y-48996D03*
X35157Y-48996D03*
X35944Y-48996D03*
X35551Y-48996D03*
X35551Y-48011D03*
X35944Y-48011D03*
X35157Y-48011D03*
X36338Y-48011D03*
X34763Y-48011D03*
G54D49*
X27952Y-41456D03*
G54D48*
X24212Y-41948D03*
X25787Y-41948D03*
X24606Y-41948D03*
X25393Y-41948D03*
X25000Y-41948D03*
X25000Y-40964D03*
X25393Y-40964D03*
X24606Y-40964D03*
X25787Y-40964D03*
X24212Y-40964D03*
G54D49*
X22047Y-41456D03*
G54D48*
X18307Y-41948D03*
X19881Y-41948D03*
X18700Y-41948D03*
X19488Y-41948D03*
X19094Y-41948D03*
X19094Y-40964D03*
X19488Y-40964D03*
X18700Y-40964D03*
X19881Y-40964D03*
X18307Y-40964D03*
G54D49*
X33858Y-41456D03*
G54D50*
X34251Y-44724D03*
G54D48*
X44940Y-47992D03*
X44940Y-46417D03*
X44940Y-47598D03*
X44940Y-46811D03*
X44940Y-47204D03*
X43956Y-47204D03*
X43956Y-46811D03*
X43956Y-47598D03*
X43956Y-46417D03*
X43956Y-47992D03*
X22539Y-55354D03*
X22539Y-53779D03*
X22539Y-54960D03*
X22539Y-54173D03*
X22539Y-54566D03*
X21555Y-54566D03*
X21555Y-54173D03*
X21555Y-54960D03*
X21555Y-53779D03*
X21555Y-55354D03*
X19960Y-30570D03*
X21535Y-30570D03*
X20354Y-30570D03*
X21141Y-30570D03*
X20748Y-30570D03*
X20748Y-29586D03*
X21141Y-29586D03*
X20354Y-29586D03*
X21535Y-29586D03*
X19960Y-29586D03*
X22539Y-43543D03*
X22539Y-41968D03*
X22539Y-43149D03*
X22539Y-42362D03*
X22539Y-42755D03*
X21555Y-42755D03*
X21555Y-42362D03*
X21555Y-43149D03*
X21555Y-41968D03*
X21555Y-43543D03*
X22539Y-29133D03*
X22539Y-27559D03*
X22539Y-28740D03*
X22539Y-27952D03*
X22539Y-28346D03*
X21555Y-28346D03*
X21555Y-27952D03*
X21555Y-28740D03*
X21555Y-27559D03*
X21555Y-29133D03*
X21555Y-39370D03*
X21555Y-40944D03*
X21555Y-39763D03*
X21555Y-40551D03*
X21555Y-40157D03*
X22539Y-40157D03*
X22539Y-40551D03*
X22539Y-39763D03*
X22539Y-40944D03*
X22539Y-39370D03*
X12401Y-41948D03*
X13976Y-41948D03*
X12795Y-41948D03*
X13582Y-41948D03*
X13188Y-41948D03*
X13188Y-40964D03*
X13582Y-40964D03*
X12795Y-40964D03*
X13976Y-40964D03*
X12401Y-40964D03*
X30118Y-41948D03*
X31692Y-41948D03*
X30511Y-41948D03*
X31299Y-41948D03*
X30905Y-41948D03*
X30905Y-40964D03*
X31299Y-40964D03*
X30511Y-40964D03*
X31692Y-40964D03*
X30118Y-40964D03*
X41929Y-41948D03*
X43503Y-41948D03*
X42322Y-41948D03*
X43110Y-41948D03*
X42716Y-41948D03*
X42716Y-40964D03*
X43110Y-40964D03*
X42322Y-40964D03*
X43503Y-40964D03*
X41929Y-40964D03*
G54D47*
X34251Y-49645D03*
G54D48*
X34744Y-53385D03*
X34744Y-51811D03*
X34744Y-52992D03*
X34744Y-52204D03*
X34744Y-52598D03*
X33759Y-52598D03*
X33759Y-52204D03*
X33759Y-52992D03*
X33759Y-51811D03*
X33759Y-53385D03*
G54D49*
X38503Y-48503D03*
G54D48*
X40669Y-48996D03*
X42244Y-48996D03*
X41062Y-48996D03*
X41850Y-48996D03*
X41456Y-48996D03*
X41456Y-48011D03*
X41850Y-48011D03*
X41062Y-48011D03*
X42244Y-48011D03*
X40669Y-48011D03*
G54D49*
X44409Y-48503D03*
G54D47*
X44448Y-52755D03*
G54D48*
X44940Y-56496D03*
X44940Y-54921D03*
X44940Y-56102D03*
X44940Y-55314D03*
X44940Y-55708D03*
X43956Y-55708D03*
X43956Y-55314D03*
X43956Y-56102D03*
X43956Y-54921D03*
X43956Y-56496D03*
G54D47*
X22047Y-37204D03*
G54D50*
X44448Y-45236D03*
G54D48*
X44940Y-44055D03*
X44940Y-42480D03*
X44940Y-43661D03*
X44940Y-42874D03*
X44940Y-43267D03*
X43956Y-43267D03*
X43956Y-42874D03*
X43956Y-43661D03*
X43956Y-42480D03*
X43956Y-44055D03*
X42972Y-28582D03*
X42972Y-27007D03*
X42972Y-28188D03*
X42972Y-27401D03*
X42972Y-27795D03*
X41988Y-27795D03*
X41988Y-27401D03*
X41988Y-28188D03*
X41988Y-27007D03*
X41988Y-28582D03*
X34744Y-40944D03*
X34744Y-39370D03*
X34744Y-40551D03*
X34744Y-39763D03*
X34744Y-40157D03*
X33759Y-40157D03*
X33759Y-39763D03*
X33759Y-40551D03*
X33759Y-39370D03*
X33759Y-40944D03*
X34744Y-33070D03*
X34744Y-31496D03*
X34744Y-32677D03*
X34744Y-31889D03*
X34744Y-32283D03*
X33759Y-32283D03*
X33759Y-31889D03*
X33759Y-32677D03*
X33759Y-31496D03*
X33759Y-33070D03*
G54D47*
X34251Y-29330D03*
G54D48*
X36338Y-28602D03*
X34763Y-28602D03*
X35944Y-28602D03*
X35157Y-28602D03*
X35551Y-28602D03*
X35551Y-29586D03*
X35157Y-29586D03*
X35944Y-29586D03*
X34763Y-29586D03*
X36338Y-29586D03*
G54D50*
X34251Y-38188D03*
G54D48*
X34744Y-37007D03*
X34744Y-35433D03*
X34744Y-36614D03*
X34744Y-35826D03*
X34744Y-36220D03*
X33759Y-36220D03*
X33759Y-35826D03*
X33759Y-36614D03*
X33759Y-35433D03*
X33759Y-37007D03*
G54D50*
X34251Y-34251D03*
G54D48*
X34744Y-27165D03*
X34744Y-25590D03*
X34744Y-26771D03*
X34744Y-25984D03*
X34744Y-26377D03*
X33759Y-26377D03*
X33759Y-25984D03*
X33759Y-26771D03*
X33759Y-25590D03*
X33759Y-27165D03*
G54D49*
X42440Y-29094D03*
G54D48*
X38700Y-29586D03*
X40275Y-29586D03*
X39094Y-29586D03*
X39881Y-29586D03*
X39488Y-29586D03*
X39488Y-28602D03*
X39881Y-28602D03*
X39094Y-28602D03*
X40275Y-28602D03*
X38700Y-28602D03*
G54D51*
X37519Y-29094D03*
G54D48*
X44606Y-29586D03*
X45000Y-29586D03*
X45787Y-29586D03*
X45393Y-29586D03*
X45393Y-28602D03*
X45787Y-28602D03*
X45000Y-28602D03*
X46181Y-28602D03*
X44606Y-28602D03*
G54D50*
X42480Y-25826D03*
G54D48*
X42972Y-24645D03*
X42972Y-24251D03*
X42972Y-23858D03*
X41988Y-23858D03*
X41988Y-23464D03*
X41988Y-24251D03*
X41988Y-24645D03*
X22539Y-35039D03*
X22539Y-33464D03*
X22539Y-34645D03*
X22539Y-33858D03*
X22539Y-34251D03*
X21555Y-34251D03*
X21555Y-33858D03*
X21555Y-34645D03*
X21555Y-33464D03*
X21555Y-35039D03*
G54D47*
X22047Y-31299D03*
G54D49*
X17795Y-30078D03*
G54D48*
X14055Y-30570D03*
X15629Y-30570D03*
X14448Y-30570D03*
X15236Y-30570D03*
X14842Y-30570D03*
X14842Y-29586D03*
X15236Y-29586D03*
X14448Y-29586D03*
X15629Y-29586D03*
X14055Y-29586D03*
G54D50*
X22047Y-26377D03*
G54D48*
X22539Y-25196D03*
X21555Y-24409D03*
X21555Y-24015D03*
X21555Y-24803D03*
X21555Y-23622D03*
X21555Y-25196D03*
M02*
