G04 (created by PCBNEW (2013-may-18)-stable) date Tue 25 Feb 2014 10:12:36 PM CET*
%MOIN*%
G04 Gerber Fmt 3.4, Leading zero omitted, Abs format*
%FSLAX34Y34*%
G01*
G70*
G90*
G04 APERTURE LIST*
%ADD10C,0.00590551*%
%ADD11C,0.0511811*%
%ADD12C,0.0394*%
%ADD13R,0.159843X0.0598425*%
%ADD14C,0.0787402*%
%ADD15R,0.06X0.06*%
%ADD16C,0.06*%
%ADD17C,0.062*%
%ADD18C,0.056*%
%ADD19C,0.0314961*%
%ADD20C,0.035*%
%ADD21C,0.0590551*%
%ADD22C,0.01*%
%ADD23C,0.019685*%
G04 APERTURE END LIST*
G54D10*
X49606Y-56771D02*
X49606Y-48897D01*
X44055Y-56771D02*
X44055Y-57086D01*
X44842Y-56771D02*
X44055Y-56771D01*
X49606Y-56771D02*
X44842Y-56771D01*
X43385Y-23858D02*
X49606Y-23858D01*
X42874Y-23346D02*
G75*
G03X43385Y-23858I511J0D01*
G74*
G01*
X44133Y-41062D02*
X44094Y-41062D01*
X44094Y-41062D02*
G75*
G03X43700Y-41456I0J-393D01*
G74*
G01*
X43700Y-41456D02*
G75*
G03X44094Y-41850I393J0D01*
G74*
G01*
X44842Y-41850D02*
X44094Y-41850D01*
X21653Y-55984D02*
X21653Y-55944D01*
X22440Y-55984D02*
X22440Y-55944D01*
X22440Y-55944D02*
G75*
G03X22047Y-55551I-393J0D01*
G74*
G01*
X22047Y-55551D02*
G75*
G03X21653Y-55944I0J-393D01*
G74*
G01*
X34645Y-54015D02*
X34645Y-53976D01*
X33858Y-54015D02*
X33858Y-53976D01*
X34645Y-53976D02*
G75*
G03X34251Y-53582I-393J0D01*
G74*
G01*
X34251Y-53582D02*
G75*
G03X33858Y-53976I0J-393D01*
G74*
G01*
X44055Y-57125D02*
X44055Y-57086D01*
X10236Y-41850D02*
X10236Y-58070D01*
X11811Y-41850D02*
X10236Y-41850D01*
X11771Y-41062D02*
X11692Y-41062D01*
X12204Y-41417D02*
G75*
G03X11771Y-41062I-393J-39D01*
G74*
G01*
X11811Y-41850D02*
G75*
G03X12204Y-41456I0J393D01*
G74*
G01*
X10236Y-41062D02*
X11692Y-41062D01*
X10236Y-30472D02*
X10236Y-41062D01*
X13464Y-30472D02*
X10236Y-30472D01*
X12480Y-29685D02*
X13425Y-29685D01*
X13858Y-30039D02*
G75*
G03X13425Y-29685I-393J-39D01*
G74*
G01*
X13464Y-30472D02*
G75*
G03X13858Y-30078I0J393D01*
G74*
G01*
X10236Y-29685D02*
X12480Y-29685D01*
X10236Y-21614D02*
X10236Y-29685D01*
X21653Y-21614D02*
X10236Y-21614D01*
X21653Y-25000D02*
X21653Y-21614D01*
X33858Y-25000D02*
X21653Y-25000D01*
X34645Y-24685D02*
X34645Y-25000D01*
X33858Y-25000D02*
G75*
G03X34251Y-25393I393J0D01*
G74*
G01*
X34251Y-25393D02*
G75*
G03X34645Y-25000I0J393D01*
G74*
G01*
X34645Y-23346D02*
X34645Y-24685D01*
X42874Y-23346D02*
X34645Y-23346D01*
X49606Y-28700D02*
X49606Y-23858D01*
X46102Y-28700D02*
X46102Y-28740D01*
X49606Y-28700D02*
X46102Y-28700D01*
X46102Y-41062D02*
X46102Y-28700D01*
X44133Y-41062D02*
X46102Y-41062D01*
X49606Y-41850D02*
X44842Y-41850D01*
X49606Y-48110D02*
X49606Y-41850D01*
X48740Y-48110D02*
X49606Y-48110D01*
X49015Y-48897D02*
X48740Y-48897D01*
X48740Y-48110D02*
G75*
G03X48346Y-48503I0J-393D01*
G74*
G01*
X48346Y-48503D02*
G75*
G03X48740Y-48897I393J0D01*
G74*
G01*
X49606Y-48897D02*
X49015Y-48897D01*
X44055Y-57322D02*
X44055Y-57125D01*
X44055Y-58070D02*
X44055Y-57322D01*
X34645Y-58070D02*
X44055Y-58070D01*
X34645Y-54015D02*
X34645Y-58070D01*
X33858Y-54015D02*
X33858Y-58070D01*
X22440Y-58070D02*
X33858Y-58070D01*
X22440Y-55984D02*
X22440Y-58070D01*
X21653Y-55984D02*
X21653Y-58070D01*
X10236Y-58070D02*
X21653Y-58070D01*
G54D11*
X24901Y-31496D03*
X24901Y-33464D03*
X28444Y-31003D03*
X28444Y-29035D03*
X31791Y-33366D03*
X31791Y-31397D03*
G54D12*
X36700Y-46343D03*
X36700Y-44611D03*
X39832Y-56246D03*
X38100Y-56246D03*
G54D13*
X45177Y-34258D03*
X45177Y-36258D03*
G54D12*
X27576Y-56200D03*
X25844Y-56200D03*
X16253Y-39142D03*
X14521Y-39142D03*
G54D14*
X23689Y-37170D03*
X25658Y-39139D03*
X25658Y-38155D03*
X25658Y-36186D03*
X25658Y-35202D03*
G54D15*
X48062Y-47417D03*
G54D16*
X47062Y-47417D03*
X46062Y-47417D03*
G54D15*
X24610Y-50500D03*
G54D16*
X24610Y-49500D03*
X24610Y-48500D03*
G54D15*
X31930Y-35970D03*
G54D16*
X31930Y-36970D03*
X31930Y-37970D03*
G54D15*
X41263Y-25029D03*
G54D16*
X41263Y-26029D03*
X41263Y-27029D03*
G54D15*
X43000Y-42377D03*
G54D16*
X43000Y-43377D03*
G54D15*
X39000Y-42377D03*
G54D16*
X39000Y-43377D03*
G54D15*
X42000Y-46377D03*
G54D16*
X43000Y-46377D03*
G54D15*
X35366Y-49546D03*
G54D16*
X35366Y-50546D03*
X35366Y-51546D03*
X35366Y-52546D03*
X35366Y-53546D03*
X35366Y-54546D03*
G54D15*
X43366Y-49546D03*
G54D16*
X43366Y-50546D03*
X43366Y-51546D03*
X43366Y-52546D03*
X43366Y-53546D03*
X43366Y-54546D03*
G54D15*
X43477Y-31258D03*
G54D16*
X42477Y-31258D03*
X41477Y-31258D03*
X40477Y-31258D03*
X39477Y-31258D03*
X38477Y-31258D03*
X37477Y-31258D03*
X36477Y-31258D03*
G54D15*
X43477Y-39258D03*
G54D16*
X42477Y-39258D03*
X41477Y-39258D03*
X40477Y-39258D03*
X39477Y-39258D03*
X38477Y-39258D03*
X37477Y-39258D03*
X36477Y-39258D03*
G54D15*
X47683Y-55783D03*
G54D16*
X48683Y-55783D03*
G54D15*
X47683Y-49783D03*
G54D16*
X48683Y-49783D03*
G54D15*
X11000Y-49500D03*
G54D16*
X11000Y-48500D03*
X11000Y-47500D03*
X11000Y-46500D03*
X11000Y-45500D03*
X11000Y-44500D03*
X11000Y-43500D03*
X11000Y-42500D03*
G54D15*
X21000Y-49500D03*
G54D16*
X21000Y-48500D03*
X21000Y-47500D03*
X21000Y-46500D03*
X21000Y-45500D03*
X21000Y-44500D03*
X21000Y-43500D03*
X21000Y-42500D03*
G54D15*
X11000Y-50500D03*
G54D16*
X11000Y-51500D03*
X11000Y-52500D03*
X11000Y-53500D03*
X11000Y-54500D03*
X11000Y-55500D03*
X11000Y-56500D03*
X11000Y-57500D03*
G54D15*
X21000Y-57500D03*
G54D16*
X21000Y-56500D03*
X21000Y-55500D03*
X21000Y-54500D03*
X21000Y-53500D03*
X21000Y-52500D03*
X21000Y-51500D03*
X21000Y-50500D03*
G54D15*
X19000Y-43500D03*
G54D16*
X18000Y-43500D03*
X17000Y-43500D03*
X19000Y-42500D03*
X18000Y-42500D03*
X17000Y-42500D03*
G54D15*
X23110Y-42500D03*
G54D16*
X23110Y-43500D03*
X23110Y-44500D03*
X23110Y-45500D03*
X23110Y-46500D03*
X23110Y-47500D03*
X23110Y-48500D03*
X23110Y-49500D03*
G54D15*
X23110Y-57500D03*
G54D16*
X23110Y-56500D03*
X23110Y-55500D03*
X23110Y-54500D03*
X23110Y-53500D03*
X23110Y-52500D03*
X23110Y-51500D03*
X23110Y-50500D03*
G54D15*
X33110Y-49500D03*
G54D16*
X33110Y-48500D03*
X33110Y-47500D03*
X33110Y-46500D03*
X33110Y-45500D03*
X33110Y-44500D03*
X33110Y-43500D03*
X33110Y-42500D03*
G54D15*
X31110Y-43500D03*
G54D16*
X30110Y-43500D03*
X29110Y-43500D03*
X31110Y-42500D03*
X30110Y-42500D03*
X29110Y-42500D03*
G54D15*
X12514Y-28907D03*
G54D16*
X13514Y-28907D03*
X14514Y-28907D03*
X15514Y-28907D03*
X16514Y-28907D03*
X17514Y-28907D03*
X18514Y-28907D03*
X19514Y-28907D03*
G54D15*
X17014Y-23407D03*
G54D16*
X16014Y-23407D03*
X15014Y-23407D03*
X17014Y-22407D03*
X16014Y-22407D03*
X15014Y-22407D03*
G54D15*
X43724Y-24818D03*
G54D16*
X43724Y-25818D03*
X43724Y-26818D03*
X43724Y-27818D03*
G54D15*
X48924Y-27818D03*
G54D16*
X48924Y-26818D03*
X48924Y-25818D03*
X48924Y-24818D03*
G54D15*
X10987Y-31042D03*
G54D16*
X10987Y-32042D03*
X10987Y-33042D03*
X10987Y-34042D03*
X10987Y-35042D03*
X10987Y-36042D03*
G54D15*
X19987Y-31042D03*
G54D16*
X19987Y-32042D03*
X19987Y-33042D03*
X19987Y-34042D03*
X19987Y-35042D03*
X19987Y-36042D03*
G54D14*
X26419Y-26570D03*
X25041Y-26570D03*
X29419Y-26570D03*
X28041Y-26570D03*
X32519Y-26570D03*
X31141Y-26570D03*
G54D15*
X38263Y-28029D03*
G54D16*
X37263Y-28029D03*
G54D17*
X16080Y-43980D03*
X13320Y-43980D03*
X13815Y-43000D03*
X15585Y-43000D03*
X27990Y-43980D03*
X25230Y-43980D03*
X25725Y-43000D03*
X27495Y-43000D03*
X19634Y-27687D03*
X19634Y-24927D03*
X20614Y-25422D03*
X20614Y-27192D03*
G54D18*
X36877Y-33897D03*
X36877Y-35819D03*
X19300Y-55561D03*
X19300Y-53639D03*
X32010Y-53639D03*
X32010Y-55561D03*
G54D19*
X35463Y-25745D03*
X35463Y-25312D03*
G54D20*
X31456Y-44488D03*
X32283Y-42440D03*
G54D21*
X28897Y-36968D03*
G54D20*
X12913Y-48464D03*
X13188Y-49291D03*
X19173Y-46141D03*
X18031Y-46496D03*
X17992Y-45275D03*
X19527Y-45275D03*
X18188Y-53385D03*
X18976Y-51732D03*
X14803Y-51850D03*
X15590Y-45511D03*
X15669Y-53503D03*
X15511Y-52480D03*
X28464Y-46417D03*
X25275Y-48543D03*
X28779Y-52204D03*
X26653Y-46023D03*
X29566Y-45236D03*
X25236Y-45511D03*
X30511Y-45590D03*
X26850Y-46535D03*
X26968Y-47637D03*
X26220Y-47992D03*
X25984Y-51377D03*
X25669Y-51023D03*
X25511Y-50511D03*
X28031Y-46732D03*
X27204Y-49763D03*
X15944Y-26062D03*
X15905Y-25551D03*
X15511Y-26614D03*
X16338Y-26574D03*
X16889Y-26181D03*
X20039Y-24055D03*
X18582Y-26299D03*
X28425Y-34960D03*
X17007Y-31811D03*
X17204Y-32440D03*
X14370Y-33779D03*
X13622Y-31850D03*
X15669Y-30984D03*
X15078Y-30944D03*
X14212Y-31692D03*
X16929Y-31102D03*
X16614Y-33503D03*
X13346Y-33700D03*
X14409Y-31220D03*
X39685Y-50472D03*
X38937Y-52480D03*
X38267Y-50590D03*
X39370Y-50944D03*
X39685Y-49448D03*
X36062Y-50905D03*
X38425Y-32992D03*
X40787Y-36614D03*
X38425Y-32519D03*
X40196Y-36614D03*
X38425Y-32047D03*
G54D21*
X39488Y-34842D03*
G54D20*
X41771Y-50590D03*
X39409Y-51732D03*
X36417Y-54842D03*
X37204Y-53464D03*
X38464Y-49251D03*
X38582Y-52007D03*
G54D21*
X15393Y-32637D03*
G54D20*
X18385Y-38110D03*
X18385Y-40275D03*
X12322Y-40236D03*
X12322Y-38110D03*
X45708Y-49251D03*
X45354Y-46417D03*
X48818Y-46417D03*
X16220Y-56299D03*
X14803Y-50433D03*
X15275Y-51771D03*
X16023Y-51220D03*
X28661Y-44133D03*
X28818Y-47283D03*
X28031Y-50393D03*
X24094Y-43188D03*
X29173Y-50866D03*
X29527Y-55078D03*
X29527Y-57322D03*
X24055Y-57007D03*
X32598Y-52716D03*
X30590Y-52204D03*
X18228Y-27992D03*
X17440Y-25118D03*
X42992Y-44055D03*
X40000Y-45433D03*
X26811Y-51811D03*
X26811Y-52795D03*
X15944Y-35826D03*
X14881Y-35826D03*
X26968Y-40236D03*
X29763Y-34921D03*
X29566Y-38976D03*
X41692Y-53149D03*
X38779Y-53818D03*
X25551Y-54330D03*
X27244Y-52362D03*
X38622Y-44566D03*
X38858Y-36653D03*
X40787Y-35472D03*
X42362Y-52677D03*
X36023Y-53503D03*
X13740Y-35039D03*
X17086Y-35039D03*
X16614Y-46653D03*
G54D22*
X11850Y-46350D02*
X11000Y-45500D01*
X11850Y-47401D02*
X11850Y-46350D01*
X12913Y-48464D02*
X11850Y-47401D01*
X11574Y-47074D02*
X11000Y-46500D01*
X11574Y-47677D02*
X11574Y-47074D01*
X13188Y-49291D02*
X11574Y-47677D01*
X18385Y-46141D02*
X19173Y-46141D01*
X18031Y-46496D02*
X18385Y-46141D01*
X19527Y-45275D02*
X17992Y-45275D01*
X18188Y-53385D02*
X18188Y-52992D01*
X20157Y-44342D02*
X21000Y-43500D01*
X20157Y-51023D02*
X20157Y-44342D01*
X18188Y-52992D02*
X20157Y-51023D01*
X18442Y-53639D02*
X19300Y-53639D01*
X18188Y-53385D02*
X18442Y-53639D01*
X21000Y-42500D02*
X20688Y-42500D01*
X19881Y-50826D02*
X18976Y-51732D01*
X19881Y-43307D02*
X19881Y-50826D01*
X20688Y-42500D02*
X19881Y-43307D01*
X14803Y-51850D02*
X13661Y-50708D01*
X13661Y-50708D02*
X13661Y-49527D01*
X13661Y-49527D02*
X15236Y-47952D01*
X15236Y-47952D02*
X15236Y-45866D01*
X15236Y-45866D02*
X15590Y-45511D01*
X21000Y-54500D02*
X20972Y-54500D01*
X17125Y-54960D02*
X15669Y-53503D01*
X20511Y-54960D02*
X17125Y-54960D01*
X20972Y-54500D02*
X20511Y-54960D01*
X19893Y-54606D02*
X21000Y-53500D01*
X17637Y-54606D02*
X19893Y-54606D01*
X15511Y-52480D02*
X17637Y-54606D01*
G54D23*
X31889Y-46889D02*
X31889Y-47165D01*
X31417Y-46417D02*
X31889Y-46889D01*
X28464Y-46417D02*
X31417Y-46417D01*
X28779Y-52204D02*
X29330Y-52204D01*
X31515Y-42500D02*
X31110Y-42500D01*
X31889Y-42874D02*
X31515Y-42500D01*
X31889Y-49645D02*
X31889Y-47165D01*
X31889Y-47165D02*
X31889Y-42874D01*
X29330Y-52204D02*
X31889Y-49645D01*
X26377Y-49645D02*
X25275Y-48543D01*
X26377Y-49645D02*
X28779Y-52047D01*
X28779Y-52204D02*
X28779Y-52047D01*
X28779Y-52204D02*
X28779Y-56968D01*
X28248Y-57500D02*
X23110Y-57500D01*
X28779Y-56968D02*
X28248Y-57500D01*
G54D22*
X26653Y-46023D02*
X30551Y-46023D01*
X31110Y-45464D02*
X31110Y-43500D01*
X30551Y-46023D02*
X31110Y-45464D01*
X23413Y-45500D02*
X23110Y-45500D01*
X23937Y-46023D02*
X23413Y-45500D01*
X26653Y-46023D02*
X23937Y-46023D01*
X29015Y-44685D02*
X28740Y-44685D01*
X29566Y-45236D02*
X29015Y-44685D01*
X23110Y-44500D02*
X24618Y-44500D01*
X30590Y-42980D02*
X30110Y-42500D01*
X30590Y-43897D02*
X30590Y-42980D01*
X29803Y-44685D02*
X30590Y-43897D01*
X24803Y-44685D02*
X28700Y-44685D01*
X28700Y-44685D02*
X29803Y-44685D01*
X24618Y-44500D02*
X24803Y-44685D01*
X25236Y-45511D02*
X25393Y-45669D01*
X25393Y-45669D02*
X30433Y-45669D01*
X30433Y-45669D02*
X30511Y-45590D01*
X23110Y-43500D02*
X23342Y-43500D01*
X30110Y-44062D02*
X30110Y-43500D01*
X29688Y-44485D02*
X30110Y-44062D01*
X25075Y-44485D02*
X29688Y-44485D01*
X24842Y-44251D02*
X25075Y-44485D01*
X23967Y-44251D02*
X24842Y-44251D01*
X23700Y-43985D02*
X23967Y-44251D01*
X23700Y-43858D02*
X23700Y-43985D01*
X23342Y-43500D02*
X23700Y-43858D01*
X26814Y-46500D02*
X23110Y-46500D01*
X26850Y-46535D02*
X26814Y-46500D01*
X23110Y-48500D02*
X23461Y-48500D01*
X24323Y-47637D02*
X26968Y-47637D01*
X23461Y-48500D02*
X24323Y-47637D01*
X23110Y-49500D02*
X23807Y-49500D01*
X24251Y-47992D02*
X26220Y-47992D01*
X24055Y-48188D02*
X24251Y-47992D01*
X24055Y-49251D02*
X24055Y-48188D01*
X23807Y-49500D02*
X24055Y-49251D01*
X23110Y-53500D02*
X23862Y-53500D01*
X23862Y-53500D02*
X25984Y-51377D01*
X25669Y-51023D02*
X24192Y-52500D01*
X24192Y-52500D02*
X23110Y-52500D01*
X24523Y-51500D02*
X23110Y-51500D01*
X25511Y-50511D02*
X24523Y-51500D01*
X28031Y-48937D02*
X28031Y-46732D01*
X27204Y-49763D02*
X28031Y-48937D01*
X14514Y-28907D02*
X14514Y-26627D01*
X15078Y-26062D02*
X15944Y-26062D01*
X14514Y-26627D02*
X15078Y-26062D01*
X15905Y-25551D02*
X13897Y-25551D01*
X13514Y-25934D02*
X13514Y-28907D01*
X13897Y-25551D02*
X13514Y-25934D01*
X15514Y-26966D02*
X15514Y-28907D01*
X15511Y-26614D02*
X15514Y-26966D01*
X16514Y-26750D02*
X16514Y-28907D01*
X16338Y-26574D02*
X16514Y-26750D01*
X17514Y-28616D02*
X17514Y-28907D01*
X16889Y-27992D02*
X17514Y-28616D01*
X16889Y-26181D02*
X16889Y-27992D01*
X18582Y-26299D02*
X18582Y-24842D01*
X19370Y-24055D02*
X20039Y-24055D01*
X18582Y-24842D02*
X19370Y-24055D01*
X15014Y-23407D02*
X15014Y-24069D01*
X18582Y-25433D02*
X18582Y-26299D01*
X17637Y-24488D02*
X18582Y-25433D01*
X15433Y-24488D02*
X17637Y-24488D01*
X15014Y-24069D02*
X15433Y-24488D01*
X31747Y-35787D02*
X31930Y-35970D01*
X28858Y-35787D02*
X31747Y-35787D01*
X28582Y-35511D02*
X28858Y-35787D01*
X28582Y-35118D02*
X28582Y-35511D01*
X28425Y-34960D02*
X28582Y-35118D01*
X19987Y-32042D02*
X17239Y-32042D01*
X17239Y-32042D02*
X17007Y-31811D01*
X19987Y-33042D02*
X19987Y-32900D01*
X19527Y-32440D02*
X17204Y-32440D01*
X19987Y-32900D02*
X19527Y-32440D01*
X19987Y-34042D02*
X14633Y-34042D01*
X14633Y-34042D02*
X14370Y-33779D01*
X13740Y-33149D02*
X14370Y-33779D01*
X13740Y-31968D02*
X13740Y-33149D01*
X13622Y-31850D02*
X13740Y-31968D01*
X20629Y-34400D02*
X19987Y-35042D01*
X20629Y-31811D02*
X20629Y-34400D01*
X20393Y-31574D02*
X20629Y-31811D01*
X19251Y-31574D02*
X20393Y-31574D01*
X18425Y-30748D02*
X19251Y-31574D01*
X15905Y-30748D02*
X18425Y-30748D01*
X15669Y-30984D02*
X15905Y-30748D01*
X11929Y-30866D02*
X15000Y-30866D01*
X11303Y-32042D02*
X11692Y-31653D01*
X11692Y-31653D02*
X11692Y-31102D01*
X11692Y-31102D02*
X11929Y-30866D01*
X10987Y-32042D02*
X11303Y-32042D01*
X15000Y-30866D02*
X15078Y-30944D01*
G54D23*
X16929Y-31102D02*
X16771Y-31102D01*
X16771Y-31102D02*
X16181Y-31692D01*
X16181Y-31692D02*
X14212Y-31692D01*
X16614Y-33503D02*
X16614Y-31259D01*
X16614Y-31259D02*
X16771Y-31102D01*
G54D22*
X10987Y-35042D02*
X12477Y-35042D01*
X13346Y-34173D02*
X13346Y-33700D01*
X12477Y-35042D02*
X13346Y-34173D01*
X10987Y-34042D02*
X11469Y-34042D01*
X12047Y-31220D02*
X14409Y-31220D01*
X11929Y-31338D02*
X12047Y-31220D01*
X11929Y-33582D02*
X11929Y-31338D01*
X11469Y-34042D02*
X11929Y-33582D01*
X42883Y-51062D02*
X43366Y-51546D01*
X40275Y-51062D02*
X42883Y-51062D01*
X39685Y-50472D02*
X40275Y-51062D01*
X38937Y-51818D02*
X38937Y-52480D01*
X38661Y-51542D02*
X38937Y-51818D01*
X38661Y-50984D02*
X38661Y-51542D01*
X38267Y-50590D02*
X38661Y-50984D01*
X43366Y-53546D02*
X43310Y-53546D01*
X39763Y-51338D02*
X39370Y-50944D01*
X42283Y-51338D02*
X39763Y-51338D01*
X42755Y-51811D02*
X42283Y-51338D01*
X42755Y-52992D02*
X42755Y-51811D01*
X43310Y-53546D02*
X42755Y-52992D01*
G54D23*
X39782Y-49546D02*
X43366Y-49546D01*
X39685Y-49448D02*
X39782Y-49546D01*
G54D22*
X35366Y-52546D02*
X35524Y-52546D01*
X35905Y-51062D02*
X36062Y-50905D01*
X35905Y-52165D02*
X35905Y-51062D01*
X35524Y-52546D02*
X35905Y-52165D01*
X41181Y-38555D02*
X40477Y-39258D01*
X41181Y-33346D02*
X41181Y-38555D01*
X40826Y-32992D02*
X41181Y-33346D01*
X38425Y-32992D02*
X40826Y-32992D01*
X39477Y-37924D02*
X39477Y-39258D01*
X40787Y-36614D02*
X39477Y-37924D01*
X41477Y-38760D02*
X41477Y-39258D01*
X41417Y-38700D02*
X41477Y-38760D01*
X41417Y-33267D02*
X41417Y-38700D01*
X40629Y-32480D02*
X41417Y-33267D01*
X38464Y-32480D02*
X40629Y-32480D01*
X38425Y-32519D02*
X38464Y-32480D01*
X39212Y-38523D02*
X38477Y-39258D01*
X39212Y-37598D02*
X39212Y-38523D01*
X40196Y-36614D02*
X39212Y-37598D01*
X42477Y-38894D02*
X42477Y-39258D01*
X42362Y-38779D02*
X42477Y-38894D01*
X41968Y-38779D02*
X42362Y-38779D01*
X41653Y-38464D02*
X41968Y-38779D01*
X41653Y-32952D02*
X41653Y-38464D01*
X40748Y-32047D02*
X41653Y-32952D01*
X38425Y-32047D02*
X40748Y-32047D01*
G54D23*
X39488Y-34842D02*
X37165Y-34842D01*
X37165Y-34842D02*
X36877Y-34554D01*
X36877Y-34554D02*
X36877Y-33897D01*
X45177Y-34258D02*
X43890Y-34258D01*
X43477Y-34672D02*
X43477Y-36640D01*
X43890Y-34258D02*
X43477Y-34672D01*
X43477Y-39258D02*
X43477Y-36640D01*
X43859Y-36258D02*
X45177Y-36258D01*
X43477Y-36640D02*
X43859Y-36258D01*
X38740Y-50000D02*
X38464Y-49724D01*
X41181Y-50000D02*
X38740Y-50000D01*
X41771Y-50590D02*
X41181Y-50000D01*
X38110Y-53070D02*
X38110Y-53031D01*
X39409Y-51732D02*
X39409Y-52637D01*
X39409Y-52637D02*
X38937Y-53110D01*
X38937Y-53110D02*
X38031Y-53110D01*
X38031Y-53110D02*
X38070Y-53070D01*
X38070Y-53070D02*
X38110Y-53070D01*
X37204Y-53464D02*
X37677Y-53464D01*
X38307Y-52283D02*
X38582Y-52007D01*
X38307Y-52834D02*
X38307Y-52283D01*
X37677Y-53464D02*
X38110Y-53031D01*
X38110Y-53031D02*
X38307Y-52834D01*
X36929Y-54842D02*
X36417Y-54842D01*
X37204Y-54566D02*
X36929Y-54842D01*
X37204Y-53464D02*
X37204Y-54566D01*
X38464Y-49251D02*
X38464Y-49724D01*
X38464Y-49724D02*
X38464Y-49842D01*
X37874Y-51299D02*
X38582Y-52007D01*
X37874Y-50433D02*
X37874Y-51299D01*
X38464Y-49842D02*
X37874Y-50433D01*
X48033Y-50433D02*
X48683Y-49783D01*
X46299Y-50433D02*
X48033Y-50433D01*
X45708Y-49842D02*
X46299Y-50433D01*
X45708Y-49251D02*
X45708Y-49842D01*
X47062Y-46826D02*
X47062Y-46874D01*
X46653Y-46417D02*
X47062Y-46826D01*
X45354Y-46417D02*
X46653Y-46417D01*
X48818Y-46417D02*
X47519Y-46417D01*
X47519Y-46417D02*
X47062Y-46874D01*
X47062Y-46874D02*
X47062Y-47417D01*
X28838Y-42500D02*
X28385Y-42952D01*
X28385Y-42952D02*
X28385Y-43622D01*
X28385Y-43622D02*
X28661Y-43897D01*
X28661Y-43897D02*
X28661Y-44133D01*
X28838Y-42500D02*
X29110Y-42500D01*
X28818Y-49606D02*
X28818Y-47283D01*
X28031Y-50393D02*
X28818Y-49606D01*
G54D22*
X24283Y-43000D02*
X25725Y-43000D01*
X24094Y-43188D02*
X24283Y-43000D01*
G54D23*
X18228Y-27992D02*
X18897Y-27992D01*
X18897Y-27992D02*
X19514Y-28608D01*
X19514Y-28608D02*
X19514Y-28907D01*
X41377Y-44055D02*
X42992Y-44055D01*
X40000Y-45433D02*
X41377Y-44055D01*
G54D22*
X26811Y-52795D02*
X26811Y-51811D01*
X14881Y-35826D02*
X15944Y-35826D01*
G54D23*
X25658Y-35202D02*
X26265Y-35202D01*
X26850Y-40118D02*
X26968Y-40236D01*
X26850Y-35787D02*
X26850Y-40118D01*
X26265Y-35202D02*
X26850Y-35787D01*
X31318Y-33366D02*
X31791Y-33366D01*
X29763Y-34921D02*
X31318Y-33366D01*
X27992Y-31456D02*
X28444Y-31003D01*
X27992Y-37401D02*
X27992Y-31456D01*
X29566Y-38976D02*
X27992Y-37401D01*
G54D22*
X39448Y-53149D02*
X41692Y-53149D01*
X38779Y-53818D02*
X39448Y-53149D01*
G54D23*
X24610Y-48500D02*
X24641Y-48500D01*
X27244Y-51102D02*
X27244Y-52362D01*
X24641Y-48500D02*
X27244Y-51102D01*
X25944Y-53937D02*
X25551Y-54330D01*
X26771Y-53937D02*
X25944Y-53937D01*
X27244Y-53464D02*
X26771Y-53937D01*
X27244Y-52362D02*
X27244Y-53464D01*
X38346Y-43031D02*
X39000Y-42377D01*
X38346Y-44291D02*
X38346Y-43031D01*
X38622Y-44566D02*
X38346Y-44291D01*
X36477Y-39258D02*
X36477Y-37341D01*
X37165Y-36653D02*
X38858Y-36653D01*
X36477Y-37341D02*
X37165Y-36653D01*
X39409Y-36102D02*
X38858Y-36653D01*
X40157Y-36102D02*
X39409Y-36102D01*
X40787Y-35472D02*
X40157Y-36102D01*
X36023Y-55118D02*
X36023Y-53503D01*
X36732Y-55826D02*
X36023Y-55118D01*
X41968Y-55826D02*
X36732Y-55826D01*
X42362Y-55433D02*
X41968Y-55826D01*
X42362Y-52677D02*
X42362Y-55433D01*
X35366Y-49546D02*
X35963Y-49546D01*
X35963Y-49546D02*
X36496Y-50078D01*
X36496Y-50078D02*
X36496Y-53031D01*
X36496Y-53031D02*
X36023Y-53503D01*
X13779Y-35039D02*
X13740Y-35039D01*
X17086Y-35039D02*
X13779Y-35039D01*
X19000Y-42500D02*
X19429Y-42500D01*
X16614Y-45866D02*
X16614Y-46653D01*
X17637Y-44842D02*
X16614Y-45866D01*
X19448Y-44842D02*
X17637Y-44842D01*
X19633Y-44657D02*
X19448Y-44842D01*
X19633Y-42704D02*
X19633Y-44657D01*
X19429Y-42500D02*
X19633Y-42704D01*
G54D10*
G36*
X21449Y-27225D02*
X21358Y-27263D01*
X21259Y-27361D01*
X21206Y-27489D01*
X21206Y-27628D01*
X21259Y-27756D01*
X21206Y-27883D01*
X21206Y-28021D01*
X21259Y-28149D01*
X21206Y-28276D01*
X21206Y-28415D01*
X21259Y-28543D01*
X21206Y-28670D01*
X21206Y-28809D01*
X21259Y-28937D01*
X21206Y-29064D01*
X21206Y-29202D01*
X21223Y-29243D01*
X21211Y-29238D01*
X21178Y-29238D01*
X21178Y-25507D01*
X21168Y-25284D01*
X21103Y-25129D01*
X21007Y-25100D01*
X20936Y-25171D01*
X20936Y-25029D01*
X20908Y-24933D01*
X20698Y-24858D01*
X20475Y-24868D01*
X20320Y-24933D01*
X20291Y-25029D01*
X20614Y-25352D01*
X20936Y-25029D01*
X20936Y-25171D01*
X20684Y-25422D01*
X21007Y-25745D01*
X21103Y-25716D01*
X21178Y-25507D01*
X21178Y-29238D01*
X21174Y-29238D01*
X21174Y-27081D01*
X21089Y-26876D01*
X20936Y-26723D01*
X20936Y-25816D01*
X20614Y-25493D01*
X20291Y-25816D01*
X20320Y-25912D01*
X20530Y-25987D01*
X20752Y-25976D01*
X20908Y-25912D01*
X20936Y-25816D01*
X20936Y-26723D01*
X20931Y-26718D01*
X20726Y-26632D01*
X20503Y-26632D01*
X20297Y-26717D01*
X20139Y-26875D01*
X20054Y-27080D01*
X20054Y-27303D01*
X20062Y-27324D01*
X19951Y-27213D01*
X19746Y-27127D01*
X19523Y-27127D01*
X19317Y-27212D01*
X19159Y-27370D01*
X19074Y-27575D01*
X19074Y-27798D01*
X19159Y-28004D01*
X19316Y-28162D01*
X19522Y-28247D01*
X19745Y-28247D01*
X19950Y-28162D01*
X20108Y-28005D01*
X20194Y-27799D01*
X20194Y-27576D01*
X20185Y-27556D01*
X20296Y-27667D01*
X20502Y-27752D01*
X20725Y-27752D01*
X20930Y-27667D01*
X21088Y-27510D01*
X21174Y-27304D01*
X21174Y-27081D01*
X21174Y-29238D01*
X21072Y-29238D01*
X20944Y-29291D01*
X20817Y-29238D01*
X20679Y-29238D01*
X20551Y-29291D01*
X20423Y-29238D01*
X20285Y-29238D01*
X20157Y-29291D01*
X20068Y-29254D01*
X20030Y-29238D01*
X19915Y-29238D01*
X19900Y-29223D01*
X19995Y-29195D01*
X20068Y-28989D01*
X20058Y-28771D01*
X19995Y-28620D01*
X19900Y-28592D01*
X19829Y-28663D01*
X19829Y-28521D01*
X19802Y-28426D01*
X19595Y-28353D01*
X19377Y-28364D01*
X19226Y-28426D01*
X19198Y-28521D01*
X19514Y-28837D01*
X19829Y-28521D01*
X19829Y-28663D01*
X19584Y-28907D01*
X19590Y-28913D01*
X19519Y-28984D01*
X19514Y-28978D01*
X19198Y-29293D01*
X19226Y-29389D01*
X19354Y-29435D01*
X18678Y-29435D01*
X18825Y-29374D01*
X18980Y-29219D01*
X19011Y-29144D01*
X19032Y-29195D01*
X19128Y-29223D01*
X19443Y-28907D01*
X19128Y-28592D01*
X19032Y-28620D01*
X19013Y-28675D01*
X18980Y-28596D01*
X18826Y-28441D01*
X18624Y-28357D01*
X18405Y-28357D01*
X18203Y-28441D01*
X18048Y-28595D01*
X18014Y-28677D01*
X17980Y-28596D01*
X17826Y-28441D01*
X17719Y-28397D01*
X17189Y-27867D01*
X17189Y-26482D01*
X17249Y-26422D01*
X17314Y-26266D01*
X17314Y-26096D01*
X17250Y-25940D01*
X17130Y-25821D01*
X16974Y-25756D01*
X16805Y-25756D01*
X16649Y-25820D01*
X16529Y-25940D01*
X16464Y-26096D01*
X16464Y-26167D01*
X16423Y-26149D01*
X16369Y-26149D01*
X16369Y-26147D01*
X16369Y-25978D01*
X16305Y-25822D01*
X16268Y-25785D01*
X16330Y-25636D01*
X16330Y-25467D01*
X16266Y-25310D01*
X16146Y-25191D01*
X15990Y-25126D01*
X15821Y-25126D01*
X15665Y-25190D01*
X15604Y-25251D01*
X13897Y-25251D01*
X13782Y-25274D01*
X13685Y-25339D01*
X13302Y-25722D01*
X13237Y-25819D01*
X13214Y-25934D01*
X13214Y-28436D01*
X13203Y-28441D01*
X13064Y-28579D01*
X13064Y-28558D01*
X13026Y-28466D01*
X12955Y-28396D01*
X12864Y-28357D01*
X12764Y-28357D01*
X12164Y-28357D01*
X12072Y-28395D01*
X12002Y-28466D01*
X11964Y-28557D01*
X11964Y-28657D01*
X11964Y-29257D01*
X12002Y-29349D01*
X12058Y-29405D01*
X10515Y-29405D01*
X10515Y-21893D01*
X14805Y-21893D01*
X14726Y-21926D01*
X14698Y-22021D01*
X15014Y-22337D01*
X15329Y-22021D01*
X15302Y-21926D01*
X15209Y-21893D01*
X15818Y-21893D01*
X15703Y-21941D01*
X15548Y-22095D01*
X15516Y-22171D01*
X15495Y-22120D01*
X15400Y-22092D01*
X15084Y-22407D01*
X15400Y-22723D01*
X15495Y-22695D01*
X15515Y-22640D01*
X15547Y-22719D01*
X15702Y-22873D01*
X15784Y-22907D01*
X15703Y-22941D01*
X15548Y-23095D01*
X15514Y-23177D01*
X15480Y-23096D01*
X15326Y-22941D01*
X15250Y-22910D01*
X15302Y-22889D01*
X15329Y-22793D01*
X15014Y-22478D01*
X14943Y-22549D01*
X14943Y-22407D01*
X14628Y-22092D01*
X14532Y-22120D01*
X14459Y-22326D01*
X14470Y-22544D01*
X14532Y-22695D01*
X14628Y-22723D01*
X14943Y-22407D01*
X14943Y-22549D01*
X14698Y-22793D01*
X14726Y-22889D01*
X14781Y-22908D01*
X14703Y-22941D01*
X14548Y-23095D01*
X14464Y-23297D01*
X14464Y-23516D01*
X14547Y-23719D01*
X14702Y-23873D01*
X14714Y-23878D01*
X14714Y-24069D01*
X14737Y-24184D01*
X14802Y-24281D01*
X15220Y-24700D01*
X15220Y-24700D01*
X15318Y-24765D01*
X15433Y-24788D01*
X17513Y-24788D01*
X18282Y-25557D01*
X18282Y-25998D01*
X18222Y-26058D01*
X18157Y-26214D01*
X18157Y-26383D01*
X18222Y-26539D01*
X18341Y-26659D01*
X18497Y-26724D01*
X18666Y-26724D01*
X18823Y-26659D01*
X18942Y-26540D01*
X19007Y-26384D01*
X19007Y-26215D01*
X18943Y-26058D01*
X18882Y-25998D01*
X18882Y-25433D01*
X18882Y-24966D01*
X19103Y-24746D01*
X19074Y-24815D01*
X19074Y-25038D01*
X19159Y-25244D01*
X19316Y-25402D01*
X19522Y-25487D01*
X19745Y-25487D01*
X19950Y-25402D01*
X20068Y-25285D01*
X20049Y-25338D01*
X20060Y-25561D01*
X20124Y-25716D01*
X20221Y-25745D01*
X20543Y-25422D01*
X20221Y-25100D01*
X20161Y-25118D01*
X20194Y-25039D01*
X20194Y-24816D01*
X20109Y-24611D01*
X19978Y-24480D01*
X20123Y-24480D01*
X20279Y-24415D01*
X20399Y-24296D01*
X20464Y-24140D01*
X20464Y-23970D01*
X20399Y-23814D01*
X20280Y-23695D01*
X20124Y-23630D01*
X19955Y-23630D01*
X19798Y-23694D01*
X19738Y-23755D01*
X19370Y-23755D01*
X19255Y-23777D01*
X19157Y-23842D01*
X18370Y-24630D01*
X18305Y-24727D01*
X18304Y-24730D01*
X17849Y-24276D01*
X17752Y-24211D01*
X17637Y-24188D01*
X15557Y-24188D01*
X15314Y-23945D01*
X15314Y-23879D01*
X15325Y-23874D01*
X15480Y-23719D01*
X15514Y-23637D01*
X15547Y-23719D01*
X15702Y-23873D01*
X15904Y-23957D01*
X16123Y-23957D01*
X16325Y-23874D01*
X16464Y-23735D01*
X16464Y-23757D01*
X16502Y-23849D01*
X16572Y-23919D01*
X16664Y-23957D01*
X16763Y-23957D01*
X17363Y-23957D01*
X17455Y-23919D01*
X17525Y-23849D01*
X17564Y-23757D01*
X17564Y-23658D01*
X17564Y-23058D01*
X17526Y-22966D01*
X17455Y-22896D01*
X17364Y-22857D01*
X17341Y-22857D01*
X17480Y-22719D01*
X17564Y-22517D01*
X17564Y-22298D01*
X17480Y-22096D01*
X17326Y-21941D01*
X17210Y-21893D01*
X21374Y-21893D01*
X21374Y-23319D01*
X21358Y-23326D01*
X21259Y-23424D01*
X21206Y-23552D01*
X21206Y-23691D01*
X21259Y-23819D01*
X21206Y-23946D01*
X21206Y-24084D01*
X21259Y-24212D01*
X21206Y-24339D01*
X21206Y-24478D01*
X21259Y-24606D01*
X21206Y-24733D01*
X21206Y-24872D01*
X21259Y-25000D01*
X21206Y-25127D01*
X21206Y-25265D01*
X21259Y-25393D01*
X21357Y-25492D01*
X21449Y-25530D01*
X21403Y-25763D01*
X21403Y-26992D01*
X21449Y-27225D01*
X21449Y-27225D01*
G37*
G54D22*
X21449Y-27225D02*
X21358Y-27263D01*
X21259Y-27361D01*
X21206Y-27489D01*
X21206Y-27628D01*
X21259Y-27756D01*
X21206Y-27883D01*
X21206Y-28021D01*
X21259Y-28149D01*
X21206Y-28276D01*
X21206Y-28415D01*
X21259Y-28543D01*
X21206Y-28670D01*
X21206Y-28809D01*
X21259Y-28937D01*
X21206Y-29064D01*
X21206Y-29202D01*
X21223Y-29243D01*
X21211Y-29238D01*
X21178Y-29238D01*
X21178Y-25507D01*
X21168Y-25284D01*
X21103Y-25129D01*
X21007Y-25100D01*
X20936Y-25171D01*
X20936Y-25029D01*
X20908Y-24933D01*
X20698Y-24858D01*
X20475Y-24868D01*
X20320Y-24933D01*
X20291Y-25029D01*
X20614Y-25352D01*
X20936Y-25029D01*
X20936Y-25171D01*
X20684Y-25422D01*
X21007Y-25745D01*
X21103Y-25716D01*
X21178Y-25507D01*
X21178Y-29238D01*
X21174Y-29238D01*
X21174Y-27081D01*
X21089Y-26876D01*
X20936Y-26723D01*
X20936Y-25816D01*
X20614Y-25493D01*
X20291Y-25816D01*
X20320Y-25912D01*
X20530Y-25987D01*
X20752Y-25976D01*
X20908Y-25912D01*
X20936Y-25816D01*
X20936Y-26723D01*
X20931Y-26718D01*
X20726Y-26632D01*
X20503Y-26632D01*
X20297Y-26717D01*
X20139Y-26875D01*
X20054Y-27080D01*
X20054Y-27303D01*
X20062Y-27324D01*
X19951Y-27213D01*
X19746Y-27127D01*
X19523Y-27127D01*
X19317Y-27212D01*
X19159Y-27370D01*
X19074Y-27575D01*
X19074Y-27798D01*
X19159Y-28004D01*
X19316Y-28162D01*
X19522Y-28247D01*
X19745Y-28247D01*
X19950Y-28162D01*
X20108Y-28005D01*
X20194Y-27799D01*
X20194Y-27576D01*
X20185Y-27556D01*
X20296Y-27667D01*
X20502Y-27752D01*
X20725Y-27752D01*
X20930Y-27667D01*
X21088Y-27510D01*
X21174Y-27304D01*
X21174Y-27081D01*
X21174Y-29238D01*
X21072Y-29238D01*
X20944Y-29291D01*
X20817Y-29238D01*
X20679Y-29238D01*
X20551Y-29291D01*
X20423Y-29238D01*
X20285Y-29238D01*
X20157Y-29291D01*
X20068Y-29254D01*
X20030Y-29238D01*
X19915Y-29238D01*
X19900Y-29223D01*
X19995Y-29195D01*
X20068Y-28989D01*
X20058Y-28771D01*
X19995Y-28620D01*
X19900Y-28592D01*
X19829Y-28663D01*
X19829Y-28521D01*
X19802Y-28426D01*
X19595Y-28353D01*
X19377Y-28364D01*
X19226Y-28426D01*
X19198Y-28521D01*
X19514Y-28837D01*
X19829Y-28521D01*
X19829Y-28663D01*
X19584Y-28907D01*
X19590Y-28913D01*
X19519Y-28984D01*
X19514Y-28978D01*
X19198Y-29293D01*
X19226Y-29389D01*
X19354Y-29435D01*
X18678Y-29435D01*
X18825Y-29374D01*
X18980Y-29219D01*
X19011Y-29144D01*
X19032Y-29195D01*
X19128Y-29223D01*
X19443Y-28907D01*
X19128Y-28592D01*
X19032Y-28620D01*
X19013Y-28675D01*
X18980Y-28596D01*
X18826Y-28441D01*
X18624Y-28357D01*
X18405Y-28357D01*
X18203Y-28441D01*
X18048Y-28595D01*
X18014Y-28677D01*
X17980Y-28596D01*
X17826Y-28441D01*
X17719Y-28397D01*
X17189Y-27867D01*
X17189Y-26482D01*
X17249Y-26422D01*
X17314Y-26266D01*
X17314Y-26096D01*
X17250Y-25940D01*
X17130Y-25821D01*
X16974Y-25756D01*
X16805Y-25756D01*
X16649Y-25820D01*
X16529Y-25940D01*
X16464Y-26096D01*
X16464Y-26167D01*
X16423Y-26149D01*
X16369Y-26149D01*
X16369Y-26147D01*
X16369Y-25978D01*
X16305Y-25822D01*
X16268Y-25785D01*
X16330Y-25636D01*
X16330Y-25467D01*
X16266Y-25310D01*
X16146Y-25191D01*
X15990Y-25126D01*
X15821Y-25126D01*
X15665Y-25190D01*
X15604Y-25251D01*
X13897Y-25251D01*
X13782Y-25274D01*
X13685Y-25339D01*
X13302Y-25722D01*
X13237Y-25819D01*
X13214Y-25934D01*
X13214Y-28436D01*
X13203Y-28441D01*
X13064Y-28579D01*
X13064Y-28558D01*
X13026Y-28466D01*
X12955Y-28396D01*
X12864Y-28357D01*
X12764Y-28357D01*
X12164Y-28357D01*
X12072Y-28395D01*
X12002Y-28466D01*
X11964Y-28557D01*
X11964Y-28657D01*
X11964Y-29257D01*
X12002Y-29349D01*
X12058Y-29405D01*
X10515Y-29405D01*
X10515Y-21893D01*
X14805Y-21893D01*
X14726Y-21926D01*
X14698Y-22021D01*
X15014Y-22337D01*
X15329Y-22021D01*
X15302Y-21926D01*
X15209Y-21893D01*
X15818Y-21893D01*
X15703Y-21941D01*
X15548Y-22095D01*
X15516Y-22171D01*
X15495Y-22120D01*
X15400Y-22092D01*
X15084Y-22407D01*
X15400Y-22723D01*
X15495Y-22695D01*
X15515Y-22640D01*
X15547Y-22719D01*
X15702Y-22873D01*
X15784Y-22907D01*
X15703Y-22941D01*
X15548Y-23095D01*
X15514Y-23177D01*
X15480Y-23096D01*
X15326Y-22941D01*
X15250Y-22910D01*
X15302Y-22889D01*
X15329Y-22793D01*
X15014Y-22478D01*
X14943Y-22549D01*
X14943Y-22407D01*
X14628Y-22092D01*
X14532Y-22120D01*
X14459Y-22326D01*
X14470Y-22544D01*
X14532Y-22695D01*
X14628Y-22723D01*
X14943Y-22407D01*
X14943Y-22549D01*
X14698Y-22793D01*
X14726Y-22889D01*
X14781Y-22908D01*
X14703Y-22941D01*
X14548Y-23095D01*
X14464Y-23297D01*
X14464Y-23516D01*
X14547Y-23719D01*
X14702Y-23873D01*
X14714Y-23878D01*
X14714Y-24069D01*
X14737Y-24184D01*
X14802Y-24281D01*
X15220Y-24700D01*
X15220Y-24700D01*
X15318Y-24765D01*
X15433Y-24788D01*
X17513Y-24788D01*
X18282Y-25557D01*
X18282Y-25998D01*
X18222Y-26058D01*
X18157Y-26214D01*
X18157Y-26383D01*
X18222Y-26539D01*
X18341Y-26659D01*
X18497Y-26724D01*
X18666Y-26724D01*
X18823Y-26659D01*
X18942Y-26540D01*
X19007Y-26384D01*
X19007Y-26215D01*
X18943Y-26058D01*
X18882Y-25998D01*
X18882Y-25433D01*
X18882Y-24966D01*
X19103Y-24746D01*
X19074Y-24815D01*
X19074Y-25038D01*
X19159Y-25244D01*
X19316Y-25402D01*
X19522Y-25487D01*
X19745Y-25487D01*
X19950Y-25402D01*
X20068Y-25285D01*
X20049Y-25338D01*
X20060Y-25561D01*
X20124Y-25716D01*
X20221Y-25745D01*
X20543Y-25422D01*
X20221Y-25100D01*
X20161Y-25118D01*
X20194Y-25039D01*
X20194Y-24816D01*
X20109Y-24611D01*
X19978Y-24480D01*
X20123Y-24480D01*
X20279Y-24415D01*
X20399Y-24296D01*
X20464Y-24140D01*
X20464Y-23970D01*
X20399Y-23814D01*
X20280Y-23695D01*
X20124Y-23630D01*
X19955Y-23630D01*
X19798Y-23694D01*
X19738Y-23755D01*
X19370Y-23755D01*
X19255Y-23777D01*
X19157Y-23842D01*
X18370Y-24630D01*
X18305Y-24727D01*
X18304Y-24730D01*
X17849Y-24276D01*
X17752Y-24211D01*
X17637Y-24188D01*
X15557Y-24188D01*
X15314Y-23945D01*
X15314Y-23879D01*
X15325Y-23874D01*
X15480Y-23719D01*
X15514Y-23637D01*
X15547Y-23719D01*
X15702Y-23873D01*
X15904Y-23957D01*
X16123Y-23957D01*
X16325Y-23874D01*
X16464Y-23735D01*
X16464Y-23757D01*
X16502Y-23849D01*
X16572Y-23919D01*
X16664Y-23957D01*
X16763Y-23957D01*
X17363Y-23957D01*
X17455Y-23919D01*
X17525Y-23849D01*
X17564Y-23757D01*
X17564Y-23658D01*
X17564Y-23058D01*
X17526Y-22966D01*
X17455Y-22896D01*
X17364Y-22857D01*
X17341Y-22857D01*
X17480Y-22719D01*
X17564Y-22517D01*
X17564Y-22298D01*
X17480Y-22096D01*
X17326Y-21941D01*
X17210Y-21893D01*
X21374Y-21893D01*
X21374Y-23319D01*
X21358Y-23326D01*
X21259Y-23424D01*
X21206Y-23552D01*
X21206Y-23691D01*
X21259Y-23819D01*
X21206Y-23946D01*
X21206Y-24084D01*
X21259Y-24212D01*
X21206Y-24339D01*
X21206Y-24478D01*
X21259Y-24606D01*
X21206Y-24733D01*
X21206Y-24872D01*
X21259Y-25000D01*
X21206Y-25127D01*
X21206Y-25265D01*
X21259Y-25393D01*
X21357Y-25492D01*
X21449Y-25530D01*
X21403Y-25763D01*
X21403Y-26992D01*
X21449Y-27225D01*
G54D10*
G36*
X20429Y-33935D02*
X20369Y-33787D01*
X20242Y-33661D01*
X20077Y-33592D01*
X19898Y-33592D01*
X19732Y-33660D01*
X19606Y-33787D01*
X19583Y-33842D01*
X14715Y-33842D01*
X14695Y-33821D01*
X14695Y-33715D01*
X14645Y-33595D01*
X14554Y-33504D01*
X14435Y-33454D01*
X14327Y-33454D01*
X13940Y-33066D01*
X13940Y-31968D01*
X13935Y-31943D01*
X13946Y-31915D01*
X13947Y-31886D01*
X14028Y-31968D01*
X14147Y-32017D01*
X14276Y-32017D01*
X14396Y-31968D01*
X14423Y-31941D01*
X16181Y-31941D01*
X16181Y-31941D01*
X16276Y-31922D01*
X16356Y-31868D01*
X16365Y-31859D01*
X16365Y-33292D01*
X16338Y-33319D01*
X16289Y-33439D01*
X16289Y-33568D01*
X16338Y-33687D01*
X16429Y-33779D01*
X16549Y-33828D01*
X16678Y-33828D01*
X16798Y-33779D01*
X16889Y-33688D01*
X16939Y-33568D01*
X16939Y-33439D01*
X16889Y-33320D01*
X16862Y-33292D01*
X16862Y-32102D01*
X16942Y-32135D01*
X17050Y-32136D01*
X17062Y-32148D01*
X17020Y-32165D01*
X16929Y-32256D01*
X16879Y-32376D01*
X16879Y-32505D01*
X16929Y-32624D01*
X17020Y-32716D01*
X17139Y-32765D01*
X17269Y-32766D01*
X17388Y-32716D01*
X17464Y-32640D01*
X19444Y-32640D01*
X19601Y-32797D01*
X19537Y-32952D01*
X19537Y-33131D01*
X19605Y-33297D01*
X19732Y-33423D01*
X19897Y-33492D01*
X20076Y-33492D01*
X20241Y-33424D01*
X20368Y-33297D01*
X20429Y-33150D01*
X20429Y-33935D01*
X20429Y-33935D01*
G37*
G54D22*
X20429Y-33935D02*
X20369Y-33787D01*
X20242Y-33661D01*
X20077Y-33592D01*
X19898Y-33592D01*
X19732Y-33660D01*
X19606Y-33787D01*
X19583Y-33842D01*
X14715Y-33842D01*
X14695Y-33821D01*
X14695Y-33715D01*
X14645Y-33595D01*
X14554Y-33504D01*
X14435Y-33454D01*
X14327Y-33454D01*
X13940Y-33066D01*
X13940Y-31968D01*
X13935Y-31943D01*
X13946Y-31915D01*
X13947Y-31886D01*
X14028Y-31968D01*
X14147Y-32017D01*
X14276Y-32017D01*
X14396Y-31968D01*
X14423Y-31941D01*
X16181Y-31941D01*
X16181Y-31941D01*
X16276Y-31922D01*
X16356Y-31868D01*
X16365Y-31859D01*
X16365Y-33292D01*
X16338Y-33319D01*
X16289Y-33439D01*
X16289Y-33568D01*
X16338Y-33687D01*
X16429Y-33779D01*
X16549Y-33828D01*
X16678Y-33828D01*
X16798Y-33779D01*
X16889Y-33688D01*
X16939Y-33568D01*
X16939Y-33439D01*
X16889Y-33320D01*
X16862Y-33292D01*
X16862Y-32102D01*
X16942Y-32135D01*
X17050Y-32136D01*
X17062Y-32148D01*
X17020Y-32165D01*
X16929Y-32256D01*
X16879Y-32376D01*
X16879Y-32505D01*
X16929Y-32624D01*
X17020Y-32716D01*
X17139Y-32765D01*
X17269Y-32766D01*
X17388Y-32716D01*
X17464Y-32640D01*
X19444Y-32640D01*
X19601Y-32797D01*
X19537Y-32952D01*
X19537Y-33131D01*
X19605Y-33297D01*
X19732Y-33423D01*
X19897Y-33492D01*
X20076Y-33492D01*
X20241Y-33424D01*
X20368Y-33297D01*
X20429Y-33150D01*
X20429Y-33935D01*
G54D10*
G36*
X21603Y-39121D02*
X21505Y-39121D01*
X21414Y-39159D01*
X21344Y-39229D01*
X21306Y-39320D01*
X21306Y-39419D01*
X21344Y-39510D01*
X21400Y-39566D01*
X21344Y-39622D01*
X21306Y-39714D01*
X21306Y-39812D01*
X21344Y-39904D01*
X21400Y-39960D01*
X21344Y-40016D01*
X21306Y-40107D01*
X21306Y-40206D01*
X21344Y-40298D01*
X21400Y-40354D01*
X21344Y-40410D01*
X21306Y-40501D01*
X21306Y-40600D01*
X21344Y-40691D01*
X21400Y-40748D01*
X21344Y-40803D01*
X21306Y-40895D01*
X21306Y-40912D01*
X20542Y-40912D01*
X20542Y-36124D01*
X20531Y-35905D01*
X20468Y-35754D01*
X20373Y-35727D01*
X20058Y-36042D01*
X20373Y-36357D01*
X20468Y-36330D01*
X20542Y-36124D01*
X20542Y-40912D01*
X20430Y-40912D01*
X20302Y-40938D01*
X20302Y-36428D01*
X19987Y-36113D01*
X19916Y-36183D01*
X19916Y-36042D01*
X19601Y-35727D01*
X19506Y-35754D01*
X19432Y-35960D01*
X19443Y-36179D01*
X19506Y-36330D01*
X19601Y-36357D01*
X19916Y-36042D01*
X19916Y-36183D01*
X19672Y-36428D01*
X19699Y-36523D01*
X19905Y-36597D01*
X20124Y-36586D01*
X20275Y-36523D01*
X20302Y-36428D01*
X20302Y-40938D01*
X20222Y-40954D01*
X20135Y-41012D01*
X20130Y-41012D01*
X20130Y-40915D01*
X20092Y-40824D01*
X20022Y-40754D01*
X19931Y-40716D01*
X19832Y-40716D01*
X19741Y-40753D01*
X19685Y-40810D01*
X19629Y-40754D01*
X19537Y-40716D01*
X19438Y-40716D01*
X19347Y-40753D01*
X19291Y-40810D01*
X19235Y-40754D01*
X19144Y-40716D01*
X19045Y-40716D01*
X18953Y-40753D01*
X18897Y-40810D01*
X18841Y-40754D01*
X18750Y-40716D01*
X18651Y-40716D01*
X18560Y-40753D01*
X18503Y-40810D01*
X18447Y-40754D01*
X18356Y-40716D01*
X18257Y-40716D01*
X18166Y-40753D01*
X18096Y-40823D01*
X18058Y-40914D01*
X18058Y-41012D01*
X18053Y-41012D01*
X17966Y-40954D01*
X17758Y-40912D01*
X17411Y-40912D01*
X17411Y-34975D01*
X17362Y-34855D01*
X17270Y-34764D01*
X17151Y-34714D01*
X17022Y-34714D01*
X16902Y-34763D01*
X16875Y-34790D01*
X13951Y-34790D01*
X13924Y-34764D01*
X13805Y-34714D01*
X13675Y-34714D01*
X13671Y-34716D01*
X13671Y-33636D01*
X13622Y-33516D01*
X13530Y-33425D01*
X13411Y-33375D01*
X13282Y-33375D01*
X13162Y-33425D01*
X13071Y-33516D01*
X13021Y-33635D01*
X13021Y-33765D01*
X13070Y-33884D01*
X13146Y-33960D01*
X13146Y-34090D01*
X12394Y-34842D01*
X11391Y-34842D01*
X11369Y-34787D01*
X11242Y-34661D01*
X11077Y-34592D01*
X10898Y-34592D01*
X10732Y-34660D01*
X10606Y-34787D01*
X10537Y-34952D01*
X10537Y-35131D01*
X10605Y-35297D01*
X10732Y-35423D01*
X10897Y-35492D01*
X10973Y-35492D01*
X10850Y-35498D01*
X10699Y-35561D01*
X10672Y-35656D01*
X10987Y-35971D01*
X11302Y-35656D01*
X11275Y-35561D01*
X11079Y-35491D01*
X11241Y-35424D01*
X11368Y-35297D01*
X11391Y-35242D01*
X12477Y-35242D01*
X12553Y-35227D01*
X12618Y-35183D01*
X13487Y-34314D01*
X13487Y-34314D01*
X13516Y-34271D01*
X13531Y-34249D01*
X13531Y-34249D01*
X13546Y-34173D01*
X13546Y-34173D01*
X13546Y-33960D01*
X13621Y-33885D01*
X13671Y-33765D01*
X13671Y-33636D01*
X13671Y-34716D01*
X13556Y-34763D01*
X13464Y-34855D01*
X13415Y-34974D01*
X13415Y-35103D01*
X13464Y-35223D01*
X13555Y-35314D01*
X13675Y-35364D01*
X13804Y-35364D01*
X13924Y-35315D01*
X13951Y-35287D01*
X16875Y-35287D01*
X16902Y-35314D01*
X17021Y-35364D01*
X17150Y-35364D01*
X17270Y-35315D01*
X17361Y-35223D01*
X17411Y-35104D01*
X17411Y-34975D01*
X17411Y-40912D01*
X16600Y-40912D01*
X16600Y-39073D01*
X16547Y-38946D01*
X16450Y-38848D01*
X16322Y-38795D01*
X16269Y-38795D01*
X16269Y-35762D01*
X16220Y-35642D01*
X16129Y-35551D01*
X16009Y-35501D01*
X15880Y-35501D01*
X15761Y-35551D01*
X15685Y-35626D01*
X15141Y-35626D01*
X15066Y-35551D01*
X14946Y-35501D01*
X14817Y-35501D01*
X14698Y-35551D01*
X14606Y-35642D01*
X14556Y-35761D01*
X14556Y-35891D01*
X14606Y-36010D01*
X14697Y-36102D01*
X14816Y-36151D01*
X14946Y-36151D01*
X15065Y-36102D01*
X15141Y-36026D01*
X15685Y-36026D01*
X15760Y-36102D01*
X15879Y-36151D01*
X16009Y-36151D01*
X16128Y-36102D01*
X16220Y-36011D01*
X16269Y-35891D01*
X16269Y-35762D01*
X16269Y-38795D01*
X16184Y-38795D01*
X16057Y-38848D01*
X15959Y-38945D01*
X15906Y-39073D01*
X15906Y-39211D01*
X15959Y-39338D01*
X16056Y-39436D01*
X16184Y-39489D01*
X16322Y-39489D01*
X16449Y-39436D01*
X16547Y-39339D01*
X16600Y-39211D01*
X16600Y-39073D01*
X16600Y-40912D01*
X14868Y-40912D01*
X14868Y-39073D01*
X14815Y-38946D01*
X14718Y-38848D01*
X14590Y-38795D01*
X14452Y-38795D01*
X14325Y-38848D01*
X14227Y-38945D01*
X14174Y-39073D01*
X14174Y-39211D01*
X14227Y-39338D01*
X14324Y-39436D01*
X14452Y-39489D01*
X14590Y-39489D01*
X14717Y-39436D01*
X14815Y-39339D01*
X14868Y-39211D01*
X14868Y-39073D01*
X14868Y-40912D01*
X14525Y-40912D01*
X14317Y-40954D01*
X14229Y-41012D01*
X14224Y-41012D01*
X14224Y-40915D01*
X14187Y-40824D01*
X14117Y-40754D01*
X14026Y-40716D01*
X13927Y-40716D01*
X13835Y-40753D01*
X13779Y-40810D01*
X13723Y-40754D01*
X13632Y-40716D01*
X13533Y-40716D01*
X13442Y-40753D01*
X13385Y-40810D01*
X13329Y-40754D01*
X13238Y-40716D01*
X13139Y-40716D01*
X13048Y-40753D01*
X12992Y-40810D01*
X12936Y-40754D01*
X12844Y-40716D01*
X12746Y-40716D01*
X12654Y-40753D01*
X12598Y-40810D01*
X12542Y-40754D01*
X12451Y-40716D01*
X12352Y-40716D01*
X12261Y-40753D01*
X12191Y-40823D01*
X12153Y-40914D01*
X12153Y-40997D01*
X12145Y-40991D01*
X12009Y-40919D01*
X12009Y-40919D01*
X11942Y-40899D01*
X11788Y-40884D01*
X11780Y-40885D01*
X11771Y-40883D01*
X11692Y-40883D01*
X11542Y-40883D01*
X11542Y-36124D01*
X11531Y-35905D01*
X11468Y-35754D01*
X11373Y-35727D01*
X11058Y-36042D01*
X11373Y-36357D01*
X11468Y-36330D01*
X11542Y-36124D01*
X11542Y-40883D01*
X11302Y-40883D01*
X11302Y-36428D01*
X10987Y-36113D01*
X10916Y-36183D01*
X10916Y-36042D01*
X10601Y-35727D01*
X10506Y-35754D01*
X10432Y-35960D01*
X10443Y-36179D01*
X10506Y-36330D01*
X10601Y-36357D01*
X10916Y-36042D01*
X10916Y-36183D01*
X10672Y-36428D01*
X10699Y-36523D01*
X10905Y-36597D01*
X11124Y-36586D01*
X11275Y-36523D01*
X11302Y-36428D01*
X11302Y-40883D01*
X10415Y-40883D01*
X10415Y-30651D01*
X10565Y-30651D01*
X10560Y-30657D01*
X10537Y-30712D01*
X10537Y-30772D01*
X10537Y-31372D01*
X10560Y-31427D01*
X10602Y-31469D01*
X10657Y-31492D01*
X10717Y-31492D01*
X11317Y-31492D01*
X11372Y-31469D01*
X11414Y-31427D01*
X11437Y-31372D01*
X11437Y-31312D01*
X11437Y-30712D01*
X11414Y-30657D01*
X11408Y-30651D01*
X13464Y-30651D01*
X13481Y-30648D01*
X13499Y-30648D01*
X13650Y-30618D01*
X13714Y-30591D01*
X13715Y-30591D01*
X13806Y-30530D01*
X13806Y-30620D01*
X13825Y-30666D01*
X11929Y-30666D01*
X11852Y-30681D01*
X11787Y-30724D01*
X11551Y-30960D01*
X11508Y-31025D01*
X11492Y-31102D01*
X11492Y-31570D01*
X11322Y-31741D01*
X11242Y-31661D01*
X11077Y-31592D01*
X10898Y-31592D01*
X10732Y-31660D01*
X10606Y-31787D01*
X10537Y-31952D01*
X10537Y-32131D01*
X10605Y-32297D01*
X10732Y-32423D01*
X10897Y-32492D01*
X11076Y-32492D01*
X11241Y-32424D01*
X11368Y-32297D01*
X11404Y-32211D01*
X11445Y-32183D01*
X11729Y-31900D01*
X11729Y-33499D01*
X11437Y-33791D01*
X11437Y-32953D01*
X11369Y-32787D01*
X11242Y-32661D01*
X11077Y-32592D01*
X10898Y-32592D01*
X10732Y-32660D01*
X10606Y-32787D01*
X10537Y-32952D01*
X10537Y-33131D01*
X10605Y-33297D01*
X10732Y-33423D01*
X10897Y-33492D01*
X11076Y-33492D01*
X11241Y-33424D01*
X11368Y-33297D01*
X11437Y-33132D01*
X11437Y-32953D01*
X11437Y-33791D01*
X11390Y-33838D01*
X11369Y-33787D01*
X11242Y-33661D01*
X11077Y-33592D01*
X10898Y-33592D01*
X10732Y-33660D01*
X10606Y-33787D01*
X10537Y-33952D01*
X10537Y-34131D01*
X10605Y-34297D01*
X10732Y-34423D01*
X10897Y-34492D01*
X11076Y-34492D01*
X11241Y-34424D01*
X11368Y-34297D01*
X11391Y-34242D01*
X11469Y-34242D01*
X11545Y-34227D01*
X11610Y-34183D01*
X12070Y-33724D01*
X12070Y-33724D01*
X12113Y-33659D01*
X12113Y-33659D01*
X12116Y-33646D01*
X12129Y-33582D01*
X12129Y-33582D01*
X12129Y-31421D01*
X12130Y-31420D01*
X14025Y-31420D01*
X13937Y-31508D01*
X13887Y-31627D01*
X13887Y-31656D01*
X13806Y-31575D01*
X13686Y-31525D01*
X13557Y-31525D01*
X13438Y-31574D01*
X13346Y-31666D01*
X13297Y-31785D01*
X13296Y-31914D01*
X13346Y-32034D01*
X13437Y-32125D01*
X13540Y-32168D01*
X13540Y-33149D01*
X13555Y-33226D01*
X13598Y-33291D01*
X14045Y-33737D01*
X14045Y-33843D01*
X14094Y-33963D01*
X14185Y-34054D01*
X14305Y-34104D01*
X14412Y-34104D01*
X14491Y-34183D01*
X14491Y-34183D01*
X14535Y-34212D01*
X14556Y-34227D01*
X14556Y-34227D01*
X14633Y-34242D01*
X19583Y-34242D01*
X19605Y-34297D01*
X19732Y-34423D01*
X19897Y-34492D01*
X20076Y-34492D01*
X20241Y-34424D01*
X20368Y-34297D01*
X20429Y-34150D01*
X20429Y-34317D01*
X20131Y-34615D01*
X20077Y-34592D01*
X19898Y-34592D01*
X19732Y-34660D01*
X19606Y-34787D01*
X19537Y-34952D01*
X19537Y-35131D01*
X19605Y-35297D01*
X19732Y-35423D01*
X19897Y-35492D01*
X19973Y-35492D01*
X19850Y-35498D01*
X19699Y-35561D01*
X19672Y-35656D01*
X19987Y-35971D01*
X20302Y-35656D01*
X20275Y-35561D01*
X20079Y-35491D01*
X20241Y-35424D01*
X20368Y-35297D01*
X20437Y-35132D01*
X20437Y-34953D01*
X20414Y-34898D01*
X20771Y-34541D01*
X20771Y-34541D01*
X20800Y-34498D01*
X20814Y-34476D01*
X20814Y-34476D01*
X20829Y-34400D01*
X20829Y-34400D01*
X20829Y-31811D01*
X20814Y-31734D01*
X20814Y-31734D01*
X20771Y-31669D01*
X20535Y-31433D01*
X20470Y-31390D01*
X20433Y-31382D01*
X20437Y-31372D01*
X20437Y-31312D01*
X20437Y-30805D01*
X20494Y-30781D01*
X20551Y-30725D01*
X20607Y-30781D01*
X20698Y-30819D01*
X20797Y-30819D01*
X20888Y-30781D01*
X20944Y-30725D01*
X21000Y-30781D01*
X21092Y-30819D01*
X21190Y-30819D01*
X21282Y-30781D01*
X21338Y-30725D01*
X21394Y-30781D01*
X21485Y-30819D01*
X21503Y-30819D01*
X21503Y-32915D01*
X21544Y-33123D01*
X21603Y-33211D01*
X21603Y-33216D01*
X21505Y-33216D01*
X21414Y-33253D01*
X21344Y-33323D01*
X21306Y-33414D01*
X21306Y-33513D01*
X21344Y-33605D01*
X21400Y-33661D01*
X21344Y-33717D01*
X21306Y-33808D01*
X21306Y-33907D01*
X21344Y-33998D01*
X21400Y-34055D01*
X21344Y-34111D01*
X21306Y-34202D01*
X21306Y-34301D01*
X21344Y-34392D01*
X21400Y-34448D01*
X21344Y-34504D01*
X21306Y-34596D01*
X21306Y-34694D01*
X21344Y-34786D01*
X21400Y-34842D01*
X21344Y-34898D01*
X21306Y-34989D01*
X21306Y-35088D01*
X21344Y-35179D01*
X21414Y-35249D01*
X21505Y-35287D01*
X21603Y-35287D01*
X21603Y-35292D01*
X21544Y-35380D01*
X21503Y-35588D01*
X21503Y-38821D01*
X21544Y-39029D01*
X21603Y-39116D01*
X21603Y-39121D01*
X21603Y-39121D01*
G37*
G54D22*
X21603Y-39121D02*
X21505Y-39121D01*
X21414Y-39159D01*
X21344Y-39229D01*
X21306Y-39320D01*
X21306Y-39419D01*
X21344Y-39510D01*
X21400Y-39566D01*
X21344Y-39622D01*
X21306Y-39714D01*
X21306Y-39812D01*
X21344Y-39904D01*
X21400Y-39960D01*
X21344Y-40016D01*
X21306Y-40107D01*
X21306Y-40206D01*
X21344Y-40298D01*
X21400Y-40354D01*
X21344Y-40410D01*
X21306Y-40501D01*
X21306Y-40600D01*
X21344Y-40691D01*
X21400Y-40748D01*
X21344Y-40803D01*
X21306Y-40895D01*
X21306Y-40912D01*
X20542Y-40912D01*
X20542Y-36124D01*
X20531Y-35905D01*
X20468Y-35754D01*
X20373Y-35727D01*
X20058Y-36042D01*
X20373Y-36357D01*
X20468Y-36330D01*
X20542Y-36124D01*
X20542Y-40912D01*
X20430Y-40912D01*
X20302Y-40938D01*
X20302Y-36428D01*
X19987Y-36113D01*
X19916Y-36183D01*
X19916Y-36042D01*
X19601Y-35727D01*
X19506Y-35754D01*
X19432Y-35960D01*
X19443Y-36179D01*
X19506Y-36330D01*
X19601Y-36357D01*
X19916Y-36042D01*
X19916Y-36183D01*
X19672Y-36428D01*
X19699Y-36523D01*
X19905Y-36597D01*
X20124Y-36586D01*
X20275Y-36523D01*
X20302Y-36428D01*
X20302Y-40938D01*
X20222Y-40954D01*
X20135Y-41012D01*
X20130Y-41012D01*
X20130Y-40915D01*
X20092Y-40824D01*
X20022Y-40754D01*
X19931Y-40716D01*
X19832Y-40716D01*
X19741Y-40753D01*
X19685Y-40810D01*
X19629Y-40754D01*
X19537Y-40716D01*
X19438Y-40716D01*
X19347Y-40753D01*
X19291Y-40810D01*
X19235Y-40754D01*
X19144Y-40716D01*
X19045Y-40716D01*
X18953Y-40753D01*
X18897Y-40810D01*
X18841Y-40754D01*
X18750Y-40716D01*
X18651Y-40716D01*
X18560Y-40753D01*
X18503Y-40810D01*
X18447Y-40754D01*
X18356Y-40716D01*
X18257Y-40716D01*
X18166Y-40753D01*
X18096Y-40823D01*
X18058Y-40914D01*
X18058Y-41012D01*
X18053Y-41012D01*
X17966Y-40954D01*
X17758Y-40912D01*
X17411Y-40912D01*
X17411Y-34975D01*
X17362Y-34855D01*
X17270Y-34764D01*
X17151Y-34714D01*
X17022Y-34714D01*
X16902Y-34763D01*
X16875Y-34790D01*
X13951Y-34790D01*
X13924Y-34764D01*
X13805Y-34714D01*
X13675Y-34714D01*
X13671Y-34716D01*
X13671Y-33636D01*
X13622Y-33516D01*
X13530Y-33425D01*
X13411Y-33375D01*
X13282Y-33375D01*
X13162Y-33425D01*
X13071Y-33516D01*
X13021Y-33635D01*
X13021Y-33765D01*
X13070Y-33884D01*
X13146Y-33960D01*
X13146Y-34090D01*
X12394Y-34842D01*
X11391Y-34842D01*
X11369Y-34787D01*
X11242Y-34661D01*
X11077Y-34592D01*
X10898Y-34592D01*
X10732Y-34660D01*
X10606Y-34787D01*
X10537Y-34952D01*
X10537Y-35131D01*
X10605Y-35297D01*
X10732Y-35423D01*
X10897Y-35492D01*
X10973Y-35492D01*
X10850Y-35498D01*
X10699Y-35561D01*
X10672Y-35656D01*
X10987Y-35971D01*
X11302Y-35656D01*
X11275Y-35561D01*
X11079Y-35491D01*
X11241Y-35424D01*
X11368Y-35297D01*
X11391Y-35242D01*
X12477Y-35242D01*
X12553Y-35227D01*
X12618Y-35183D01*
X13487Y-34314D01*
X13487Y-34314D01*
X13516Y-34271D01*
X13531Y-34249D01*
X13531Y-34249D01*
X13546Y-34173D01*
X13546Y-34173D01*
X13546Y-33960D01*
X13621Y-33885D01*
X13671Y-33765D01*
X13671Y-33636D01*
X13671Y-34716D01*
X13556Y-34763D01*
X13464Y-34855D01*
X13415Y-34974D01*
X13415Y-35103D01*
X13464Y-35223D01*
X13555Y-35314D01*
X13675Y-35364D01*
X13804Y-35364D01*
X13924Y-35315D01*
X13951Y-35287D01*
X16875Y-35287D01*
X16902Y-35314D01*
X17021Y-35364D01*
X17150Y-35364D01*
X17270Y-35315D01*
X17361Y-35223D01*
X17411Y-35104D01*
X17411Y-34975D01*
X17411Y-40912D01*
X16600Y-40912D01*
X16600Y-39073D01*
X16547Y-38946D01*
X16450Y-38848D01*
X16322Y-38795D01*
X16269Y-38795D01*
X16269Y-35762D01*
X16220Y-35642D01*
X16129Y-35551D01*
X16009Y-35501D01*
X15880Y-35501D01*
X15761Y-35551D01*
X15685Y-35626D01*
X15141Y-35626D01*
X15066Y-35551D01*
X14946Y-35501D01*
X14817Y-35501D01*
X14698Y-35551D01*
X14606Y-35642D01*
X14556Y-35761D01*
X14556Y-35891D01*
X14606Y-36010D01*
X14697Y-36102D01*
X14816Y-36151D01*
X14946Y-36151D01*
X15065Y-36102D01*
X15141Y-36026D01*
X15685Y-36026D01*
X15760Y-36102D01*
X15879Y-36151D01*
X16009Y-36151D01*
X16128Y-36102D01*
X16220Y-36011D01*
X16269Y-35891D01*
X16269Y-35762D01*
X16269Y-38795D01*
X16184Y-38795D01*
X16057Y-38848D01*
X15959Y-38945D01*
X15906Y-39073D01*
X15906Y-39211D01*
X15959Y-39338D01*
X16056Y-39436D01*
X16184Y-39489D01*
X16322Y-39489D01*
X16449Y-39436D01*
X16547Y-39339D01*
X16600Y-39211D01*
X16600Y-39073D01*
X16600Y-40912D01*
X14868Y-40912D01*
X14868Y-39073D01*
X14815Y-38946D01*
X14718Y-38848D01*
X14590Y-38795D01*
X14452Y-38795D01*
X14325Y-38848D01*
X14227Y-38945D01*
X14174Y-39073D01*
X14174Y-39211D01*
X14227Y-39338D01*
X14324Y-39436D01*
X14452Y-39489D01*
X14590Y-39489D01*
X14717Y-39436D01*
X14815Y-39339D01*
X14868Y-39211D01*
X14868Y-39073D01*
X14868Y-40912D01*
X14525Y-40912D01*
X14317Y-40954D01*
X14229Y-41012D01*
X14224Y-41012D01*
X14224Y-40915D01*
X14187Y-40824D01*
X14117Y-40754D01*
X14026Y-40716D01*
X13927Y-40716D01*
X13835Y-40753D01*
X13779Y-40810D01*
X13723Y-40754D01*
X13632Y-40716D01*
X13533Y-40716D01*
X13442Y-40753D01*
X13385Y-40810D01*
X13329Y-40754D01*
X13238Y-40716D01*
X13139Y-40716D01*
X13048Y-40753D01*
X12992Y-40810D01*
X12936Y-40754D01*
X12844Y-40716D01*
X12746Y-40716D01*
X12654Y-40753D01*
X12598Y-40810D01*
X12542Y-40754D01*
X12451Y-40716D01*
X12352Y-40716D01*
X12261Y-40753D01*
X12191Y-40823D01*
X12153Y-40914D01*
X12153Y-40997D01*
X12145Y-40991D01*
X12009Y-40919D01*
X12009Y-40919D01*
X11942Y-40899D01*
X11788Y-40884D01*
X11780Y-40885D01*
X11771Y-40883D01*
X11692Y-40883D01*
X11542Y-40883D01*
X11542Y-36124D01*
X11531Y-35905D01*
X11468Y-35754D01*
X11373Y-35727D01*
X11058Y-36042D01*
X11373Y-36357D01*
X11468Y-36330D01*
X11542Y-36124D01*
X11542Y-40883D01*
X11302Y-40883D01*
X11302Y-36428D01*
X10987Y-36113D01*
X10916Y-36183D01*
X10916Y-36042D01*
X10601Y-35727D01*
X10506Y-35754D01*
X10432Y-35960D01*
X10443Y-36179D01*
X10506Y-36330D01*
X10601Y-36357D01*
X10916Y-36042D01*
X10916Y-36183D01*
X10672Y-36428D01*
X10699Y-36523D01*
X10905Y-36597D01*
X11124Y-36586D01*
X11275Y-36523D01*
X11302Y-36428D01*
X11302Y-40883D01*
X10415Y-40883D01*
X10415Y-30651D01*
X10565Y-30651D01*
X10560Y-30657D01*
X10537Y-30712D01*
X10537Y-30772D01*
X10537Y-31372D01*
X10560Y-31427D01*
X10602Y-31469D01*
X10657Y-31492D01*
X10717Y-31492D01*
X11317Y-31492D01*
X11372Y-31469D01*
X11414Y-31427D01*
X11437Y-31372D01*
X11437Y-31312D01*
X11437Y-30712D01*
X11414Y-30657D01*
X11408Y-30651D01*
X13464Y-30651D01*
X13481Y-30648D01*
X13499Y-30648D01*
X13650Y-30618D01*
X13714Y-30591D01*
X13715Y-30591D01*
X13806Y-30530D01*
X13806Y-30620D01*
X13825Y-30666D01*
X11929Y-30666D01*
X11852Y-30681D01*
X11787Y-30724D01*
X11551Y-30960D01*
X11508Y-31025D01*
X11492Y-31102D01*
X11492Y-31570D01*
X11322Y-31741D01*
X11242Y-31661D01*
X11077Y-31592D01*
X10898Y-31592D01*
X10732Y-31660D01*
X10606Y-31787D01*
X10537Y-31952D01*
X10537Y-32131D01*
X10605Y-32297D01*
X10732Y-32423D01*
X10897Y-32492D01*
X11076Y-32492D01*
X11241Y-32424D01*
X11368Y-32297D01*
X11404Y-32211D01*
X11445Y-32183D01*
X11729Y-31900D01*
X11729Y-33499D01*
X11437Y-33791D01*
X11437Y-32953D01*
X11369Y-32787D01*
X11242Y-32661D01*
X11077Y-32592D01*
X10898Y-32592D01*
X10732Y-32660D01*
X10606Y-32787D01*
X10537Y-32952D01*
X10537Y-33131D01*
X10605Y-33297D01*
X10732Y-33423D01*
X10897Y-33492D01*
X11076Y-33492D01*
X11241Y-33424D01*
X11368Y-33297D01*
X11437Y-33132D01*
X11437Y-32953D01*
X11437Y-33791D01*
X11390Y-33838D01*
X11369Y-33787D01*
X11242Y-33661D01*
X11077Y-33592D01*
X10898Y-33592D01*
X10732Y-33660D01*
X10606Y-33787D01*
X10537Y-33952D01*
X10537Y-34131D01*
X10605Y-34297D01*
X10732Y-34423D01*
X10897Y-34492D01*
X11076Y-34492D01*
X11241Y-34424D01*
X11368Y-34297D01*
X11391Y-34242D01*
X11469Y-34242D01*
X11545Y-34227D01*
X11610Y-34183D01*
X12070Y-33724D01*
X12070Y-33724D01*
X12113Y-33659D01*
X12113Y-33659D01*
X12116Y-33646D01*
X12129Y-33582D01*
X12129Y-33582D01*
X12129Y-31421D01*
X12130Y-31420D01*
X14025Y-31420D01*
X13937Y-31508D01*
X13887Y-31627D01*
X13887Y-31656D01*
X13806Y-31575D01*
X13686Y-31525D01*
X13557Y-31525D01*
X13438Y-31574D01*
X13346Y-31666D01*
X13297Y-31785D01*
X13296Y-31914D01*
X13346Y-32034D01*
X13437Y-32125D01*
X13540Y-32168D01*
X13540Y-33149D01*
X13555Y-33226D01*
X13598Y-33291D01*
X14045Y-33737D01*
X14045Y-33843D01*
X14094Y-33963D01*
X14185Y-34054D01*
X14305Y-34104D01*
X14412Y-34104D01*
X14491Y-34183D01*
X14491Y-34183D01*
X14535Y-34212D01*
X14556Y-34227D01*
X14556Y-34227D01*
X14633Y-34242D01*
X19583Y-34242D01*
X19605Y-34297D01*
X19732Y-34423D01*
X19897Y-34492D01*
X20076Y-34492D01*
X20241Y-34424D01*
X20368Y-34297D01*
X20429Y-34150D01*
X20429Y-34317D01*
X20131Y-34615D01*
X20077Y-34592D01*
X19898Y-34592D01*
X19732Y-34660D01*
X19606Y-34787D01*
X19537Y-34952D01*
X19537Y-35131D01*
X19605Y-35297D01*
X19732Y-35423D01*
X19897Y-35492D01*
X19973Y-35492D01*
X19850Y-35498D01*
X19699Y-35561D01*
X19672Y-35656D01*
X19987Y-35971D01*
X20302Y-35656D01*
X20275Y-35561D01*
X20079Y-35491D01*
X20241Y-35424D01*
X20368Y-35297D01*
X20437Y-35132D01*
X20437Y-34953D01*
X20414Y-34898D01*
X20771Y-34541D01*
X20771Y-34541D01*
X20800Y-34498D01*
X20814Y-34476D01*
X20814Y-34476D01*
X20829Y-34400D01*
X20829Y-34400D01*
X20829Y-31811D01*
X20814Y-31734D01*
X20814Y-31734D01*
X20771Y-31669D01*
X20535Y-31433D01*
X20470Y-31390D01*
X20433Y-31382D01*
X20437Y-31372D01*
X20437Y-31312D01*
X20437Y-30805D01*
X20494Y-30781D01*
X20551Y-30725D01*
X20607Y-30781D01*
X20698Y-30819D01*
X20797Y-30819D01*
X20888Y-30781D01*
X20944Y-30725D01*
X21000Y-30781D01*
X21092Y-30819D01*
X21190Y-30819D01*
X21282Y-30781D01*
X21338Y-30725D01*
X21394Y-30781D01*
X21485Y-30819D01*
X21503Y-30819D01*
X21503Y-32915D01*
X21544Y-33123D01*
X21603Y-33211D01*
X21603Y-33216D01*
X21505Y-33216D01*
X21414Y-33253D01*
X21344Y-33323D01*
X21306Y-33414D01*
X21306Y-33513D01*
X21344Y-33605D01*
X21400Y-33661D01*
X21344Y-33717D01*
X21306Y-33808D01*
X21306Y-33907D01*
X21344Y-33998D01*
X21400Y-34055D01*
X21344Y-34111D01*
X21306Y-34202D01*
X21306Y-34301D01*
X21344Y-34392D01*
X21400Y-34448D01*
X21344Y-34504D01*
X21306Y-34596D01*
X21306Y-34694D01*
X21344Y-34786D01*
X21400Y-34842D01*
X21344Y-34898D01*
X21306Y-34989D01*
X21306Y-35088D01*
X21344Y-35179D01*
X21414Y-35249D01*
X21505Y-35287D01*
X21603Y-35287D01*
X21603Y-35292D01*
X21544Y-35380D01*
X21503Y-35588D01*
X21503Y-38821D01*
X21544Y-39029D01*
X21603Y-39116D01*
X21603Y-39121D01*
G54D10*
G36*
X20769Y-55999D02*
X20688Y-56033D01*
X20534Y-56188D01*
X20450Y-56390D01*
X20449Y-56608D01*
X20533Y-56811D01*
X20672Y-56949D01*
X20650Y-56949D01*
X20558Y-56987D01*
X20488Y-57058D01*
X20450Y-57150D01*
X20449Y-57249D01*
X20449Y-57791D01*
X11474Y-57791D01*
X11549Y-57609D01*
X11550Y-57391D01*
X11466Y-57188D01*
X11311Y-57034D01*
X11230Y-57000D01*
X11311Y-56966D01*
X11465Y-56811D01*
X11549Y-56609D01*
X11550Y-56391D01*
X11466Y-56188D01*
X11311Y-56034D01*
X11230Y-56000D01*
X11311Y-55966D01*
X11465Y-55811D01*
X11549Y-55609D01*
X11550Y-55391D01*
X11466Y-55188D01*
X11311Y-55034D01*
X11230Y-55000D01*
X11311Y-54966D01*
X11465Y-54811D01*
X11549Y-54609D01*
X11550Y-54391D01*
X11466Y-54188D01*
X11311Y-54034D01*
X11230Y-54000D01*
X11311Y-53966D01*
X11465Y-53811D01*
X11549Y-53609D01*
X11550Y-53391D01*
X11466Y-53188D01*
X11311Y-53034D01*
X11230Y-53000D01*
X11311Y-52966D01*
X11465Y-52811D01*
X11549Y-52609D01*
X11550Y-52391D01*
X11466Y-52188D01*
X11311Y-52034D01*
X11230Y-52000D01*
X11311Y-51966D01*
X11465Y-51811D01*
X11549Y-51609D01*
X11550Y-51391D01*
X11466Y-51188D01*
X11327Y-51050D01*
X11349Y-51050D01*
X11441Y-51012D01*
X11511Y-50941D01*
X11549Y-50849D01*
X11550Y-50750D01*
X11550Y-50150D01*
X11512Y-50058D01*
X11453Y-49999D01*
X11511Y-49941D01*
X11549Y-49849D01*
X11550Y-49750D01*
X11550Y-49150D01*
X11512Y-49058D01*
X11441Y-48988D01*
X11349Y-48950D01*
X11327Y-48950D01*
X11465Y-48811D01*
X11549Y-48609D01*
X11550Y-48391D01*
X11466Y-48188D01*
X11311Y-48034D01*
X11230Y-48000D01*
X11311Y-47966D01*
X11375Y-47902D01*
X12763Y-49290D01*
X12763Y-49375D01*
X12828Y-49531D01*
X12947Y-49651D01*
X13104Y-49716D01*
X13273Y-49716D01*
X13361Y-49679D01*
X13361Y-50708D01*
X13384Y-50823D01*
X13449Y-50920D01*
X14378Y-51849D01*
X14378Y-51934D01*
X14442Y-52090D01*
X14562Y-52210D01*
X14718Y-52275D01*
X14887Y-52275D01*
X15043Y-52210D01*
X15163Y-52091D01*
X15228Y-51935D01*
X15228Y-51766D01*
X15163Y-51609D01*
X15044Y-51490D01*
X14888Y-51425D01*
X14802Y-51425D01*
X13961Y-50584D01*
X13961Y-49651D01*
X15448Y-48164D01*
X15448Y-48164D01*
X15513Y-48067D01*
X15536Y-47952D01*
X15536Y-47952D01*
X15536Y-45990D01*
X15589Y-45936D01*
X15674Y-45936D01*
X15830Y-45872D01*
X15950Y-45752D01*
X16015Y-45596D01*
X16015Y-45427D01*
X15951Y-45271D01*
X15831Y-45151D01*
X15675Y-45086D01*
X15506Y-45086D01*
X15350Y-45151D01*
X15230Y-45270D01*
X15165Y-45426D01*
X15165Y-45512D01*
X15024Y-45654D01*
X14959Y-45751D01*
X14936Y-45866D01*
X14936Y-47828D01*
X14379Y-48384D01*
X14379Y-43084D01*
X14368Y-42861D01*
X14304Y-42706D01*
X14208Y-42677D01*
X14137Y-42748D01*
X14137Y-42606D01*
X14108Y-42510D01*
X13899Y-42435D01*
X13676Y-42446D01*
X13521Y-42510D01*
X13492Y-42606D01*
X13815Y-42929D01*
X14137Y-42606D01*
X14137Y-42748D01*
X13885Y-43000D01*
X14208Y-43322D01*
X14304Y-43293D01*
X14379Y-43084D01*
X14379Y-48384D01*
X14137Y-48627D01*
X14137Y-43393D01*
X13815Y-43070D01*
X13744Y-43141D01*
X13744Y-43000D01*
X13421Y-42677D01*
X13325Y-42706D01*
X13250Y-42915D01*
X13261Y-43138D01*
X13325Y-43293D01*
X13421Y-43322D01*
X13744Y-43000D01*
X13744Y-43141D01*
X13492Y-43393D01*
X13510Y-43452D01*
X13431Y-43420D01*
X13209Y-43419D01*
X13003Y-43504D01*
X12845Y-43662D01*
X12760Y-43868D01*
X12759Y-44090D01*
X12844Y-44296D01*
X13002Y-44454D01*
X13208Y-44539D01*
X13430Y-44540D01*
X13636Y-44455D01*
X13794Y-44297D01*
X13879Y-44091D01*
X13880Y-43869D01*
X13795Y-43663D01*
X13677Y-43545D01*
X13730Y-43564D01*
X13953Y-43553D01*
X14108Y-43489D01*
X14137Y-43393D01*
X14137Y-48627D01*
X13597Y-49167D01*
X13549Y-49050D01*
X13430Y-48931D01*
X13273Y-48866D01*
X13188Y-48866D01*
X13148Y-48827D01*
X13153Y-48825D01*
X13273Y-48705D01*
X13338Y-48549D01*
X13338Y-48380D01*
X13273Y-48224D01*
X13154Y-48104D01*
X12998Y-48039D01*
X12912Y-48039D01*
X12150Y-47277D01*
X12150Y-46350D01*
X12127Y-46235D01*
X12062Y-46138D01*
X12062Y-46138D01*
X11554Y-45630D01*
X11554Y-44581D01*
X11554Y-43581D01*
X11543Y-43363D01*
X11481Y-43212D01*
X11385Y-43184D01*
X11315Y-43255D01*
X11315Y-43114D01*
X11287Y-43018D01*
X11239Y-43001D01*
X11287Y-42981D01*
X11315Y-42885D01*
X11000Y-42570D01*
X10684Y-42885D01*
X10712Y-42981D01*
X10760Y-42998D01*
X10712Y-43018D01*
X10684Y-43114D01*
X11000Y-43429D01*
X11315Y-43114D01*
X11315Y-43255D01*
X11070Y-43500D01*
X11385Y-43815D01*
X11481Y-43787D01*
X11554Y-43581D01*
X11554Y-44581D01*
X11543Y-44363D01*
X11481Y-44212D01*
X11385Y-44184D01*
X11315Y-44255D01*
X11315Y-44114D01*
X11287Y-44018D01*
X11239Y-44001D01*
X11287Y-43981D01*
X11315Y-43885D01*
X11000Y-43570D01*
X10684Y-43885D01*
X10712Y-43981D01*
X10760Y-43998D01*
X10712Y-44018D01*
X10684Y-44114D01*
X11000Y-44429D01*
X11315Y-44114D01*
X11315Y-44255D01*
X11070Y-44500D01*
X11385Y-44815D01*
X11481Y-44787D01*
X11554Y-44581D01*
X11554Y-45630D01*
X11545Y-45621D01*
X11549Y-45609D01*
X11550Y-45391D01*
X11466Y-45188D01*
X11311Y-45034D01*
X11236Y-45002D01*
X11287Y-44981D01*
X11315Y-44885D01*
X11000Y-44570D01*
X10684Y-44885D01*
X10712Y-44981D01*
X10767Y-45000D01*
X10688Y-45033D01*
X10534Y-45188D01*
X10515Y-45232D01*
X10515Y-44780D01*
X10518Y-44787D01*
X10614Y-44815D01*
X10929Y-44500D01*
X10614Y-44184D01*
X10518Y-44212D01*
X10515Y-44220D01*
X10515Y-43780D01*
X10518Y-43787D01*
X10614Y-43815D01*
X10929Y-43500D01*
X10614Y-43184D01*
X10518Y-43212D01*
X10515Y-43220D01*
X10515Y-42780D01*
X10518Y-42787D01*
X10614Y-42815D01*
X10929Y-42500D01*
X10923Y-42494D01*
X10994Y-42423D01*
X11000Y-42429D01*
X11005Y-42423D01*
X11076Y-42494D01*
X11070Y-42500D01*
X11385Y-42815D01*
X11481Y-42787D01*
X11554Y-42581D01*
X11543Y-42363D01*
X11481Y-42212D01*
X11385Y-42184D01*
X11431Y-42139D01*
X11421Y-42129D01*
X11811Y-42129D01*
X11837Y-42124D01*
X11865Y-42124D01*
X12016Y-42094D01*
X12074Y-42070D01*
X12106Y-42145D01*
X12203Y-42244D01*
X12331Y-42297D01*
X12470Y-42297D01*
X12598Y-42244D01*
X12725Y-42297D01*
X12864Y-42297D01*
X12992Y-42244D01*
X13119Y-42297D01*
X13257Y-42297D01*
X13385Y-42244D01*
X13513Y-42297D01*
X13651Y-42297D01*
X13779Y-42244D01*
X13906Y-42297D01*
X14045Y-42297D01*
X14173Y-42244D01*
X14271Y-42146D01*
X14308Y-42057D01*
X14523Y-42100D01*
X16688Y-42100D01*
X16684Y-42114D01*
X17000Y-42429D01*
X17315Y-42114D01*
X17311Y-42100D01*
X17621Y-42100D01*
X17534Y-42188D01*
X17502Y-42263D01*
X17481Y-42212D01*
X17385Y-42184D01*
X17070Y-42500D01*
X17385Y-42815D01*
X17481Y-42787D01*
X17500Y-42732D01*
X17533Y-42811D01*
X17688Y-42965D01*
X17769Y-42999D01*
X17688Y-43033D01*
X17534Y-43188D01*
X17500Y-43269D01*
X17466Y-43188D01*
X17311Y-43034D01*
X17236Y-43002D01*
X17287Y-42981D01*
X17315Y-42885D01*
X17000Y-42570D01*
X16929Y-42641D01*
X16929Y-42500D01*
X16614Y-42184D01*
X16518Y-42212D01*
X16445Y-42418D01*
X16456Y-42636D01*
X16518Y-42787D01*
X16614Y-42815D01*
X16929Y-42500D01*
X16929Y-42641D01*
X16684Y-42885D01*
X16712Y-42981D01*
X16767Y-43000D01*
X16688Y-43033D01*
X16534Y-43188D01*
X16450Y-43390D01*
X16449Y-43557D01*
X16397Y-43505D01*
X16191Y-43420D01*
X15969Y-43419D01*
X15948Y-43428D01*
X16059Y-43317D01*
X16144Y-43111D01*
X16145Y-42889D01*
X16060Y-42683D01*
X15902Y-42525D01*
X15696Y-42440D01*
X15474Y-42439D01*
X15268Y-42524D01*
X15110Y-42682D01*
X15025Y-42888D01*
X15024Y-43110D01*
X15109Y-43316D01*
X15267Y-43474D01*
X15473Y-43559D01*
X15695Y-43560D01*
X15716Y-43551D01*
X15605Y-43662D01*
X15520Y-43868D01*
X15519Y-44090D01*
X15604Y-44296D01*
X15762Y-44454D01*
X15968Y-44539D01*
X16190Y-44540D01*
X16396Y-44455D01*
X16554Y-44297D01*
X16639Y-44091D01*
X16640Y-43917D01*
X16688Y-43965D01*
X16890Y-44049D01*
X17108Y-44050D01*
X17311Y-43966D01*
X17465Y-43811D01*
X17499Y-43730D01*
X17533Y-43811D01*
X17688Y-43965D01*
X17890Y-44049D01*
X18108Y-44050D01*
X18311Y-43966D01*
X18449Y-43827D01*
X18449Y-43849D01*
X18487Y-43941D01*
X18558Y-44011D01*
X18650Y-44049D01*
X18749Y-44050D01*
X19285Y-44050D01*
X19285Y-44494D01*
X17637Y-44494D01*
X17637Y-44494D01*
X17504Y-44520D01*
X17391Y-44596D01*
X17391Y-44596D01*
X16367Y-45619D01*
X16292Y-45732D01*
X16287Y-45754D01*
X16265Y-45866D01*
X16265Y-45866D01*
X16265Y-46400D01*
X16254Y-46412D01*
X16189Y-46568D01*
X16189Y-46737D01*
X16253Y-46893D01*
X16373Y-47013D01*
X16529Y-47078D01*
X16698Y-47078D01*
X16854Y-47014D01*
X16974Y-46894D01*
X17039Y-46738D01*
X17039Y-46569D01*
X16974Y-46413D01*
X16962Y-46401D01*
X16962Y-46010D01*
X17580Y-45392D01*
X17631Y-45516D01*
X17751Y-45635D01*
X17907Y-45700D01*
X18076Y-45700D01*
X18232Y-45636D01*
X18293Y-45575D01*
X19226Y-45575D01*
X19286Y-45635D01*
X19442Y-45700D01*
X19581Y-45700D01*
X19581Y-46017D01*
X19533Y-45901D01*
X19414Y-45781D01*
X19258Y-45716D01*
X19089Y-45716D01*
X18932Y-45781D01*
X18872Y-45841D01*
X18385Y-45841D01*
X18271Y-45864D01*
X18173Y-45929D01*
X18032Y-46071D01*
X17947Y-46070D01*
X17791Y-46135D01*
X17671Y-46255D01*
X17606Y-46411D01*
X17606Y-46580D01*
X17670Y-46736D01*
X17790Y-46856D01*
X17946Y-46920D01*
X18115Y-46921D01*
X18271Y-46856D01*
X18391Y-46737D01*
X18456Y-46580D01*
X18456Y-46495D01*
X18510Y-46441D01*
X18872Y-46441D01*
X18932Y-46501D01*
X19088Y-46566D01*
X19257Y-46566D01*
X19413Y-46502D01*
X19533Y-46382D01*
X19581Y-46265D01*
X19581Y-50702D01*
X18977Y-51307D01*
X18892Y-51307D01*
X18735Y-51371D01*
X18616Y-51491D01*
X18551Y-51647D01*
X18551Y-51816D01*
X18615Y-51972D01*
X18699Y-52056D01*
X17976Y-52779D01*
X17911Y-52877D01*
X17888Y-52992D01*
X17888Y-53084D01*
X17828Y-53144D01*
X17764Y-53300D01*
X17763Y-53469D01*
X17828Y-53626D01*
X17947Y-53745D01*
X18104Y-53810D01*
X18189Y-53810D01*
X18230Y-53851D01*
X18327Y-53916D01*
X18442Y-53939D01*
X18850Y-53939D01*
X18999Y-54088D01*
X19194Y-54168D01*
X19404Y-54169D01*
X19599Y-54088D01*
X19749Y-53939D01*
X19829Y-53744D01*
X19830Y-53534D01*
X19749Y-53339D01*
X19600Y-53189D01*
X19405Y-53109D01*
X19195Y-53108D01*
X19000Y-53189D01*
X18850Y-53338D01*
X18850Y-53339D01*
X18614Y-53339D01*
X18614Y-53301D01*
X18549Y-53145D01*
X18504Y-53100D01*
X20369Y-51235D01*
X20369Y-51235D01*
X20434Y-51138D01*
X20457Y-51023D01*
X20457Y-51023D01*
X20457Y-50627D01*
X20533Y-50811D01*
X20688Y-50965D01*
X20769Y-50999D01*
X20688Y-51033D01*
X20534Y-51188D01*
X20450Y-51390D01*
X20449Y-51608D01*
X20533Y-51811D01*
X20688Y-51965D01*
X20769Y-51999D01*
X20688Y-52033D01*
X20534Y-52188D01*
X20450Y-52390D01*
X20449Y-52608D01*
X20533Y-52811D01*
X20688Y-52965D01*
X20769Y-52999D01*
X20688Y-53033D01*
X20534Y-53188D01*
X20450Y-53390D01*
X20449Y-53608D01*
X20454Y-53620D01*
X19769Y-54306D01*
X17762Y-54306D01*
X15936Y-52481D01*
X15936Y-52396D01*
X15872Y-52239D01*
X15752Y-52120D01*
X15596Y-52055D01*
X15427Y-52055D01*
X15271Y-52119D01*
X15151Y-52239D01*
X15086Y-52395D01*
X15086Y-52564D01*
X15151Y-52720D01*
X15270Y-52840D01*
X15426Y-52905D01*
X15512Y-52905D01*
X15686Y-53078D01*
X15585Y-53078D01*
X15428Y-53143D01*
X15309Y-53262D01*
X15244Y-53419D01*
X15244Y-53588D01*
X15308Y-53744D01*
X15428Y-53864D01*
X15584Y-53928D01*
X15670Y-53928D01*
X16913Y-55172D01*
X17011Y-55237D01*
X17125Y-55260D01*
X18850Y-55260D01*
X18770Y-55455D01*
X18769Y-55665D01*
X18850Y-55860D01*
X18999Y-56010D01*
X19194Y-56090D01*
X19404Y-56091D01*
X19599Y-56010D01*
X19749Y-55861D01*
X19829Y-55666D01*
X19830Y-55456D01*
X19749Y-55261D01*
X19749Y-55260D01*
X20503Y-55260D01*
X20450Y-55390D01*
X20449Y-55608D01*
X20533Y-55811D01*
X20688Y-55965D01*
X20769Y-55999D01*
X20769Y-55999D01*
G37*
G54D22*
X20769Y-55999D02*
X20688Y-56033D01*
X20534Y-56188D01*
X20450Y-56390D01*
X20449Y-56608D01*
X20533Y-56811D01*
X20672Y-56949D01*
X20650Y-56949D01*
X20558Y-56987D01*
X20488Y-57058D01*
X20450Y-57150D01*
X20449Y-57249D01*
X20449Y-57791D01*
X11474Y-57791D01*
X11549Y-57609D01*
X11550Y-57391D01*
X11466Y-57188D01*
X11311Y-57034D01*
X11230Y-57000D01*
X11311Y-56966D01*
X11465Y-56811D01*
X11549Y-56609D01*
X11550Y-56391D01*
X11466Y-56188D01*
X11311Y-56034D01*
X11230Y-56000D01*
X11311Y-55966D01*
X11465Y-55811D01*
X11549Y-55609D01*
X11550Y-55391D01*
X11466Y-55188D01*
X11311Y-55034D01*
X11230Y-55000D01*
X11311Y-54966D01*
X11465Y-54811D01*
X11549Y-54609D01*
X11550Y-54391D01*
X11466Y-54188D01*
X11311Y-54034D01*
X11230Y-54000D01*
X11311Y-53966D01*
X11465Y-53811D01*
X11549Y-53609D01*
X11550Y-53391D01*
X11466Y-53188D01*
X11311Y-53034D01*
X11230Y-53000D01*
X11311Y-52966D01*
X11465Y-52811D01*
X11549Y-52609D01*
X11550Y-52391D01*
X11466Y-52188D01*
X11311Y-52034D01*
X11230Y-52000D01*
X11311Y-51966D01*
X11465Y-51811D01*
X11549Y-51609D01*
X11550Y-51391D01*
X11466Y-51188D01*
X11327Y-51050D01*
X11349Y-51050D01*
X11441Y-51012D01*
X11511Y-50941D01*
X11549Y-50849D01*
X11550Y-50750D01*
X11550Y-50150D01*
X11512Y-50058D01*
X11453Y-49999D01*
X11511Y-49941D01*
X11549Y-49849D01*
X11550Y-49750D01*
X11550Y-49150D01*
X11512Y-49058D01*
X11441Y-48988D01*
X11349Y-48950D01*
X11327Y-48950D01*
X11465Y-48811D01*
X11549Y-48609D01*
X11550Y-48391D01*
X11466Y-48188D01*
X11311Y-48034D01*
X11230Y-48000D01*
X11311Y-47966D01*
X11375Y-47902D01*
X12763Y-49290D01*
X12763Y-49375D01*
X12828Y-49531D01*
X12947Y-49651D01*
X13104Y-49716D01*
X13273Y-49716D01*
X13361Y-49679D01*
X13361Y-50708D01*
X13384Y-50823D01*
X13449Y-50920D01*
X14378Y-51849D01*
X14378Y-51934D01*
X14442Y-52090D01*
X14562Y-52210D01*
X14718Y-52275D01*
X14887Y-52275D01*
X15043Y-52210D01*
X15163Y-52091D01*
X15228Y-51935D01*
X15228Y-51766D01*
X15163Y-51609D01*
X15044Y-51490D01*
X14888Y-51425D01*
X14802Y-51425D01*
X13961Y-50584D01*
X13961Y-49651D01*
X15448Y-48164D01*
X15448Y-48164D01*
X15513Y-48067D01*
X15536Y-47952D01*
X15536Y-47952D01*
X15536Y-45990D01*
X15589Y-45936D01*
X15674Y-45936D01*
X15830Y-45872D01*
X15950Y-45752D01*
X16015Y-45596D01*
X16015Y-45427D01*
X15951Y-45271D01*
X15831Y-45151D01*
X15675Y-45086D01*
X15506Y-45086D01*
X15350Y-45151D01*
X15230Y-45270D01*
X15165Y-45426D01*
X15165Y-45512D01*
X15024Y-45654D01*
X14959Y-45751D01*
X14936Y-45866D01*
X14936Y-47828D01*
X14379Y-48384D01*
X14379Y-43084D01*
X14368Y-42861D01*
X14304Y-42706D01*
X14208Y-42677D01*
X14137Y-42748D01*
X14137Y-42606D01*
X14108Y-42510D01*
X13899Y-42435D01*
X13676Y-42446D01*
X13521Y-42510D01*
X13492Y-42606D01*
X13815Y-42929D01*
X14137Y-42606D01*
X14137Y-42748D01*
X13885Y-43000D01*
X14208Y-43322D01*
X14304Y-43293D01*
X14379Y-43084D01*
X14379Y-48384D01*
X14137Y-48627D01*
X14137Y-43393D01*
X13815Y-43070D01*
X13744Y-43141D01*
X13744Y-43000D01*
X13421Y-42677D01*
X13325Y-42706D01*
X13250Y-42915D01*
X13261Y-43138D01*
X13325Y-43293D01*
X13421Y-43322D01*
X13744Y-43000D01*
X13744Y-43141D01*
X13492Y-43393D01*
X13510Y-43452D01*
X13431Y-43420D01*
X13209Y-43419D01*
X13003Y-43504D01*
X12845Y-43662D01*
X12760Y-43868D01*
X12759Y-44090D01*
X12844Y-44296D01*
X13002Y-44454D01*
X13208Y-44539D01*
X13430Y-44540D01*
X13636Y-44455D01*
X13794Y-44297D01*
X13879Y-44091D01*
X13880Y-43869D01*
X13795Y-43663D01*
X13677Y-43545D01*
X13730Y-43564D01*
X13953Y-43553D01*
X14108Y-43489D01*
X14137Y-43393D01*
X14137Y-48627D01*
X13597Y-49167D01*
X13549Y-49050D01*
X13430Y-48931D01*
X13273Y-48866D01*
X13188Y-48866D01*
X13148Y-48827D01*
X13153Y-48825D01*
X13273Y-48705D01*
X13338Y-48549D01*
X13338Y-48380D01*
X13273Y-48224D01*
X13154Y-48104D01*
X12998Y-48039D01*
X12912Y-48039D01*
X12150Y-47277D01*
X12150Y-46350D01*
X12127Y-46235D01*
X12062Y-46138D01*
X12062Y-46138D01*
X11554Y-45630D01*
X11554Y-44581D01*
X11554Y-43581D01*
X11543Y-43363D01*
X11481Y-43212D01*
X11385Y-43184D01*
X11315Y-43255D01*
X11315Y-43114D01*
X11287Y-43018D01*
X11239Y-43001D01*
X11287Y-42981D01*
X11315Y-42885D01*
X11000Y-42570D01*
X10684Y-42885D01*
X10712Y-42981D01*
X10760Y-42998D01*
X10712Y-43018D01*
X10684Y-43114D01*
X11000Y-43429D01*
X11315Y-43114D01*
X11315Y-43255D01*
X11070Y-43500D01*
X11385Y-43815D01*
X11481Y-43787D01*
X11554Y-43581D01*
X11554Y-44581D01*
X11543Y-44363D01*
X11481Y-44212D01*
X11385Y-44184D01*
X11315Y-44255D01*
X11315Y-44114D01*
X11287Y-44018D01*
X11239Y-44001D01*
X11287Y-43981D01*
X11315Y-43885D01*
X11000Y-43570D01*
X10684Y-43885D01*
X10712Y-43981D01*
X10760Y-43998D01*
X10712Y-44018D01*
X10684Y-44114D01*
X11000Y-44429D01*
X11315Y-44114D01*
X11315Y-44255D01*
X11070Y-44500D01*
X11385Y-44815D01*
X11481Y-44787D01*
X11554Y-44581D01*
X11554Y-45630D01*
X11545Y-45621D01*
X11549Y-45609D01*
X11550Y-45391D01*
X11466Y-45188D01*
X11311Y-45034D01*
X11236Y-45002D01*
X11287Y-44981D01*
X11315Y-44885D01*
X11000Y-44570D01*
X10684Y-44885D01*
X10712Y-44981D01*
X10767Y-45000D01*
X10688Y-45033D01*
X10534Y-45188D01*
X10515Y-45232D01*
X10515Y-44780D01*
X10518Y-44787D01*
X10614Y-44815D01*
X10929Y-44500D01*
X10614Y-44184D01*
X10518Y-44212D01*
X10515Y-44220D01*
X10515Y-43780D01*
X10518Y-43787D01*
X10614Y-43815D01*
X10929Y-43500D01*
X10614Y-43184D01*
X10518Y-43212D01*
X10515Y-43220D01*
X10515Y-42780D01*
X10518Y-42787D01*
X10614Y-42815D01*
X10929Y-42500D01*
X10923Y-42494D01*
X10994Y-42423D01*
X11000Y-42429D01*
X11005Y-42423D01*
X11076Y-42494D01*
X11070Y-42500D01*
X11385Y-42815D01*
X11481Y-42787D01*
X11554Y-42581D01*
X11543Y-42363D01*
X11481Y-42212D01*
X11385Y-42184D01*
X11431Y-42139D01*
X11421Y-42129D01*
X11811Y-42129D01*
X11837Y-42124D01*
X11865Y-42124D01*
X12016Y-42094D01*
X12074Y-42070D01*
X12106Y-42145D01*
X12203Y-42244D01*
X12331Y-42297D01*
X12470Y-42297D01*
X12598Y-42244D01*
X12725Y-42297D01*
X12864Y-42297D01*
X12992Y-42244D01*
X13119Y-42297D01*
X13257Y-42297D01*
X13385Y-42244D01*
X13513Y-42297D01*
X13651Y-42297D01*
X13779Y-42244D01*
X13906Y-42297D01*
X14045Y-42297D01*
X14173Y-42244D01*
X14271Y-42146D01*
X14308Y-42057D01*
X14523Y-42100D01*
X16688Y-42100D01*
X16684Y-42114D01*
X17000Y-42429D01*
X17315Y-42114D01*
X17311Y-42100D01*
X17621Y-42100D01*
X17534Y-42188D01*
X17502Y-42263D01*
X17481Y-42212D01*
X17385Y-42184D01*
X17070Y-42500D01*
X17385Y-42815D01*
X17481Y-42787D01*
X17500Y-42732D01*
X17533Y-42811D01*
X17688Y-42965D01*
X17769Y-42999D01*
X17688Y-43033D01*
X17534Y-43188D01*
X17500Y-43269D01*
X17466Y-43188D01*
X17311Y-43034D01*
X17236Y-43002D01*
X17287Y-42981D01*
X17315Y-42885D01*
X17000Y-42570D01*
X16929Y-42641D01*
X16929Y-42500D01*
X16614Y-42184D01*
X16518Y-42212D01*
X16445Y-42418D01*
X16456Y-42636D01*
X16518Y-42787D01*
X16614Y-42815D01*
X16929Y-42500D01*
X16929Y-42641D01*
X16684Y-42885D01*
X16712Y-42981D01*
X16767Y-43000D01*
X16688Y-43033D01*
X16534Y-43188D01*
X16450Y-43390D01*
X16449Y-43557D01*
X16397Y-43505D01*
X16191Y-43420D01*
X15969Y-43419D01*
X15948Y-43428D01*
X16059Y-43317D01*
X16144Y-43111D01*
X16145Y-42889D01*
X16060Y-42683D01*
X15902Y-42525D01*
X15696Y-42440D01*
X15474Y-42439D01*
X15268Y-42524D01*
X15110Y-42682D01*
X15025Y-42888D01*
X15024Y-43110D01*
X15109Y-43316D01*
X15267Y-43474D01*
X15473Y-43559D01*
X15695Y-43560D01*
X15716Y-43551D01*
X15605Y-43662D01*
X15520Y-43868D01*
X15519Y-44090D01*
X15604Y-44296D01*
X15762Y-44454D01*
X15968Y-44539D01*
X16190Y-44540D01*
X16396Y-44455D01*
X16554Y-44297D01*
X16639Y-44091D01*
X16640Y-43917D01*
X16688Y-43965D01*
X16890Y-44049D01*
X17108Y-44050D01*
X17311Y-43966D01*
X17465Y-43811D01*
X17499Y-43730D01*
X17533Y-43811D01*
X17688Y-43965D01*
X17890Y-44049D01*
X18108Y-44050D01*
X18311Y-43966D01*
X18449Y-43827D01*
X18449Y-43849D01*
X18487Y-43941D01*
X18558Y-44011D01*
X18650Y-44049D01*
X18749Y-44050D01*
X19285Y-44050D01*
X19285Y-44494D01*
X17637Y-44494D01*
X17637Y-44494D01*
X17504Y-44520D01*
X17391Y-44596D01*
X17391Y-44596D01*
X16367Y-45619D01*
X16292Y-45732D01*
X16287Y-45754D01*
X16265Y-45866D01*
X16265Y-45866D01*
X16265Y-46400D01*
X16254Y-46412D01*
X16189Y-46568D01*
X16189Y-46737D01*
X16253Y-46893D01*
X16373Y-47013D01*
X16529Y-47078D01*
X16698Y-47078D01*
X16854Y-47014D01*
X16974Y-46894D01*
X17039Y-46738D01*
X17039Y-46569D01*
X16974Y-46413D01*
X16962Y-46401D01*
X16962Y-46010D01*
X17580Y-45392D01*
X17631Y-45516D01*
X17751Y-45635D01*
X17907Y-45700D01*
X18076Y-45700D01*
X18232Y-45636D01*
X18293Y-45575D01*
X19226Y-45575D01*
X19286Y-45635D01*
X19442Y-45700D01*
X19581Y-45700D01*
X19581Y-46017D01*
X19533Y-45901D01*
X19414Y-45781D01*
X19258Y-45716D01*
X19089Y-45716D01*
X18932Y-45781D01*
X18872Y-45841D01*
X18385Y-45841D01*
X18271Y-45864D01*
X18173Y-45929D01*
X18032Y-46071D01*
X17947Y-46070D01*
X17791Y-46135D01*
X17671Y-46255D01*
X17606Y-46411D01*
X17606Y-46580D01*
X17670Y-46736D01*
X17790Y-46856D01*
X17946Y-46920D01*
X18115Y-46921D01*
X18271Y-46856D01*
X18391Y-46737D01*
X18456Y-46580D01*
X18456Y-46495D01*
X18510Y-46441D01*
X18872Y-46441D01*
X18932Y-46501D01*
X19088Y-46566D01*
X19257Y-46566D01*
X19413Y-46502D01*
X19533Y-46382D01*
X19581Y-46265D01*
X19581Y-50702D01*
X18977Y-51307D01*
X18892Y-51307D01*
X18735Y-51371D01*
X18616Y-51491D01*
X18551Y-51647D01*
X18551Y-51816D01*
X18615Y-51972D01*
X18699Y-52056D01*
X17976Y-52779D01*
X17911Y-52877D01*
X17888Y-52992D01*
X17888Y-53084D01*
X17828Y-53144D01*
X17764Y-53300D01*
X17763Y-53469D01*
X17828Y-53626D01*
X17947Y-53745D01*
X18104Y-53810D01*
X18189Y-53810D01*
X18230Y-53851D01*
X18327Y-53916D01*
X18442Y-53939D01*
X18850Y-53939D01*
X18999Y-54088D01*
X19194Y-54168D01*
X19404Y-54169D01*
X19599Y-54088D01*
X19749Y-53939D01*
X19829Y-53744D01*
X19830Y-53534D01*
X19749Y-53339D01*
X19600Y-53189D01*
X19405Y-53109D01*
X19195Y-53108D01*
X19000Y-53189D01*
X18850Y-53338D01*
X18850Y-53339D01*
X18614Y-53339D01*
X18614Y-53301D01*
X18549Y-53145D01*
X18504Y-53100D01*
X20369Y-51235D01*
X20369Y-51235D01*
X20434Y-51138D01*
X20457Y-51023D01*
X20457Y-51023D01*
X20457Y-50627D01*
X20533Y-50811D01*
X20688Y-50965D01*
X20769Y-50999D01*
X20688Y-51033D01*
X20534Y-51188D01*
X20450Y-51390D01*
X20449Y-51608D01*
X20533Y-51811D01*
X20688Y-51965D01*
X20769Y-51999D01*
X20688Y-52033D01*
X20534Y-52188D01*
X20450Y-52390D01*
X20449Y-52608D01*
X20533Y-52811D01*
X20688Y-52965D01*
X20769Y-52999D01*
X20688Y-53033D01*
X20534Y-53188D01*
X20450Y-53390D01*
X20449Y-53608D01*
X20454Y-53620D01*
X19769Y-54306D01*
X17762Y-54306D01*
X15936Y-52481D01*
X15936Y-52396D01*
X15872Y-52239D01*
X15752Y-52120D01*
X15596Y-52055D01*
X15427Y-52055D01*
X15271Y-52119D01*
X15151Y-52239D01*
X15086Y-52395D01*
X15086Y-52564D01*
X15151Y-52720D01*
X15270Y-52840D01*
X15426Y-52905D01*
X15512Y-52905D01*
X15686Y-53078D01*
X15585Y-53078D01*
X15428Y-53143D01*
X15309Y-53262D01*
X15244Y-53419D01*
X15244Y-53588D01*
X15308Y-53744D01*
X15428Y-53864D01*
X15584Y-53928D01*
X15670Y-53928D01*
X16913Y-55172D01*
X17011Y-55237D01*
X17125Y-55260D01*
X18850Y-55260D01*
X18770Y-55455D01*
X18769Y-55665D01*
X18850Y-55860D01*
X18999Y-56010D01*
X19194Y-56090D01*
X19404Y-56091D01*
X19599Y-56010D01*
X19749Y-55861D01*
X19829Y-55666D01*
X19830Y-55456D01*
X19749Y-55261D01*
X19749Y-55260D01*
X20503Y-55260D01*
X20450Y-55390D01*
X20449Y-55608D01*
X20533Y-55811D01*
X20688Y-55965D01*
X20769Y-55999D01*
G54D10*
G36*
X28431Y-56824D02*
X28103Y-57151D01*
X28023Y-57151D01*
X28023Y-56111D01*
X27955Y-55947D01*
X27829Y-55821D01*
X27665Y-55753D01*
X27487Y-55752D01*
X27323Y-55820D01*
X27197Y-55946D01*
X27129Y-56110D01*
X27129Y-56288D01*
X27197Y-56452D01*
X27322Y-56578D01*
X27486Y-56646D01*
X27664Y-56647D01*
X27829Y-56579D01*
X27954Y-56453D01*
X28023Y-56289D01*
X28023Y-56111D01*
X28023Y-57151D01*
X26291Y-57151D01*
X26291Y-56111D01*
X26223Y-55947D01*
X26097Y-55821D01*
X25933Y-55753D01*
X25755Y-55752D01*
X25591Y-55820D01*
X25465Y-55946D01*
X25397Y-56110D01*
X25397Y-56288D01*
X25465Y-56452D01*
X25590Y-56578D01*
X25754Y-56646D01*
X25932Y-56647D01*
X26097Y-56579D01*
X26222Y-56453D01*
X26291Y-56289D01*
X26291Y-56111D01*
X26291Y-57151D01*
X23665Y-57151D01*
X23665Y-56581D01*
X23665Y-54581D01*
X23654Y-54363D01*
X23591Y-54212D01*
X23496Y-54184D01*
X23180Y-54500D01*
X23496Y-54815D01*
X23591Y-54787D01*
X23665Y-54581D01*
X23665Y-56581D01*
X23654Y-56363D01*
X23591Y-56212D01*
X23496Y-56184D01*
X23180Y-56500D01*
X23496Y-56815D01*
X23591Y-56787D01*
X23665Y-56581D01*
X23665Y-57151D01*
X23660Y-57151D01*
X23660Y-57150D01*
X23622Y-57058D01*
X23552Y-56988D01*
X23460Y-56950D01*
X23407Y-56949D01*
X23425Y-56885D01*
X23110Y-56570D01*
X23104Y-56576D01*
X23033Y-56505D01*
X23039Y-56500D01*
X23033Y-56494D01*
X23104Y-56423D01*
X23110Y-56429D01*
X23425Y-56114D01*
X23398Y-56018D01*
X23342Y-55999D01*
X23421Y-55966D01*
X23576Y-55811D01*
X23660Y-55609D01*
X23660Y-55391D01*
X23576Y-55188D01*
X23422Y-55034D01*
X23346Y-55002D01*
X23398Y-54981D01*
X23425Y-54885D01*
X23110Y-54570D01*
X23104Y-54576D01*
X23033Y-54505D01*
X23039Y-54500D01*
X23033Y-54494D01*
X23104Y-54423D01*
X23110Y-54429D01*
X23425Y-54114D01*
X23398Y-54018D01*
X23342Y-53999D01*
X23421Y-53966D01*
X23576Y-53811D01*
X23581Y-53800D01*
X23862Y-53800D01*
X23862Y-53799D01*
X23977Y-53777D01*
X23977Y-53777D01*
X24074Y-53712D01*
X25983Y-51802D01*
X26068Y-51803D01*
X26224Y-51738D01*
X26344Y-51619D01*
X26409Y-51462D01*
X26409Y-51293D01*
X26344Y-51137D01*
X26225Y-51017D01*
X26094Y-50963D01*
X26094Y-50939D01*
X26029Y-50783D01*
X25910Y-50663D01*
X25909Y-50663D01*
X25936Y-50596D01*
X25936Y-50427D01*
X25872Y-50271D01*
X25752Y-50151D01*
X25596Y-50086D01*
X25427Y-50086D01*
X25271Y-50151D01*
X25160Y-50262D01*
X25160Y-50150D01*
X25122Y-50058D01*
X25052Y-49988D01*
X24960Y-49950D01*
X24937Y-49950D01*
X25076Y-49811D01*
X25160Y-49609D01*
X25160Y-49511D01*
X26895Y-51246D01*
X26895Y-51386D01*
X26726Y-51385D01*
X26570Y-51450D01*
X26450Y-51569D01*
X26386Y-51726D01*
X26385Y-51895D01*
X26450Y-52051D01*
X26511Y-52112D01*
X26511Y-52494D01*
X26450Y-52554D01*
X26386Y-52710D01*
X26385Y-52879D01*
X26450Y-53035D01*
X26569Y-53155D01*
X26726Y-53220D01*
X26895Y-53220D01*
X26895Y-53220D01*
X26895Y-53320D01*
X26627Y-53588D01*
X25944Y-53588D01*
X25811Y-53615D01*
X25698Y-53690D01*
X25698Y-53690D01*
X25483Y-53905D01*
X25467Y-53905D01*
X25310Y-53970D01*
X25191Y-54089D01*
X25126Y-54245D01*
X25126Y-54414D01*
X25190Y-54571D01*
X25310Y-54690D01*
X25466Y-54755D01*
X25635Y-54755D01*
X25791Y-54691D01*
X25911Y-54571D01*
X25976Y-54415D01*
X25976Y-54398D01*
X26089Y-54285D01*
X26771Y-54285D01*
X26771Y-54285D01*
X26771Y-54285D01*
X26882Y-54263D01*
X26904Y-54258D01*
X26904Y-54258D01*
X27018Y-54183D01*
X27490Y-53710D01*
X27490Y-53710D01*
X27490Y-53710D01*
X27565Y-53597D01*
X27592Y-53464D01*
X27592Y-53464D01*
X27592Y-53464D01*
X27592Y-52614D01*
X27604Y-52603D01*
X27669Y-52447D01*
X27669Y-52278D01*
X27604Y-52121D01*
X27592Y-52109D01*
X27592Y-51352D01*
X28355Y-52116D01*
X28354Y-52119D01*
X28354Y-52288D01*
X28419Y-52445D01*
X28431Y-52457D01*
X28431Y-56824D01*
X28431Y-56824D01*
G37*
G54D22*
X28431Y-56824D02*
X28103Y-57151D01*
X28023Y-57151D01*
X28023Y-56111D01*
X27955Y-55947D01*
X27829Y-55821D01*
X27665Y-55753D01*
X27487Y-55752D01*
X27323Y-55820D01*
X27197Y-55946D01*
X27129Y-56110D01*
X27129Y-56288D01*
X27197Y-56452D01*
X27322Y-56578D01*
X27486Y-56646D01*
X27664Y-56647D01*
X27829Y-56579D01*
X27954Y-56453D01*
X28023Y-56289D01*
X28023Y-56111D01*
X28023Y-57151D01*
X26291Y-57151D01*
X26291Y-56111D01*
X26223Y-55947D01*
X26097Y-55821D01*
X25933Y-55753D01*
X25755Y-55752D01*
X25591Y-55820D01*
X25465Y-55946D01*
X25397Y-56110D01*
X25397Y-56288D01*
X25465Y-56452D01*
X25590Y-56578D01*
X25754Y-56646D01*
X25932Y-56647D01*
X26097Y-56579D01*
X26222Y-56453D01*
X26291Y-56289D01*
X26291Y-56111D01*
X26291Y-57151D01*
X23665Y-57151D01*
X23665Y-56581D01*
X23665Y-54581D01*
X23654Y-54363D01*
X23591Y-54212D01*
X23496Y-54184D01*
X23180Y-54500D01*
X23496Y-54815D01*
X23591Y-54787D01*
X23665Y-54581D01*
X23665Y-56581D01*
X23654Y-56363D01*
X23591Y-56212D01*
X23496Y-56184D01*
X23180Y-56500D01*
X23496Y-56815D01*
X23591Y-56787D01*
X23665Y-56581D01*
X23665Y-57151D01*
X23660Y-57151D01*
X23660Y-57150D01*
X23622Y-57058D01*
X23552Y-56988D01*
X23460Y-56950D01*
X23407Y-56949D01*
X23425Y-56885D01*
X23110Y-56570D01*
X23104Y-56576D01*
X23033Y-56505D01*
X23039Y-56500D01*
X23033Y-56494D01*
X23104Y-56423D01*
X23110Y-56429D01*
X23425Y-56114D01*
X23398Y-56018D01*
X23342Y-55999D01*
X23421Y-55966D01*
X23576Y-55811D01*
X23660Y-55609D01*
X23660Y-55391D01*
X23576Y-55188D01*
X23422Y-55034D01*
X23346Y-55002D01*
X23398Y-54981D01*
X23425Y-54885D01*
X23110Y-54570D01*
X23104Y-54576D01*
X23033Y-54505D01*
X23039Y-54500D01*
X23033Y-54494D01*
X23104Y-54423D01*
X23110Y-54429D01*
X23425Y-54114D01*
X23398Y-54018D01*
X23342Y-53999D01*
X23421Y-53966D01*
X23576Y-53811D01*
X23581Y-53800D01*
X23862Y-53800D01*
X23862Y-53799D01*
X23977Y-53777D01*
X23977Y-53777D01*
X24074Y-53712D01*
X25983Y-51802D01*
X26068Y-51803D01*
X26224Y-51738D01*
X26344Y-51619D01*
X26409Y-51462D01*
X26409Y-51293D01*
X26344Y-51137D01*
X26225Y-51017D01*
X26094Y-50963D01*
X26094Y-50939D01*
X26029Y-50783D01*
X25910Y-50663D01*
X25909Y-50663D01*
X25936Y-50596D01*
X25936Y-50427D01*
X25872Y-50271D01*
X25752Y-50151D01*
X25596Y-50086D01*
X25427Y-50086D01*
X25271Y-50151D01*
X25160Y-50262D01*
X25160Y-50150D01*
X25122Y-50058D01*
X25052Y-49988D01*
X24960Y-49950D01*
X24937Y-49950D01*
X25076Y-49811D01*
X25160Y-49609D01*
X25160Y-49511D01*
X26895Y-51246D01*
X26895Y-51386D01*
X26726Y-51385D01*
X26570Y-51450D01*
X26450Y-51569D01*
X26386Y-51726D01*
X26385Y-51895D01*
X26450Y-52051D01*
X26511Y-52112D01*
X26511Y-52494D01*
X26450Y-52554D01*
X26386Y-52710D01*
X26385Y-52879D01*
X26450Y-53035D01*
X26569Y-53155D01*
X26726Y-53220D01*
X26895Y-53220D01*
X26895Y-53220D01*
X26895Y-53320D01*
X26627Y-53588D01*
X25944Y-53588D01*
X25811Y-53615D01*
X25698Y-53690D01*
X25698Y-53690D01*
X25483Y-53905D01*
X25467Y-53905D01*
X25310Y-53970D01*
X25191Y-54089D01*
X25126Y-54245D01*
X25126Y-54414D01*
X25190Y-54571D01*
X25310Y-54690D01*
X25466Y-54755D01*
X25635Y-54755D01*
X25791Y-54691D01*
X25911Y-54571D01*
X25976Y-54415D01*
X25976Y-54398D01*
X26089Y-54285D01*
X26771Y-54285D01*
X26771Y-54285D01*
X26771Y-54285D01*
X26882Y-54263D01*
X26904Y-54258D01*
X26904Y-54258D01*
X27018Y-54183D01*
X27490Y-53710D01*
X27490Y-53710D01*
X27490Y-53710D01*
X27565Y-53597D01*
X27592Y-53464D01*
X27592Y-53464D01*
X27592Y-53464D01*
X27592Y-52614D01*
X27604Y-52603D01*
X27669Y-52447D01*
X27669Y-52278D01*
X27604Y-52121D01*
X27592Y-52109D01*
X27592Y-51352D01*
X28355Y-52116D01*
X28354Y-52119D01*
X28354Y-52288D01*
X28419Y-52445D01*
X28431Y-52457D01*
X28431Y-56824D01*
G54D10*
G36*
X29880Y-42999D02*
X29799Y-43033D01*
X29644Y-43188D01*
X29610Y-43269D01*
X29576Y-43188D01*
X29422Y-43034D01*
X29346Y-43002D01*
X29398Y-42981D01*
X29425Y-42885D01*
X29110Y-42570D01*
X29039Y-42641D01*
X29039Y-42500D01*
X28724Y-42184D01*
X28628Y-42212D01*
X28555Y-42418D01*
X28566Y-42636D01*
X28628Y-42787D01*
X28724Y-42815D01*
X29039Y-42500D01*
X29039Y-42641D01*
X28795Y-42885D01*
X28822Y-42981D01*
X28877Y-43000D01*
X28799Y-43033D01*
X28644Y-43188D01*
X28560Y-43390D01*
X28560Y-43608D01*
X28643Y-43811D01*
X28798Y-43965D01*
X29000Y-44049D01*
X29219Y-44050D01*
X29421Y-43966D01*
X29576Y-43811D01*
X29610Y-43730D01*
X29643Y-43811D01*
X29790Y-43958D01*
X29563Y-44185D01*
X28511Y-44185D01*
X28550Y-44091D01*
X28550Y-43869D01*
X28465Y-43663D01*
X28307Y-43505D01*
X28102Y-43420D01*
X27879Y-43419D01*
X27858Y-43428D01*
X27969Y-43317D01*
X28055Y-43111D01*
X28055Y-42889D01*
X27970Y-42683D01*
X27812Y-42525D01*
X27607Y-42440D01*
X27384Y-42439D01*
X27178Y-42524D01*
X27020Y-42682D01*
X26935Y-42888D01*
X26935Y-43110D01*
X27020Y-43316D01*
X27177Y-43474D01*
X27383Y-43559D01*
X27606Y-43560D01*
X27626Y-43551D01*
X27515Y-43662D01*
X27430Y-43868D01*
X27430Y-44090D01*
X27469Y-44185D01*
X26289Y-44185D01*
X26289Y-43084D01*
X26279Y-42861D01*
X26214Y-42706D01*
X26118Y-42677D01*
X26047Y-42748D01*
X26047Y-42606D01*
X26019Y-42510D01*
X25809Y-42435D01*
X25586Y-42446D01*
X25431Y-42510D01*
X25402Y-42606D01*
X25725Y-42929D01*
X26047Y-42606D01*
X26047Y-42748D01*
X25795Y-43000D01*
X26118Y-43322D01*
X26214Y-43293D01*
X26289Y-43084D01*
X26289Y-44185D01*
X25751Y-44185D01*
X25790Y-44091D01*
X25790Y-43869D01*
X25705Y-43663D01*
X25587Y-43545D01*
X25641Y-43564D01*
X25863Y-43553D01*
X26019Y-43489D01*
X26047Y-43393D01*
X25725Y-43070D01*
X25654Y-43141D01*
X25654Y-43000D01*
X25332Y-42677D01*
X25235Y-42706D01*
X25160Y-42915D01*
X25171Y-43138D01*
X25235Y-43293D01*
X25332Y-43322D01*
X25654Y-43000D01*
X25654Y-43141D01*
X25402Y-43393D01*
X25420Y-43452D01*
X25342Y-43420D01*
X25119Y-43419D01*
X24913Y-43504D01*
X24755Y-43662D01*
X24670Y-43868D01*
X24670Y-43951D01*
X24091Y-43951D01*
X24000Y-43860D01*
X24000Y-43858D01*
X23977Y-43743D01*
X23912Y-43646D01*
X23912Y-43646D01*
X23660Y-43393D01*
X23660Y-43391D01*
X23576Y-43188D01*
X23438Y-43050D01*
X23459Y-43050D01*
X23551Y-43012D01*
X23622Y-42941D01*
X23660Y-42849D01*
X23660Y-42750D01*
X23660Y-42150D01*
X23639Y-42100D01*
X23665Y-42100D01*
X23880Y-42057D01*
X23917Y-42145D01*
X24014Y-42244D01*
X24142Y-42297D01*
X24281Y-42297D01*
X24409Y-42244D01*
X24536Y-42297D01*
X24675Y-42297D01*
X24803Y-42244D01*
X24930Y-42297D01*
X25069Y-42297D01*
X25197Y-42244D01*
X25324Y-42297D01*
X25462Y-42297D01*
X25590Y-42244D01*
X25717Y-42297D01*
X25856Y-42297D01*
X25984Y-42244D01*
X26082Y-42146D01*
X26119Y-42057D01*
X26334Y-42100D01*
X28798Y-42100D01*
X28795Y-42114D01*
X29110Y-42429D01*
X29425Y-42114D01*
X29421Y-42100D01*
X29571Y-42100D01*
X29772Y-42060D01*
X29644Y-42188D01*
X29612Y-42263D01*
X29591Y-42212D01*
X29496Y-42184D01*
X29180Y-42500D01*
X29496Y-42815D01*
X29591Y-42787D01*
X29611Y-42732D01*
X29643Y-42811D01*
X29798Y-42965D01*
X29880Y-42999D01*
X29880Y-42999D01*
G37*
G54D22*
X29880Y-42999D02*
X29799Y-43033D01*
X29644Y-43188D01*
X29610Y-43269D01*
X29576Y-43188D01*
X29422Y-43034D01*
X29346Y-43002D01*
X29398Y-42981D01*
X29425Y-42885D01*
X29110Y-42570D01*
X29039Y-42641D01*
X29039Y-42500D01*
X28724Y-42184D01*
X28628Y-42212D01*
X28555Y-42418D01*
X28566Y-42636D01*
X28628Y-42787D01*
X28724Y-42815D01*
X29039Y-42500D01*
X29039Y-42641D01*
X28795Y-42885D01*
X28822Y-42981D01*
X28877Y-43000D01*
X28799Y-43033D01*
X28644Y-43188D01*
X28560Y-43390D01*
X28560Y-43608D01*
X28643Y-43811D01*
X28798Y-43965D01*
X29000Y-44049D01*
X29219Y-44050D01*
X29421Y-43966D01*
X29576Y-43811D01*
X29610Y-43730D01*
X29643Y-43811D01*
X29790Y-43958D01*
X29563Y-44185D01*
X28511Y-44185D01*
X28550Y-44091D01*
X28550Y-43869D01*
X28465Y-43663D01*
X28307Y-43505D01*
X28102Y-43420D01*
X27879Y-43419D01*
X27858Y-43428D01*
X27969Y-43317D01*
X28055Y-43111D01*
X28055Y-42889D01*
X27970Y-42683D01*
X27812Y-42525D01*
X27607Y-42440D01*
X27384Y-42439D01*
X27178Y-42524D01*
X27020Y-42682D01*
X26935Y-42888D01*
X26935Y-43110D01*
X27020Y-43316D01*
X27177Y-43474D01*
X27383Y-43559D01*
X27606Y-43560D01*
X27626Y-43551D01*
X27515Y-43662D01*
X27430Y-43868D01*
X27430Y-44090D01*
X27469Y-44185D01*
X26289Y-44185D01*
X26289Y-43084D01*
X26279Y-42861D01*
X26214Y-42706D01*
X26118Y-42677D01*
X26047Y-42748D01*
X26047Y-42606D01*
X26019Y-42510D01*
X25809Y-42435D01*
X25586Y-42446D01*
X25431Y-42510D01*
X25402Y-42606D01*
X25725Y-42929D01*
X26047Y-42606D01*
X26047Y-42748D01*
X25795Y-43000D01*
X26118Y-43322D01*
X26214Y-43293D01*
X26289Y-43084D01*
X26289Y-44185D01*
X25751Y-44185D01*
X25790Y-44091D01*
X25790Y-43869D01*
X25705Y-43663D01*
X25587Y-43545D01*
X25641Y-43564D01*
X25863Y-43553D01*
X26019Y-43489D01*
X26047Y-43393D01*
X25725Y-43070D01*
X25654Y-43141D01*
X25654Y-43000D01*
X25332Y-42677D01*
X25235Y-42706D01*
X25160Y-42915D01*
X25171Y-43138D01*
X25235Y-43293D01*
X25332Y-43322D01*
X25654Y-43000D01*
X25654Y-43141D01*
X25402Y-43393D01*
X25420Y-43452D01*
X25342Y-43420D01*
X25119Y-43419D01*
X24913Y-43504D01*
X24755Y-43662D01*
X24670Y-43868D01*
X24670Y-43951D01*
X24091Y-43951D01*
X24000Y-43860D01*
X24000Y-43858D01*
X23977Y-43743D01*
X23912Y-43646D01*
X23912Y-43646D01*
X23660Y-43393D01*
X23660Y-43391D01*
X23576Y-43188D01*
X23438Y-43050D01*
X23459Y-43050D01*
X23551Y-43012D01*
X23622Y-42941D01*
X23660Y-42849D01*
X23660Y-42750D01*
X23660Y-42150D01*
X23639Y-42100D01*
X23665Y-42100D01*
X23880Y-42057D01*
X23917Y-42145D01*
X24014Y-42244D01*
X24142Y-42297D01*
X24281Y-42297D01*
X24409Y-42244D01*
X24536Y-42297D01*
X24675Y-42297D01*
X24803Y-42244D01*
X24930Y-42297D01*
X25069Y-42297D01*
X25197Y-42244D01*
X25324Y-42297D01*
X25462Y-42297D01*
X25590Y-42244D01*
X25717Y-42297D01*
X25856Y-42297D01*
X25984Y-42244D01*
X26082Y-42146D01*
X26119Y-42057D01*
X26334Y-42100D01*
X28798Y-42100D01*
X28795Y-42114D01*
X29110Y-42429D01*
X29425Y-42114D01*
X29421Y-42100D01*
X29571Y-42100D01*
X29772Y-42060D01*
X29644Y-42188D01*
X29612Y-42263D01*
X29591Y-42212D01*
X29496Y-42184D01*
X29180Y-42500D01*
X29496Y-42815D01*
X29591Y-42787D01*
X29611Y-42732D01*
X29643Y-42811D01*
X29798Y-42965D01*
X29880Y-42999D01*
G54D10*
G36*
X31541Y-49501D02*
X29186Y-51856D01*
X29062Y-51856D01*
X29025Y-51800D01*
X29025Y-51800D01*
X27377Y-50152D01*
X27445Y-50124D01*
X27564Y-50004D01*
X27629Y-49848D01*
X27629Y-49763D01*
X28243Y-49149D01*
X28243Y-49149D01*
X28308Y-49051D01*
X28331Y-48937D01*
X28331Y-48937D01*
X28331Y-47033D01*
X28391Y-46973D01*
X28445Y-46842D01*
X28548Y-46842D01*
X28704Y-46777D01*
X28717Y-46765D01*
X31273Y-46765D01*
X31541Y-47034D01*
X31541Y-47165D01*
X31541Y-49501D01*
X31541Y-49501D01*
G37*
G54D22*
X31541Y-49501D02*
X29186Y-51856D01*
X29062Y-51856D01*
X29025Y-51800D01*
X29025Y-51800D01*
X27377Y-50152D01*
X27445Y-50124D01*
X27564Y-50004D01*
X27629Y-49848D01*
X27629Y-49763D01*
X28243Y-49149D01*
X28243Y-49149D01*
X28308Y-49051D01*
X28331Y-48937D01*
X28331Y-48937D01*
X28331Y-47033D01*
X28391Y-46973D01*
X28445Y-46842D01*
X28548Y-46842D01*
X28704Y-46777D01*
X28717Y-46765D01*
X31273Y-46765D01*
X31541Y-47034D01*
X31541Y-47165D01*
X31541Y-49501D01*
G54D10*
G36*
X33651Y-51478D02*
X33562Y-51515D01*
X33464Y-51613D01*
X33411Y-51741D01*
X33411Y-51880D01*
X33464Y-52008D01*
X33411Y-52135D01*
X33411Y-52273D01*
X33464Y-52401D01*
X33411Y-52528D01*
X33411Y-52667D01*
X33464Y-52795D01*
X33411Y-52922D01*
X33411Y-53061D01*
X33464Y-53189D01*
X33411Y-53316D01*
X33411Y-53454D01*
X33464Y-53582D01*
X33562Y-53681D01*
X33638Y-53712D01*
X33613Y-53771D01*
X33584Y-53922D01*
X33584Y-53949D01*
X33578Y-53976D01*
X33578Y-54015D01*
X33578Y-57791D01*
X32540Y-57791D01*
X32540Y-55456D01*
X32540Y-53534D01*
X32459Y-53339D01*
X32310Y-53189D01*
X32116Y-53109D01*
X31905Y-53108D01*
X31710Y-53189D01*
X31561Y-53338D01*
X31480Y-53533D01*
X31480Y-53743D01*
X31560Y-53938D01*
X31709Y-54088D01*
X31904Y-54168D01*
X32115Y-54169D01*
X32310Y-54088D01*
X32459Y-53939D01*
X32540Y-53744D01*
X32540Y-53534D01*
X32540Y-55456D01*
X32459Y-55261D01*
X32310Y-55111D01*
X32116Y-55031D01*
X31905Y-55030D01*
X31710Y-55111D01*
X31561Y-55260D01*
X31480Y-55455D01*
X31480Y-55665D01*
X31560Y-55860D01*
X31709Y-56010D01*
X31904Y-56090D01*
X32115Y-56091D01*
X32310Y-56010D01*
X32459Y-55861D01*
X32540Y-55666D01*
X32540Y-55456D01*
X32540Y-57791D01*
X28427Y-57791D01*
X28494Y-57746D01*
X29025Y-57214D01*
X29025Y-57214D01*
X29025Y-57214D01*
X29101Y-57101D01*
X29127Y-56968D01*
X29127Y-52553D01*
X29330Y-52553D01*
X29330Y-52553D01*
X29330Y-52553D01*
X29441Y-52531D01*
X29464Y-52526D01*
X29464Y-52526D01*
X29577Y-52451D01*
X32136Y-49892D01*
X32136Y-49892D01*
X32136Y-49892D01*
X32211Y-49779D01*
X32238Y-49645D01*
X32238Y-49645D01*
X32238Y-49645D01*
X32238Y-47165D01*
X32238Y-46889D01*
X32238Y-46889D01*
X32238Y-46889D01*
X32238Y-46889D01*
X32238Y-42874D01*
X32238Y-42874D01*
X32238Y-42874D01*
X32236Y-42865D01*
X32367Y-42866D01*
X32523Y-42801D01*
X32605Y-42719D01*
X32643Y-42811D01*
X32798Y-42965D01*
X32880Y-42999D01*
X32799Y-43033D01*
X32644Y-43188D01*
X32560Y-43390D01*
X32560Y-43608D01*
X32643Y-43811D01*
X32798Y-43965D01*
X32880Y-43999D01*
X32799Y-44033D01*
X32644Y-44188D01*
X32560Y-44390D01*
X32560Y-44608D01*
X32643Y-44811D01*
X32798Y-44965D01*
X32880Y-44999D01*
X32799Y-45033D01*
X32644Y-45188D01*
X32560Y-45390D01*
X32560Y-45608D01*
X32643Y-45811D01*
X32798Y-45965D01*
X32880Y-45999D01*
X32799Y-46033D01*
X32644Y-46188D01*
X32560Y-46390D01*
X32560Y-46608D01*
X32643Y-46811D01*
X32798Y-46965D01*
X32880Y-46999D01*
X32799Y-47033D01*
X32644Y-47188D01*
X32560Y-47390D01*
X32560Y-47608D01*
X32643Y-47811D01*
X32798Y-47965D01*
X32880Y-47999D01*
X32799Y-48033D01*
X32644Y-48188D01*
X32560Y-48390D01*
X32560Y-48608D01*
X32643Y-48811D01*
X32782Y-48949D01*
X32760Y-48949D01*
X32668Y-48987D01*
X32598Y-49058D01*
X32560Y-49150D01*
X32560Y-49249D01*
X32560Y-49849D01*
X32598Y-49941D01*
X32668Y-50011D01*
X32760Y-50049D01*
X32859Y-50050D01*
X33459Y-50050D01*
X33551Y-50012D01*
X33608Y-49955D01*
X33608Y-51263D01*
X33651Y-51478D01*
X33651Y-51478D01*
G37*
G54D22*
X33651Y-51478D02*
X33562Y-51515D01*
X33464Y-51613D01*
X33411Y-51741D01*
X33411Y-51880D01*
X33464Y-52008D01*
X33411Y-52135D01*
X33411Y-52273D01*
X33464Y-52401D01*
X33411Y-52528D01*
X33411Y-52667D01*
X33464Y-52795D01*
X33411Y-52922D01*
X33411Y-53061D01*
X33464Y-53189D01*
X33411Y-53316D01*
X33411Y-53454D01*
X33464Y-53582D01*
X33562Y-53681D01*
X33638Y-53712D01*
X33613Y-53771D01*
X33584Y-53922D01*
X33584Y-53949D01*
X33578Y-53976D01*
X33578Y-54015D01*
X33578Y-57791D01*
X32540Y-57791D01*
X32540Y-55456D01*
X32540Y-53534D01*
X32459Y-53339D01*
X32310Y-53189D01*
X32116Y-53109D01*
X31905Y-53108D01*
X31710Y-53189D01*
X31561Y-53338D01*
X31480Y-53533D01*
X31480Y-53743D01*
X31560Y-53938D01*
X31709Y-54088D01*
X31904Y-54168D01*
X32115Y-54169D01*
X32310Y-54088D01*
X32459Y-53939D01*
X32540Y-53744D01*
X32540Y-53534D01*
X32540Y-55456D01*
X32459Y-55261D01*
X32310Y-55111D01*
X32116Y-55031D01*
X31905Y-55030D01*
X31710Y-55111D01*
X31561Y-55260D01*
X31480Y-55455D01*
X31480Y-55665D01*
X31560Y-55860D01*
X31709Y-56010D01*
X31904Y-56090D01*
X32115Y-56091D01*
X32310Y-56010D01*
X32459Y-55861D01*
X32540Y-55666D01*
X32540Y-55456D01*
X32540Y-57791D01*
X28427Y-57791D01*
X28494Y-57746D01*
X29025Y-57214D01*
X29025Y-57214D01*
X29025Y-57214D01*
X29101Y-57101D01*
X29127Y-56968D01*
X29127Y-52553D01*
X29330Y-52553D01*
X29330Y-52553D01*
X29330Y-52553D01*
X29441Y-52531D01*
X29464Y-52526D01*
X29464Y-52526D01*
X29577Y-52451D01*
X32136Y-49892D01*
X32136Y-49892D01*
X32136Y-49892D01*
X32211Y-49779D01*
X32238Y-49645D01*
X32238Y-49645D01*
X32238Y-49645D01*
X32238Y-47165D01*
X32238Y-46889D01*
X32238Y-46889D01*
X32238Y-46889D01*
X32238Y-46889D01*
X32238Y-42874D01*
X32238Y-42874D01*
X32238Y-42874D01*
X32236Y-42865D01*
X32367Y-42866D01*
X32523Y-42801D01*
X32605Y-42719D01*
X32643Y-42811D01*
X32798Y-42965D01*
X32880Y-42999D01*
X32799Y-43033D01*
X32644Y-43188D01*
X32560Y-43390D01*
X32560Y-43608D01*
X32643Y-43811D01*
X32798Y-43965D01*
X32880Y-43999D01*
X32799Y-44033D01*
X32644Y-44188D01*
X32560Y-44390D01*
X32560Y-44608D01*
X32643Y-44811D01*
X32798Y-44965D01*
X32880Y-44999D01*
X32799Y-45033D01*
X32644Y-45188D01*
X32560Y-45390D01*
X32560Y-45608D01*
X32643Y-45811D01*
X32798Y-45965D01*
X32880Y-45999D01*
X32799Y-46033D01*
X32644Y-46188D01*
X32560Y-46390D01*
X32560Y-46608D01*
X32643Y-46811D01*
X32798Y-46965D01*
X32880Y-46999D01*
X32799Y-47033D01*
X32644Y-47188D01*
X32560Y-47390D01*
X32560Y-47608D01*
X32643Y-47811D01*
X32798Y-47965D01*
X32880Y-47999D01*
X32799Y-48033D01*
X32644Y-48188D01*
X32560Y-48390D01*
X32560Y-48608D01*
X32643Y-48811D01*
X32782Y-48949D01*
X32760Y-48949D01*
X32668Y-48987D01*
X32598Y-49058D01*
X32560Y-49150D01*
X32560Y-49249D01*
X32560Y-49849D01*
X32598Y-49941D01*
X32668Y-50011D01*
X32760Y-50049D01*
X32859Y-50050D01*
X33459Y-50050D01*
X33551Y-50012D01*
X33608Y-49955D01*
X33608Y-51263D01*
X33651Y-51478D01*
G54D10*
G36*
X33654Y-39036D02*
X33562Y-39074D01*
X33464Y-39172D01*
X33411Y-39300D01*
X33411Y-39439D01*
X33464Y-39567D01*
X33411Y-39694D01*
X33411Y-39832D01*
X33464Y-39960D01*
X33411Y-40087D01*
X33411Y-40226D01*
X33464Y-40354D01*
X33411Y-40481D01*
X33411Y-40620D01*
X33464Y-40748D01*
X33437Y-40812D01*
X33163Y-40812D01*
X33163Y-26443D01*
X33065Y-26206D01*
X32884Y-26025D01*
X32648Y-25927D01*
X32392Y-25927D01*
X32155Y-26024D01*
X31974Y-26205D01*
X31876Y-26442D01*
X31875Y-26698D01*
X31973Y-26935D01*
X32154Y-27116D01*
X32391Y-27214D01*
X32647Y-27214D01*
X32883Y-27116D01*
X33065Y-26935D01*
X33163Y-26699D01*
X33163Y-26443D01*
X33163Y-40812D01*
X32485Y-40812D01*
X32485Y-37052D01*
X32480Y-36957D01*
X32480Y-36221D01*
X32480Y-35621D01*
X32442Y-35529D01*
X32372Y-35459D01*
X32297Y-35427D01*
X32297Y-33265D01*
X32297Y-31297D01*
X32220Y-31111D01*
X32078Y-30969D01*
X31892Y-30891D01*
X31789Y-30891D01*
X31789Y-26675D01*
X31780Y-26419D01*
X31700Y-26226D01*
X31595Y-26187D01*
X31524Y-26258D01*
X31524Y-26117D01*
X31485Y-26012D01*
X31245Y-25922D01*
X30989Y-25932D01*
X30797Y-26012D01*
X30758Y-26117D01*
X31141Y-26500D01*
X31524Y-26117D01*
X31524Y-26258D01*
X31212Y-26570D01*
X31595Y-26953D01*
X31700Y-26915D01*
X31789Y-26675D01*
X31789Y-30891D01*
X31691Y-30891D01*
X31524Y-30960D01*
X31524Y-27024D01*
X31141Y-26641D01*
X31071Y-26712D01*
X31071Y-26570D01*
X30687Y-26187D01*
X30582Y-26226D01*
X30493Y-26466D01*
X30503Y-26722D01*
X30582Y-26915D01*
X30687Y-26953D01*
X31071Y-26570D01*
X31071Y-26712D01*
X30758Y-27024D01*
X30797Y-27129D01*
X31037Y-27218D01*
X31293Y-27209D01*
X31485Y-27129D01*
X31524Y-27024D01*
X31524Y-30960D01*
X31505Y-30968D01*
X31362Y-31110D01*
X31285Y-31296D01*
X31285Y-31497D01*
X31362Y-31683D01*
X31504Y-31826D01*
X31690Y-31903D01*
X31891Y-31903D01*
X32077Y-31826D01*
X32219Y-31684D01*
X32297Y-31498D01*
X32297Y-31297D01*
X32297Y-33265D01*
X32220Y-33079D01*
X32078Y-32937D01*
X31892Y-32860D01*
X31691Y-32860D01*
X31505Y-32937D01*
X31424Y-33017D01*
X31318Y-33017D01*
X31185Y-33044D01*
X31072Y-33119D01*
X31072Y-33119D01*
X30063Y-34128D01*
X30063Y-26443D01*
X29965Y-26206D01*
X29784Y-26025D01*
X29548Y-25927D01*
X29292Y-25927D01*
X29055Y-26024D01*
X28874Y-26205D01*
X28776Y-26442D01*
X28775Y-26698D01*
X28873Y-26935D01*
X29054Y-27116D01*
X29291Y-27214D01*
X29547Y-27214D01*
X29783Y-27116D01*
X29965Y-26935D01*
X30063Y-26699D01*
X30063Y-26443D01*
X30063Y-34128D01*
X29696Y-34496D01*
X29679Y-34496D01*
X29523Y-34560D01*
X29403Y-34680D01*
X29338Y-34836D01*
X29338Y-35005D01*
X29403Y-35161D01*
X29522Y-35281D01*
X29678Y-35346D01*
X29847Y-35346D01*
X30004Y-35281D01*
X30123Y-35162D01*
X30188Y-35006D01*
X30188Y-34989D01*
X31443Y-33734D01*
X31504Y-33794D01*
X31690Y-33871D01*
X31891Y-33872D01*
X32077Y-33795D01*
X32219Y-33653D01*
X32297Y-33467D01*
X32297Y-33265D01*
X32297Y-35427D01*
X32280Y-35420D01*
X32181Y-35420D01*
X31581Y-35420D01*
X31489Y-35458D01*
X31460Y-35487D01*
X28982Y-35487D01*
X28882Y-35387D01*
X28882Y-35118D01*
X28859Y-35003D01*
X28850Y-34988D01*
X28850Y-34988D01*
X28850Y-34876D01*
X28785Y-34720D01*
X28666Y-34600D01*
X28510Y-34535D01*
X28341Y-34535D01*
X28340Y-34535D01*
X28340Y-31601D01*
X28431Y-31509D01*
X28545Y-31509D01*
X28731Y-31433D01*
X28873Y-31290D01*
X28950Y-31105D01*
X28950Y-30903D01*
X28950Y-28935D01*
X28874Y-28749D01*
X28731Y-28606D01*
X28689Y-28589D01*
X28689Y-26675D01*
X28680Y-26419D01*
X28600Y-26226D01*
X28495Y-26187D01*
X28424Y-26258D01*
X28424Y-26117D01*
X28385Y-26012D01*
X28145Y-25922D01*
X27889Y-25932D01*
X27697Y-26012D01*
X27658Y-26117D01*
X28041Y-26500D01*
X28424Y-26117D01*
X28424Y-26258D01*
X28112Y-26570D01*
X28495Y-26953D01*
X28600Y-26915D01*
X28689Y-26675D01*
X28689Y-28589D01*
X28545Y-28529D01*
X28424Y-28529D01*
X28424Y-27024D01*
X28041Y-26641D01*
X27971Y-26712D01*
X27971Y-26570D01*
X27587Y-26187D01*
X27482Y-26226D01*
X27393Y-26466D01*
X27403Y-26722D01*
X27482Y-26915D01*
X27587Y-26953D01*
X27971Y-26570D01*
X27971Y-26712D01*
X27658Y-27024D01*
X27697Y-27129D01*
X27937Y-27218D01*
X28193Y-27209D01*
X28385Y-27129D01*
X28424Y-27024D01*
X28424Y-28529D01*
X28344Y-28529D01*
X28158Y-28606D01*
X28016Y-28748D01*
X27939Y-28934D01*
X27938Y-29135D01*
X28015Y-29321D01*
X28157Y-29464D01*
X28343Y-29541D01*
X28545Y-29541D01*
X28731Y-29464D01*
X28873Y-29322D01*
X28950Y-29136D01*
X28950Y-28935D01*
X28950Y-30903D01*
X28874Y-30717D01*
X28731Y-30575D01*
X28545Y-30498D01*
X28344Y-30497D01*
X28158Y-30574D01*
X28016Y-30716D01*
X27939Y-30902D01*
X27938Y-31017D01*
X27745Y-31210D01*
X27670Y-31323D01*
X27665Y-31345D01*
X27643Y-31456D01*
X27643Y-31456D01*
X27643Y-37401D01*
X27643Y-37401D01*
X27665Y-37512D01*
X27670Y-37534D01*
X27745Y-37647D01*
X29141Y-39044D01*
X29141Y-39060D01*
X29206Y-39216D01*
X29325Y-39336D01*
X29482Y-39401D01*
X29651Y-39401D01*
X29807Y-39336D01*
X29927Y-39217D01*
X29991Y-39061D01*
X29992Y-38892D01*
X29927Y-38735D01*
X29807Y-38616D01*
X29651Y-38551D01*
X29634Y-38551D01*
X29443Y-38359D01*
X29443Y-36860D01*
X29360Y-36660D01*
X29206Y-36506D01*
X29006Y-36423D01*
X28789Y-36423D01*
X28589Y-36505D01*
X28435Y-36659D01*
X28352Y-36859D01*
X28352Y-37076D01*
X28435Y-37276D01*
X28588Y-37430D01*
X28788Y-37513D01*
X29005Y-37513D01*
X29206Y-37431D01*
X29359Y-37277D01*
X29442Y-37077D01*
X29443Y-36860D01*
X29443Y-38359D01*
X28340Y-37257D01*
X28340Y-35679D01*
X28370Y-35723D01*
X28646Y-35999D01*
X28646Y-35999D01*
X28743Y-36064D01*
X28858Y-36087D01*
X31380Y-36087D01*
X31380Y-36320D01*
X31418Y-36412D01*
X31488Y-36482D01*
X31580Y-36520D01*
X31633Y-36520D01*
X31615Y-36584D01*
X31930Y-36900D01*
X32245Y-36584D01*
X32227Y-36520D01*
X32280Y-36520D01*
X32372Y-36482D01*
X32442Y-36412D01*
X32480Y-36320D01*
X32480Y-36221D01*
X32480Y-36957D01*
X32474Y-36834D01*
X32411Y-36683D01*
X32316Y-36655D01*
X32001Y-36970D01*
X32316Y-37286D01*
X32411Y-37258D01*
X32485Y-37052D01*
X32485Y-40812D01*
X32480Y-40812D01*
X32480Y-37861D01*
X32397Y-37659D01*
X32242Y-37504D01*
X32167Y-37473D01*
X32218Y-37452D01*
X32245Y-37356D01*
X31930Y-37041D01*
X31859Y-37112D01*
X31859Y-36970D01*
X31544Y-36655D01*
X31449Y-36683D01*
X31375Y-36889D01*
X31386Y-37107D01*
X31449Y-37258D01*
X31544Y-37286D01*
X31859Y-36970D01*
X31859Y-37112D01*
X31615Y-37356D01*
X31642Y-37452D01*
X31698Y-37471D01*
X31619Y-37504D01*
X31464Y-37658D01*
X31380Y-37860D01*
X31380Y-38079D01*
X31464Y-38282D01*
X31618Y-38436D01*
X31820Y-38520D01*
X32039Y-38520D01*
X32241Y-38437D01*
X32396Y-38282D01*
X32480Y-38080D01*
X32480Y-37861D01*
X32480Y-40812D01*
X32240Y-40812D01*
X32024Y-40855D01*
X31988Y-40767D01*
X31890Y-40669D01*
X31762Y-40616D01*
X31623Y-40616D01*
X31495Y-40668D01*
X31368Y-40616D01*
X31230Y-40616D01*
X31102Y-40668D01*
X30975Y-40616D01*
X30836Y-40616D01*
X30708Y-40668D01*
X30581Y-40616D01*
X30442Y-40616D01*
X30314Y-40668D01*
X30187Y-40616D01*
X30049Y-40616D01*
X29921Y-40669D01*
X29822Y-40766D01*
X29786Y-40855D01*
X29571Y-40812D01*
X27393Y-40812D01*
X27393Y-40152D01*
X27329Y-39995D01*
X27209Y-39876D01*
X27198Y-39871D01*
X27198Y-35787D01*
X27172Y-35654D01*
X27096Y-35541D01*
X27096Y-35541D01*
X27063Y-35507D01*
X27063Y-26443D01*
X26965Y-26206D01*
X26784Y-26025D01*
X26548Y-25927D01*
X26292Y-25927D01*
X26055Y-26024D01*
X25874Y-26205D01*
X25776Y-26442D01*
X25775Y-26698D01*
X25873Y-26935D01*
X26054Y-27116D01*
X26291Y-27214D01*
X26547Y-27214D01*
X26783Y-27116D01*
X26965Y-26935D01*
X27063Y-26699D01*
X27063Y-26443D01*
X27063Y-35507D01*
X26511Y-34955D01*
X26398Y-34880D01*
X26376Y-34876D01*
X26265Y-34853D01*
X26265Y-34853D01*
X26210Y-34853D01*
X26204Y-34838D01*
X26023Y-34656D01*
X25786Y-34558D01*
X25689Y-34558D01*
X25689Y-26675D01*
X25680Y-26419D01*
X25600Y-26226D01*
X25495Y-26187D01*
X25424Y-26258D01*
X25424Y-26117D01*
X25385Y-26012D01*
X25145Y-25922D01*
X24889Y-25932D01*
X24697Y-26012D01*
X24658Y-26117D01*
X25041Y-26500D01*
X25424Y-26117D01*
X25424Y-26258D01*
X25112Y-26570D01*
X25495Y-26953D01*
X25600Y-26915D01*
X25689Y-26675D01*
X25689Y-34558D01*
X25530Y-34558D01*
X25424Y-34602D01*
X25424Y-27024D01*
X25041Y-26641D01*
X24971Y-26712D01*
X24971Y-26570D01*
X24587Y-26187D01*
X24482Y-26226D01*
X24393Y-26466D01*
X24403Y-26722D01*
X24482Y-26915D01*
X24587Y-26953D01*
X24971Y-26570D01*
X24971Y-26712D01*
X24658Y-27024D01*
X24697Y-27129D01*
X24937Y-27218D01*
X25193Y-27209D01*
X25385Y-27129D01*
X25424Y-27024D01*
X25424Y-34602D01*
X25412Y-34607D01*
X25412Y-33535D01*
X25407Y-33451D01*
X25407Y-31395D01*
X25330Y-31209D01*
X25188Y-31067D01*
X25002Y-30990D01*
X24801Y-30990D01*
X24615Y-31066D01*
X24472Y-31209D01*
X24395Y-31394D01*
X24395Y-31596D01*
X24472Y-31782D01*
X24614Y-31924D01*
X24800Y-32001D01*
X25001Y-32002D01*
X25187Y-31925D01*
X25330Y-31783D01*
X25407Y-31597D01*
X25407Y-31395D01*
X25407Y-33451D01*
X25400Y-33334D01*
X25346Y-33203D01*
X25255Y-33181D01*
X25184Y-33252D01*
X25184Y-33110D01*
X25162Y-33019D01*
X24972Y-32953D01*
X24771Y-32965D01*
X24640Y-33019D01*
X24618Y-33110D01*
X24901Y-33393D01*
X25184Y-33110D01*
X25184Y-33252D01*
X24972Y-33464D01*
X25255Y-33747D01*
X25346Y-33725D01*
X25412Y-33535D01*
X25412Y-34607D01*
X25294Y-34656D01*
X25184Y-34765D01*
X25184Y-33818D01*
X24901Y-33535D01*
X24830Y-33605D01*
X24830Y-33464D01*
X24547Y-33181D01*
X24456Y-33203D01*
X24390Y-33393D01*
X24402Y-33594D01*
X24456Y-33725D01*
X24547Y-33747D01*
X24830Y-33464D01*
X24830Y-33605D01*
X24618Y-33818D01*
X24640Y-33909D01*
X24830Y-33975D01*
X25031Y-33963D01*
X25162Y-33909D01*
X25184Y-33818D01*
X25184Y-34765D01*
X25112Y-34837D01*
X25014Y-35073D01*
X25014Y-35329D01*
X25112Y-35566D01*
X25240Y-35694D01*
X25112Y-35821D01*
X25014Y-36058D01*
X25014Y-36314D01*
X25112Y-36550D01*
X25293Y-36731D01*
X25296Y-36733D01*
X25179Y-36850D01*
X25093Y-37057D01*
X25093Y-37282D01*
X25179Y-37490D01*
X25296Y-37608D01*
X25294Y-37609D01*
X25112Y-37790D01*
X25014Y-38026D01*
X25014Y-38282D01*
X25112Y-38519D01*
X25240Y-38647D01*
X25112Y-38774D01*
X25014Y-39010D01*
X25014Y-39266D01*
X25112Y-39503D01*
X25293Y-39684D01*
X25529Y-39782D01*
X25785Y-39783D01*
X26022Y-39685D01*
X26203Y-39504D01*
X26301Y-39267D01*
X26302Y-39011D01*
X26204Y-38775D01*
X26076Y-38647D01*
X26203Y-38520D01*
X26301Y-38283D01*
X26302Y-38027D01*
X26204Y-37790D01*
X26023Y-37609D01*
X26019Y-37608D01*
X26136Y-37491D01*
X26223Y-37283D01*
X26223Y-37058D01*
X26137Y-36851D01*
X26020Y-36733D01*
X26022Y-36732D01*
X26203Y-36551D01*
X26301Y-36315D01*
X26302Y-36059D01*
X26204Y-35822D01*
X26076Y-35694D01*
X26170Y-35600D01*
X26501Y-35931D01*
X26501Y-40118D01*
X26501Y-40118D01*
X26524Y-40229D01*
X26528Y-40251D01*
X26543Y-40273D01*
X26543Y-40273D01*
X26543Y-40320D01*
X26607Y-40476D01*
X26727Y-40596D01*
X26883Y-40661D01*
X27052Y-40661D01*
X27208Y-40596D01*
X27328Y-40477D01*
X27393Y-40321D01*
X27393Y-40152D01*
X27393Y-40812D01*
X26334Y-40812D01*
X26119Y-40855D01*
X26082Y-40767D01*
X25985Y-40669D01*
X25857Y-40616D01*
X25718Y-40616D01*
X25590Y-40668D01*
X25463Y-40616D01*
X25324Y-40616D01*
X25196Y-40668D01*
X25069Y-40616D01*
X24930Y-40616D01*
X24802Y-40668D01*
X24675Y-40616D01*
X24537Y-40616D01*
X24409Y-40668D01*
X24337Y-40639D01*
X24337Y-37275D01*
X24328Y-37019D01*
X24254Y-36841D01*
X24254Y-35090D01*
X24168Y-34882D01*
X24010Y-34723D01*
X23802Y-34637D01*
X23577Y-34637D01*
X23370Y-34723D01*
X23211Y-34881D01*
X23124Y-35089D01*
X23124Y-35314D01*
X23210Y-35521D01*
X23369Y-35681D01*
X23576Y-35767D01*
X23801Y-35767D01*
X24009Y-35681D01*
X24168Y-35522D01*
X24254Y-35315D01*
X24254Y-35090D01*
X24254Y-36841D01*
X24248Y-36826D01*
X24143Y-36787D01*
X24072Y-36858D01*
X24072Y-36717D01*
X24033Y-36612D01*
X23793Y-36522D01*
X23538Y-36532D01*
X23345Y-36612D01*
X23306Y-36717D01*
X23689Y-37100D01*
X24072Y-36717D01*
X24072Y-36858D01*
X23760Y-37170D01*
X24143Y-37553D01*
X24248Y-37515D01*
X24337Y-37275D01*
X24337Y-40639D01*
X24282Y-40616D01*
X24254Y-40616D01*
X24254Y-39027D01*
X24168Y-38819D01*
X24072Y-38723D01*
X24072Y-37624D01*
X23689Y-37241D01*
X23619Y-37312D01*
X23619Y-37170D01*
X23236Y-36787D01*
X23130Y-36826D01*
X23041Y-37066D01*
X23051Y-37322D01*
X23130Y-37515D01*
X23236Y-37553D01*
X23619Y-37170D01*
X23619Y-37312D01*
X23306Y-37624D01*
X23345Y-37729D01*
X23585Y-37818D01*
X23841Y-37809D01*
X24033Y-37729D01*
X24072Y-37624D01*
X24072Y-38723D01*
X24010Y-38660D01*
X23802Y-38574D01*
X23577Y-38574D01*
X23370Y-38660D01*
X23211Y-38818D01*
X23124Y-39026D01*
X23124Y-39251D01*
X23210Y-39458D01*
X23369Y-39618D01*
X23576Y-39704D01*
X23801Y-39704D01*
X24009Y-39618D01*
X24168Y-39459D01*
X24254Y-39252D01*
X24254Y-39027D01*
X24254Y-40616D01*
X24143Y-40616D01*
X24015Y-40669D01*
X23917Y-40766D01*
X23880Y-40855D01*
X23665Y-40812D01*
X22861Y-40812D01*
X22834Y-40747D01*
X22887Y-40620D01*
X22887Y-40482D01*
X22834Y-40354D01*
X22887Y-40227D01*
X22887Y-40088D01*
X22834Y-39960D01*
X22887Y-39833D01*
X22887Y-39694D01*
X22834Y-39566D01*
X22887Y-39439D01*
X22887Y-39301D01*
X22834Y-39172D01*
X22736Y-39074D01*
X22648Y-39037D01*
X22690Y-38822D01*
X22690Y-35586D01*
X22648Y-35371D01*
X22736Y-35334D01*
X22834Y-35236D01*
X22887Y-35108D01*
X22887Y-34970D01*
X22834Y-34842D01*
X22887Y-34715D01*
X22887Y-34576D01*
X22834Y-34448D01*
X22887Y-34321D01*
X22887Y-34182D01*
X22834Y-34054D01*
X22887Y-33927D01*
X22887Y-33789D01*
X22834Y-33661D01*
X22887Y-33534D01*
X22887Y-33395D01*
X22834Y-33267D01*
X22736Y-33169D01*
X22648Y-33132D01*
X22690Y-32917D01*
X22690Y-29680D01*
X22648Y-29465D01*
X22736Y-29429D01*
X22834Y-29331D01*
X22887Y-29203D01*
X22887Y-29064D01*
X22834Y-28936D01*
X22887Y-28809D01*
X22887Y-28671D01*
X22834Y-28543D01*
X22887Y-28416D01*
X22887Y-28277D01*
X22834Y-28149D01*
X22887Y-28022D01*
X22887Y-27883D01*
X22834Y-27755D01*
X22887Y-27628D01*
X22887Y-27490D01*
X22834Y-27361D01*
X22736Y-27263D01*
X22644Y-27225D01*
X22690Y-26992D01*
X22690Y-25763D01*
X22644Y-25530D01*
X22736Y-25492D01*
X22834Y-25394D01*
X22882Y-25279D01*
X33600Y-25279D01*
X33562Y-25294D01*
X33464Y-25392D01*
X33411Y-25520D01*
X33411Y-25659D01*
X33464Y-25787D01*
X33411Y-25914D01*
X33411Y-26053D01*
X33464Y-26181D01*
X33411Y-26308D01*
X33411Y-26446D01*
X33464Y-26574D01*
X33411Y-26702D01*
X33411Y-26840D01*
X33464Y-26968D01*
X33411Y-27095D01*
X33411Y-27234D01*
X33464Y-27362D01*
X33562Y-27460D01*
X33651Y-27497D01*
X33608Y-27712D01*
X33608Y-30948D01*
X33651Y-31164D01*
X33562Y-31200D01*
X33464Y-31298D01*
X33411Y-31426D01*
X33411Y-31565D01*
X33464Y-31693D01*
X33411Y-31820D01*
X33411Y-31958D01*
X33464Y-32086D01*
X33411Y-32213D01*
X33411Y-32352D01*
X33464Y-32480D01*
X33411Y-32607D01*
X33411Y-32746D01*
X33464Y-32874D01*
X33411Y-33001D01*
X33411Y-33139D01*
X33464Y-33267D01*
X33562Y-33366D01*
X33654Y-33404D01*
X33608Y-33637D01*
X33608Y-34866D01*
X33654Y-35099D01*
X33562Y-35137D01*
X33464Y-35235D01*
X33411Y-35363D01*
X33411Y-35502D01*
X33464Y-35630D01*
X33411Y-35757D01*
X33411Y-35895D01*
X33464Y-36023D01*
X33411Y-36150D01*
X33411Y-36289D01*
X33464Y-36417D01*
X33411Y-36544D01*
X33411Y-36683D01*
X33464Y-36811D01*
X33411Y-36938D01*
X33411Y-37076D01*
X33464Y-37204D01*
X33562Y-37303D01*
X33654Y-37341D01*
X33608Y-37574D01*
X33608Y-38803D01*
X33654Y-39036D01*
X33654Y-39036D01*
G37*
G54D22*
X33654Y-39036D02*
X33562Y-39074D01*
X33464Y-39172D01*
X33411Y-39300D01*
X33411Y-39439D01*
X33464Y-39567D01*
X33411Y-39694D01*
X33411Y-39832D01*
X33464Y-39960D01*
X33411Y-40087D01*
X33411Y-40226D01*
X33464Y-40354D01*
X33411Y-40481D01*
X33411Y-40620D01*
X33464Y-40748D01*
X33437Y-40812D01*
X33163Y-40812D01*
X33163Y-26443D01*
X33065Y-26206D01*
X32884Y-26025D01*
X32648Y-25927D01*
X32392Y-25927D01*
X32155Y-26024D01*
X31974Y-26205D01*
X31876Y-26442D01*
X31875Y-26698D01*
X31973Y-26935D01*
X32154Y-27116D01*
X32391Y-27214D01*
X32647Y-27214D01*
X32883Y-27116D01*
X33065Y-26935D01*
X33163Y-26699D01*
X33163Y-26443D01*
X33163Y-40812D01*
X32485Y-40812D01*
X32485Y-37052D01*
X32480Y-36957D01*
X32480Y-36221D01*
X32480Y-35621D01*
X32442Y-35529D01*
X32372Y-35459D01*
X32297Y-35427D01*
X32297Y-33265D01*
X32297Y-31297D01*
X32220Y-31111D01*
X32078Y-30969D01*
X31892Y-30891D01*
X31789Y-30891D01*
X31789Y-26675D01*
X31780Y-26419D01*
X31700Y-26226D01*
X31595Y-26187D01*
X31524Y-26258D01*
X31524Y-26117D01*
X31485Y-26012D01*
X31245Y-25922D01*
X30989Y-25932D01*
X30797Y-26012D01*
X30758Y-26117D01*
X31141Y-26500D01*
X31524Y-26117D01*
X31524Y-26258D01*
X31212Y-26570D01*
X31595Y-26953D01*
X31700Y-26915D01*
X31789Y-26675D01*
X31789Y-30891D01*
X31691Y-30891D01*
X31524Y-30960D01*
X31524Y-27024D01*
X31141Y-26641D01*
X31071Y-26712D01*
X31071Y-26570D01*
X30687Y-26187D01*
X30582Y-26226D01*
X30493Y-26466D01*
X30503Y-26722D01*
X30582Y-26915D01*
X30687Y-26953D01*
X31071Y-26570D01*
X31071Y-26712D01*
X30758Y-27024D01*
X30797Y-27129D01*
X31037Y-27218D01*
X31293Y-27209D01*
X31485Y-27129D01*
X31524Y-27024D01*
X31524Y-30960D01*
X31505Y-30968D01*
X31362Y-31110D01*
X31285Y-31296D01*
X31285Y-31497D01*
X31362Y-31683D01*
X31504Y-31826D01*
X31690Y-31903D01*
X31891Y-31903D01*
X32077Y-31826D01*
X32219Y-31684D01*
X32297Y-31498D01*
X32297Y-31297D01*
X32297Y-33265D01*
X32220Y-33079D01*
X32078Y-32937D01*
X31892Y-32860D01*
X31691Y-32860D01*
X31505Y-32937D01*
X31424Y-33017D01*
X31318Y-33017D01*
X31185Y-33044D01*
X31072Y-33119D01*
X31072Y-33119D01*
X30063Y-34128D01*
X30063Y-26443D01*
X29965Y-26206D01*
X29784Y-26025D01*
X29548Y-25927D01*
X29292Y-25927D01*
X29055Y-26024D01*
X28874Y-26205D01*
X28776Y-26442D01*
X28775Y-26698D01*
X28873Y-26935D01*
X29054Y-27116D01*
X29291Y-27214D01*
X29547Y-27214D01*
X29783Y-27116D01*
X29965Y-26935D01*
X30063Y-26699D01*
X30063Y-26443D01*
X30063Y-34128D01*
X29696Y-34496D01*
X29679Y-34496D01*
X29523Y-34560D01*
X29403Y-34680D01*
X29338Y-34836D01*
X29338Y-35005D01*
X29403Y-35161D01*
X29522Y-35281D01*
X29678Y-35346D01*
X29847Y-35346D01*
X30004Y-35281D01*
X30123Y-35162D01*
X30188Y-35006D01*
X30188Y-34989D01*
X31443Y-33734D01*
X31504Y-33794D01*
X31690Y-33871D01*
X31891Y-33872D01*
X32077Y-33795D01*
X32219Y-33653D01*
X32297Y-33467D01*
X32297Y-33265D01*
X32297Y-35427D01*
X32280Y-35420D01*
X32181Y-35420D01*
X31581Y-35420D01*
X31489Y-35458D01*
X31460Y-35487D01*
X28982Y-35487D01*
X28882Y-35387D01*
X28882Y-35118D01*
X28859Y-35003D01*
X28850Y-34988D01*
X28850Y-34988D01*
X28850Y-34876D01*
X28785Y-34720D01*
X28666Y-34600D01*
X28510Y-34535D01*
X28341Y-34535D01*
X28340Y-34535D01*
X28340Y-31601D01*
X28431Y-31509D01*
X28545Y-31509D01*
X28731Y-31433D01*
X28873Y-31290D01*
X28950Y-31105D01*
X28950Y-30903D01*
X28950Y-28935D01*
X28874Y-28749D01*
X28731Y-28606D01*
X28689Y-28589D01*
X28689Y-26675D01*
X28680Y-26419D01*
X28600Y-26226D01*
X28495Y-26187D01*
X28424Y-26258D01*
X28424Y-26117D01*
X28385Y-26012D01*
X28145Y-25922D01*
X27889Y-25932D01*
X27697Y-26012D01*
X27658Y-26117D01*
X28041Y-26500D01*
X28424Y-26117D01*
X28424Y-26258D01*
X28112Y-26570D01*
X28495Y-26953D01*
X28600Y-26915D01*
X28689Y-26675D01*
X28689Y-28589D01*
X28545Y-28529D01*
X28424Y-28529D01*
X28424Y-27024D01*
X28041Y-26641D01*
X27971Y-26712D01*
X27971Y-26570D01*
X27587Y-26187D01*
X27482Y-26226D01*
X27393Y-26466D01*
X27403Y-26722D01*
X27482Y-26915D01*
X27587Y-26953D01*
X27971Y-26570D01*
X27971Y-26712D01*
X27658Y-27024D01*
X27697Y-27129D01*
X27937Y-27218D01*
X28193Y-27209D01*
X28385Y-27129D01*
X28424Y-27024D01*
X28424Y-28529D01*
X28344Y-28529D01*
X28158Y-28606D01*
X28016Y-28748D01*
X27939Y-28934D01*
X27938Y-29135D01*
X28015Y-29321D01*
X28157Y-29464D01*
X28343Y-29541D01*
X28545Y-29541D01*
X28731Y-29464D01*
X28873Y-29322D01*
X28950Y-29136D01*
X28950Y-28935D01*
X28950Y-30903D01*
X28874Y-30717D01*
X28731Y-30575D01*
X28545Y-30498D01*
X28344Y-30497D01*
X28158Y-30574D01*
X28016Y-30716D01*
X27939Y-30902D01*
X27938Y-31017D01*
X27745Y-31210D01*
X27670Y-31323D01*
X27665Y-31345D01*
X27643Y-31456D01*
X27643Y-31456D01*
X27643Y-37401D01*
X27643Y-37401D01*
X27665Y-37512D01*
X27670Y-37534D01*
X27745Y-37647D01*
X29141Y-39044D01*
X29141Y-39060D01*
X29206Y-39216D01*
X29325Y-39336D01*
X29482Y-39401D01*
X29651Y-39401D01*
X29807Y-39336D01*
X29927Y-39217D01*
X29991Y-39061D01*
X29992Y-38892D01*
X29927Y-38735D01*
X29807Y-38616D01*
X29651Y-38551D01*
X29634Y-38551D01*
X29443Y-38359D01*
X29443Y-36860D01*
X29360Y-36660D01*
X29206Y-36506D01*
X29006Y-36423D01*
X28789Y-36423D01*
X28589Y-36505D01*
X28435Y-36659D01*
X28352Y-36859D01*
X28352Y-37076D01*
X28435Y-37276D01*
X28588Y-37430D01*
X28788Y-37513D01*
X29005Y-37513D01*
X29206Y-37431D01*
X29359Y-37277D01*
X29442Y-37077D01*
X29443Y-36860D01*
X29443Y-38359D01*
X28340Y-37257D01*
X28340Y-35679D01*
X28370Y-35723D01*
X28646Y-35999D01*
X28646Y-35999D01*
X28743Y-36064D01*
X28858Y-36087D01*
X31380Y-36087D01*
X31380Y-36320D01*
X31418Y-36412D01*
X31488Y-36482D01*
X31580Y-36520D01*
X31633Y-36520D01*
X31615Y-36584D01*
X31930Y-36900D01*
X32245Y-36584D01*
X32227Y-36520D01*
X32280Y-36520D01*
X32372Y-36482D01*
X32442Y-36412D01*
X32480Y-36320D01*
X32480Y-36221D01*
X32480Y-36957D01*
X32474Y-36834D01*
X32411Y-36683D01*
X32316Y-36655D01*
X32001Y-36970D01*
X32316Y-37286D01*
X32411Y-37258D01*
X32485Y-37052D01*
X32485Y-40812D01*
X32480Y-40812D01*
X32480Y-37861D01*
X32397Y-37659D01*
X32242Y-37504D01*
X32167Y-37473D01*
X32218Y-37452D01*
X32245Y-37356D01*
X31930Y-37041D01*
X31859Y-37112D01*
X31859Y-36970D01*
X31544Y-36655D01*
X31449Y-36683D01*
X31375Y-36889D01*
X31386Y-37107D01*
X31449Y-37258D01*
X31544Y-37286D01*
X31859Y-36970D01*
X31859Y-37112D01*
X31615Y-37356D01*
X31642Y-37452D01*
X31698Y-37471D01*
X31619Y-37504D01*
X31464Y-37658D01*
X31380Y-37860D01*
X31380Y-38079D01*
X31464Y-38282D01*
X31618Y-38436D01*
X31820Y-38520D01*
X32039Y-38520D01*
X32241Y-38437D01*
X32396Y-38282D01*
X32480Y-38080D01*
X32480Y-37861D01*
X32480Y-40812D01*
X32240Y-40812D01*
X32024Y-40855D01*
X31988Y-40767D01*
X31890Y-40669D01*
X31762Y-40616D01*
X31623Y-40616D01*
X31495Y-40668D01*
X31368Y-40616D01*
X31230Y-40616D01*
X31102Y-40668D01*
X30975Y-40616D01*
X30836Y-40616D01*
X30708Y-40668D01*
X30581Y-40616D01*
X30442Y-40616D01*
X30314Y-40668D01*
X30187Y-40616D01*
X30049Y-40616D01*
X29921Y-40669D01*
X29822Y-40766D01*
X29786Y-40855D01*
X29571Y-40812D01*
X27393Y-40812D01*
X27393Y-40152D01*
X27329Y-39995D01*
X27209Y-39876D01*
X27198Y-39871D01*
X27198Y-35787D01*
X27172Y-35654D01*
X27096Y-35541D01*
X27096Y-35541D01*
X27063Y-35507D01*
X27063Y-26443D01*
X26965Y-26206D01*
X26784Y-26025D01*
X26548Y-25927D01*
X26292Y-25927D01*
X26055Y-26024D01*
X25874Y-26205D01*
X25776Y-26442D01*
X25775Y-26698D01*
X25873Y-26935D01*
X26054Y-27116D01*
X26291Y-27214D01*
X26547Y-27214D01*
X26783Y-27116D01*
X26965Y-26935D01*
X27063Y-26699D01*
X27063Y-26443D01*
X27063Y-35507D01*
X26511Y-34955D01*
X26398Y-34880D01*
X26376Y-34876D01*
X26265Y-34853D01*
X26265Y-34853D01*
X26210Y-34853D01*
X26204Y-34838D01*
X26023Y-34656D01*
X25786Y-34558D01*
X25689Y-34558D01*
X25689Y-26675D01*
X25680Y-26419D01*
X25600Y-26226D01*
X25495Y-26187D01*
X25424Y-26258D01*
X25424Y-26117D01*
X25385Y-26012D01*
X25145Y-25922D01*
X24889Y-25932D01*
X24697Y-26012D01*
X24658Y-26117D01*
X25041Y-26500D01*
X25424Y-26117D01*
X25424Y-26258D01*
X25112Y-26570D01*
X25495Y-26953D01*
X25600Y-26915D01*
X25689Y-26675D01*
X25689Y-34558D01*
X25530Y-34558D01*
X25424Y-34602D01*
X25424Y-27024D01*
X25041Y-26641D01*
X24971Y-26712D01*
X24971Y-26570D01*
X24587Y-26187D01*
X24482Y-26226D01*
X24393Y-26466D01*
X24403Y-26722D01*
X24482Y-26915D01*
X24587Y-26953D01*
X24971Y-26570D01*
X24971Y-26712D01*
X24658Y-27024D01*
X24697Y-27129D01*
X24937Y-27218D01*
X25193Y-27209D01*
X25385Y-27129D01*
X25424Y-27024D01*
X25424Y-34602D01*
X25412Y-34607D01*
X25412Y-33535D01*
X25407Y-33451D01*
X25407Y-31395D01*
X25330Y-31209D01*
X25188Y-31067D01*
X25002Y-30990D01*
X24801Y-30990D01*
X24615Y-31066D01*
X24472Y-31209D01*
X24395Y-31394D01*
X24395Y-31596D01*
X24472Y-31782D01*
X24614Y-31924D01*
X24800Y-32001D01*
X25001Y-32002D01*
X25187Y-31925D01*
X25330Y-31783D01*
X25407Y-31597D01*
X25407Y-31395D01*
X25407Y-33451D01*
X25400Y-33334D01*
X25346Y-33203D01*
X25255Y-33181D01*
X25184Y-33252D01*
X25184Y-33110D01*
X25162Y-33019D01*
X24972Y-32953D01*
X24771Y-32965D01*
X24640Y-33019D01*
X24618Y-33110D01*
X24901Y-33393D01*
X25184Y-33110D01*
X25184Y-33252D01*
X24972Y-33464D01*
X25255Y-33747D01*
X25346Y-33725D01*
X25412Y-33535D01*
X25412Y-34607D01*
X25294Y-34656D01*
X25184Y-34765D01*
X25184Y-33818D01*
X24901Y-33535D01*
X24830Y-33605D01*
X24830Y-33464D01*
X24547Y-33181D01*
X24456Y-33203D01*
X24390Y-33393D01*
X24402Y-33594D01*
X24456Y-33725D01*
X24547Y-33747D01*
X24830Y-33464D01*
X24830Y-33605D01*
X24618Y-33818D01*
X24640Y-33909D01*
X24830Y-33975D01*
X25031Y-33963D01*
X25162Y-33909D01*
X25184Y-33818D01*
X25184Y-34765D01*
X25112Y-34837D01*
X25014Y-35073D01*
X25014Y-35329D01*
X25112Y-35566D01*
X25240Y-35694D01*
X25112Y-35821D01*
X25014Y-36058D01*
X25014Y-36314D01*
X25112Y-36550D01*
X25293Y-36731D01*
X25296Y-36733D01*
X25179Y-36850D01*
X25093Y-37057D01*
X25093Y-37282D01*
X25179Y-37490D01*
X25296Y-37608D01*
X25294Y-37609D01*
X25112Y-37790D01*
X25014Y-38026D01*
X25014Y-38282D01*
X25112Y-38519D01*
X25240Y-38647D01*
X25112Y-38774D01*
X25014Y-39010D01*
X25014Y-39266D01*
X25112Y-39503D01*
X25293Y-39684D01*
X25529Y-39782D01*
X25785Y-39783D01*
X26022Y-39685D01*
X26203Y-39504D01*
X26301Y-39267D01*
X26302Y-39011D01*
X26204Y-38775D01*
X26076Y-38647D01*
X26203Y-38520D01*
X26301Y-38283D01*
X26302Y-38027D01*
X26204Y-37790D01*
X26023Y-37609D01*
X26019Y-37608D01*
X26136Y-37491D01*
X26223Y-37283D01*
X26223Y-37058D01*
X26137Y-36851D01*
X26020Y-36733D01*
X26022Y-36732D01*
X26203Y-36551D01*
X26301Y-36315D01*
X26302Y-36059D01*
X26204Y-35822D01*
X26076Y-35694D01*
X26170Y-35600D01*
X26501Y-35931D01*
X26501Y-40118D01*
X26501Y-40118D01*
X26524Y-40229D01*
X26528Y-40251D01*
X26543Y-40273D01*
X26543Y-40273D01*
X26543Y-40320D01*
X26607Y-40476D01*
X26727Y-40596D01*
X26883Y-40661D01*
X27052Y-40661D01*
X27208Y-40596D01*
X27328Y-40477D01*
X27393Y-40321D01*
X27393Y-40152D01*
X27393Y-40812D01*
X26334Y-40812D01*
X26119Y-40855D01*
X26082Y-40767D01*
X25985Y-40669D01*
X25857Y-40616D01*
X25718Y-40616D01*
X25590Y-40668D01*
X25463Y-40616D01*
X25324Y-40616D01*
X25196Y-40668D01*
X25069Y-40616D01*
X24930Y-40616D01*
X24802Y-40668D01*
X24675Y-40616D01*
X24537Y-40616D01*
X24409Y-40668D01*
X24337Y-40639D01*
X24337Y-37275D01*
X24328Y-37019D01*
X24254Y-36841D01*
X24254Y-35090D01*
X24168Y-34882D01*
X24010Y-34723D01*
X23802Y-34637D01*
X23577Y-34637D01*
X23370Y-34723D01*
X23211Y-34881D01*
X23124Y-35089D01*
X23124Y-35314D01*
X23210Y-35521D01*
X23369Y-35681D01*
X23576Y-35767D01*
X23801Y-35767D01*
X24009Y-35681D01*
X24168Y-35522D01*
X24254Y-35315D01*
X24254Y-35090D01*
X24254Y-36841D01*
X24248Y-36826D01*
X24143Y-36787D01*
X24072Y-36858D01*
X24072Y-36717D01*
X24033Y-36612D01*
X23793Y-36522D01*
X23538Y-36532D01*
X23345Y-36612D01*
X23306Y-36717D01*
X23689Y-37100D01*
X24072Y-36717D01*
X24072Y-36858D01*
X23760Y-37170D01*
X24143Y-37553D01*
X24248Y-37515D01*
X24337Y-37275D01*
X24337Y-40639D01*
X24282Y-40616D01*
X24254Y-40616D01*
X24254Y-39027D01*
X24168Y-38819D01*
X24072Y-38723D01*
X24072Y-37624D01*
X23689Y-37241D01*
X23619Y-37312D01*
X23619Y-37170D01*
X23236Y-36787D01*
X23130Y-36826D01*
X23041Y-37066D01*
X23051Y-37322D01*
X23130Y-37515D01*
X23236Y-37553D01*
X23619Y-37170D01*
X23619Y-37312D01*
X23306Y-37624D01*
X23345Y-37729D01*
X23585Y-37818D01*
X23841Y-37809D01*
X24033Y-37729D01*
X24072Y-37624D01*
X24072Y-38723D01*
X24010Y-38660D01*
X23802Y-38574D01*
X23577Y-38574D01*
X23370Y-38660D01*
X23211Y-38818D01*
X23124Y-39026D01*
X23124Y-39251D01*
X23210Y-39458D01*
X23369Y-39618D01*
X23576Y-39704D01*
X23801Y-39704D01*
X24009Y-39618D01*
X24168Y-39459D01*
X24254Y-39252D01*
X24254Y-39027D01*
X24254Y-40616D01*
X24143Y-40616D01*
X24015Y-40669D01*
X23917Y-40766D01*
X23880Y-40855D01*
X23665Y-40812D01*
X22861Y-40812D01*
X22834Y-40747D01*
X22887Y-40620D01*
X22887Y-40482D01*
X22834Y-40354D01*
X22887Y-40227D01*
X22887Y-40088D01*
X22834Y-39960D01*
X22887Y-39833D01*
X22887Y-39694D01*
X22834Y-39566D01*
X22887Y-39439D01*
X22887Y-39301D01*
X22834Y-39172D01*
X22736Y-39074D01*
X22648Y-39037D01*
X22690Y-38822D01*
X22690Y-35586D01*
X22648Y-35371D01*
X22736Y-35334D01*
X22834Y-35236D01*
X22887Y-35108D01*
X22887Y-34970D01*
X22834Y-34842D01*
X22887Y-34715D01*
X22887Y-34576D01*
X22834Y-34448D01*
X22887Y-34321D01*
X22887Y-34182D01*
X22834Y-34054D01*
X22887Y-33927D01*
X22887Y-33789D01*
X22834Y-33661D01*
X22887Y-33534D01*
X22887Y-33395D01*
X22834Y-33267D01*
X22736Y-33169D01*
X22648Y-33132D01*
X22690Y-32917D01*
X22690Y-29680D01*
X22648Y-29465D01*
X22736Y-29429D01*
X22834Y-29331D01*
X22887Y-29203D01*
X22887Y-29064D01*
X22834Y-28936D01*
X22887Y-28809D01*
X22887Y-28671D01*
X22834Y-28543D01*
X22887Y-28416D01*
X22887Y-28277D01*
X22834Y-28149D01*
X22887Y-28022D01*
X22887Y-27883D01*
X22834Y-27755D01*
X22887Y-27628D01*
X22887Y-27490D01*
X22834Y-27361D01*
X22736Y-27263D01*
X22644Y-27225D01*
X22690Y-26992D01*
X22690Y-25763D01*
X22644Y-25530D01*
X22736Y-25492D01*
X22834Y-25394D01*
X22882Y-25279D01*
X33600Y-25279D01*
X33562Y-25294D01*
X33464Y-25392D01*
X33411Y-25520D01*
X33411Y-25659D01*
X33464Y-25787D01*
X33411Y-25914D01*
X33411Y-26053D01*
X33464Y-26181D01*
X33411Y-26308D01*
X33411Y-26446D01*
X33464Y-26574D01*
X33411Y-26702D01*
X33411Y-26840D01*
X33464Y-26968D01*
X33411Y-27095D01*
X33411Y-27234D01*
X33464Y-27362D01*
X33562Y-27460D01*
X33651Y-27497D01*
X33608Y-27712D01*
X33608Y-30948D01*
X33651Y-31164D01*
X33562Y-31200D01*
X33464Y-31298D01*
X33411Y-31426D01*
X33411Y-31565D01*
X33464Y-31693D01*
X33411Y-31820D01*
X33411Y-31958D01*
X33464Y-32086D01*
X33411Y-32213D01*
X33411Y-32352D01*
X33464Y-32480D01*
X33411Y-32607D01*
X33411Y-32746D01*
X33464Y-32874D01*
X33411Y-33001D01*
X33411Y-33139D01*
X33464Y-33267D01*
X33562Y-33366D01*
X33654Y-33404D01*
X33608Y-33637D01*
X33608Y-34866D01*
X33654Y-35099D01*
X33562Y-35137D01*
X33464Y-35235D01*
X33411Y-35363D01*
X33411Y-35502D01*
X33464Y-35630D01*
X33411Y-35757D01*
X33411Y-35895D01*
X33464Y-36023D01*
X33411Y-36150D01*
X33411Y-36289D01*
X33464Y-36417D01*
X33411Y-36544D01*
X33411Y-36683D01*
X33464Y-36811D01*
X33411Y-36938D01*
X33411Y-37076D01*
X33464Y-37204D01*
X33562Y-37303D01*
X33654Y-37341D01*
X33608Y-37574D01*
X33608Y-38803D01*
X33654Y-39036D01*
G54D10*
G36*
X43039Y-50096D02*
X42900Y-50234D01*
X42817Y-50436D01*
X42816Y-50655D01*
X42861Y-50762D01*
X40399Y-50762D01*
X40110Y-50473D01*
X40110Y-50388D01*
X40045Y-50232D01*
X39926Y-50112D01*
X39769Y-50047D01*
X39600Y-50047D01*
X39444Y-50111D01*
X39324Y-50231D01*
X39260Y-50387D01*
X39259Y-50530D01*
X39129Y-50584D01*
X39009Y-50703D01*
X38945Y-50859D01*
X38945Y-50902D01*
X38938Y-50869D01*
X38873Y-50772D01*
X38873Y-50772D01*
X38692Y-50591D01*
X38692Y-50506D01*
X38628Y-50350D01*
X38508Y-50230D01*
X38352Y-50165D01*
X38183Y-50165D01*
X38027Y-50230D01*
X37907Y-50349D01*
X37842Y-50505D01*
X37842Y-50674D01*
X37907Y-50830D01*
X38026Y-50950D01*
X38182Y-51015D01*
X38268Y-51015D01*
X38361Y-51108D01*
X38361Y-51542D01*
X38384Y-51657D01*
X38449Y-51754D01*
X38637Y-51942D01*
X38637Y-52179D01*
X38576Y-52239D01*
X38512Y-52395D01*
X38511Y-52564D01*
X38576Y-52720D01*
X38695Y-52840D01*
X38852Y-52905D01*
X39021Y-52905D01*
X39177Y-52840D01*
X39297Y-52721D01*
X39361Y-52565D01*
X39362Y-52396D01*
X39297Y-52239D01*
X39237Y-52179D01*
X39237Y-51818D01*
X39214Y-51703D01*
X39149Y-51606D01*
X39149Y-51606D01*
X38961Y-51418D01*
X38961Y-51068D01*
X39009Y-51185D01*
X39129Y-51304D01*
X39285Y-51369D01*
X39370Y-51369D01*
X39551Y-51550D01*
X39551Y-51550D01*
X39648Y-51615D01*
X39763Y-51638D01*
X42159Y-51638D01*
X42455Y-51935D01*
X42455Y-52255D01*
X42447Y-52252D01*
X42278Y-52252D01*
X42121Y-52316D01*
X42002Y-52436D01*
X41937Y-52592D01*
X41937Y-52761D01*
X41959Y-52814D01*
X41933Y-52789D01*
X41777Y-52724D01*
X41608Y-52724D01*
X41452Y-52789D01*
X41391Y-52849D01*
X39448Y-52849D01*
X39334Y-52872D01*
X39236Y-52937D01*
X38780Y-53393D01*
X38695Y-53393D01*
X38539Y-53458D01*
X38419Y-53577D01*
X38354Y-53733D01*
X38354Y-53903D01*
X38419Y-54059D01*
X38538Y-54178D01*
X38694Y-54243D01*
X38863Y-54243D01*
X39019Y-54179D01*
X39139Y-54059D01*
X39204Y-53903D01*
X39204Y-53818D01*
X39573Y-53449D01*
X41391Y-53449D01*
X41451Y-53509D01*
X41608Y-53574D01*
X41777Y-53574D01*
X41933Y-53510D01*
X42013Y-53429D01*
X42013Y-55288D01*
X41824Y-55478D01*
X36876Y-55478D01*
X36372Y-54973D01*
X36372Y-53756D01*
X36383Y-53744D01*
X36448Y-53588D01*
X36448Y-53571D01*
X36742Y-53277D01*
X36742Y-53277D01*
X36742Y-53277D01*
X36817Y-53164D01*
X36844Y-53031D01*
X36844Y-53031D01*
X36844Y-53031D01*
X36844Y-50078D01*
X36844Y-50078D01*
X36844Y-50078D01*
X36817Y-49945D01*
X36742Y-49832D01*
X36742Y-49832D01*
X36244Y-49334D01*
X36268Y-49344D01*
X36407Y-49344D01*
X36535Y-49291D01*
X36633Y-49193D01*
X36670Y-49104D01*
X36885Y-49147D01*
X39385Y-49147D01*
X39324Y-49207D01*
X39260Y-49363D01*
X39259Y-49532D01*
X39324Y-49689D01*
X39443Y-49808D01*
X39600Y-49873D01*
X39676Y-49873D01*
X39782Y-49894D01*
X39782Y-49894D01*
X39782Y-49894D01*
X42816Y-49894D01*
X42816Y-49895D01*
X42854Y-49987D01*
X42925Y-50058D01*
X43016Y-50096D01*
X43039Y-50096D01*
X43039Y-50096D01*
G37*
G54D22*
X43039Y-50096D02*
X42900Y-50234D01*
X42817Y-50436D01*
X42816Y-50655D01*
X42861Y-50762D01*
X40399Y-50762D01*
X40110Y-50473D01*
X40110Y-50388D01*
X40045Y-50232D01*
X39926Y-50112D01*
X39769Y-50047D01*
X39600Y-50047D01*
X39444Y-50111D01*
X39324Y-50231D01*
X39260Y-50387D01*
X39259Y-50530D01*
X39129Y-50584D01*
X39009Y-50703D01*
X38945Y-50859D01*
X38945Y-50902D01*
X38938Y-50869D01*
X38873Y-50772D01*
X38873Y-50772D01*
X38692Y-50591D01*
X38692Y-50506D01*
X38628Y-50350D01*
X38508Y-50230D01*
X38352Y-50165D01*
X38183Y-50165D01*
X38027Y-50230D01*
X37907Y-50349D01*
X37842Y-50505D01*
X37842Y-50674D01*
X37907Y-50830D01*
X38026Y-50950D01*
X38182Y-51015D01*
X38268Y-51015D01*
X38361Y-51108D01*
X38361Y-51542D01*
X38384Y-51657D01*
X38449Y-51754D01*
X38637Y-51942D01*
X38637Y-52179D01*
X38576Y-52239D01*
X38512Y-52395D01*
X38511Y-52564D01*
X38576Y-52720D01*
X38695Y-52840D01*
X38852Y-52905D01*
X39021Y-52905D01*
X39177Y-52840D01*
X39297Y-52721D01*
X39361Y-52565D01*
X39362Y-52396D01*
X39297Y-52239D01*
X39237Y-52179D01*
X39237Y-51818D01*
X39214Y-51703D01*
X39149Y-51606D01*
X39149Y-51606D01*
X38961Y-51418D01*
X38961Y-51068D01*
X39009Y-51185D01*
X39129Y-51304D01*
X39285Y-51369D01*
X39370Y-51369D01*
X39551Y-51550D01*
X39551Y-51550D01*
X39648Y-51615D01*
X39763Y-51638D01*
X42159Y-51638D01*
X42455Y-51935D01*
X42455Y-52255D01*
X42447Y-52252D01*
X42278Y-52252D01*
X42121Y-52316D01*
X42002Y-52436D01*
X41937Y-52592D01*
X41937Y-52761D01*
X41959Y-52814D01*
X41933Y-52789D01*
X41777Y-52724D01*
X41608Y-52724D01*
X41452Y-52789D01*
X41391Y-52849D01*
X39448Y-52849D01*
X39334Y-52872D01*
X39236Y-52937D01*
X38780Y-53393D01*
X38695Y-53393D01*
X38539Y-53458D01*
X38419Y-53577D01*
X38354Y-53733D01*
X38354Y-53903D01*
X38419Y-54059D01*
X38538Y-54178D01*
X38694Y-54243D01*
X38863Y-54243D01*
X39019Y-54179D01*
X39139Y-54059D01*
X39204Y-53903D01*
X39204Y-53818D01*
X39573Y-53449D01*
X41391Y-53449D01*
X41451Y-53509D01*
X41608Y-53574D01*
X41777Y-53574D01*
X41933Y-53510D01*
X42013Y-53429D01*
X42013Y-55288D01*
X41824Y-55478D01*
X36876Y-55478D01*
X36372Y-54973D01*
X36372Y-53756D01*
X36383Y-53744D01*
X36448Y-53588D01*
X36448Y-53571D01*
X36742Y-53277D01*
X36742Y-53277D01*
X36742Y-53277D01*
X36817Y-53164D01*
X36844Y-53031D01*
X36844Y-53031D01*
X36844Y-53031D01*
X36844Y-50078D01*
X36844Y-50078D01*
X36844Y-50078D01*
X36817Y-49945D01*
X36742Y-49832D01*
X36742Y-49832D01*
X36244Y-49334D01*
X36268Y-49344D01*
X36407Y-49344D01*
X36535Y-49291D01*
X36633Y-49193D01*
X36670Y-49104D01*
X36885Y-49147D01*
X39385Y-49147D01*
X39324Y-49207D01*
X39260Y-49363D01*
X39259Y-49532D01*
X39324Y-49689D01*
X39443Y-49808D01*
X39600Y-49873D01*
X39676Y-49873D01*
X39782Y-49894D01*
X39782Y-49894D01*
X39782Y-49894D01*
X42816Y-49894D01*
X42816Y-49895D01*
X42854Y-49987D01*
X42925Y-50058D01*
X43016Y-50096D01*
X43039Y-50096D01*
G54D10*
G36*
X43805Y-54246D02*
X43752Y-54231D01*
X43437Y-54546D01*
X43443Y-54552D01*
X43372Y-54622D01*
X43366Y-54617D01*
X43296Y-54687D01*
X43296Y-54546D01*
X42981Y-54231D01*
X42885Y-54258D01*
X42812Y-54464D01*
X42823Y-54683D01*
X42885Y-54834D01*
X42981Y-54861D01*
X43296Y-54546D01*
X43296Y-54687D01*
X43051Y-54932D01*
X43079Y-55027D01*
X43285Y-55101D01*
X43503Y-55090D01*
X43628Y-55038D01*
X43661Y-55118D01*
X43608Y-55245D01*
X43608Y-55383D01*
X43661Y-55511D01*
X43608Y-55639D01*
X43608Y-55777D01*
X43661Y-55905D01*
X43608Y-56032D01*
X43608Y-56171D01*
X43661Y-56299D01*
X43608Y-56426D01*
X43608Y-56565D01*
X43661Y-56693D01*
X43759Y-56791D01*
X43775Y-56798D01*
X43775Y-57086D01*
X43775Y-57125D01*
X43775Y-57322D01*
X43775Y-57791D01*
X34925Y-57791D01*
X34925Y-54845D01*
X34981Y-54861D01*
X35296Y-54546D01*
X34981Y-54231D01*
X34925Y-54247D01*
X34925Y-54015D01*
X34925Y-53976D01*
X34919Y-53948D01*
X34919Y-53922D01*
X34908Y-53865D01*
X35054Y-54012D01*
X35130Y-54043D01*
X35079Y-54065D01*
X35051Y-54160D01*
X35366Y-54475D01*
X35372Y-54470D01*
X35443Y-54540D01*
X35437Y-54546D01*
X35443Y-54552D01*
X35372Y-54622D01*
X35366Y-54617D01*
X35051Y-54932D01*
X35079Y-55027D01*
X35285Y-55101D01*
X35503Y-55090D01*
X35654Y-55027D01*
X35675Y-54956D01*
X35675Y-55118D01*
X35675Y-55118D01*
X35697Y-55229D01*
X35701Y-55251D01*
X35777Y-55364D01*
X36485Y-56073D01*
X36485Y-56073D01*
X36598Y-56148D01*
X36732Y-56175D01*
X37653Y-56175D01*
X37653Y-56334D01*
X37721Y-56499D01*
X37847Y-56625D01*
X38011Y-56693D01*
X38189Y-56693D01*
X38353Y-56625D01*
X38479Y-56499D01*
X38547Y-56335D01*
X38547Y-56175D01*
X39385Y-56175D01*
X39385Y-56334D01*
X39453Y-56499D01*
X39579Y-56625D01*
X39743Y-56693D01*
X39921Y-56693D01*
X40085Y-56625D01*
X40211Y-56499D01*
X40279Y-56335D01*
X40279Y-56175D01*
X41968Y-56175D01*
X41968Y-56175D01*
X41968Y-56175D01*
X42079Y-56153D01*
X42101Y-56148D01*
X42101Y-56148D01*
X42214Y-56073D01*
X42608Y-55679D01*
X42608Y-55679D01*
X42608Y-55679D01*
X42684Y-55566D01*
X42710Y-55433D01*
X42710Y-53371D01*
X42816Y-53477D01*
X42816Y-53655D01*
X42900Y-53857D01*
X43054Y-54012D01*
X43130Y-54043D01*
X43079Y-54065D01*
X43051Y-54160D01*
X43366Y-54475D01*
X43682Y-54160D01*
X43654Y-54065D01*
X43599Y-54045D01*
X43678Y-54012D01*
X43805Y-53886D01*
X43805Y-54246D01*
X43805Y-54246D01*
G37*
G54D22*
X43805Y-54246D02*
X43752Y-54231D01*
X43437Y-54546D01*
X43443Y-54552D01*
X43372Y-54622D01*
X43366Y-54617D01*
X43296Y-54687D01*
X43296Y-54546D01*
X42981Y-54231D01*
X42885Y-54258D01*
X42812Y-54464D01*
X42823Y-54683D01*
X42885Y-54834D01*
X42981Y-54861D01*
X43296Y-54546D01*
X43296Y-54687D01*
X43051Y-54932D01*
X43079Y-55027D01*
X43285Y-55101D01*
X43503Y-55090D01*
X43628Y-55038D01*
X43661Y-55118D01*
X43608Y-55245D01*
X43608Y-55383D01*
X43661Y-55511D01*
X43608Y-55639D01*
X43608Y-55777D01*
X43661Y-55905D01*
X43608Y-56032D01*
X43608Y-56171D01*
X43661Y-56299D01*
X43608Y-56426D01*
X43608Y-56565D01*
X43661Y-56693D01*
X43759Y-56791D01*
X43775Y-56798D01*
X43775Y-57086D01*
X43775Y-57125D01*
X43775Y-57322D01*
X43775Y-57791D01*
X34925Y-57791D01*
X34925Y-54845D01*
X34981Y-54861D01*
X35296Y-54546D01*
X34981Y-54231D01*
X34925Y-54247D01*
X34925Y-54015D01*
X34925Y-53976D01*
X34919Y-53948D01*
X34919Y-53922D01*
X34908Y-53865D01*
X35054Y-54012D01*
X35130Y-54043D01*
X35079Y-54065D01*
X35051Y-54160D01*
X35366Y-54475D01*
X35372Y-54470D01*
X35443Y-54540D01*
X35437Y-54546D01*
X35443Y-54552D01*
X35372Y-54622D01*
X35366Y-54617D01*
X35051Y-54932D01*
X35079Y-55027D01*
X35285Y-55101D01*
X35503Y-55090D01*
X35654Y-55027D01*
X35675Y-54956D01*
X35675Y-55118D01*
X35675Y-55118D01*
X35697Y-55229D01*
X35701Y-55251D01*
X35777Y-55364D01*
X36485Y-56073D01*
X36485Y-56073D01*
X36598Y-56148D01*
X36732Y-56175D01*
X37653Y-56175D01*
X37653Y-56334D01*
X37721Y-56499D01*
X37847Y-56625D01*
X38011Y-56693D01*
X38189Y-56693D01*
X38353Y-56625D01*
X38479Y-56499D01*
X38547Y-56335D01*
X38547Y-56175D01*
X39385Y-56175D01*
X39385Y-56334D01*
X39453Y-56499D01*
X39579Y-56625D01*
X39743Y-56693D01*
X39921Y-56693D01*
X40085Y-56625D01*
X40211Y-56499D01*
X40279Y-56335D01*
X40279Y-56175D01*
X41968Y-56175D01*
X41968Y-56175D01*
X41968Y-56175D01*
X42079Y-56153D01*
X42101Y-56148D01*
X42101Y-56148D01*
X42214Y-56073D01*
X42608Y-55679D01*
X42608Y-55679D01*
X42608Y-55679D01*
X42684Y-55566D01*
X42710Y-55433D01*
X42710Y-53371D01*
X42816Y-53477D01*
X42816Y-53655D01*
X42900Y-53857D01*
X43054Y-54012D01*
X43130Y-54043D01*
X43079Y-54065D01*
X43051Y-54160D01*
X43366Y-54475D01*
X43682Y-54160D01*
X43654Y-54065D01*
X43599Y-54045D01*
X43678Y-54012D01*
X43805Y-53886D01*
X43805Y-54246D01*
G54D10*
G36*
X49326Y-47830D02*
X48740Y-47830D01*
X48712Y-47836D01*
X48685Y-47836D01*
X48575Y-47858D01*
X48612Y-47767D01*
X48613Y-47667D01*
X48613Y-47067D01*
X48575Y-46975D01*
X48504Y-46905D01*
X48412Y-46867D01*
X48313Y-46867D01*
X47713Y-46867D01*
X47621Y-46905D01*
X47551Y-46975D01*
X47513Y-47067D01*
X47512Y-47120D01*
X47448Y-47102D01*
X47378Y-47172D01*
X47378Y-47031D01*
X47350Y-46936D01*
X47144Y-46862D01*
X46926Y-46873D01*
X46775Y-46936D01*
X46747Y-47031D01*
X47062Y-47346D01*
X47378Y-47031D01*
X47378Y-47172D01*
X47133Y-47417D01*
X47139Y-47422D01*
X47068Y-47493D01*
X47062Y-47488D01*
X47057Y-47493D01*
X46986Y-47422D01*
X46992Y-47417D01*
X46677Y-47102D01*
X46581Y-47129D01*
X46562Y-47184D01*
X46529Y-47106D01*
X46374Y-46951D01*
X46172Y-46867D01*
X45954Y-46867D01*
X45751Y-46950D01*
X45596Y-47105D01*
X45513Y-47307D01*
X45512Y-47526D01*
X45596Y-47728D01*
X45727Y-47860D01*
X45263Y-47860D01*
X45236Y-47795D01*
X45289Y-47668D01*
X45289Y-47529D01*
X45236Y-47401D01*
X45289Y-47274D01*
X45289Y-47135D01*
X45236Y-47007D01*
X45289Y-46880D01*
X45289Y-46742D01*
X45236Y-46614D01*
X45289Y-46486D01*
X45289Y-46348D01*
X45236Y-46220D01*
X45138Y-46122D01*
X45046Y-46083D01*
X45092Y-45850D01*
X45092Y-44621D01*
X45046Y-44388D01*
X45138Y-44350D01*
X45236Y-44252D01*
X45289Y-44124D01*
X45289Y-43986D01*
X45236Y-43858D01*
X45289Y-43731D01*
X45289Y-43592D01*
X45236Y-43464D01*
X45289Y-43337D01*
X45289Y-43198D01*
X45236Y-43070D01*
X45289Y-42943D01*
X45289Y-42805D01*
X45236Y-42677D01*
X45289Y-42549D01*
X45289Y-42411D01*
X45236Y-42283D01*
X45138Y-42185D01*
X45010Y-42131D01*
X44892Y-42131D01*
X44892Y-42129D01*
X49326Y-42129D01*
X49326Y-47830D01*
X49326Y-47830D01*
G37*
G54D22*
X49326Y-47830D02*
X48740Y-47830D01*
X48712Y-47836D01*
X48685Y-47836D01*
X48575Y-47858D01*
X48612Y-47767D01*
X48613Y-47667D01*
X48613Y-47067D01*
X48575Y-46975D01*
X48504Y-46905D01*
X48412Y-46867D01*
X48313Y-46867D01*
X47713Y-46867D01*
X47621Y-46905D01*
X47551Y-46975D01*
X47513Y-47067D01*
X47512Y-47120D01*
X47448Y-47102D01*
X47378Y-47172D01*
X47378Y-47031D01*
X47350Y-46936D01*
X47144Y-46862D01*
X46926Y-46873D01*
X46775Y-46936D01*
X46747Y-47031D01*
X47062Y-47346D01*
X47378Y-47031D01*
X47378Y-47172D01*
X47133Y-47417D01*
X47139Y-47422D01*
X47068Y-47493D01*
X47062Y-47488D01*
X47057Y-47493D01*
X46986Y-47422D01*
X46992Y-47417D01*
X46677Y-47102D01*
X46581Y-47129D01*
X46562Y-47184D01*
X46529Y-47106D01*
X46374Y-46951D01*
X46172Y-46867D01*
X45954Y-46867D01*
X45751Y-46950D01*
X45596Y-47105D01*
X45513Y-47307D01*
X45512Y-47526D01*
X45596Y-47728D01*
X45727Y-47860D01*
X45263Y-47860D01*
X45236Y-47795D01*
X45289Y-47668D01*
X45289Y-47529D01*
X45236Y-47401D01*
X45289Y-47274D01*
X45289Y-47135D01*
X45236Y-47007D01*
X45289Y-46880D01*
X45289Y-46742D01*
X45236Y-46614D01*
X45289Y-46486D01*
X45289Y-46348D01*
X45236Y-46220D01*
X45138Y-46122D01*
X45046Y-46083D01*
X45092Y-45850D01*
X45092Y-44621D01*
X45046Y-44388D01*
X45138Y-44350D01*
X45236Y-44252D01*
X45289Y-44124D01*
X45289Y-43986D01*
X45236Y-43858D01*
X45289Y-43731D01*
X45289Y-43592D01*
X45236Y-43464D01*
X45289Y-43337D01*
X45289Y-43198D01*
X45236Y-43070D01*
X45289Y-42943D01*
X45289Y-42805D01*
X45236Y-42677D01*
X45289Y-42549D01*
X45289Y-42411D01*
X45236Y-42283D01*
X45138Y-42185D01*
X45010Y-42131D01*
X44892Y-42131D01*
X44892Y-42129D01*
X49326Y-42129D01*
X49326Y-47830D01*
G54D10*
G36*
X49326Y-56492D02*
X49237Y-56492D01*
X49237Y-55865D01*
X49237Y-49865D01*
X49226Y-49647D01*
X49164Y-49496D01*
X49068Y-49468D01*
X48998Y-49539D01*
X48998Y-49397D01*
X48970Y-49302D01*
X48764Y-49229D01*
X48546Y-49240D01*
X48395Y-49302D01*
X48367Y-49397D01*
X48683Y-49713D01*
X48998Y-49397D01*
X48998Y-49539D01*
X48753Y-49783D01*
X49068Y-50099D01*
X49164Y-50071D01*
X49237Y-49865D01*
X49237Y-55865D01*
X49226Y-55647D01*
X49164Y-55496D01*
X49068Y-55468D01*
X48998Y-55539D01*
X48998Y-55397D01*
X48998Y-50169D01*
X48683Y-49854D01*
X48367Y-50169D01*
X48395Y-50265D01*
X48601Y-50338D01*
X48819Y-50327D01*
X48970Y-50265D01*
X48998Y-50169D01*
X48998Y-55397D01*
X48970Y-55302D01*
X48764Y-55229D01*
X48546Y-55240D01*
X48395Y-55302D01*
X48367Y-55397D01*
X48683Y-55713D01*
X48998Y-55397D01*
X48998Y-55539D01*
X48753Y-55783D01*
X49068Y-56099D01*
X49164Y-56071D01*
X49237Y-55865D01*
X49237Y-56492D01*
X48998Y-56492D01*
X48998Y-56169D01*
X48683Y-55854D01*
X48612Y-55925D01*
X48612Y-55783D01*
X48297Y-55468D01*
X48233Y-55487D01*
X48233Y-55434D01*
X48195Y-55342D01*
X48124Y-55272D01*
X48033Y-55233D01*
X47933Y-55233D01*
X47333Y-55233D01*
X47241Y-55271D01*
X47171Y-55342D01*
X47133Y-55433D01*
X47133Y-55533D01*
X47133Y-56133D01*
X47171Y-56225D01*
X47241Y-56295D01*
X47333Y-56333D01*
X47432Y-56333D01*
X48032Y-56333D01*
X48124Y-56295D01*
X48194Y-56225D01*
X48233Y-56133D01*
X48233Y-56080D01*
X48297Y-56099D01*
X48612Y-55783D01*
X48612Y-55925D01*
X48367Y-56169D01*
X48395Y-56265D01*
X48601Y-56338D01*
X48819Y-56327D01*
X48970Y-56265D01*
X48998Y-56169D01*
X48998Y-56492D01*
X45289Y-56492D01*
X45289Y-56427D01*
X45236Y-56299D01*
X45289Y-56171D01*
X45289Y-56033D01*
X45236Y-55905D01*
X45289Y-55778D01*
X45289Y-55639D01*
X45236Y-55511D01*
X45289Y-55384D01*
X45289Y-55245D01*
X45236Y-55117D01*
X45289Y-54990D01*
X45289Y-54852D01*
X45236Y-54724D01*
X45138Y-54626D01*
X45049Y-54589D01*
X45092Y-54374D01*
X45092Y-51137D01*
X45049Y-50922D01*
X45138Y-50886D01*
X45236Y-50788D01*
X45289Y-50660D01*
X45289Y-50521D01*
X45236Y-50393D01*
X45289Y-50266D01*
X45289Y-50127D01*
X45236Y-49999D01*
X45289Y-49872D01*
X45289Y-49734D01*
X45236Y-49606D01*
X45289Y-49479D01*
X45289Y-49340D01*
X45236Y-49212D01*
X45263Y-49147D01*
X46027Y-49147D01*
X46242Y-49104D01*
X46279Y-49193D01*
X46377Y-49291D01*
X46505Y-49344D01*
X46643Y-49344D01*
X46771Y-49291D01*
X46898Y-49344D01*
X47037Y-49344D01*
X47165Y-49291D01*
X47205Y-49308D01*
X47171Y-49342D01*
X47133Y-49433D01*
X47133Y-49533D01*
X47133Y-50133D01*
X47171Y-50225D01*
X47241Y-50295D01*
X47333Y-50333D01*
X47432Y-50333D01*
X48032Y-50333D01*
X48124Y-50295D01*
X48194Y-50225D01*
X48233Y-50133D01*
X48233Y-50080D01*
X48297Y-50099D01*
X48612Y-49783D01*
X48297Y-49468D01*
X48233Y-49487D01*
X48233Y-49434D01*
X48196Y-49344D01*
X48218Y-49344D01*
X48346Y-49291D01*
X48444Y-49193D01*
X48476Y-49117D01*
X48535Y-49141D01*
X48685Y-49171D01*
X48712Y-49171D01*
X48740Y-49177D01*
X49015Y-49177D01*
X49326Y-49177D01*
X49326Y-56492D01*
X49326Y-56492D01*
G37*
G54D22*
X49326Y-56492D02*
X49237Y-56492D01*
X49237Y-55865D01*
X49237Y-49865D01*
X49226Y-49647D01*
X49164Y-49496D01*
X49068Y-49468D01*
X48998Y-49539D01*
X48998Y-49397D01*
X48970Y-49302D01*
X48764Y-49229D01*
X48546Y-49240D01*
X48395Y-49302D01*
X48367Y-49397D01*
X48683Y-49713D01*
X48998Y-49397D01*
X48998Y-49539D01*
X48753Y-49783D01*
X49068Y-50099D01*
X49164Y-50071D01*
X49237Y-49865D01*
X49237Y-55865D01*
X49226Y-55647D01*
X49164Y-55496D01*
X49068Y-55468D01*
X48998Y-55539D01*
X48998Y-55397D01*
X48998Y-50169D01*
X48683Y-49854D01*
X48367Y-50169D01*
X48395Y-50265D01*
X48601Y-50338D01*
X48819Y-50327D01*
X48970Y-50265D01*
X48998Y-50169D01*
X48998Y-55397D01*
X48970Y-55302D01*
X48764Y-55229D01*
X48546Y-55240D01*
X48395Y-55302D01*
X48367Y-55397D01*
X48683Y-55713D01*
X48998Y-55397D01*
X48998Y-55539D01*
X48753Y-55783D01*
X49068Y-56099D01*
X49164Y-56071D01*
X49237Y-55865D01*
X49237Y-56492D01*
X48998Y-56492D01*
X48998Y-56169D01*
X48683Y-55854D01*
X48612Y-55925D01*
X48612Y-55783D01*
X48297Y-55468D01*
X48233Y-55487D01*
X48233Y-55434D01*
X48195Y-55342D01*
X48124Y-55272D01*
X48033Y-55233D01*
X47933Y-55233D01*
X47333Y-55233D01*
X47241Y-55271D01*
X47171Y-55342D01*
X47133Y-55433D01*
X47133Y-55533D01*
X47133Y-56133D01*
X47171Y-56225D01*
X47241Y-56295D01*
X47333Y-56333D01*
X47432Y-56333D01*
X48032Y-56333D01*
X48124Y-56295D01*
X48194Y-56225D01*
X48233Y-56133D01*
X48233Y-56080D01*
X48297Y-56099D01*
X48612Y-55783D01*
X48612Y-55925D01*
X48367Y-56169D01*
X48395Y-56265D01*
X48601Y-56338D01*
X48819Y-56327D01*
X48970Y-56265D01*
X48998Y-56169D01*
X48998Y-56492D01*
X45289Y-56492D01*
X45289Y-56427D01*
X45236Y-56299D01*
X45289Y-56171D01*
X45289Y-56033D01*
X45236Y-55905D01*
X45289Y-55778D01*
X45289Y-55639D01*
X45236Y-55511D01*
X45289Y-55384D01*
X45289Y-55245D01*
X45236Y-55117D01*
X45289Y-54990D01*
X45289Y-54852D01*
X45236Y-54724D01*
X45138Y-54626D01*
X45049Y-54589D01*
X45092Y-54374D01*
X45092Y-51137D01*
X45049Y-50922D01*
X45138Y-50886D01*
X45236Y-50788D01*
X45289Y-50660D01*
X45289Y-50521D01*
X45236Y-50393D01*
X45289Y-50266D01*
X45289Y-50127D01*
X45236Y-49999D01*
X45289Y-49872D01*
X45289Y-49734D01*
X45236Y-49606D01*
X45289Y-49479D01*
X45289Y-49340D01*
X45236Y-49212D01*
X45263Y-49147D01*
X46027Y-49147D01*
X46242Y-49104D01*
X46279Y-49193D01*
X46377Y-49291D01*
X46505Y-49344D01*
X46643Y-49344D01*
X46771Y-49291D01*
X46898Y-49344D01*
X47037Y-49344D01*
X47165Y-49291D01*
X47205Y-49308D01*
X47171Y-49342D01*
X47133Y-49433D01*
X47133Y-49533D01*
X47133Y-50133D01*
X47171Y-50225D01*
X47241Y-50295D01*
X47333Y-50333D01*
X47432Y-50333D01*
X48032Y-50333D01*
X48124Y-50295D01*
X48194Y-50225D01*
X48233Y-50133D01*
X48233Y-50080D01*
X48297Y-50099D01*
X48612Y-49783D01*
X48297Y-49468D01*
X48233Y-49487D01*
X48233Y-49434D01*
X48196Y-49344D01*
X48218Y-49344D01*
X48346Y-49291D01*
X48444Y-49193D01*
X48476Y-49117D01*
X48535Y-49141D01*
X48685Y-49171D01*
X48712Y-49171D01*
X48740Y-49177D01*
X49015Y-49177D01*
X49326Y-49177D01*
X49326Y-56492D01*
G54D10*
G36*
X43851Y-46083D02*
X43759Y-46121D01*
X43661Y-46219D01*
X43608Y-46347D01*
X43608Y-46486D01*
X43661Y-46614D01*
X43608Y-46741D01*
X43608Y-46880D01*
X43661Y-47008D01*
X43608Y-47135D01*
X43608Y-47273D01*
X43661Y-47401D01*
X43608Y-47528D01*
X43608Y-47667D01*
X43661Y-47795D01*
X43634Y-47860D01*
X43554Y-47860D01*
X43554Y-43459D01*
X43543Y-43241D01*
X43481Y-43090D01*
X43385Y-43062D01*
X43070Y-43377D01*
X43385Y-43693D01*
X43481Y-43665D01*
X43554Y-43459D01*
X43554Y-47860D01*
X43550Y-47860D01*
X43550Y-46269D01*
X43466Y-46066D01*
X43417Y-46017D01*
X43417Y-43970D01*
X43352Y-43814D01*
X43312Y-43774D01*
X43315Y-43763D01*
X43000Y-43448D01*
X42994Y-43454D01*
X42929Y-43389D01*
X42923Y-43383D01*
X42929Y-43377D01*
X42614Y-43062D01*
X42518Y-43090D01*
X42445Y-43296D01*
X42456Y-43514D01*
X42518Y-43665D01*
X42614Y-43693D01*
X42600Y-43706D01*
X41377Y-43706D01*
X41244Y-43733D01*
X41131Y-43808D01*
X41131Y-43808D01*
X39932Y-45008D01*
X39915Y-45007D01*
X39759Y-45072D01*
X39639Y-45192D01*
X39575Y-45348D01*
X39574Y-45517D01*
X39639Y-45673D01*
X39758Y-45793D01*
X39915Y-45857D01*
X40084Y-45858D01*
X40240Y-45793D01*
X40360Y-45674D01*
X40424Y-45517D01*
X40424Y-45500D01*
X41522Y-44403D01*
X42739Y-44403D01*
X42751Y-44415D01*
X42907Y-44480D01*
X43076Y-44480D01*
X43232Y-44415D01*
X43352Y-44296D01*
X43417Y-44140D01*
X43417Y-43970D01*
X43417Y-46017D01*
X43311Y-45911D01*
X43109Y-45828D01*
X42891Y-45827D01*
X42688Y-45911D01*
X42550Y-46049D01*
X42550Y-46028D01*
X42512Y-45936D01*
X42441Y-45866D01*
X42349Y-45827D01*
X42250Y-45827D01*
X41650Y-45827D01*
X41558Y-45865D01*
X41488Y-45936D01*
X41450Y-46028D01*
X41449Y-46127D01*
X41449Y-46727D01*
X41487Y-46819D01*
X41558Y-46889D01*
X41650Y-46927D01*
X41749Y-46927D01*
X42349Y-46927D01*
X42441Y-46890D01*
X42511Y-46819D01*
X42549Y-46727D01*
X42549Y-46705D01*
X42688Y-46843D01*
X42890Y-46927D01*
X43108Y-46928D01*
X43311Y-46844D01*
X43465Y-46689D01*
X43549Y-46487D01*
X43550Y-46269D01*
X43550Y-47860D01*
X42791Y-47860D01*
X42576Y-47903D01*
X42539Y-47814D01*
X42441Y-47716D01*
X42313Y-47663D01*
X42175Y-47663D01*
X42047Y-47716D01*
X41920Y-47663D01*
X41781Y-47663D01*
X41653Y-47716D01*
X41526Y-47663D01*
X41387Y-47663D01*
X41259Y-47716D01*
X41132Y-47663D01*
X40993Y-47663D01*
X40865Y-47716D01*
X40738Y-47663D01*
X40600Y-47663D01*
X40472Y-47716D01*
X40374Y-47814D01*
X40337Y-47903D01*
X40122Y-47860D01*
X39554Y-47860D01*
X39554Y-43459D01*
X39543Y-43241D01*
X39481Y-43090D01*
X39385Y-43062D01*
X39070Y-43377D01*
X39385Y-43693D01*
X39481Y-43665D01*
X39554Y-43459D01*
X39554Y-47860D01*
X37147Y-47860D01*
X37147Y-46255D01*
X37147Y-44523D01*
X37079Y-44359D01*
X36953Y-44233D01*
X36789Y-44165D01*
X36611Y-44164D01*
X36447Y-44232D01*
X36321Y-44358D01*
X36253Y-44522D01*
X36252Y-44700D01*
X36320Y-44864D01*
X36446Y-44990D01*
X36610Y-45058D01*
X36788Y-45059D01*
X36952Y-44991D01*
X37078Y-44865D01*
X37146Y-44701D01*
X37147Y-44523D01*
X37147Y-46255D01*
X37079Y-46091D01*
X36953Y-45965D01*
X36789Y-45897D01*
X36611Y-45896D01*
X36447Y-45964D01*
X36321Y-46090D01*
X36253Y-46254D01*
X36252Y-46432D01*
X36320Y-46596D01*
X36446Y-46722D01*
X36610Y-46790D01*
X36788Y-46791D01*
X36952Y-46723D01*
X37078Y-46597D01*
X37146Y-46433D01*
X37147Y-46255D01*
X37147Y-47860D01*
X36885Y-47860D01*
X36670Y-47903D01*
X36634Y-47814D01*
X36536Y-47716D01*
X36408Y-47663D01*
X36269Y-47663D01*
X36141Y-47716D01*
X36014Y-47663D01*
X35875Y-47663D01*
X35747Y-47716D01*
X35620Y-47663D01*
X35482Y-47663D01*
X35354Y-47716D01*
X35227Y-47663D01*
X35088Y-47663D01*
X35029Y-47687D01*
X35039Y-47677D01*
X35092Y-47549D01*
X35092Y-47411D01*
X35039Y-47283D01*
X35092Y-47156D01*
X35092Y-47017D01*
X35039Y-46889D01*
X35092Y-46762D01*
X35092Y-46623D01*
X35039Y-46495D01*
X35092Y-46368D01*
X35092Y-46230D01*
X35039Y-46102D01*
X35092Y-45975D01*
X35092Y-45836D01*
X35039Y-45708D01*
X34941Y-45610D01*
X34849Y-45571D01*
X34895Y-45339D01*
X34895Y-44109D01*
X34849Y-43876D01*
X34941Y-43838D01*
X35039Y-43740D01*
X35092Y-43612D01*
X35092Y-43474D01*
X35039Y-43346D01*
X35092Y-43219D01*
X35092Y-43080D01*
X35039Y-42952D01*
X35092Y-42825D01*
X35092Y-42686D01*
X35039Y-42558D01*
X35092Y-42431D01*
X35092Y-42293D01*
X35039Y-42165D01*
X35066Y-42100D01*
X35476Y-42100D01*
X35691Y-42057D01*
X35728Y-42145D01*
X35825Y-42244D01*
X35954Y-42297D01*
X36092Y-42297D01*
X36220Y-42244D01*
X36347Y-42297D01*
X36486Y-42297D01*
X36614Y-42244D01*
X36741Y-42297D01*
X36880Y-42297D01*
X37008Y-42244D01*
X37135Y-42297D01*
X37273Y-42297D01*
X37401Y-42244D01*
X37528Y-42297D01*
X37667Y-42297D01*
X37795Y-42244D01*
X37893Y-42146D01*
X37930Y-42057D01*
X38145Y-42100D01*
X38449Y-42100D01*
X38449Y-42127D01*
X38449Y-42435D01*
X38100Y-42785D01*
X38024Y-42898D01*
X38020Y-42920D01*
X37998Y-43031D01*
X37998Y-43031D01*
X37998Y-44291D01*
X37998Y-44291D01*
X38020Y-44402D01*
X38024Y-44424D01*
X38100Y-44537D01*
X38196Y-44634D01*
X38196Y-44651D01*
X38261Y-44807D01*
X38380Y-44927D01*
X38537Y-44991D01*
X38706Y-44992D01*
X38862Y-44927D01*
X38982Y-44807D01*
X39046Y-44651D01*
X39047Y-44482D01*
X38982Y-44326D01*
X38863Y-44206D01*
X38706Y-44142D01*
X38694Y-44141D01*
X38694Y-43799D01*
X38712Y-43859D01*
X38918Y-43932D01*
X39136Y-43921D01*
X39287Y-43859D01*
X39315Y-43763D01*
X39000Y-43448D01*
X38994Y-43454D01*
X38923Y-43383D01*
X38929Y-43377D01*
X38923Y-43372D01*
X38994Y-43301D01*
X39000Y-43307D01*
X39315Y-42992D01*
X39296Y-42927D01*
X39349Y-42927D01*
X39441Y-42890D01*
X39511Y-42819D01*
X39549Y-42727D01*
X39550Y-42628D01*
X39550Y-42100D01*
X41382Y-42100D01*
X41597Y-42057D01*
X41633Y-42145D01*
X41731Y-42244D01*
X41859Y-42297D01*
X41998Y-42297D01*
X42126Y-42244D01*
X42253Y-42297D01*
X42391Y-42297D01*
X42449Y-42273D01*
X42449Y-42727D01*
X42487Y-42819D01*
X42558Y-42889D01*
X42650Y-42927D01*
X42703Y-42927D01*
X42684Y-42992D01*
X43000Y-43307D01*
X43315Y-42992D01*
X43296Y-42927D01*
X43349Y-42927D01*
X43441Y-42890D01*
X43511Y-42819D01*
X43549Y-42727D01*
X43550Y-42628D01*
X43550Y-42297D01*
X43572Y-42297D01*
X43699Y-42245D01*
X43661Y-42282D01*
X43608Y-42410D01*
X43608Y-42549D01*
X43661Y-42677D01*
X43608Y-42804D01*
X43608Y-42943D01*
X43661Y-43071D01*
X43608Y-43198D01*
X43608Y-43336D01*
X43661Y-43464D01*
X43608Y-43591D01*
X43608Y-43730D01*
X43661Y-43858D01*
X43608Y-43985D01*
X43608Y-44124D01*
X43661Y-44252D01*
X43759Y-44350D01*
X43851Y-44388D01*
X43805Y-44621D01*
X43805Y-45850D01*
X43851Y-46083D01*
X43851Y-46083D01*
G37*
G54D22*
X43851Y-46083D02*
X43759Y-46121D01*
X43661Y-46219D01*
X43608Y-46347D01*
X43608Y-46486D01*
X43661Y-46614D01*
X43608Y-46741D01*
X43608Y-46880D01*
X43661Y-47008D01*
X43608Y-47135D01*
X43608Y-47273D01*
X43661Y-47401D01*
X43608Y-47528D01*
X43608Y-47667D01*
X43661Y-47795D01*
X43634Y-47860D01*
X43554Y-47860D01*
X43554Y-43459D01*
X43543Y-43241D01*
X43481Y-43090D01*
X43385Y-43062D01*
X43070Y-43377D01*
X43385Y-43693D01*
X43481Y-43665D01*
X43554Y-43459D01*
X43554Y-47860D01*
X43550Y-47860D01*
X43550Y-46269D01*
X43466Y-46066D01*
X43417Y-46017D01*
X43417Y-43970D01*
X43352Y-43814D01*
X43312Y-43774D01*
X43315Y-43763D01*
X43000Y-43448D01*
X42994Y-43454D01*
X42929Y-43389D01*
X42923Y-43383D01*
X42929Y-43377D01*
X42614Y-43062D01*
X42518Y-43090D01*
X42445Y-43296D01*
X42456Y-43514D01*
X42518Y-43665D01*
X42614Y-43693D01*
X42600Y-43706D01*
X41377Y-43706D01*
X41244Y-43733D01*
X41131Y-43808D01*
X41131Y-43808D01*
X39932Y-45008D01*
X39915Y-45007D01*
X39759Y-45072D01*
X39639Y-45192D01*
X39575Y-45348D01*
X39574Y-45517D01*
X39639Y-45673D01*
X39758Y-45793D01*
X39915Y-45857D01*
X40084Y-45858D01*
X40240Y-45793D01*
X40360Y-45674D01*
X40424Y-45517D01*
X40424Y-45500D01*
X41522Y-44403D01*
X42739Y-44403D01*
X42751Y-44415D01*
X42907Y-44480D01*
X43076Y-44480D01*
X43232Y-44415D01*
X43352Y-44296D01*
X43417Y-44140D01*
X43417Y-43970D01*
X43417Y-46017D01*
X43311Y-45911D01*
X43109Y-45828D01*
X42891Y-45827D01*
X42688Y-45911D01*
X42550Y-46049D01*
X42550Y-46028D01*
X42512Y-45936D01*
X42441Y-45866D01*
X42349Y-45827D01*
X42250Y-45827D01*
X41650Y-45827D01*
X41558Y-45865D01*
X41488Y-45936D01*
X41450Y-46028D01*
X41449Y-46127D01*
X41449Y-46727D01*
X41487Y-46819D01*
X41558Y-46889D01*
X41650Y-46927D01*
X41749Y-46927D01*
X42349Y-46927D01*
X42441Y-46890D01*
X42511Y-46819D01*
X42549Y-46727D01*
X42549Y-46705D01*
X42688Y-46843D01*
X42890Y-46927D01*
X43108Y-46928D01*
X43311Y-46844D01*
X43465Y-46689D01*
X43549Y-46487D01*
X43550Y-46269D01*
X43550Y-47860D01*
X42791Y-47860D01*
X42576Y-47903D01*
X42539Y-47814D01*
X42441Y-47716D01*
X42313Y-47663D01*
X42175Y-47663D01*
X42047Y-47716D01*
X41920Y-47663D01*
X41781Y-47663D01*
X41653Y-47716D01*
X41526Y-47663D01*
X41387Y-47663D01*
X41259Y-47716D01*
X41132Y-47663D01*
X40993Y-47663D01*
X40865Y-47716D01*
X40738Y-47663D01*
X40600Y-47663D01*
X40472Y-47716D01*
X40374Y-47814D01*
X40337Y-47903D01*
X40122Y-47860D01*
X39554Y-47860D01*
X39554Y-43459D01*
X39543Y-43241D01*
X39481Y-43090D01*
X39385Y-43062D01*
X39070Y-43377D01*
X39385Y-43693D01*
X39481Y-43665D01*
X39554Y-43459D01*
X39554Y-47860D01*
X37147Y-47860D01*
X37147Y-46255D01*
X37147Y-44523D01*
X37079Y-44359D01*
X36953Y-44233D01*
X36789Y-44165D01*
X36611Y-44164D01*
X36447Y-44232D01*
X36321Y-44358D01*
X36253Y-44522D01*
X36252Y-44700D01*
X36320Y-44864D01*
X36446Y-44990D01*
X36610Y-45058D01*
X36788Y-45059D01*
X36952Y-44991D01*
X37078Y-44865D01*
X37146Y-44701D01*
X37147Y-44523D01*
X37147Y-46255D01*
X37079Y-46091D01*
X36953Y-45965D01*
X36789Y-45897D01*
X36611Y-45896D01*
X36447Y-45964D01*
X36321Y-46090D01*
X36253Y-46254D01*
X36252Y-46432D01*
X36320Y-46596D01*
X36446Y-46722D01*
X36610Y-46790D01*
X36788Y-46791D01*
X36952Y-46723D01*
X37078Y-46597D01*
X37146Y-46433D01*
X37147Y-46255D01*
X37147Y-47860D01*
X36885Y-47860D01*
X36670Y-47903D01*
X36634Y-47814D01*
X36536Y-47716D01*
X36408Y-47663D01*
X36269Y-47663D01*
X36141Y-47716D01*
X36014Y-47663D01*
X35875Y-47663D01*
X35747Y-47716D01*
X35620Y-47663D01*
X35482Y-47663D01*
X35354Y-47716D01*
X35227Y-47663D01*
X35088Y-47663D01*
X35029Y-47687D01*
X35039Y-47677D01*
X35092Y-47549D01*
X35092Y-47411D01*
X35039Y-47283D01*
X35092Y-47156D01*
X35092Y-47017D01*
X35039Y-46889D01*
X35092Y-46762D01*
X35092Y-46623D01*
X35039Y-46495D01*
X35092Y-46368D01*
X35092Y-46230D01*
X35039Y-46102D01*
X35092Y-45975D01*
X35092Y-45836D01*
X35039Y-45708D01*
X34941Y-45610D01*
X34849Y-45571D01*
X34895Y-45339D01*
X34895Y-44109D01*
X34849Y-43876D01*
X34941Y-43838D01*
X35039Y-43740D01*
X35092Y-43612D01*
X35092Y-43474D01*
X35039Y-43346D01*
X35092Y-43219D01*
X35092Y-43080D01*
X35039Y-42952D01*
X35092Y-42825D01*
X35092Y-42686D01*
X35039Y-42558D01*
X35092Y-42431D01*
X35092Y-42293D01*
X35039Y-42165D01*
X35066Y-42100D01*
X35476Y-42100D01*
X35691Y-42057D01*
X35728Y-42145D01*
X35825Y-42244D01*
X35954Y-42297D01*
X36092Y-42297D01*
X36220Y-42244D01*
X36347Y-42297D01*
X36486Y-42297D01*
X36614Y-42244D01*
X36741Y-42297D01*
X36880Y-42297D01*
X37008Y-42244D01*
X37135Y-42297D01*
X37273Y-42297D01*
X37401Y-42244D01*
X37528Y-42297D01*
X37667Y-42297D01*
X37795Y-42244D01*
X37893Y-42146D01*
X37930Y-42057D01*
X38145Y-42100D01*
X38449Y-42100D01*
X38449Y-42127D01*
X38449Y-42435D01*
X38100Y-42785D01*
X38024Y-42898D01*
X38020Y-42920D01*
X37998Y-43031D01*
X37998Y-43031D01*
X37998Y-44291D01*
X37998Y-44291D01*
X38020Y-44402D01*
X38024Y-44424D01*
X38100Y-44537D01*
X38196Y-44634D01*
X38196Y-44651D01*
X38261Y-44807D01*
X38380Y-44927D01*
X38537Y-44991D01*
X38706Y-44992D01*
X38862Y-44927D01*
X38982Y-44807D01*
X39046Y-44651D01*
X39047Y-44482D01*
X38982Y-44326D01*
X38863Y-44206D01*
X38706Y-44142D01*
X38694Y-44141D01*
X38694Y-43799D01*
X38712Y-43859D01*
X38918Y-43932D01*
X39136Y-43921D01*
X39287Y-43859D01*
X39315Y-43763D01*
X39000Y-43448D01*
X38994Y-43454D01*
X38923Y-43383D01*
X38929Y-43377D01*
X38923Y-43372D01*
X38994Y-43301D01*
X39000Y-43307D01*
X39315Y-42992D01*
X39296Y-42927D01*
X39349Y-42927D01*
X39441Y-42890D01*
X39511Y-42819D01*
X39549Y-42727D01*
X39550Y-42628D01*
X39550Y-42100D01*
X41382Y-42100D01*
X41597Y-42057D01*
X41633Y-42145D01*
X41731Y-42244D01*
X41859Y-42297D01*
X41998Y-42297D01*
X42126Y-42244D01*
X42253Y-42297D01*
X42391Y-42297D01*
X42449Y-42273D01*
X42449Y-42727D01*
X42487Y-42819D01*
X42558Y-42889D01*
X42650Y-42927D01*
X42703Y-42927D01*
X42684Y-42992D01*
X43000Y-43307D01*
X43315Y-42992D01*
X43296Y-42927D01*
X43349Y-42927D01*
X43441Y-42890D01*
X43511Y-42819D01*
X43549Y-42727D01*
X43550Y-42628D01*
X43550Y-42297D01*
X43572Y-42297D01*
X43699Y-42245D01*
X43661Y-42282D01*
X43608Y-42410D01*
X43608Y-42549D01*
X43661Y-42677D01*
X43608Y-42804D01*
X43608Y-42943D01*
X43661Y-43071D01*
X43608Y-43198D01*
X43608Y-43336D01*
X43661Y-43464D01*
X43608Y-43591D01*
X43608Y-43730D01*
X43661Y-43858D01*
X43608Y-43985D01*
X43608Y-44124D01*
X43661Y-44252D01*
X43759Y-44350D01*
X43851Y-44388D01*
X43805Y-44621D01*
X43805Y-45850D01*
X43851Y-46083D01*
G54D10*
G36*
X49326Y-28421D02*
X46483Y-28421D01*
X46476Y-28405D01*
X46378Y-28307D01*
X46250Y-28253D01*
X46112Y-28253D01*
X45984Y-28306D01*
X45857Y-28253D01*
X45718Y-28253D01*
X45590Y-28306D01*
X45463Y-28253D01*
X45324Y-28253D01*
X45196Y-28306D01*
X45069Y-28253D01*
X44930Y-28253D01*
X44802Y-28306D01*
X44675Y-28253D01*
X44537Y-28253D01*
X44409Y-28306D01*
X44311Y-28404D01*
X44279Y-28481D01*
X44279Y-27900D01*
X44268Y-27682D01*
X44205Y-27531D01*
X44110Y-27503D01*
X43795Y-27818D01*
X44110Y-28134D01*
X44205Y-28106D01*
X44279Y-27900D01*
X44279Y-28481D01*
X44274Y-28493D01*
X44059Y-28450D01*
X44039Y-28450D01*
X44039Y-28204D01*
X43724Y-27889D01*
X43409Y-28204D01*
X43436Y-28300D01*
X43642Y-28373D01*
X43861Y-28362D01*
X44012Y-28300D01*
X44039Y-28204D01*
X44039Y-28450D01*
X43294Y-28450D01*
X43268Y-28385D01*
X43320Y-28258D01*
X43320Y-28129D01*
X43338Y-28134D01*
X43653Y-27818D01*
X43338Y-27503D01*
X43303Y-27513D01*
X43320Y-27471D01*
X43320Y-27332D01*
X43268Y-27204D01*
X43286Y-27159D01*
X43412Y-27284D01*
X43488Y-27316D01*
X43436Y-27337D01*
X43409Y-27432D01*
X43724Y-27748D01*
X44039Y-27432D01*
X44012Y-27337D01*
X43956Y-27317D01*
X44035Y-27285D01*
X44190Y-27130D01*
X44274Y-26928D01*
X44274Y-26709D01*
X44190Y-26507D01*
X44036Y-26352D01*
X43954Y-26318D01*
X44035Y-26285D01*
X44190Y-26130D01*
X44274Y-25928D01*
X44274Y-25709D01*
X44190Y-25507D01*
X44052Y-25368D01*
X44073Y-25368D01*
X44165Y-25330D01*
X44236Y-25260D01*
X44274Y-25168D01*
X44274Y-25069D01*
X44274Y-24469D01*
X44236Y-24377D01*
X44166Y-24307D01*
X44074Y-24268D01*
X43974Y-24268D01*
X43374Y-24268D01*
X43320Y-24291D01*
X43320Y-24182D01*
X43297Y-24125D01*
X43331Y-24132D01*
X43359Y-24132D01*
X43385Y-24137D01*
X49326Y-24137D01*
X49326Y-24443D01*
X49236Y-24352D01*
X49034Y-24268D01*
X48815Y-24268D01*
X48613Y-24352D01*
X48458Y-24506D01*
X48374Y-24709D01*
X48374Y-24927D01*
X48457Y-25130D01*
X48612Y-25284D01*
X48694Y-25318D01*
X48613Y-25352D01*
X48458Y-25506D01*
X48374Y-25709D01*
X48374Y-25927D01*
X48457Y-26130D01*
X48612Y-26284D01*
X48694Y-26318D01*
X48613Y-26352D01*
X48458Y-26506D01*
X48374Y-26709D01*
X48374Y-26927D01*
X48457Y-27130D01*
X48596Y-27268D01*
X48574Y-27268D01*
X48482Y-27306D01*
X48412Y-27377D01*
X48374Y-27468D01*
X48374Y-27568D01*
X48374Y-28168D01*
X48412Y-28260D01*
X48482Y-28330D01*
X48574Y-28368D01*
X48673Y-28368D01*
X49273Y-28368D01*
X49326Y-28347D01*
X49326Y-28421D01*
X49326Y-28421D01*
G37*
G54D22*
X49326Y-28421D02*
X46483Y-28421D01*
X46476Y-28405D01*
X46378Y-28307D01*
X46250Y-28253D01*
X46112Y-28253D01*
X45984Y-28306D01*
X45857Y-28253D01*
X45718Y-28253D01*
X45590Y-28306D01*
X45463Y-28253D01*
X45324Y-28253D01*
X45196Y-28306D01*
X45069Y-28253D01*
X44930Y-28253D01*
X44802Y-28306D01*
X44675Y-28253D01*
X44537Y-28253D01*
X44409Y-28306D01*
X44311Y-28404D01*
X44279Y-28481D01*
X44279Y-27900D01*
X44268Y-27682D01*
X44205Y-27531D01*
X44110Y-27503D01*
X43795Y-27818D01*
X44110Y-28134D01*
X44205Y-28106D01*
X44279Y-27900D01*
X44279Y-28481D01*
X44274Y-28493D01*
X44059Y-28450D01*
X44039Y-28450D01*
X44039Y-28204D01*
X43724Y-27889D01*
X43409Y-28204D01*
X43436Y-28300D01*
X43642Y-28373D01*
X43861Y-28362D01*
X44012Y-28300D01*
X44039Y-28204D01*
X44039Y-28450D01*
X43294Y-28450D01*
X43268Y-28385D01*
X43320Y-28258D01*
X43320Y-28129D01*
X43338Y-28134D01*
X43653Y-27818D01*
X43338Y-27503D01*
X43303Y-27513D01*
X43320Y-27471D01*
X43320Y-27332D01*
X43268Y-27204D01*
X43286Y-27159D01*
X43412Y-27284D01*
X43488Y-27316D01*
X43436Y-27337D01*
X43409Y-27432D01*
X43724Y-27748D01*
X44039Y-27432D01*
X44012Y-27337D01*
X43956Y-27317D01*
X44035Y-27285D01*
X44190Y-27130D01*
X44274Y-26928D01*
X44274Y-26709D01*
X44190Y-26507D01*
X44036Y-26352D01*
X43954Y-26318D01*
X44035Y-26285D01*
X44190Y-26130D01*
X44274Y-25928D01*
X44274Y-25709D01*
X44190Y-25507D01*
X44052Y-25368D01*
X44073Y-25368D01*
X44165Y-25330D01*
X44236Y-25260D01*
X44274Y-25168D01*
X44274Y-25069D01*
X44274Y-24469D01*
X44236Y-24377D01*
X44166Y-24307D01*
X44074Y-24268D01*
X43974Y-24268D01*
X43374Y-24268D01*
X43320Y-24291D01*
X43320Y-24182D01*
X43297Y-24125D01*
X43331Y-24132D01*
X43359Y-24132D01*
X43385Y-24137D01*
X49326Y-24137D01*
X49326Y-24443D01*
X49236Y-24352D01*
X49034Y-24268D01*
X48815Y-24268D01*
X48613Y-24352D01*
X48458Y-24506D01*
X48374Y-24709D01*
X48374Y-24927D01*
X48457Y-25130D01*
X48612Y-25284D01*
X48694Y-25318D01*
X48613Y-25352D01*
X48458Y-25506D01*
X48374Y-25709D01*
X48374Y-25927D01*
X48457Y-26130D01*
X48612Y-26284D01*
X48694Y-26318D01*
X48613Y-26352D01*
X48458Y-26506D01*
X48374Y-26709D01*
X48374Y-26927D01*
X48457Y-27130D01*
X48596Y-27268D01*
X48574Y-27268D01*
X48482Y-27306D01*
X48412Y-27377D01*
X48374Y-27468D01*
X48374Y-27568D01*
X48374Y-28168D01*
X48412Y-28260D01*
X48482Y-28330D01*
X48574Y-28368D01*
X48673Y-28368D01*
X49273Y-28368D01*
X49326Y-28347D01*
X49326Y-28421D01*
G54D10*
G36*
X41692Y-28385D02*
X41665Y-28450D01*
X40822Y-28450D01*
X40607Y-28493D01*
X40571Y-28405D01*
X40473Y-28307D01*
X40345Y-28253D01*
X40206Y-28253D01*
X40078Y-28306D01*
X39951Y-28253D01*
X39812Y-28253D01*
X39684Y-28306D01*
X39557Y-28253D01*
X39419Y-28253D01*
X39291Y-28306D01*
X39164Y-28253D01*
X39025Y-28253D01*
X38897Y-28306D01*
X38813Y-28272D01*
X38813Y-27679D01*
X38775Y-27587D01*
X38705Y-27517D01*
X38613Y-27479D01*
X38514Y-27479D01*
X37914Y-27479D01*
X37822Y-27517D01*
X37751Y-27587D01*
X37713Y-27679D01*
X37713Y-27732D01*
X37649Y-27713D01*
X37578Y-27784D01*
X37578Y-27643D01*
X37551Y-27547D01*
X37345Y-27474D01*
X37127Y-27485D01*
X36975Y-27547D01*
X36948Y-27643D01*
X37263Y-27958D01*
X37578Y-27643D01*
X37578Y-27784D01*
X37334Y-28029D01*
X37649Y-28344D01*
X37713Y-28325D01*
X37713Y-28378D01*
X37743Y-28450D01*
X37568Y-28450D01*
X37578Y-28415D01*
X37263Y-28099D01*
X37193Y-28170D01*
X37193Y-28029D01*
X36877Y-27713D01*
X36782Y-27741D01*
X36708Y-27947D01*
X36719Y-28165D01*
X36782Y-28316D01*
X36877Y-28344D01*
X37193Y-28029D01*
X37193Y-28170D01*
X36948Y-28415D01*
X36958Y-28450D01*
X36904Y-28450D01*
X36672Y-28497D01*
X36634Y-28405D01*
X36536Y-28307D01*
X36408Y-28253D01*
X36269Y-28253D01*
X36141Y-28306D01*
X36014Y-28253D01*
X35875Y-28253D01*
X35747Y-28306D01*
X35620Y-28253D01*
X35482Y-28253D01*
X35354Y-28306D01*
X35227Y-28253D01*
X35088Y-28253D01*
X34960Y-28306D01*
X34895Y-28279D01*
X34895Y-27712D01*
X34852Y-27497D01*
X34941Y-27460D01*
X35039Y-27362D01*
X35092Y-27234D01*
X35092Y-27096D01*
X35039Y-26968D01*
X35092Y-26841D01*
X35092Y-26702D01*
X35039Y-26574D01*
X35092Y-26447D01*
X35092Y-26308D01*
X35039Y-26180D01*
X35092Y-26053D01*
X35092Y-25915D01*
X35039Y-25787D01*
X35056Y-25747D01*
X35056Y-25826D01*
X35118Y-25976D01*
X35232Y-26090D01*
X35382Y-26153D01*
X35544Y-26153D01*
X35694Y-26091D01*
X35809Y-25976D01*
X35871Y-25827D01*
X35871Y-25664D01*
X35815Y-25528D01*
X35871Y-25394D01*
X35871Y-25231D01*
X35809Y-25082D01*
X35694Y-24967D01*
X35545Y-24905D01*
X35383Y-24905D01*
X35233Y-24966D01*
X35118Y-25081D01*
X35056Y-25231D01*
X35056Y-25393D01*
X35112Y-25529D01*
X35092Y-25577D01*
X35092Y-25521D01*
X35039Y-25393D01*
X34941Y-25295D01*
X34865Y-25263D01*
X34889Y-25204D01*
X34919Y-25054D01*
X34919Y-25027D01*
X34925Y-25000D01*
X34925Y-24685D01*
X34925Y-23625D01*
X41677Y-23625D01*
X41692Y-23661D01*
X41639Y-23788D01*
X41639Y-23927D01*
X41692Y-24055D01*
X41639Y-24182D01*
X41639Y-24320D01*
X41692Y-24448D01*
X41670Y-24502D01*
X41613Y-24479D01*
X41514Y-24479D01*
X40914Y-24479D01*
X40822Y-24517D01*
X40751Y-24587D01*
X40713Y-24679D01*
X40713Y-24778D01*
X40713Y-25378D01*
X40751Y-25470D01*
X40821Y-25540D01*
X40913Y-25579D01*
X40936Y-25579D01*
X40797Y-25717D01*
X40713Y-25919D01*
X40713Y-26138D01*
X40797Y-26340D01*
X40951Y-26495D01*
X41033Y-26529D01*
X40952Y-26562D01*
X40797Y-26717D01*
X40713Y-26919D01*
X40713Y-27138D01*
X40797Y-27340D01*
X40951Y-27495D01*
X41153Y-27579D01*
X41372Y-27579D01*
X41574Y-27495D01*
X41639Y-27430D01*
X41639Y-27470D01*
X41692Y-27598D01*
X41639Y-27725D01*
X41639Y-27864D01*
X41692Y-27992D01*
X41639Y-28119D01*
X41639Y-28257D01*
X41692Y-28385D01*
X41692Y-28385D01*
G37*
G54D22*
X41692Y-28385D02*
X41665Y-28450D01*
X40822Y-28450D01*
X40607Y-28493D01*
X40571Y-28405D01*
X40473Y-28307D01*
X40345Y-28253D01*
X40206Y-28253D01*
X40078Y-28306D01*
X39951Y-28253D01*
X39812Y-28253D01*
X39684Y-28306D01*
X39557Y-28253D01*
X39419Y-28253D01*
X39291Y-28306D01*
X39164Y-28253D01*
X39025Y-28253D01*
X38897Y-28306D01*
X38813Y-28272D01*
X38813Y-27679D01*
X38775Y-27587D01*
X38705Y-27517D01*
X38613Y-27479D01*
X38514Y-27479D01*
X37914Y-27479D01*
X37822Y-27517D01*
X37751Y-27587D01*
X37713Y-27679D01*
X37713Y-27732D01*
X37649Y-27713D01*
X37578Y-27784D01*
X37578Y-27643D01*
X37551Y-27547D01*
X37345Y-27474D01*
X37127Y-27485D01*
X36975Y-27547D01*
X36948Y-27643D01*
X37263Y-27958D01*
X37578Y-27643D01*
X37578Y-27784D01*
X37334Y-28029D01*
X37649Y-28344D01*
X37713Y-28325D01*
X37713Y-28378D01*
X37743Y-28450D01*
X37568Y-28450D01*
X37578Y-28415D01*
X37263Y-28099D01*
X37193Y-28170D01*
X37193Y-28029D01*
X36877Y-27713D01*
X36782Y-27741D01*
X36708Y-27947D01*
X36719Y-28165D01*
X36782Y-28316D01*
X36877Y-28344D01*
X37193Y-28029D01*
X37193Y-28170D01*
X36948Y-28415D01*
X36958Y-28450D01*
X36904Y-28450D01*
X36672Y-28497D01*
X36634Y-28405D01*
X36536Y-28307D01*
X36408Y-28253D01*
X36269Y-28253D01*
X36141Y-28306D01*
X36014Y-28253D01*
X35875Y-28253D01*
X35747Y-28306D01*
X35620Y-28253D01*
X35482Y-28253D01*
X35354Y-28306D01*
X35227Y-28253D01*
X35088Y-28253D01*
X34960Y-28306D01*
X34895Y-28279D01*
X34895Y-27712D01*
X34852Y-27497D01*
X34941Y-27460D01*
X35039Y-27362D01*
X35092Y-27234D01*
X35092Y-27096D01*
X35039Y-26968D01*
X35092Y-26841D01*
X35092Y-26702D01*
X35039Y-26574D01*
X35092Y-26447D01*
X35092Y-26308D01*
X35039Y-26180D01*
X35092Y-26053D01*
X35092Y-25915D01*
X35039Y-25787D01*
X35056Y-25747D01*
X35056Y-25826D01*
X35118Y-25976D01*
X35232Y-26090D01*
X35382Y-26153D01*
X35544Y-26153D01*
X35694Y-26091D01*
X35809Y-25976D01*
X35871Y-25827D01*
X35871Y-25664D01*
X35815Y-25528D01*
X35871Y-25394D01*
X35871Y-25231D01*
X35809Y-25082D01*
X35694Y-24967D01*
X35545Y-24905D01*
X35383Y-24905D01*
X35233Y-24966D01*
X35118Y-25081D01*
X35056Y-25231D01*
X35056Y-25393D01*
X35112Y-25529D01*
X35092Y-25577D01*
X35092Y-25521D01*
X35039Y-25393D01*
X34941Y-25295D01*
X34865Y-25263D01*
X34889Y-25204D01*
X34919Y-25054D01*
X34919Y-25027D01*
X34925Y-25000D01*
X34925Y-24685D01*
X34925Y-23625D01*
X41677Y-23625D01*
X41692Y-23661D01*
X41639Y-23788D01*
X41639Y-23927D01*
X41692Y-24055D01*
X41639Y-24182D01*
X41639Y-24320D01*
X41692Y-24448D01*
X41670Y-24502D01*
X41613Y-24479D01*
X41514Y-24479D01*
X40914Y-24479D01*
X40822Y-24517D01*
X40751Y-24587D01*
X40713Y-24679D01*
X40713Y-24778D01*
X40713Y-25378D01*
X40751Y-25470D01*
X40821Y-25540D01*
X40913Y-25579D01*
X40936Y-25579D01*
X40797Y-25717D01*
X40713Y-25919D01*
X40713Y-26138D01*
X40797Y-26340D01*
X40951Y-26495D01*
X41033Y-26529D01*
X40952Y-26562D01*
X40797Y-26717D01*
X40713Y-26919D01*
X40713Y-27138D01*
X40797Y-27340D01*
X40951Y-27495D01*
X41153Y-27579D01*
X41372Y-27579D01*
X41574Y-27495D01*
X41639Y-27430D01*
X41639Y-27470D01*
X41692Y-27598D01*
X41639Y-27725D01*
X41639Y-27864D01*
X41692Y-27992D01*
X41639Y-28119D01*
X41639Y-28257D01*
X41692Y-28385D01*
G54D10*
G36*
X45822Y-40783D02*
X45127Y-40783D01*
X45127Y-36745D01*
X45127Y-36308D01*
X45127Y-36208D01*
X45127Y-35772D01*
X45127Y-34745D01*
X45127Y-34308D01*
X45127Y-34208D01*
X45127Y-33772D01*
X45064Y-33709D01*
X44328Y-33709D01*
X44236Y-33747D01*
X44166Y-33817D01*
X44128Y-33909D01*
X44128Y-34009D01*
X44128Y-34146D01*
X44190Y-34208D01*
X45127Y-34208D01*
X45127Y-34308D01*
X44190Y-34308D01*
X44128Y-34371D01*
X44128Y-34508D01*
X44128Y-34608D01*
X44166Y-34699D01*
X44236Y-34770D01*
X44328Y-34808D01*
X45064Y-34808D01*
X45127Y-34745D01*
X45127Y-35772D01*
X45064Y-35709D01*
X44328Y-35709D01*
X44236Y-35747D01*
X44166Y-35817D01*
X44128Y-35909D01*
X44128Y-36009D01*
X44128Y-36146D01*
X44190Y-36208D01*
X45127Y-36208D01*
X45127Y-36308D01*
X44190Y-36308D01*
X44128Y-36371D01*
X44128Y-36508D01*
X44128Y-36608D01*
X44166Y-36699D01*
X44236Y-36770D01*
X44328Y-36808D01*
X45064Y-36808D01*
X45127Y-36745D01*
X45127Y-40783D01*
X44133Y-40783D01*
X44094Y-40783D01*
X44066Y-40788D01*
X44040Y-40788D01*
X44027Y-40791D01*
X44027Y-39509D01*
X44027Y-39008D01*
X44027Y-31509D01*
X44027Y-30909D01*
X43989Y-30817D01*
X43919Y-30747D01*
X43827Y-30708D01*
X43727Y-30708D01*
X43127Y-30708D01*
X43035Y-30746D01*
X42965Y-30817D01*
X42927Y-30908D01*
X42927Y-30931D01*
X42789Y-30792D01*
X42587Y-30708D01*
X42368Y-30708D01*
X42166Y-30792D01*
X42011Y-30946D01*
X41977Y-31028D01*
X41943Y-30947D01*
X41789Y-30792D01*
X41587Y-30708D01*
X41368Y-30708D01*
X41166Y-30792D01*
X41011Y-30946D01*
X40977Y-31028D01*
X40943Y-30947D01*
X40789Y-30792D01*
X40587Y-30708D01*
X40368Y-30708D01*
X40166Y-30792D01*
X40011Y-30946D01*
X39977Y-31028D01*
X39943Y-30947D01*
X39789Y-30792D01*
X39587Y-30708D01*
X39368Y-30708D01*
X39166Y-30792D01*
X39011Y-30946D01*
X38977Y-31028D01*
X38943Y-30947D01*
X38789Y-30792D01*
X38587Y-30708D01*
X38368Y-30708D01*
X38166Y-30792D01*
X38011Y-30946D01*
X37977Y-31028D01*
X37943Y-30947D01*
X37789Y-30792D01*
X37587Y-30708D01*
X37368Y-30708D01*
X37166Y-30792D01*
X37011Y-30946D01*
X36979Y-31022D01*
X36958Y-30971D01*
X36863Y-30943D01*
X36792Y-31014D01*
X36792Y-30872D01*
X36765Y-30777D01*
X36559Y-30704D01*
X36340Y-30715D01*
X36189Y-30777D01*
X36162Y-30872D01*
X36477Y-31188D01*
X36792Y-30872D01*
X36792Y-31014D01*
X36548Y-31258D01*
X36863Y-31574D01*
X36958Y-31546D01*
X36978Y-31491D01*
X37010Y-31570D01*
X37165Y-31724D01*
X37367Y-31808D01*
X37586Y-31808D01*
X37788Y-31725D01*
X37943Y-31570D01*
X37977Y-31488D01*
X38010Y-31570D01*
X38156Y-31715D01*
X38065Y-31806D01*
X38000Y-31962D01*
X38000Y-32131D01*
X38063Y-32283D01*
X38000Y-32434D01*
X38000Y-32603D01*
X38063Y-32756D01*
X38000Y-32907D01*
X38000Y-33076D01*
X38064Y-33232D01*
X38184Y-33352D01*
X38340Y-33417D01*
X38509Y-33417D01*
X38665Y-33352D01*
X38726Y-33292D01*
X40702Y-33292D01*
X40881Y-33470D01*
X40881Y-35051D01*
X40872Y-35047D01*
X40703Y-35047D01*
X40546Y-35111D01*
X40427Y-35231D01*
X40362Y-35387D01*
X40362Y-35404D01*
X40013Y-35753D01*
X39409Y-35753D01*
X39409Y-35753D01*
X39276Y-35780D01*
X39163Y-35855D01*
X39163Y-35855D01*
X38790Y-36228D01*
X38774Y-36228D01*
X38617Y-36293D01*
X38605Y-36305D01*
X37412Y-36305D01*
X37412Y-33974D01*
X37400Y-33764D01*
X37342Y-33622D01*
X37248Y-33597D01*
X37178Y-33667D01*
X37178Y-33526D01*
X37153Y-33433D01*
X36954Y-33362D01*
X36792Y-33371D01*
X36792Y-31644D01*
X36477Y-31329D01*
X36406Y-31400D01*
X36406Y-31258D01*
X36091Y-30943D01*
X35996Y-30971D01*
X35922Y-31177D01*
X35933Y-31395D01*
X35996Y-31546D01*
X36091Y-31574D01*
X36406Y-31258D01*
X36406Y-31400D01*
X36162Y-31644D01*
X36189Y-31740D01*
X36395Y-31813D01*
X36614Y-31802D01*
X36765Y-31740D01*
X36792Y-31644D01*
X36792Y-33371D01*
X36743Y-33374D01*
X36601Y-33433D01*
X36576Y-33526D01*
X36877Y-33827D01*
X37178Y-33526D01*
X37178Y-33667D01*
X36948Y-33897D01*
X37248Y-34198D01*
X37342Y-34173D01*
X37412Y-33974D01*
X37412Y-36305D01*
X37407Y-36305D01*
X37407Y-35714D01*
X37326Y-35520D01*
X37178Y-35370D01*
X37178Y-34269D01*
X36877Y-33968D01*
X36806Y-34039D01*
X36806Y-33897D01*
X36505Y-33597D01*
X36412Y-33622D01*
X36342Y-33820D01*
X36353Y-34031D01*
X36412Y-34173D01*
X36505Y-34198D01*
X36806Y-33897D01*
X36806Y-34039D01*
X36576Y-34269D01*
X36601Y-34362D01*
X36800Y-34432D01*
X37010Y-34421D01*
X37153Y-34362D01*
X37178Y-34269D01*
X37178Y-35370D01*
X37177Y-35370D01*
X36983Y-35289D01*
X36772Y-35289D01*
X36577Y-35370D01*
X36428Y-35519D01*
X36347Y-35713D01*
X36347Y-35924D01*
X36427Y-36119D01*
X36576Y-36268D01*
X36771Y-36349D01*
X36982Y-36349D01*
X37177Y-36269D01*
X37326Y-36120D01*
X37407Y-35925D01*
X37407Y-35714D01*
X37407Y-36305D01*
X37165Y-36305D01*
X37165Y-36305D01*
X37032Y-36331D01*
X36918Y-36407D01*
X36918Y-36407D01*
X36230Y-37095D01*
X36155Y-37208D01*
X36151Y-37230D01*
X36128Y-37341D01*
X36128Y-37341D01*
X36128Y-38829D01*
X36011Y-38946D01*
X35927Y-39148D01*
X35927Y-39367D01*
X36010Y-39570D01*
X36165Y-39724D01*
X36367Y-39808D01*
X36586Y-39808D01*
X36788Y-39725D01*
X36943Y-39570D01*
X36974Y-39495D01*
X36996Y-39546D01*
X37091Y-39574D01*
X37406Y-39258D01*
X37091Y-38943D01*
X36996Y-38971D01*
X36976Y-39026D01*
X36943Y-38947D01*
X36825Y-38829D01*
X36825Y-37485D01*
X37309Y-37001D01*
X38605Y-37001D01*
X38617Y-37013D01*
X38773Y-37078D01*
X38942Y-37078D01*
X39098Y-37014D01*
X39218Y-36894D01*
X39283Y-36738D01*
X39283Y-36721D01*
X39553Y-36450D01*
X39804Y-36450D01*
X39771Y-36529D01*
X39771Y-36614D01*
X39000Y-37386D01*
X38935Y-37483D01*
X38912Y-37598D01*
X38912Y-38399D01*
X38598Y-38713D01*
X38587Y-38708D01*
X38368Y-38708D01*
X38166Y-38792D01*
X38011Y-38946D01*
X37979Y-39022D01*
X37958Y-38971D01*
X37863Y-38943D01*
X37792Y-39014D01*
X37792Y-38872D01*
X37765Y-38777D01*
X37559Y-38704D01*
X37340Y-38715D01*
X37189Y-38777D01*
X37162Y-38872D01*
X37477Y-39188D01*
X37792Y-38872D01*
X37792Y-39014D01*
X37548Y-39258D01*
X37863Y-39574D01*
X37958Y-39546D01*
X37978Y-39491D01*
X38010Y-39570D01*
X38165Y-39724D01*
X38367Y-39808D01*
X38586Y-39808D01*
X38788Y-39725D01*
X38943Y-39570D01*
X38977Y-39488D01*
X39010Y-39570D01*
X39165Y-39724D01*
X39367Y-39808D01*
X39586Y-39808D01*
X39788Y-39725D01*
X39943Y-39570D01*
X39977Y-39488D01*
X40010Y-39570D01*
X40165Y-39724D01*
X40367Y-39808D01*
X40586Y-39808D01*
X40788Y-39725D01*
X40943Y-39570D01*
X40977Y-39488D01*
X41010Y-39570D01*
X41165Y-39724D01*
X41367Y-39808D01*
X41586Y-39808D01*
X41788Y-39725D01*
X41943Y-39570D01*
X41977Y-39488D01*
X42010Y-39570D01*
X42165Y-39724D01*
X42367Y-39808D01*
X42586Y-39808D01*
X42788Y-39725D01*
X42927Y-39586D01*
X42927Y-39608D01*
X42965Y-39700D01*
X43035Y-39770D01*
X43127Y-39808D01*
X43364Y-39808D01*
X43427Y-39746D01*
X43427Y-39308D01*
X43419Y-39308D01*
X43419Y-39208D01*
X43427Y-39208D01*
X43427Y-38771D01*
X43364Y-38708D01*
X43127Y-38708D01*
X43035Y-38746D01*
X42965Y-38817D01*
X42927Y-38908D01*
X42927Y-38931D01*
X42789Y-38792D01*
X42753Y-38777D01*
X42689Y-38682D01*
X42689Y-38682D01*
X42574Y-38567D01*
X42477Y-38502D01*
X42362Y-38479D01*
X42092Y-38479D01*
X41953Y-38340D01*
X41953Y-32952D01*
X41930Y-32837D01*
X41865Y-32740D01*
X41865Y-32740D01*
X40960Y-31835D01*
X40862Y-31770D01*
X40748Y-31747D01*
X40735Y-31747D01*
X40788Y-31725D01*
X40943Y-31570D01*
X40977Y-31488D01*
X41010Y-31570D01*
X41165Y-31724D01*
X41367Y-31808D01*
X41586Y-31808D01*
X41788Y-31725D01*
X41943Y-31570D01*
X41977Y-31488D01*
X42010Y-31570D01*
X42165Y-31724D01*
X42367Y-31808D01*
X42586Y-31808D01*
X42788Y-31725D01*
X42927Y-31586D01*
X42927Y-31608D01*
X42965Y-31700D01*
X43035Y-31770D01*
X43127Y-31808D01*
X43226Y-31808D01*
X43826Y-31808D01*
X43918Y-31770D01*
X43989Y-31700D01*
X44027Y-31608D01*
X44027Y-31509D01*
X44027Y-39008D01*
X44027Y-38908D01*
X43989Y-38817D01*
X43918Y-38746D01*
X43826Y-38708D01*
X43589Y-38708D01*
X43527Y-38771D01*
X43527Y-39208D01*
X43964Y-39208D01*
X44027Y-39146D01*
X44027Y-39008D01*
X44027Y-39509D01*
X44027Y-39371D01*
X43964Y-39308D01*
X43527Y-39308D01*
X43527Y-39746D01*
X43589Y-39808D01*
X43826Y-39808D01*
X43918Y-39770D01*
X43989Y-39700D01*
X44027Y-39608D01*
X44027Y-39509D01*
X44027Y-40791D01*
X43889Y-40818D01*
X43830Y-40843D01*
X43799Y-40767D01*
X43701Y-40669D01*
X43573Y-40616D01*
X43434Y-40616D01*
X43306Y-40668D01*
X43179Y-40616D01*
X43041Y-40616D01*
X42913Y-40668D01*
X42786Y-40616D01*
X42647Y-40616D01*
X42519Y-40668D01*
X42392Y-40616D01*
X42253Y-40616D01*
X42125Y-40668D01*
X41998Y-40616D01*
X41860Y-40616D01*
X41732Y-40669D01*
X41633Y-40766D01*
X41597Y-40855D01*
X41382Y-40812D01*
X38145Y-40812D01*
X37930Y-40855D01*
X37893Y-40767D01*
X37796Y-40669D01*
X37792Y-40667D01*
X37792Y-39644D01*
X37477Y-39329D01*
X37162Y-39644D01*
X37189Y-39740D01*
X37395Y-39813D01*
X37614Y-39802D01*
X37765Y-39740D01*
X37792Y-39644D01*
X37792Y-40667D01*
X37668Y-40616D01*
X37529Y-40616D01*
X37401Y-40668D01*
X37274Y-40616D01*
X37135Y-40616D01*
X37007Y-40668D01*
X36880Y-40616D01*
X36742Y-40616D01*
X36614Y-40668D01*
X36486Y-40616D01*
X36348Y-40616D01*
X36220Y-40668D01*
X36093Y-40616D01*
X35954Y-40616D01*
X35826Y-40669D01*
X35728Y-40766D01*
X35691Y-40855D01*
X35476Y-40812D01*
X35066Y-40812D01*
X35039Y-40747D01*
X35092Y-40620D01*
X35092Y-40482D01*
X35039Y-40354D01*
X35092Y-40227D01*
X35092Y-40088D01*
X35039Y-39960D01*
X35092Y-39833D01*
X35092Y-39694D01*
X35039Y-39566D01*
X35092Y-39439D01*
X35092Y-39301D01*
X35039Y-39172D01*
X34941Y-39074D01*
X34849Y-39036D01*
X34895Y-38803D01*
X34895Y-37574D01*
X34849Y-37341D01*
X34941Y-37303D01*
X35039Y-37205D01*
X35092Y-37077D01*
X35092Y-36938D01*
X35039Y-36810D01*
X35092Y-36683D01*
X35092Y-36545D01*
X35039Y-36417D01*
X35092Y-36290D01*
X35092Y-36151D01*
X35039Y-36023D01*
X35092Y-35896D01*
X35092Y-35757D01*
X35039Y-35629D01*
X35092Y-35502D01*
X35092Y-35364D01*
X35039Y-35235D01*
X34941Y-35137D01*
X34849Y-35099D01*
X34895Y-34866D01*
X34895Y-33637D01*
X34849Y-33404D01*
X34941Y-33366D01*
X35039Y-33268D01*
X35092Y-33140D01*
X35092Y-33001D01*
X35039Y-32873D01*
X35092Y-32746D01*
X35092Y-32608D01*
X35039Y-32480D01*
X35092Y-32353D01*
X35092Y-32214D01*
X35039Y-32086D01*
X35092Y-31959D01*
X35092Y-31820D01*
X35039Y-31692D01*
X35092Y-31565D01*
X35092Y-31427D01*
X35039Y-31298D01*
X34941Y-31200D01*
X34852Y-31163D01*
X34895Y-30948D01*
X34895Y-29909D01*
X34960Y-29882D01*
X35087Y-29934D01*
X35226Y-29935D01*
X35354Y-29882D01*
X35481Y-29934D01*
X35620Y-29935D01*
X35748Y-29882D01*
X35875Y-29934D01*
X36013Y-29935D01*
X36141Y-29882D01*
X36268Y-29934D01*
X36407Y-29935D01*
X36535Y-29882D01*
X36633Y-29784D01*
X36672Y-29691D01*
X36904Y-29738D01*
X38134Y-29738D01*
X38367Y-29691D01*
X38405Y-29783D01*
X38503Y-29881D01*
X38631Y-29934D01*
X38769Y-29935D01*
X38897Y-29882D01*
X39024Y-29934D01*
X39163Y-29935D01*
X39291Y-29882D01*
X39418Y-29934D01*
X39557Y-29935D01*
X39685Y-29882D01*
X39812Y-29934D01*
X39950Y-29935D01*
X40078Y-29882D01*
X40205Y-29934D01*
X40344Y-29935D01*
X40472Y-29882D01*
X40570Y-29784D01*
X40607Y-29695D01*
X40822Y-29738D01*
X44059Y-29738D01*
X44274Y-29695D01*
X44310Y-29783D01*
X44408Y-29881D01*
X44536Y-29934D01*
X44675Y-29935D01*
X44803Y-29882D01*
X44930Y-29934D01*
X45069Y-29935D01*
X45197Y-29882D01*
X45324Y-29934D01*
X45462Y-29935D01*
X45590Y-29882D01*
X45717Y-29934D01*
X45822Y-29935D01*
X45822Y-33709D01*
X45289Y-33709D01*
X45227Y-33772D01*
X45227Y-34208D01*
X45235Y-34208D01*
X45235Y-34308D01*
X45227Y-34308D01*
X45227Y-34745D01*
X45289Y-34808D01*
X45822Y-34808D01*
X45822Y-35709D01*
X45289Y-35709D01*
X45227Y-35772D01*
X45227Y-36208D01*
X45235Y-36208D01*
X45235Y-36308D01*
X45227Y-36308D01*
X45227Y-36745D01*
X45289Y-36808D01*
X45822Y-36808D01*
X45822Y-40783D01*
X45822Y-40783D01*
G37*
G54D22*
X45822Y-40783D02*
X45127Y-40783D01*
X45127Y-36745D01*
X45127Y-36308D01*
X45127Y-36208D01*
X45127Y-35772D01*
X45127Y-34745D01*
X45127Y-34308D01*
X45127Y-34208D01*
X45127Y-33772D01*
X45064Y-33709D01*
X44328Y-33709D01*
X44236Y-33747D01*
X44166Y-33817D01*
X44128Y-33909D01*
X44128Y-34009D01*
X44128Y-34146D01*
X44190Y-34208D01*
X45127Y-34208D01*
X45127Y-34308D01*
X44190Y-34308D01*
X44128Y-34371D01*
X44128Y-34508D01*
X44128Y-34608D01*
X44166Y-34699D01*
X44236Y-34770D01*
X44328Y-34808D01*
X45064Y-34808D01*
X45127Y-34745D01*
X45127Y-35772D01*
X45064Y-35709D01*
X44328Y-35709D01*
X44236Y-35747D01*
X44166Y-35817D01*
X44128Y-35909D01*
X44128Y-36009D01*
X44128Y-36146D01*
X44190Y-36208D01*
X45127Y-36208D01*
X45127Y-36308D01*
X44190Y-36308D01*
X44128Y-36371D01*
X44128Y-36508D01*
X44128Y-36608D01*
X44166Y-36699D01*
X44236Y-36770D01*
X44328Y-36808D01*
X45064Y-36808D01*
X45127Y-36745D01*
X45127Y-40783D01*
X44133Y-40783D01*
X44094Y-40783D01*
X44066Y-40788D01*
X44040Y-40788D01*
X44027Y-40791D01*
X44027Y-39509D01*
X44027Y-39008D01*
X44027Y-31509D01*
X44027Y-30909D01*
X43989Y-30817D01*
X43919Y-30747D01*
X43827Y-30708D01*
X43727Y-30708D01*
X43127Y-30708D01*
X43035Y-30746D01*
X42965Y-30817D01*
X42927Y-30908D01*
X42927Y-30931D01*
X42789Y-30792D01*
X42587Y-30708D01*
X42368Y-30708D01*
X42166Y-30792D01*
X42011Y-30946D01*
X41977Y-31028D01*
X41943Y-30947D01*
X41789Y-30792D01*
X41587Y-30708D01*
X41368Y-30708D01*
X41166Y-30792D01*
X41011Y-30946D01*
X40977Y-31028D01*
X40943Y-30947D01*
X40789Y-30792D01*
X40587Y-30708D01*
X40368Y-30708D01*
X40166Y-30792D01*
X40011Y-30946D01*
X39977Y-31028D01*
X39943Y-30947D01*
X39789Y-30792D01*
X39587Y-30708D01*
X39368Y-30708D01*
X39166Y-30792D01*
X39011Y-30946D01*
X38977Y-31028D01*
X38943Y-30947D01*
X38789Y-30792D01*
X38587Y-30708D01*
X38368Y-30708D01*
X38166Y-30792D01*
X38011Y-30946D01*
X37977Y-31028D01*
X37943Y-30947D01*
X37789Y-30792D01*
X37587Y-30708D01*
X37368Y-30708D01*
X37166Y-30792D01*
X37011Y-30946D01*
X36979Y-31022D01*
X36958Y-30971D01*
X36863Y-30943D01*
X36792Y-31014D01*
X36792Y-30872D01*
X36765Y-30777D01*
X36559Y-30704D01*
X36340Y-30715D01*
X36189Y-30777D01*
X36162Y-30872D01*
X36477Y-31188D01*
X36792Y-30872D01*
X36792Y-31014D01*
X36548Y-31258D01*
X36863Y-31574D01*
X36958Y-31546D01*
X36978Y-31491D01*
X37010Y-31570D01*
X37165Y-31724D01*
X37367Y-31808D01*
X37586Y-31808D01*
X37788Y-31725D01*
X37943Y-31570D01*
X37977Y-31488D01*
X38010Y-31570D01*
X38156Y-31715D01*
X38065Y-31806D01*
X38000Y-31962D01*
X38000Y-32131D01*
X38063Y-32283D01*
X38000Y-32434D01*
X38000Y-32603D01*
X38063Y-32756D01*
X38000Y-32907D01*
X38000Y-33076D01*
X38064Y-33232D01*
X38184Y-33352D01*
X38340Y-33417D01*
X38509Y-33417D01*
X38665Y-33352D01*
X38726Y-33292D01*
X40702Y-33292D01*
X40881Y-33470D01*
X40881Y-35051D01*
X40872Y-35047D01*
X40703Y-35047D01*
X40546Y-35111D01*
X40427Y-35231D01*
X40362Y-35387D01*
X40362Y-35404D01*
X40013Y-35753D01*
X39409Y-35753D01*
X39409Y-35753D01*
X39276Y-35780D01*
X39163Y-35855D01*
X39163Y-35855D01*
X38790Y-36228D01*
X38774Y-36228D01*
X38617Y-36293D01*
X38605Y-36305D01*
X37412Y-36305D01*
X37412Y-33974D01*
X37400Y-33764D01*
X37342Y-33622D01*
X37248Y-33597D01*
X37178Y-33667D01*
X37178Y-33526D01*
X37153Y-33433D01*
X36954Y-33362D01*
X36792Y-33371D01*
X36792Y-31644D01*
X36477Y-31329D01*
X36406Y-31400D01*
X36406Y-31258D01*
X36091Y-30943D01*
X35996Y-30971D01*
X35922Y-31177D01*
X35933Y-31395D01*
X35996Y-31546D01*
X36091Y-31574D01*
X36406Y-31258D01*
X36406Y-31400D01*
X36162Y-31644D01*
X36189Y-31740D01*
X36395Y-31813D01*
X36614Y-31802D01*
X36765Y-31740D01*
X36792Y-31644D01*
X36792Y-33371D01*
X36743Y-33374D01*
X36601Y-33433D01*
X36576Y-33526D01*
X36877Y-33827D01*
X37178Y-33526D01*
X37178Y-33667D01*
X36948Y-33897D01*
X37248Y-34198D01*
X37342Y-34173D01*
X37412Y-33974D01*
X37412Y-36305D01*
X37407Y-36305D01*
X37407Y-35714D01*
X37326Y-35520D01*
X37178Y-35370D01*
X37178Y-34269D01*
X36877Y-33968D01*
X36806Y-34039D01*
X36806Y-33897D01*
X36505Y-33597D01*
X36412Y-33622D01*
X36342Y-33820D01*
X36353Y-34031D01*
X36412Y-34173D01*
X36505Y-34198D01*
X36806Y-33897D01*
X36806Y-34039D01*
X36576Y-34269D01*
X36601Y-34362D01*
X36800Y-34432D01*
X37010Y-34421D01*
X37153Y-34362D01*
X37178Y-34269D01*
X37178Y-35370D01*
X37177Y-35370D01*
X36983Y-35289D01*
X36772Y-35289D01*
X36577Y-35370D01*
X36428Y-35519D01*
X36347Y-35713D01*
X36347Y-35924D01*
X36427Y-36119D01*
X36576Y-36268D01*
X36771Y-36349D01*
X36982Y-36349D01*
X37177Y-36269D01*
X37326Y-36120D01*
X37407Y-35925D01*
X37407Y-35714D01*
X37407Y-36305D01*
X37165Y-36305D01*
X37165Y-36305D01*
X37032Y-36331D01*
X36918Y-36407D01*
X36918Y-36407D01*
X36230Y-37095D01*
X36155Y-37208D01*
X36151Y-37230D01*
X36128Y-37341D01*
X36128Y-37341D01*
X36128Y-38829D01*
X36011Y-38946D01*
X35927Y-39148D01*
X35927Y-39367D01*
X36010Y-39570D01*
X36165Y-39724D01*
X36367Y-39808D01*
X36586Y-39808D01*
X36788Y-39725D01*
X36943Y-39570D01*
X36974Y-39495D01*
X36996Y-39546D01*
X37091Y-39574D01*
X37406Y-39258D01*
X37091Y-38943D01*
X36996Y-38971D01*
X36976Y-39026D01*
X36943Y-38947D01*
X36825Y-38829D01*
X36825Y-37485D01*
X37309Y-37001D01*
X38605Y-37001D01*
X38617Y-37013D01*
X38773Y-37078D01*
X38942Y-37078D01*
X39098Y-37014D01*
X39218Y-36894D01*
X39283Y-36738D01*
X39283Y-36721D01*
X39553Y-36450D01*
X39804Y-36450D01*
X39771Y-36529D01*
X39771Y-36614D01*
X39000Y-37386D01*
X38935Y-37483D01*
X38912Y-37598D01*
X38912Y-38399D01*
X38598Y-38713D01*
X38587Y-38708D01*
X38368Y-38708D01*
X38166Y-38792D01*
X38011Y-38946D01*
X37979Y-39022D01*
X37958Y-38971D01*
X37863Y-38943D01*
X37792Y-39014D01*
X37792Y-38872D01*
X37765Y-38777D01*
X37559Y-38704D01*
X37340Y-38715D01*
X37189Y-38777D01*
X37162Y-38872D01*
X37477Y-39188D01*
X37792Y-38872D01*
X37792Y-39014D01*
X37548Y-39258D01*
X37863Y-39574D01*
X37958Y-39546D01*
X37978Y-39491D01*
X38010Y-39570D01*
X38165Y-39724D01*
X38367Y-39808D01*
X38586Y-39808D01*
X38788Y-39725D01*
X38943Y-39570D01*
X38977Y-39488D01*
X39010Y-39570D01*
X39165Y-39724D01*
X39367Y-39808D01*
X39586Y-39808D01*
X39788Y-39725D01*
X39943Y-39570D01*
X39977Y-39488D01*
X40010Y-39570D01*
X40165Y-39724D01*
X40367Y-39808D01*
X40586Y-39808D01*
X40788Y-39725D01*
X40943Y-39570D01*
X40977Y-39488D01*
X41010Y-39570D01*
X41165Y-39724D01*
X41367Y-39808D01*
X41586Y-39808D01*
X41788Y-39725D01*
X41943Y-39570D01*
X41977Y-39488D01*
X42010Y-39570D01*
X42165Y-39724D01*
X42367Y-39808D01*
X42586Y-39808D01*
X42788Y-39725D01*
X42927Y-39586D01*
X42927Y-39608D01*
X42965Y-39700D01*
X43035Y-39770D01*
X43127Y-39808D01*
X43364Y-39808D01*
X43427Y-39746D01*
X43427Y-39308D01*
X43419Y-39308D01*
X43419Y-39208D01*
X43427Y-39208D01*
X43427Y-38771D01*
X43364Y-38708D01*
X43127Y-38708D01*
X43035Y-38746D01*
X42965Y-38817D01*
X42927Y-38908D01*
X42927Y-38931D01*
X42789Y-38792D01*
X42753Y-38777D01*
X42689Y-38682D01*
X42689Y-38682D01*
X42574Y-38567D01*
X42477Y-38502D01*
X42362Y-38479D01*
X42092Y-38479D01*
X41953Y-38340D01*
X41953Y-32952D01*
X41930Y-32837D01*
X41865Y-32740D01*
X41865Y-32740D01*
X40960Y-31835D01*
X40862Y-31770D01*
X40748Y-31747D01*
X40735Y-31747D01*
X40788Y-31725D01*
X40943Y-31570D01*
X40977Y-31488D01*
X41010Y-31570D01*
X41165Y-31724D01*
X41367Y-31808D01*
X41586Y-31808D01*
X41788Y-31725D01*
X41943Y-31570D01*
X41977Y-31488D01*
X42010Y-31570D01*
X42165Y-31724D01*
X42367Y-31808D01*
X42586Y-31808D01*
X42788Y-31725D01*
X42927Y-31586D01*
X42927Y-31608D01*
X42965Y-31700D01*
X43035Y-31770D01*
X43127Y-31808D01*
X43226Y-31808D01*
X43826Y-31808D01*
X43918Y-31770D01*
X43989Y-31700D01*
X44027Y-31608D01*
X44027Y-31509D01*
X44027Y-39008D01*
X44027Y-38908D01*
X43989Y-38817D01*
X43918Y-38746D01*
X43826Y-38708D01*
X43589Y-38708D01*
X43527Y-38771D01*
X43527Y-39208D01*
X43964Y-39208D01*
X44027Y-39146D01*
X44027Y-39008D01*
X44027Y-39509D01*
X44027Y-39371D01*
X43964Y-39308D01*
X43527Y-39308D01*
X43527Y-39746D01*
X43589Y-39808D01*
X43826Y-39808D01*
X43918Y-39770D01*
X43989Y-39700D01*
X44027Y-39608D01*
X44027Y-39509D01*
X44027Y-40791D01*
X43889Y-40818D01*
X43830Y-40843D01*
X43799Y-40767D01*
X43701Y-40669D01*
X43573Y-40616D01*
X43434Y-40616D01*
X43306Y-40668D01*
X43179Y-40616D01*
X43041Y-40616D01*
X42913Y-40668D01*
X42786Y-40616D01*
X42647Y-40616D01*
X42519Y-40668D01*
X42392Y-40616D01*
X42253Y-40616D01*
X42125Y-40668D01*
X41998Y-40616D01*
X41860Y-40616D01*
X41732Y-40669D01*
X41633Y-40766D01*
X41597Y-40855D01*
X41382Y-40812D01*
X38145Y-40812D01*
X37930Y-40855D01*
X37893Y-40767D01*
X37796Y-40669D01*
X37792Y-40667D01*
X37792Y-39644D01*
X37477Y-39329D01*
X37162Y-39644D01*
X37189Y-39740D01*
X37395Y-39813D01*
X37614Y-39802D01*
X37765Y-39740D01*
X37792Y-39644D01*
X37792Y-40667D01*
X37668Y-40616D01*
X37529Y-40616D01*
X37401Y-40668D01*
X37274Y-40616D01*
X37135Y-40616D01*
X37007Y-40668D01*
X36880Y-40616D01*
X36742Y-40616D01*
X36614Y-40668D01*
X36486Y-40616D01*
X36348Y-40616D01*
X36220Y-40668D01*
X36093Y-40616D01*
X35954Y-40616D01*
X35826Y-40669D01*
X35728Y-40766D01*
X35691Y-40855D01*
X35476Y-40812D01*
X35066Y-40812D01*
X35039Y-40747D01*
X35092Y-40620D01*
X35092Y-40482D01*
X35039Y-40354D01*
X35092Y-40227D01*
X35092Y-40088D01*
X35039Y-39960D01*
X35092Y-39833D01*
X35092Y-39694D01*
X35039Y-39566D01*
X35092Y-39439D01*
X35092Y-39301D01*
X35039Y-39172D01*
X34941Y-39074D01*
X34849Y-39036D01*
X34895Y-38803D01*
X34895Y-37574D01*
X34849Y-37341D01*
X34941Y-37303D01*
X35039Y-37205D01*
X35092Y-37077D01*
X35092Y-36938D01*
X35039Y-36810D01*
X35092Y-36683D01*
X35092Y-36545D01*
X35039Y-36417D01*
X35092Y-36290D01*
X35092Y-36151D01*
X35039Y-36023D01*
X35092Y-35896D01*
X35092Y-35757D01*
X35039Y-35629D01*
X35092Y-35502D01*
X35092Y-35364D01*
X35039Y-35235D01*
X34941Y-35137D01*
X34849Y-35099D01*
X34895Y-34866D01*
X34895Y-33637D01*
X34849Y-33404D01*
X34941Y-33366D01*
X35039Y-33268D01*
X35092Y-33140D01*
X35092Y-33001D01*
X35039Y-32873D01*
X35092Y-32746D01*
X35092Y-32608D01*
X35039Y-32480D01*
X35092Y-32353D01*
X35092Y-32214D01*
X35039Y-32086D01*
X35092Y-31959D01*
X35092Y-31820D01*
X35039Y-31692D01*
X35092Y-31565D01*
X35092Y-31427D01*
X35039Y-31298D01*
X34941Y-31200D01*
X34852Y-31163D01*
X34895Y-30948D01*
X34895Y-29909D01*
X34960Y-29882D01*
X35087Y-29934D01*
X35226Y-29935D01*
X35354Y-29882D01*
X35481Y-29934D01*
X35620Y-29935D01*
X35748Y-29882D01*
X35875Y-29934D01*
X36013Y-29935D01*
X36141Y-29882D01*
X36268Y-29934D01*
X36407Y-29935D01*
X36535Y-29882D01*
X36633Y-29784D01*
X36672Y-29691D01*
X36904Y-29738D01*
X38134Y-29738D01*
X38367Y-29691D01*
X38405Y-29783D01*
X38503Y-29881D01*
X38631Y-29934D01*
X38769Y-29935D01*
X38897Y-29882D01*
X39024Y-29934D01*
X39163Y-29935D01*
X39291Y-29882D01*
X39418Y-29934D01*
X39557Y-29935D01*
X39685Y-29882D01*
X39812Y-29934D01*
X39950Y-29935D01*
X40078Y-29882D01*
X40205Y-29934D01*
X40344Y-29935D01*
X40472Y-29882D01*
X40570Y-29784D01*
X40607Y-29695D01*
X40822Y-29738D01*
X44059Y-29738D01*
X44274Y-29695D01*
X44310Y-29783D01*
X44408Y-29881D01*
X44536Y-29934D01*
X44675Y-29935D01*
X44803Y-29882D01*
X44930Y-29934D01*
X45069Y-29935D01*
X45197Y-29882D01*
X45324Y-29934D01*
X45462Y-29935D01*
X45590Y-29882D01*
X45717Y-29934D01*
X45822Y-29935D01*
X45822Y-33709D01*
X45289Y-33709D01*
X45227Y-33772D01*
X45227Y-34208D01*
X45235Y-34208D01*
X45235Y-34308D01*
X45227Y-34308D01*
X45227Y-34745D01*
X45289Y-34808D01*
X45822Y-34808D01*
X45822Y-35709D01*
X45289Y-35709D01*
X45227Y-35772D01*
X45227Y-36208D01*
X45235Y-36208D01*
X45235Y-36308D01*
X45227Y-36308D01*
X45227Y-36745D01*
X45289Y-36808D01*
X45822Y-36808D01*
X45822Y-40783D01*
M02*
