M48
;DRILL file {Pcbnew (2013-may-18)-stable} date Mon 24 Feb 2014 10:43:02 PM CET
;FORMAT={2:4/ absolute / inch / keep zeros}
FMAT,2
INCH,TZ
T1C0.020
T2C0.035
T3C0.051
T4C0.063
T5C0.079
%
G90
G05
M72
T1
X012402Y-040965
X012402Y-041949
X012795Y-040965
X012795Y-041949
X013189Y-040965
X013189Y-041949
X013583Y-040965
X013583Y-041949
X013976Y-040965
X013976Y-041949
X014055Y-029587
X014055Y-030571
X014449Y-029587
X014449Y-030571
X014843Y-029587
X014843Y-030571
X015236Y-029587
X015236Y-030571
X015630Y-029587
X015630Y-030571
X018307Y-040965
X018307Y-041949
X018701Y-040965
X018701Y-041949
X019094Y-040965
X019094Y-041949
X019488Y-040965
X019488Y-041949
X019882Y-040965
X019882Y-041949
X019961Y-029587
X019961Y-030571
X020354Y-029587
X020354Y-030571
X020748Y-029587
X020748Y-030571
X021142Y-029587
X021142Y-030571
X021535Y-029587
X021535Y-030571
X021555Y-023622
X021555Y-024016
X021555Y-024409
X021555Y-024803
X021555Y-025197
X021555Y-027559
X021555Y-027953
X021555Y-028346
X021555Y-028740
X021555Y-029134
X021555Y-033465
X021555Y-033858
X021555Y-034252
X021555Y-034646
X021555Y-035039
X021555Y-039370
X021555Y-039764
X021555Y-040157
X021555Y-040551
X021555Y-040945
X021555Y-041969
X021555Y-042362
X021555Y-042756
X021555Y-043150
X021555Y-043543
X021555Y-047874
X021555Y-048268
X021555Y-048661
X021555Y-049055
X021555Y-049449
X021555Y-053780
X021555Y-054173
X021555Y-054567
X021555Y-054961
X021555Y-055354
X022539Y-025197
X022539Y-027559
X022539Y-027953
X022539Y-028346
X022539Y-028740
X022539Y-029134
X022539Y-033465
X022539Y-033858
X022539Y-034252
X022539Y-034646
X022539Y-035039
X022539Y-039370
X022539Y-039764
X022539Y-040157
X022539Y-040551
X022539Y-040945
X022539Y-041969
X022539Y-042362
X022539Y-042756
X022539Y-043150
X022539Y-043543
X022539Y-047874
X022539Y-048268
X022539Y-048661
X022539Y-049055
X022539Y-049449
X022539Y-053780
X022539Y-054173
X022539Y-054567
X022539Y-054961
X022539Y-055354
X024213Y-040965
X024213Y-041949
X024606Y-040965
X024606Y-041949
X025000Y-040965
X025000Y-041949
X025394Y-040965
X025394Y-041949
X025787Y-040965
X025787Y-041949
X030118Y-040965
X030118Y-041949
X030512Y-040965
X030512Y-041949
X030906Y-040965
X030906Y-041949
X031299Y-040965
X031299Y-041949
X031693Y-040965
X031693Y-041949
X033760Y-025591
X033760Y-025984
X033760Y-026378
X033760Y-026772
X033760Y-027165
X033760Y-031496
X033760Y-031890
X033760Y-032283
X033760Y-032677
X033760Y-033071
X033760Y-035433
X033760Y-035827
X033760Y-036220
X033760Y-036614
X033760Y-037008
X033760Y-039370
X033760Y-039764
X033760Y-040157
X033760Y-040551
X033760Y-040945
X033760Y-041969
X033760Y-042362
X033760Y-042756
X033760Y-043150
X033760Y-043543
X033760Y-045906
X033760Y-046299
X033760Y-046693
X033760Y-047087
X033760Y-047480
X033760Y-051811
X033760Y-052205
X033760Y-052598
X033760Y-052992
X033760Y-053386
X034744Y-025591
X034744Y-025984
X034744Y-026378
X034744Y-026772
X034744Y-027165
X034744Y-031496
X034744Y-031890
X034744Y-032283
X034744Y-032677
X034744Y-033071
X034744Y-035433
X034744Y-035827
X034744Y-036220
X034744Y-036614
X034744Y-037008
X034744Y-039370
X034744Y-039764
X034744Y-040157
X034744Y-040551
X034744Y-040945
X034744Y-041969
X034744Y-042362
X034744Y-042756
X034744Y-043150
X034744Y-043543
X034744Y-045906
X034744Y-046299
X034744Y-046693
X034744Y-047087
X034744Y-047480
X034744Y-051811
X034744Y-052205
X034744Y-052598
X034744Y-052992
X034744Y-053386
X034764Y-028602
X034764Y-029587
X034764Y-048012
X034764Y-048996
X035157Y-028602
X035157Y-029587
X035157Y-048012
X035157Y-048996
X035551Y-028602
X035551Y-029587
X035551Y-048012
X035551Y-048996
X035945Y-028602
X035945Y-029587
X035945Y-048012
X035945Y-048996
X036024Y-040965
X036024Y-041949
X036339Y-028602
X036339Y-029587
X036339Y-048012
X036339Y-048996
X036417Y-040965
X036417Y-041949
X036811Y-040965
X036811Y-041949
X037205Y-040965
X037205Y-041949
X037598Y-040965
X037598Y-041949
X038701Y-028602
X038701Y-029587
X039094Y-028602
X039094Y-029587
X039488Y-028602
X039488Y-029587
X039882Y-028602
X039882Y-029587
X040276Y-028602
X040276Y-029587
X040669Y-048012
X040669Y-048996
X041063Y-048012
X041063Y-048996
X041457Y-048012
X041457Y-048996
X041850Y-048012
X041850Y-048996
X041929Y-040965
X041929Y-041949
X041988Y-023465
X041988Y-023858
X041988Y-024252
X041988Y-024646
X041988Y-027008
X041988Y-027402
X041988Y-027795
X041988Y-028189
X041988Y-028583
X042244Y-048012
X042244Y-048996
X042323Y-040965
X042323Y-041949
X042717Y-040965
X042717Y-041949
X042972Y-023858
X042972Y-024252
X042972Y-024646
X042972Y-027008
X042972Y-027402
X042972Y-027795
X042972Y-028189
X042972Y-028583
X043110Y-040965
X043110Y-041949
X043504Y-040965
X043504Y-041949
X043957Y-042480
X043957Y-042874
X043957Y-043268
X043957Y-043661
X043957Y-044055
X043957Y-046417
X043957Y-046811
X043957Y-047205
X043957Y-047598
X043957Y-047992
X043957Y-049016
X043957Y-049409
X043957Y-049803
X043957Y-050197
X043957Y-050591
X043957Y-054921
X043957Y-055315
X043957Y-055709
X043957Y-056102
X043957Y-056496
X044606Y-028602
X044606Y-029587
X044941Y-042480
X044941Y-042874
X044941Y-043268
X044941Y-043661
X044941Y-044055
X044941Y-046417
X044941Y-046811
X044941Y-047205
X044941Y-047598
X044941Y-047992
X044941Y-049016
X044941Y-049409
X044941Y-049803
X044941Y-050197
X044941Y-050591
X044941Y-054921
X044941Y-055315
X044941Y-055709
X044941Y-056102
X044941Y-056496
X045000Y-028602
X045000Y-029587
X045394Y-028602
X045394Y-029587
X045787Y-028602
X045787Y-029587
X046181Y-028602
X046575Y-048012
X046575Y-048996
X046969Y-048012
X046969Y-048996
X047362Y-048012
X047362Y-048996
X047756Y-048012
X047756Y-048996
X048150Y-048012
X048150Y-048996
T2
X014521Y-039143
X016253Y-039143
X025844Y-056200
X027576Y-056200
X036700Y-044612
X036700Y-046344
X038101Y-056246
X039833Y-056246
T3
X013320Y-043980
X016080Y-043980
X019634Y-024928
X019634Y-027688
X025230Y-043980
X027990Y-043980
T4
X023690Y-035202
X023690Y-039139
X025658Y-037171
T5
X017717Y-041457G85X014567Y-041457
G05
X016220Y-030079G85X019370Y-030079
G05
X022047Y-026969G85X022047Y-025787
G05
X022047Y-032874G85X022047Y-029724
G05
X022047Y-038780G85X022047Y-035630
G05
X020472Y-041457G85X023622Y-041457
G05
X022047Y-047283G85X022047Y-044134
G05
X022047Y-053189G85X022047Y-050039
G05
X026378Y-041457G85X029528Y-041457
G05
X032283Y-041457G85X035433Y-041457
G05
X034252Y-030906G85X034252Y-027756
G05
X034252Y-034843G85X034252Y-033661
G05
X034252Y-038780G85X034252Y-037598
G05
X034252Y-045315G85X034252Y-044134
G05
X034252Y-051220G85X034252Y-048071
G05
X036929Y-029094G85X038110Y-029094
G05
X036929Y-048504G85X040079Y-048504
G05
X038189Y-041457G85X041339Y-041457
G05
X040866Y-029094G85X044016Y-029094
G05
X042480Y-026417G85X042480Y-025236
G05
X042835Y-048504G85X045984Y-048504
G05
X044449Y-045827G85X044449Y-044646
G05
X044449Y-054331G85X044449Y-051181
G05
T0
M30
