G04 (created by PCBNEW (2013-may-18)-stable) date Tue 25 Feb 2014 10:12:36 PM CET*
%MOIN*%
G04 Gerber Fmt 3.4, Leading zero omitted, Abs format*
%FSLAX34Y34*%
G01*
G70*
G90*
G04 APERTURE LIST*
%ADD10C,0.00590551*%
%ADD11C,4.72441e-06*%
G04 APERTURE END LIST*
G54D10*
X49606Y-56771D02*
X49606Y-48897D01*
X44055Y-56771D02*
X44055Y-57086D01*
X44842Y-56771D02*
X44055Y-56771D01*
X49606Y-56771D02*
X44842Y-56771D01*
X43385Y-23858D02*
X49606Y-23858D01*
X42874Y-23346D02*
G75*
G03X43385Y-23858I511J0D01*
G74*
G01*
X44133Y-41062D02*
X44094Y-41062D01*
X44094Y-41062D02*
G75*
G03X43700Y-41456I0J-393D01*
G74*
G01*
X43700Y-41456D02*
G75*
G03X44094Y-41850I393J0D01*
G74*
G01*
X44842Y-41850D02*
X44094Y-41850D01*
X21653Y-55984D02*
X21653Y-55944D01*
X22440Y-55984D02*
X22440Y-55944D01*
X22440Y-55944D02*
G75*
G03X22047Y-55551I-393J0D01*
G74*
G01*
X22047Y-55551D02*
G75*
G03X21653Y-55944I0J-393D01*
G74*
G01*
X34645Y-54015D02*
X34645Y-53976D01*
X33858Y-54015D02*
X33858Y-53976D01*
X34645Y-53976D02*
G75*
G03X34251Y-53582I-393J0D01*
G74*
G01*
X34251Y-53582D02*
G75*
G03X33858Y-53976I0J-393D01*
G74*
G01*
X44055Y-57125D02*
X44055Y-57086D01*
X10236Y-41850D02*
X10236Y-58070D01*
X11811Y-41850D02*
X10236Y-41850D01*
X11771Y-41062D02*
X11692Y-41062D01*
X12204Y-41417D02*
G75*
G03X11771Y-41062I-393J-39D01*
G74*
G01*
X11811Y-41850D02*
G75*
G03X12204Y-41456I0J393D01*
G74*
G01*
X10236Y-41062D02*
X11692Y-41062D01*
X10236Y-30472D02*
X10236Y-41062D01*
X13464Y-30472D02*
X10236Y-30472D01*
X12480Y-29685D02*
X13425Y-29685D01*
X13858Y-30039D02*
G75*
G03X13425Y-29685I-393J-39D01*
G74*
G01*
X13464Y-30472D02*
G75*
G03X13858Y-30078I0J393D01*
G74*
G01*
X10236Y-29685D02*
X12480Y-29685D01*
X10236Y-21614D02*
X10236Y-29685D01*
X21653Y-21614D02*
X10236Y-21614D01*
X21653Y-25000D02*
X21653Y-21614D01*
X33858Y-25000D02*
X21653Y-25000D01*
X34645Y-24685D02*
X34645Y-25000D01*
X33858Y-25000D02*
G75*
G03X34251Y-25393I393J0D01*
G74*
G01*
X34251Y-25393D02*
G75*
G03X34645Y-25000I0J393D01*
G74*
G01*
X34645Y-23346D02*
X34645Y-24685D01*
X42874Y-23346D02*
X34645Y-23346D01*
X49606Y-28700D02*
X49606Y-23858D01*
X46102Y-28700D02*
X46102Y-28740D01*
X49606Y-28700D02*
X46102Y-28700D01*
X46102Y-41062D02*
X46102Y-28700D01*
X44133Y-41062D02*
X46102Y-41062D01*
X49606Y-41850D02*
X44842Y-41850D01*
X49606Y-48110D02*
X49606Y-41850D01*
X48740Y-48110D02*
X49606Y-48110D01*
X49015Y-48897D02*
X48740Y-48897D01*
X48740Y-48110D02*
G75*
G03X48346Y-48503I0J-393D01*
G74*
G01*
X48346Y-48503D02*
G75*
G03X48740Y-48897I393J0D01*
G74*
G01*
X49606Y-48897D02*
X49015Y-48897D01*
X44055Y-57322D02*
X44055Y-57125D01*
X44055Y-58070D02*
X44055Y-57322D01*
X34645Y-58070D02*
X44055Y-58070D01*
X34645Y-54015D02*
X34645Y-58070D01*
X33858Y-54015D02*
X33858Y-58070D01*
X22440Y-58070D02*
X33858Y-58070D01*
X22440Y-55984D02*
X22440Y-58070D01*
X21653Y-55984D02*
X21653Y-58070D01*
X10236Y-58070D02*
X21653Y-58070D01*
G54D11*
G36*
X38497Y-27436D02*
X38459Y-27430D01*
X38421Y-27424D01*
X38383Y-27416D01*
X38345Y-27408D01*
X38307Y-27400D01*
X38270Y-27390D01*
X38233Y-27380D01*
X38196Y-27369D01*
X38159Y-27357D01*
X38123Y-27344D01*
X38087Y-27331D01*
X38051Y-27317D01*
X38015Y-27302D01*
X37980Y-27287D01*
X37946Y-27271D01*
X37912Y-27254D01*
X37878Y-27237D01*
X37844Y-27219D01*
X37812Y-27200D01*
X37779Y-27181D01*
X37747Y-27161D01*
X37716Y-27140D01*
X37685Y-27119D01*
X37655Y-27097D01*
X37626Y-27075D01*
X37601Y-27055D01*
X37574Y-27031D01*
X37545Y-27004D01*
X37515Y-26975D01*
X37485Y-26945D01*
X37456Y-26914D01*
X37429Y-26884D01*
X37404Y-26855D01*
X37382Y-26829D01*
X37365Y-26806D01*
X37344Y-26774D01*
X37324Y-26742D01*
X37306Y-26709D01*
X37288Y-26674D01*
X37273Y-26639D01*
X37259Y-26604D01*
X37246Y-26568D01*
X37234Y-26531D01*
X37224Y-26493D01*
X37216Y-26456D01*
X37209Y-26417D01*
X37203Y-26379D01*
X37200Y-26340D01*
X37197Y-26301D01*
X37196Y-26262D01*
X37197Y-26228D01*
X37199Y-26194D01*
X37202Y-26161D01*
X37206Y-26127D01*
X37211Y-26094D01*
X37218Y-26062D01*
X37225Y-26029D01*
X37234Y-25997D01*
X37244Y-25966D01*
X37255Y-25934D01*
X37267Y-25903D01*
X37281Y-25873D01*
X37295Y-25842D01*
X37310Y-25812D01*
X37327Y-25783D01*
X37345Y-25754D01*
X37363Y-25725D01*
X37383Y-25696D01*
X37404Y-25668D01*
X37425Y-25641D01*
X37448Y-25614D01*
X37472Y-25587D01*
X37497Y-25561D01*
X37522Y-25536D01*
X37549Y-25511D01*
X37577Y-25486D01*
X37605Y-25462D01*
X37635Y-25438D01*
X37665Y-25415D01*
X37697Y-25393D01*
X37729Y-25371D01*
X37763Y-25350D01*
X37797Y-25329D01*
X37832Y-25309D01*
X37868Y-25290D01*
X37904Y-25271D01*
X37942Y-25252D01*
X37981Y-25235D01*
X38020Y-25218D01*
X38060Y-25202D01*
X38101Y-25186D01*
X38143Y-25171D01*
X38169Y-25163D01*
X38194Y-25155D01*
X38220Y-25147D01*
X38248Y-25140D01*
X38278Y-25133D01*
X38311Y-25126D01*
X38348Y-25118D01*
X38390Y-25111D01*
X38438Y-25102D01*
X38492Y-25093D01*
X38553Y-25083D01*
X38599Y-25075D01*
X38636Y-25069D01*
X38668Y-25065D01*
X38696Y-25062D01*
X38722Y-25059D01*
X38749Y-25058D01*
X38778Y-25057D01*
X38812Y-25058D01*
X38853Y-25058D01*
X38902Y-25059D01*
X38948Y-25060D01*
X38986Y-25061D01*
X39015Y-25061D01*
X39038Y-25061D01*
X39054Y-25061D01*
X39065Y-25060D01*
X39072Y-25058D01*
X39075Y-25056D01*
X39074Y-25054D01*
X39072Y-25051D01*
X39062Y-25038D01*
X39054Y-25024D01*
X39047Y-25010D01*
X39042Y-24996D01*
X39039Y-24981D01*
X39037Y-24966D01*
X39037Y-24951D01*
X39039Y-24936D01*
X39043Y-24922D01*
X39049Y-24908D01*
X39063Y-24884D01*
X39083Y-24863D01*
X39106Y-24844D01*
X39134Y-24829D01*
X39164Y-24817D01*
X39196Y-24808D01*
X39230Y-24802D01*
X39265Y-24799D01*
X39299Y-24800D01*
X39334Y-24804D01*
X39367Y-24812D01*
X39399Y-24823D01*
X39428Y-24838D01*
X39454Y-24857D01*
X39477Y-24880D01*
X39494Y-24905D01*
X39504Y-24931D01*
X39508Y-24957D01*
X39506Y-24983D01*
X39498Y-25008D01*
X39483Y-25033D01*
X39463Y-25056D01*
X39437Y-25078D01*
X39405Y-25097D01*
X39382Y-25108D01*
X39382Y-25108D01*
X39416Y-25117D01*
X39416Y-25117D01*
X39464Y-25130D01*
X39510Y-25142D01*
X39554Y-25155D01*
X39596Y-25168D01*
X39636Y-25180D01*
X39673Y-25193D01*
X39709Y-25206D01*
X39742Y-25219D01*
X39773Y-25233D01*
X39802Y-25246D01*
X39828Y-25259D01*
X39852Y-25272D01*
X39874Y-25285D01*
X39893Y-25298D01*
X39924Y-25320D01*
X39954Y-25343D01*
X39983Y-25366D01*
X40011Y-25390D01*
X40038Y-25414D01*
X40064Y-25438D01*
X40089Y-25463D01*
X40114Y-25488D01*
X40137Y-25514D01*
X40160Y-25540D01*
X40182Y-25567D01*
X40203Y-25594D01*
X40223Y-25622D01*
X40242Y-25651D01*
X40261Y-25680D01*
X40279Y-25710D01*
X40296Y-25741D01*
X40312Y-25772D01*
X40328Y-25804D01*
X40343Y-25837D01*
X40357Y-25871D01*
X40371Y-25905D01*
X40384Y-25941D01*
X40396Y-25977D01*
X40408Y-26014D01*
X40419Y-26052D01*
X40429Y-26091D01*
X40439Y-26131D01*
X40449Y-26172D01*
X40458Y-26214D01*
X40466Y-26258D01*
X40474Y-26302D01*
X40479Y-26335D01*
X40484Y-26364D01*
X40487Y-26390D01*
X40490Y-26413D01*
X40492Y-26434D01*
X40494Y-26454D01*
X40495Y-26473D01*
X40495Y-26493D01*
X40495Y-26513D01*
X40495Y-26535D01*
X40494Y-26558D01*
X40493Y-26578D01*
X40492Y-26594D01*
X40491Y-26608D01*
X40489Y-26620D01*
X40486Y-26632D01*
X40483Y-26642D01*
X40479Y-26653D01*
X40474Y-26665D01*
X40468Y-26678D01*
X40454Y-26706D01*
X40438Y-26734D01*
X40421Y-26762D01*
X40401Y-26791D01*
X40381Y-26820D01*
X40359Y-26848D01*
X40335Y-26877D01*
X40311Y-26906D01*
X40285Y-26934D01*
X40258Y-26962D01*
X40230Y-26990D01*
X40201Y-27017D01*
X40171Y-27044D01*
X40141Y-27069D01*
X40110Y-27095D01*
X40078Y-27119D01*
X40046Y-27142D01*
X40014Y-27164D01*
X39981Y-27186D01*
X39948Y-27206D01*
X39915Y-27224D01*
X39882Y-27242D01*
X39857Y-27254D01*
X39826Y-27268D01*
X39790Y-27283D01*
X39752Y-27299D01*
X39713Y-27315D01*
X39675Y-27330D01*
X39640Y-27343D01*
X39611Y-27354D01*
X39588Y-27362D01*
X39573Y-27366D01*
X39564Y-27367D01*
X39555Y-27367D01*
X39547Y-27366D01*
X39540Y-27364D01*
X39532Y-27359D01*
X39523Y-27353D01*
X39514Y-27344D01*
X39502Y-27332D01*
X39489Y-27318D01*
X39473Y-27299D01*
X39445Y-27269D01*
X39416Y-27242D01*
X39387Y-27218D01*
X39357Y-27196D01*
X39326Y-27177D01*
X39295Y-27161D01*
X39264Y-27148D01*
X39233Y-27138D01*
X39201Y-27131D01*
X39170Y-27126D01*
X39138Y-27125D01*
X39106Y-27127D01*
X39074Y-27132D01*
X39043Y-27140D01*
X39009Y-27151D01*
X38976Y-27165D01*
X38945Y-27180D01*
X38916Y-27198D01*
X38887Y-27218D01*
X38860Y-27241D01*
X38833Y-27267D01*
X38807Y-27296D01*
X38780Y-27329D01*
X38754Y-27365D01*
X38692Y-27452D01*
X38692Y-27452D01*
X38646Y-27451D01*
X38646Y-27451D01*
X38637Y-27451D01*
X38626Y-27450D01*
X38613Y-27449D01*
X38598Y-27448D01*
X38583Y-27446D01*
X38566Y-27444D01*
X38549Y-27442D01*
X38531Y-27440D01*
X38514Y-27438D01*
X38497Y-27436D01*
X38497Y-27436D01*
X38497Y-27436D01*
G37*
G36*
X36941Y-25579D02*
X36908Y-25566D01*
X36875Y-25552D01*
X36845Y-25534D01*
X36815Y-25515D01*
X36786Y-25493D01*
X36759Y-25470D01*
X36734Y-25444D01*
X36710Y-25417D01*
X36687Y-25388D01*
X36666Y-25357D01*
X36647Y-25324D01*
X36630Y-25290D01*
X36614Y-25255D01*
X36601Y-25218D01*
X36589Y-25180D01*
X36579Y-25141D01*
X36572Y-25100D01*
X36569Y-25075D01*
X36567Y-25047D01*
X36566Y-25016D01*
X36567Y-24984D01*
X36568Y-24951D01*
X36571Y-24918D01*
X36574Y-24887D01*
X36578Y-24857D01*
X36583Y-24829D01*
X36589Y-24806D01*
X36601Y-24768D01*
X36615Y-24732D01*
X36630Y-24697D01*
X36648Y-24663D01*
X36667Y-24632D01*
X36687Y-24602D01*
X36709Y-24573D01*
X36733Y-24547D01*
X36758Y-24523D01*
X36785Y-24500D01*
X36813Y-24479D01*
X36843Y-24461D01*
X36873Y-24445D01*
X36907Y-24430D01*
X36941Y-24418D01*
X36975Y-24408D01*
X37009Y-24402D01*
X37043Y-24397D01*
X37077Y-24396D01*
X37111Y-24397D01*
X37144Y-24401D01*
X37178Y-24407D01*
X37211Y-24416D01*
X37243Y-24428D01*
X37275Y-24442D01*
X37307Y-24458D01*
X37337Y-24478D01*
X37367Y-24499D01*
X37392Y-24521D01*
X37416Y-24546D01*
X37440Y-24573D01*
X37462Y-24604D01*
X37484Y-24636D01*
X37503Y-24670D01*
X37521Y-24706D01*
X37537Y-24743D01*
X37551Y-24780D01*
X37563Y-24817D01*
X37569Y-24845D01*
X37573Y-24876D01*
X37577Y-24911D01*
X37579Y-24948D01*
X37580Y-24986D01*
X37580Y-25025D01*
X37579Y-25062D01*
X37576Y-25098D01*
X37572Y-25130D01*
X37566Y-25159D01*
X37557Y-25195D01*
X37545Y-25230D01*
X37532Y-25265D01*
X37517Y-25298D01*
X37501Y-25331D01*
X37483Y-25362D01*
X37464Y-25391D01*
X37444Y-25417D01*
X37423Y-25442D01*
X37401Y-25464D01*
X37372Y-25489D01*
X37343Y-25511D01*
X37315Y-25531D01*
X37286Y-25547D01*
X37256Y-25560D01*
X37225Y-25571D01*
X37193Y-25580D01*
X37158Y-25587D01*
X37122Y-25591D01*
X37082Y-25593D01*
X37061Y-25594D01*
X37042Y-25595D01*
X37027Y-25595D01*
X37013Y-25594D01*
X37000Y-25593D01*
X36989Y-25592D01*
X36978Y-25590D01*
X36966Y-25587D01*
X36954Y-25583D01*
X36941Y-25579D01*
X36941Y-25579D01*
X36941Y-25579D01*
G37*
G36*
X38712Y-25041D02*
X38684Y-25030D01*
X38657Y-25014D01*
X38631Y-24993D01*
X38607Y-24969D01*
X38585Y-24941D01*
X38566Y-24910D01*
X38548Y-24876D01*
X38534Y-24841D01*
X38523Y-24804D01*
X38514Y-24766D01*
X38510Y-24727D01*
X38509Y-24689D01*
X38512Y-24651D01*
X38519Y-24613D01*
X38530Y-24578D01*
X38544Y-24547D01*
X38561Y-24520D01*
X38581Y-24496D01*
X38603Y-24477D01*
X38629Y-24461D01*
X38657Y-24450D01*
X38687Y-24443D01*
X38719Y-24441D01*
X38749Y-24443D01*
X38777Y-24450D01*
X38804Y-24460D01*
X38830Y-24474D01*
X38854Y-24491D01*
X38876Y-24512D01*
X38897Y-24535D01*
X38916Y-24560D01*
X38933Y-24588D01*
X38947Y-24618D01*
X38959Y-24650D01*
X38969Y-24683D01*
X38976Y-24717D01*
X38980Y-24752D01*
X38981Y-24787D01*
X38979Y-24823D01*
X38973Y-24859D01*
X38964Y-24894D01*
X38952Y-24928D01*
X38935Y-24957D01*
X38915Y-24984D01*
X38892Y-25006D01*
X38867Y-25024D01*
X38839Y-25037D01*
X38809Y-25046D01*
X38778Y-25049D01*
X38745Y-25048D01*
X38712Y-25041D01*
X38712Y-25041D01*
X38712Y-25041D01*
G37*
G36*
X37773Y-24864D02*
X37750Y-24854D01*
X37727Y-24840D01*
X37707Y-24823D01*
X37688Y-24803D01*
X37670Y-24780D01*
X37654Y-24754D01*
X37640Y-24726D01*
X37628Y-24695D01*
X37618Y-24661D01*
X37610Y-24625D01*
X37604Y-24583D01*
X37601Y-24542D01*
X37600Y-24501D01*
X37603Y-24461D01*
X37609Y-24423D01*
X37618Y-24386D01*
X37629Y-24352D01*
X37643Y-24320D01*
X37660Y-24290D01*
X37679Y-24264D01*
X37700Y-24240D01*
X37723Y-24221D01*
X37748Y-24205D01*
X37765Y-24198D01*
X37783Y-24192D01*
X37802Y-24188D01*
X37821Y-24186D01*
X37840Y-24185D01*
X37859Y-24186D01*
X37877Y-24189D01*
X37895Y-24193D01*
X37912Y-24199D01*
X37927Y-24207D01*
X37938Y-24214D01*
X37949Y-24222D01*
X37959Y-24231D01*
X37970Y-24240D01*
X37979Y-24250D01*
X37989Y-24261D01*
X37998Y-24273D01*
X38006Y-24285D01*
X38014Y-24297D01*
X38021Y-24310D01*
X38034Y-24336D01*
X38034Y-24336D01*
X38054Y-24309D01*
X38054Y-24309D01*
X38073Y-24287D01*
X38094Y-24270D01*
X38117Y-24255D01*
X38140Y-24245D01*
X38165Y-24239D01*
X38190Y-24237D01*
X38214Y-24239D01*
X38239Y-24245D01*
X38262Y-24255D01*
X38285Y-24269D01*
X38307Y-24290D01*
X38327Y-24315D01*
X38343Y-24343D01*
X38357Y-24374D01*
X38368Y-24408D01*
X38375Y-24444D01*
X38380Y-24481D01*
X38382Y-24518D01*
X38380Y-24556D01*
X38376Y-24593D01*
X38368Y-24628D01*
X38357Y-24661D01*
X38343Y-24692D01*
X38326Y-24720D01*
X38306Y-24744D01*
X38284Y-24764D01*
X38260Y-24779D01*
X38236Y-24789D01*
X38211Y-24796D01*
X38186Y-24797D01*
X38161Y-24795D01*
X38137Y-24788D01*
X38113Y-24777D01*
X38091Y-24761D01*
X38070Y-24741D01*
X38066Y-24737D01*
X38062Y-24733D01*
X38058Y-24729D01*
X38054Y-24726D01*
X38051Y-24722D01*
X38048Y-24720D01*
X38045Y-24718D01*
X38043Y-24716D01*
X38042Y-24715D01*
X38040Y-24715D01*
X38039Y-24715D01*
X38038Y-24716D01*
X38037Y-24718D01*
X38035Y-24720D01*
X38033Y-24723D01*
X38031Y-24726D01*
X38029Y-24730D01*
X38027Y-24734D01*
X38024Y-24738D01*
X38022Y-24743D01*
X38015Y-24756D01*
X38008Y-24769D01*
X38000Y-24781D01*
X37991Y-24793D01*
X37981Y-24804D01*
X37972Y-24815D01*
X37961Y-24825D01*
X37951Y-24834D01*
X37940Y-24842D01*
X37929Y-24849D01*
X37916Y-24855D01*
X37901Y-24861D01*
X37885Y-24866D01*
X37869Y-24869D01*
X37852Y-24871D01*
X37834Y-24873D01*
X37818Y-24872D01*
X37802Y-24871D01*
X37787Y-24868D01*
X37773Y-24864D01*
X37773Y-24864D01*
X37773Y-24864D01*
G37*
G36*
X15619Y-38083D02*
X15581Y-38078D01*
X15542Y-38071D01*
X15504Y-38065D01*
X15465Y-38057D01*
X15427Y-38050D01*
X15389Y-38041D01*
X15351Y-38033D01*
X15313Y-38023D01*
X15275Y-38013D01*
X15237Y-38003D01*
X15199Y-37992D01*
X15162Y-37980D01*
X15125Y-37968D01*
X15088Y-37956D01*
X15051Y-37943D01*
X15014Y-37930D01*
X14978Y-37916D01*
X14942Y-37901D01*
X14906Y-37886D01*
X14870Y-37871D01*
X14835Y-37855D01*
X14800Y-37839D01*
X14765Y-37822D01*
X14730Y-37805D01*
X14696Y-37787D01*
X14662Y-37769D01*
X14629Y-37751D01*
X14595Y-37732D01*
X14563Y-37712D01*
X14530Y-37693D01*
X14498Y-37672D01*
X14466Y-37652D01*
X14435Y-37631D01*
X14404Y-37609D01*
X14373Y-37587D01*
X14343Y-37565D01*
X14313Y-37542D01*
X14289Y-37523D01*
X14263Y-37501D01*
X14236Y-37476D01*
X14207Y-37450D01*
X14177Y-37421D01*
X14147Y-37392D01*
X14117Y-37362D01*
X14088Y-37331D01*
X14059Y-37301D01*
X14031Y-37270D01*
X14005Y-37241D01*
X13980Y-37213D01*
X13958Y-37186D01*
X13938Y-37161D01*
X13922Y-37138D01*
X13901Y-37108D01*
X13881Y-37076D01*
X13862Y-37044D01*
X13843Y-37012D01*
X13826Y-36979D01*
X13809Y-36945D01*
X13793Y-36912D01*
X13779Y-36877D01*
X13765Y-36842D01*
X13752Y-36807D01*
X13740Y-36771D01*
X13728Y-36735D01*
X13718Y-36699D01*
X13709Y-36662D01*
X13701Y-36625D01*
X13693Y-36588D01*
X13687Y-36551D01*
X13681Y-36513D01*
X13677Y-36475D01*
X13673Y-36437D01*
X13671Y-36399D01*
X13669Y-36360D01*
X13669Y-36322D01*
X13669Y-36288D01*
X13670Y-36254D01*
X13672Y-36220D01*
X13675Y-36187D01*
X13679Y-36154D01*
X13683Y-36120D01*
X13688Y-36087D01*
X13694Y-36055D01*
X13701Y-36022D01*
X13708Y-35990D01*
X13717Y-35957D01*
X13726Y-35926D01*
X13735Y-35894D01*
X13746Y-35862D01*
X13757Y-35831D01*
X13769Y-35800D01*
X13782Y-35769D01*
X13795Y-35738D01*
X13809Y-35708D01*
X13824Y-35678D01*
X13840Y-35648D01*
X13856Y-35618D01*
X13873Y-35589D01*
X13891Y-35560D01*
X13910Y-35531D01*
X13929Y-35502D01*
X13949Y-35474D01*
X13969Y-35446D01*
X13990Y-35418D01*
X14012Y-35391D01*
X14035Y-35364D01*
X14058Y-35337D01*
X14082Y-35311D01*
X14107Y-35284D01*
X14132Y-35259D01*
X14158Y-35233D01*
X14184Y-35208D01*
X14212Y-35183D01*
X14239Y-35158D01*
X14268Y-35134D01*
X14297Y-35111D01*
X14327Y-35087D01*
X14357Y-35064D01*
X14388Y-35041D01*
X14420Y-35019D01*
X14452Y-34997D01*
X14485Y-34975D01*
X14518Y-34954D01*
X14552Y-34933D01*
X14587Y-34913D01*
X14622Y-34893D01*
X14658Y-34873D01*
X14694Y-34854D01*
X14731Y-34835D01*
X14768Y-34817D01*
X14807Y-34799D01*
X14845Y-34782D01*
X14884Y-34765D01*
X14924Y-34748D01*
X14964Y-34732D01*
X15005Y-34716D01*
X15047Y-34701D01*
X15089Y-34686D01*
X15114Y-34678D01*
X15138Y-34670D01*
X15163Y-34662D01*
X15188Y-34655D01*
X15214Y-34648D01*
X15241Y-34641D01*
X15269Y-34634D01*
X15299Y-34627D01*
X15331Y-34620D01*
X15366Y-34613D01*
X15403Y-34606D01*
X15444Y-34598D01*
X15488Y-34590D01*
X15535Y-34582D01*
X15587Y-34573D01*
X15643Y-34564D01*
X15704Y-34554D01*
X15754Y-34545D01*
X15798Y-34538D01*
X15836Y-34532D01*
X15870Y-34528D01*
X15901Y-34524D01*
X15930Y-34521D01*
X15958Y-34518D01*
X15986Y-34517D01*
X16016Y-34516D01*
X16049Y-34516D01*
X16085Y-34516D01*
X16126Y-34516D01*
X16173Y-34517D01*
X16227Y-34518D01*
X16297Y-34520D01*
X16353Y-34521D01*
X16397Y-34521D01*
X16431Y-34521D01*
X16456Y-34521D01*
X16473Y-34519D01*
X16482Y-34517D01*
X16486Y-34514D01*
X16486Y-34510D01*
X16482Y-34505D01*
X16467Y-34486D01*
X16455Y-34466D01*
X16445Y-34445D01*
X16437Y-34423D01*
X16432Y-34401D01*
X16430Y-34378D01*
X16430Y-34356D01*
X16433Y-34334D01*
X16439Y-34312D01*
X16447Y-34291D01*
X16462Y-34265D01*
X16480Y-34242D01*
X16502Y-34220D01*
X16526Y-34201D01*
X16554Y-34184D01*
X16583Y-34169D01*
X16615Y-34156D01*
X16649Y-34146D01*
X16683Y-34138D01*
X16719Y-34132D01*
X16755Y-34129D01*
X16792Y-34128D01*
X16829Y-34129D01*
X16865Y-34134D01*
X16900Y-34140D01*
X16935Y-34150D01*
X16968Y-34162D01*
X16999Y-34176D01*
X17028Y-34194D01*
X17055Y-34214D01*
X17081Y-34239D01*
X17102Y-34265D01*
X17118Y-34292D01*
X17129Y-34320D01*
X17135Y-34348D01*
X17137Y-34375D01*
X17133Y-34403D01*
X17125Y-34431D01*
X17113Y-34458D01*
X17096Y-34484D01*
X17074Y-34509D01*
X17048Y-34532D01*
X17017Y-34554D01*
X16982Y-34575D01*
X16948Y-34592D01*
X16948Y-34592D01*
X16999Y-34605D01*
X16999Y-34605D01*
X17050Y-34618D01*
X17099Y-34631D01*
X17146Y-34645D01*
X17192Y-34658D01*
X17237Y-34671D01*
X17280Y-34685D01*
X17322Y-34698D01*
X17362Y-34712D01*
X17400Y-34725D01*
X17437Y-34739D01*
X17472Y-34753D01*
X17506Y-34766D01*
X17538Y-34780D01*
X17568Y-34794D01*
X17597Y-34808D01*
X17624Y-34821D01*
X17649Y-34835D01*
X17673Y-34849D01*
X17695Y-34862D01*
X17714Y-34876D01*
X17746Y-34899D01*
X17777Y-34922D01*
X17807Y-34946D01*
X17837Y-34969D01*
X17866Y-34993D01*
X17894Y-35017D01*
X17922Y-35042D01*
X17949Y-35067D01*
X17976Y-35091D01*
X18001Y-35117D01*
X18027Y-35142D01*
X18051Y-35168D01*
X18075Y-35195D01*
X18099Y-35221D01*
X18121Y-35248D01*
X18144Y-35276D01*
X18165Y-35304D01*
X18186Y-35332D01*
X18207Y-35360D01*
X18227Y-35389D01*
X18246Y-35419D01*
X18265Y-35449D01*
X18284Y-35479D01*
X18301Y-35510D01*
X18319Y-35542D01*
X18336Y-35573D01*
X18352Y-35606D01*
X18368Y-35639D01*
X18383Y-35672D01*
X18398Y-35706D01*
X18412Y-35741D01*
X18426Y-35776D01*
X18440Y-35812D01*
X18453Y-35848D01*
X18465Y-35885D01*
X18478Y-35923D01*
X18489Y-35961D01*
X18501Y-36000D01*
X18512Y-36040D01*
X18522Y-36080D01*
X18532Y-36121D01*
X18542Y-36163D01*
X18551Y-36205D01*
X18560Y-36248D01*
X18569Y-36292D01*
X18577Y-36337D01*
X18585Y-36382D01*
X18593Y-36432D01*
X18600Y-36475D01*
X18605Y-36514D01*
X18610Y-36549D01*
X18613Y-36580D01*
X18615Y-36610D01*
X18617Y-36639D01*
X18617Y-36669D01*
X18617Y-36699D01*
X18616Y-36732D01*
X18615Y-36767D01*
X18614Y-36796D01*
X18612Y-36821D01*
X18610Y-36842D01*
X18607Y-36860D01*
X18603Y-36877D01*
X18599Y-36893D01*
X18593Y-36909D01*
X18585Y-36927D01*
X18576Y-36946D01*
X18562Y-36975D01*
X18546Y-37004D01*
X18530Y-37033D01*
X18512Y-37062D01*
X18493Y-37092D01*
X18473Y-37121D01*
X18452Y-37151D01*
X18429Y-37181D01*
X18406Y-37210D01*
X18382Y-37240D01*
X18357Y-37269D01*
X18331Y-37299D01*
X18304Y-37328D01*
X18276Y-37357D01*
X18248Y-37386D01*
X18219Y-37414D01*
X18189Y-37442D01*
X18159Y-37470D01*
X18128Y-37497D01*
X18097Y-37524D01*
X18065Y-37550D01*
X18033Y-37576D01*
X18000Y-37601D01*
X17967Y-37625D01*
X17934Y-37649D01*
X17901Y-37672D01*
X17867Y-37694D01*
X17833Y-37716D01*
X17800Y-37736D01*
X17766Y-37756D01*
X17732Y-37774D01*
X17698Y-37792D01*
X17670Y-37806D01*
X17636Y-37821D01*
X17597Y-37838D01*
X17555Y-37856D01*
X17511Y-37875D01*
X17466Y-37893D01*
X17422Y-37911D01*
X17379Y-37928D01*
X17339Y-37943D01*
X17303Y-37956D01*
X17273Y-37967D01*
X17249Y-37974D01*
X17234Y-37978D01*
X17220Y-37980D01*
X17207Y-37980D01*
X17195Y-37979D01*
X17184Y-37975D01*
X17172Y-37969D01*
X17159Y-37959D01*
X17145Y-37945D01*
X17128Y-37928D01*
X17107Y-37906D01*
X17083Y-37879D01*
X17054Y-37847D01*
X17024Y-37817D01*
X16994Y-37789D01*
X16963Y-37763D01*
X16932Y-37739D01*
X16900Y-37717D01*
X16868Y-37698D01*
X16836Y-37680D01*
X16804Y-37665D01*
X16771Y-37651D01*
X16738Y-37640D01*
X16705Y-37631D01*
X16672Y-37624D01*
X16638Y-37620D01*
X16605Y-37617D01*
X16572Y-37617D01*
X16538Y-37619D01*
X16505Y-37623D01*
X16472Y-37630D01*
X16439Y-37639D01*
X16404Y-37650D01*
X16371Y-37662D01*
X16338Y-37676D01*
X16307Y-37692D01*
X16277Y-37708D01*
X16248Y-37726D01*
X16219Y-37746D01*
X16192Y-37768D01*
X16164Y-37792D01*
X16137Y-37817D01*
X16111Y-37844D01*
X16084Y-37874D01*
X16058Y-37906D01*
X16032Y-37940D01*
X16005Y-37976D01*
X15913Y-38107D01*
X15913Y-38107D01*
X15843Y-38106D01*
X15843Y-38106D01*
X15830Y-38105D01*
X15813Y-38104D01*
X15794Y-38103D01*
X15772Y-38101D01*
X15748Y-38099D01*
X15723Y-38096D01*
X15698Y-38093D01*
X15671Y-38090D01*
X15645Y-38087D01*
X15619Y-38083D01*
X15619Y-38083D01*
X15619Y-38083D01*
G37*
G36*
X13285Y-35298D02*
X13253Y-35286D01*
X13221Y-35273D01*
X13189Y-35258D01*
X13159Y-35241D01*
X13129Y-35223D01*
X13100Y-35204D01*
X13072Y-35184D01*
X13044Y-35162D01*
X13018Y-35138D01*
X12992Y-35114D01*
X12968Y-35088D01*
X12944Y-35061D01*
X12922Y-35033D01*
X12900Y-35004D01*
X12880Y-34974D01*
X12860Y-34942D01*
X12842Y-34910D01*
X12825Y-34877D01*
X12809Y-34842D01*
X12794Y-34807D01*
X12781Y-34771D01*
X12768Y-34734D01*
X12757Y-34697D01*
X12748Y-34658D01*
X12739Y-34619D01*
X12732Y-34580D01*
X12728Y-34549D01*
X12726Y-34514D01*
X12724Y-34477D01*
X12724Y-34438D01*
X12725Y-34397D01*
X12727Y-34356D01*
X12729Y-34315D01*
X12733Y-34275D01*
X12738Y-34236D01*
X12744Y-34200D01*
X12750Y-34167D01*
X12757Y-34138D01*
X12769Y-34099D01*
X12783Y-34061D01*
X12797Y-34024D01*
X12813Y-33988D01*
X12830Y-33953D01*
X12848Y-33919D01*
X12868Y-33887D01*
X12888Y-33855D01*
X12910Y-33825D01*
X12933Y-33796D01*
X12957Y-33768D01*
X12982Y-33742D01*
X13008Y-33717D01*
X13035Y-33693D01*
X13063Y-33671D01*
X13092Y-33650D01*
X13122Y-33631D01*
X13153Y-33613D01*
X13184Y-33596D01*
X13218Y-33581D01*
X13253Y-33567D01*
X13287Y-33555D01*
X13322Y-33545D01*
X13357Y-33537D01*
X13392Y-33531D01*
X13427Y-33526D01*
X13461Y-33524D01*
X13496Y-33523D01*
X13531Y-33524D01*
X13566Y-33527D01*
X13600Y-33532D01*
X13634Y-33538D01*
X13668Y-33547D01*
X13702Y-33557D01*
X13735Y-33569D01*
X13768Y-33583D01*
X13800Y-33598D01*
X13832Y-33616D01*
X13864Y-33635D01*
X13895Y-33656D01*
X13925Y-33679D01*
X13950Y-33699D01*
X13975Y-33723D01*
X13999Y-33748D01*
X14023Y-33775D01*
X14046Y-33804D01*
X14068Y-33835D01*
X14089Y-33867D01*
X14110Y-33900D01*
X14129Y-33935D01*
X14148Y-33970D01*
X14165Y-34007D01*
X14180Y-34043D01*
X14195Y-34080D01*
X14207Y-34118D01*
X14218Y-34155D01*
X14225Y-34184D01*
X14231Y-34216D01*
X14235Y-34251D01*
X14239Y-34288D01*
X14242Y-34328D01*
X14244Y-34368D01*
X14245Y-34409D01*
X14245Y-34450D01*
X14244Y-34491D01*
X14242Y-34530D01*
X14239Y-34568D01*
X14235Y-34604D01*
X14230Y-34637D01*
X14224Y-34667D01*
X14214Y-34706D01*
X14202Y-34744D01*
X14190Y-34782D01*
X14175Y-34819D01*
X14160Y-34856D01*
X14143Y-34891D01*
X14125Y-34926D01*
X14106Y-34959D01*
X14087Y-34991D01*
X14066Y-35021D01*
X14044Y-35050D01*
X14022Y-35077D01*
X13999Y-35102D01*
X13975Y-35125D01*
X13944Y-35153D01*
X13913Y-35178D01*
X13883Y-35201D01*
X13852Y-35221D01*
X13821Y-35240D01*
X13790Y-35256D01*
X13758Y-35270D01*
X13725Y-35282D01*
X13691Y-35293D01*
X13656Y-35301D01*
X13619Y-35308D01*
X13581Y-35313D01*
X13540Y-35317D01*
X13498Y-35320D01*
X13466Y-35321D01*
X13438Y-35321D01*
X13414Y-35321D01*
X13394Y-35321D01*
X13375Y-35319D01*
X13358Y-35317D01*
X13341Y-35314D01*
X13324Y-35310D01*
X13306Y-35304D01*
X13285Y-35298D01*
X13285Y-35298D01*
X13285Y-35298D01*
G37*
G36*
X15942Y-34491D02*
X15915Y-34481D01*
X15888Y-34468D01*
X15861Y-34452D01*
X15836Y-34432D01*
X15812Y-34411D01*
X15789Y-34386D01*
X15767Y-34360D01*
X15746Y-34331D01*
X15727Y-34301D01*
X15709Y-34269D01*
X15693Y-34236D01*
X15679Y-34201D01*
X15667Y-34166D01*
X15657Y-34129D01*
X15648Y-34092D01*
X15642Y-34055D01*
X15639Y-34017D01*
X15637Y-33980D01*
X15639Y-33943D01*
X15642Y-33906D01*
X15650Y-33864D01*
X15660Y-33826D01*
X15672Y-33789D01*
X15687Y-33756D01*
X15704Y-33726D01*
X15724Y-33698D01*
X15745Y-33673D01*
X15769Y-33652D01*
X15795Y-33634D01*
X15823Y-33618D01*
X15853Y-33606D01*
X15885Y-33598D01*
X15918Y-33593D01*
X15953Y-33591D01*
X15984Y-33593D01*
X16014Y-33597D01*
X16043Y-33605D01*
X16071Y-33615D01*
X16098Y-33628D01*
X16124Y-33644D01*
X16149Y-33662D01*
X16173Y-33682D01*
X16196Y-33704D01*
X16218Y-33729D01*
X16238Y-33755D01*
X16256Y-33783D01*
X16273Y-33812D01*
X16289Y-33843D01*
X16302Y-33875D01*
X16314Y-33908D01*
X16324Y-33942D01*
X16333Y-33977D01*
X16339Y-34012D01*
X16343Y-34049D01*
X16345Y-34085D01*
X16345Y-34122D01*
X16343Y-34159D01*
X16338Y-34197D01*
X16331Y-34234D01*
X16321Y-34270D01*
X16308Y-34307D01*
X16292Y-34341D01*
X16273Y-34372D01*
X16252Y-34400D01*
X16228Y-34425D01*
X16202Y-34446D01*
X16174Y-34465D01*
X16145Y-34480D01*
X16113Y-34491D01*
X16081Y-34499D01*
X16047Y-34503D01*
X16013Y-34503D01*
X15978Y-34499D01*
X15942Y-34491D01*
X15942Y-34491D01*
X15942Y-34491D01*
G37*
G36*
X14534Y-34226D02*
X14507Y-34214D01*
X14481Y-34199D01*
X14456Y-34181D01*
X14432Y-34161D01*
X14410Y-34138D01*
X14389Y-34113D01*
X14370Y-34085D01*
X14352Y-34054D01*
X14336Y-34021D01*
X14322Y-33986D01*
X14309Y-33949D01*
X14299Y-33909D01*
X14289Y-33868D01*
X14283Y-33826D01*
X14278Y-33786D01*
X14275Y-33745D01*
X14274Y-33705D01*
X14276Y-33666D01*
X14279Y-33627D01*
X14284Y-33589D01*
X14290Y-33552D01*
X14299Y-33517D01*
X14309Y-33482D01*
X14321Y-33449D01*
X14335Y-33418D01*
X14350Y-33388D01*
X14367Y-33360D01*
X14385Y-33334D01*
X14404Y-33310D01*
X14426Y-33288D01*
X14448Y-33269D01*
X14472Y-33252D01*
X14497Y-33237D01*
X14522Y-33226D01*
X14549Y-33217D01*
X14577Y-33211D01*
X14605Y-33208D01*
X14634Y-33207D01*
X14663Y-33208D01*
X14690Y-33213D01*
X14717Y-33219D01*
X14742Y-33228D01*
X14765Y-33240D01*
X14782Y-33250D01*
X14798Y-33262D01*
X14813Y-33275D01*
X14829Y-33290D01*
X14843Y-33305D01*
X14857Y-33321D01*
X14871Y-33339D01*
X14883Y-33357D01*
X14895Y-33376D01*
X14905Y-33395D01*
X14925Y-33433D01*
X14925Y-33433D01*
X14955Y-33393D01*
X14955Y-33393D01*
X14979Y-33366D01*
X15005Y-33342D01*
X15032Y-33322D01*
X15061Y-33307D01*
X15091Y-33295D01*
X15122Y-33288D01*
X15153Y-33285D01*
X15184Y-33286D01*
X15214Y-33291D01*
X15244Y-33301D01*
X15274Y-33315D01*
X15302Y-33333D01*
X15324Y-33353D01*
X15345Y-33375D01*
X15363Y-33400D01*
X15380Y-33427D01*
X15395Y-33456D01*
X15408Y-33487D01*
X15419Y-33519D01*
X15429Y-33553D01*
X15436Y-33588D01*
X15441Y-33624D01*
X15445Y-33661D01*
X15447Y-33697D01*
X15446Y-33734D01*
X15444Y-33770D01*
X15440Y-33806D01*
X15433Y-33842D01*
X15425Y-33876D01*
X15415Y-33909D01*
X15403Y-33940D01*
X15388Y-33970D01*
X15372Y-33998D01*
X15354Y-34023D01*
X15333Y-34046D01*
X15305Y-34071D01*
X15276Y-34091D01*
X15246Y-34106D01*
X15216Y-34117D01*
X15184Y-34124D01*
X15153Y-34126D01*
X15122Y-34123D01*
X15091Y-34116D01*
X15061Y-34104D01*
X15032Y-34087D01*
X15005Y-34067D01*
X14979Y-34041D01*
X14973Y-34035D01*
X14967Y-34029D01*
X14961Y-34023D01*
X14956Y-34018D01*
X14951Y-34013D01*
X14946Y-34009D01*
X14942Y-34006D01*
X14939Y-34003D01*
X14937Y-34002D01*
X14935Y-34001D01*
X14933Y-34002D01*
X14932Y-34004D01*
X14929Y-34006D01*
X14927Y-34010D01*
X14924Y-34014D01*
X14921Y-34019D01*
X14917Y-34024D01*
X14914Y-34030D01*
X14911Y-34037D01*
X14907Y-34044D01*
X14897Y-34064D01*
X14886Y-34083D01*
X14874Y-34101D01*
X14860Y-34119D01*
X14846Y-34136D01*
X14832Y-34152D01*
X14816Y-34167D01*
X14800Y-34180D01*
X14784Y-34192D01*
X14768Y-34202D01*
X14748Y-34213D01*
X14726Y-34221D01*
X14702Y-34228D01*
X14677Y-34233D01*
X14652Y-34236D01*
X14626Y-34238D01*
X14601Y-34238D01*
X14577Y-34236D01*
X14555Y-34232D01*
X14534Y-34226D01*
X14534Y-34226D01*
X14534Y-34226D01*
G37*
G36*
X15226Y-27768D02*
X15187Y-27763D01*
X15148Y-27757D01*
X15110Y-27750D01*
X15071Y-27743D01*
X15033Y-27735D01*
X14995Y-27726D01*
X14957Y-27718D01*
X14919Y-27708D01*
X14881Y-27698D01*
X14843Y-27688D01*
X14806Y-27677D01*
X14768Y-27665D01*
X14731Y-27654D01*
X14694Y-27641D01*
X14657Y-27628D01*
X14621Y-27615D01*
X14584Y-27601D01*
X14548Y-27586D01*
X14512Y-27571D01*
X14477Y-27556D01*
X14441Y-27540D01*
X14406Y-27524D01*
X14371Y-27507D01*
X14337Y-27490D01*
X14303Y-27472D01*
X14269Y-27454D01*
X14235Y-27436D01*
X14202Y-27417D01*
X14169Y-27397D01*
X14136Y-27378D01*
X14104Y-27357D01*
X14072Y-27337D01*
X14041Y-27316D01*
X14010Y-27294D01*
X13979Y-27272D01*
X13949Y-27250D01*
X13919Y-27227D01*
X13895Y-27208D01*
X13869Y-27186D01*
X13842Y-27161D01*
X13813Y-27135D01*
X13784Y-27107D01*
X13754Y-27077D01*
X13724Y-27047D01*
X13694Y-27016D01*
X13665Y-26986D01*
X13637Y-26956D01*
X13611Y-26926D01*
X13586Y-26898D01*
X13564Y-26871D01*
X13545Y-26846D01*
X13528Y-26823D01*
X13507Y-26793D01*
X13487Y-26761D01*
X13468Y-26729D01*
X13450Y-26697D01*
X13432Y-26664D01*
X13415Y-26631D01*
X13400Y-26597D01*
X13385Y-26562D01*
X13371Y-26527D01*
X13358Y-26492D01*
X13346Y-26456D01*
X13335Y-26420D01*
X13325Y-26384D01*
X13315Y-26347D01*
X13307Y-26310D01*
X13300Y-26273D01*
X13293Y-26236D01*
X13288Y-26198D01*
X13283Y-26160D01*
X13280Y-26122D01*
X13277Y-26084D01*
X13276Y-26045D01*
X13275Y-26007D01*
X13276Y-25973D01*
X13277Y-25939D01*
X13279Y-25905D01*
X13282Y-25872D01*
X13285Y-25839D01*
X13289Y-25805D01*
X13295Y-25772D01*
X13301Y-25740D01*
X13307Y-25707D01*
X13315Y-25675D01*
X13323Y-25643D01*
X13332Y-25611D01*
X13342Y-25579D01*
X13352Y-25547D01*
X13363Y-25516D01*
X13375Y-25485D01*
X13388Y-25454D01*
X13402Y-25423D01*
X13416Y-25393D01*
X13431Y-25363D01*
X13446Y-25333D01*
X13463Y-25303D01*
X13480Y-25274D01*
X13497Y-25245D01*
X13516Y-25216D01*
X13535Y-25187D01*
X13555Y-25159D01*
X13575Y-25131D01*
X13597Y-25103D01*
X13619Y-25076D01*
X13641Y-25049D01*
X13664Y-25022D01*
X13688Y-24996D01*
X13713Y-24969D01*
X13738Y-24944D01*
X13764Y-24918D01*
X13791Y-24893D01*
X13818Y-24868D01*
X13846Y-24844D01*
X13874Y-24819D01*
X13903Y-24796D01*
X13933Y-24772D01*
X13963Y-24749D01*
X13994Y-24726D01*
X14026Y-24704D01*
X14058Y-24682D01*
X14091Y-24660D01*
X14124Y-24639D01*
X14158Y-24618D01*
X14193Y-24598D01*
X14228Y-24578D01*
X14264Y-24558D01*
X14300Y-24539D01*
X14337Y-24520D01*
X14375Y-24502D01*
X14413Y-24484D01*
X14451Y-24467D01*
X14491Y-24450D01*
X14530Y-24433D01*
X14571Y-24417D01*
X14612Y-24401D01*
X14653Y-24386D01*
X14695Y-24371D01*
X14720Y-24363D01*
X14745Y-24355D01*
X14769Y-24347D01*
X14795Y-24340D01*
X14820Y-24333D01*
X14847Y-24326D01*
X14876Y-24319D01*
X14906Y-24312D01*
X14938Y-24305D01*
X14972Y-24298D01*
X15010Y-24291D01*
X15050Y-24283D01*
X15094Y-24275D01*
X15142Y-24267D01*
X15193Y-24258D01*
X15250Y-24249D01*
X15311Y-24239D01*
X15361Y-24230D01*
X15404Y-24223D01*
X15443Y-24217D01*
X15476Y-24213D01*
X15507Y-24209D01*
X15536Y-24206D01*
X15564Y-24203D01*
X15593Y-24202D01*
X15622Y-24201D01*
X15655Y-24201D01*
X15691Y-24201D01*
X15732Y-24201D01*
X15779Y-24202D01*
X15834Y-24203D01*
X15903Y-24205D01*
X15959Y-24206D01*
X16004Y-24207D01*
X16038Y-24206D01*
X16062Y-24206D01*
X16079Y-24204D01*
X16088Y-24202D01*
X16093Y-24199D01*
X16092Y-24195D01*
X16089Y-24190D01*
X16074Y-24171D01*
X16061Y-24151D01*
X16051Y-24130D01*
X16044Y-24108D01*
X16039Y-24086D01*
X16036Y-24063D01*
X16036Y-24041D01*
X16039Y-24019D01*
X16045Y-23997D01*
X16053Y-23976D01*
X16068Y-23950D01*
X16086Y-23927D01*
X16108Y-23905D01*
X16133Y-23886D01*
X16160Y-23869D01*
X16190Y-23854D01*
X16221Y-23841D01*
X16255Y-23831D01*
X16290Y-23823D01*
X16325Y-23817D01*
X16362Y-23814D01*
X16398Y-23813D01*
X16435Y-23814D01*
X16471Y-23819D01*
X16507Y-23825D01*
X16541Y-23835D01*
X16574Y-23847D01*
X16605Y-23862D01*
X16634Y-23879D01*
X16661Y-23899D01*
X16687Y-23924D01*
X16708Y-23950D01*
X16724Y-23977D01*
X16735Y-24005D01*
X16741Y-24033D01*
X16743Y-24061D01*
X16740Y-24088D01*
X16732Y-24116D01*
X16719Y-24143D01*
X16702Y-24169D01*
X16680Y-24194D01*
X16654Y-24217D01*
X16623Y-24239D01*
X16588Y-24260D01*
X16554Y-24277D01*
X16554Y-24277D01*
X16605Y-24290D01*
X16605Y-24290D01*
X16656Y-24303D01*
X16705Y-24316D01*
X16753Y-24330D01*
X16799Y-24343D01*
X16843Y-24356D01*
X16887Y-24370D01*
X16928Y-24383D01*
X16968Y-24397D01*
X17007Y-24410D01*
X17044Y-24424D01*
X17079Y-24438D01*
X17112Y-24451D01*
X17144Y-24465D01*
X17175Y-24479D01*
X17203Y-24493D01*
X17230Y-24506D01*
X17256Y-24520D01*
X17279Y-24534D01*
X17301Y-24547D01*
X17321Y-24561D01*
X17352Y-24584D01*
X17383Y-24607D01*
X17414Y-24631D01*
X17443Y-24654D01*
X17472Y-24678D01*
X17501Y-24702D01*
X17528Y-24727D01*
X17555Y-24752D01*
X17582Y-24777D01*
X17608Y-24802D01*
X17633Y-24827D01*
X17657Y-24853D01*
X17681Y-24880D01*
X17705Y-24906D01*
X17728Y-24933D01*
X17750Y-24961D01*
X17771Y-24989D01*
X17793Y-25017D01*
X17813Y-25045D01*
X17833Y-25074D01*
X17853Y-25104D01*
X17871Y-25134D01*
X17890Y-25164D01*
X17908Y-25195D01*
X17925Y-25227D01*
X17942Y-25258D01*
X17958Y-25291D01*
X17974Y-25324D01*
X17989Y-25357D01*
X18004Y-25391D01*
X18019Y-25426D01*
X18033Y-25461D01*
X18046Y-25497D01*
X18059Y-25533D01*
X18072Y-25570D01*
X18084Y-25608D01*
X18096Y-25646D01*
X18107Y-25685D01*
X18118Y-25725D01*
X18128Y-25765D01*
X18138Y-25806D01*
X18148Y-25848D01*
X18157Y-25890D01*
X18166Y-25933D01*
X18175Y-25977D01*
X18183Y-26022D01*
X18191Y-26067D01*
X18199Y-26117D01*
X18206Y-26160D01*
X18212Y-26199D01*
X18216Y-26234D01*
X18219Y-26265D01*
X18221Y-26295D01*
X18223Y-26325D01*
X18223Y-26354D01*
X18223Y-26384D01*
X18223Y-26417D01*
X18221Y-26452D01*
X18220Y-26481D01*
X18219Y-26506D01*
X18216Y-26527D01*
X18214Y-26545D01*
X18210Y-26562D01*
X18205Y-26578D01*
X18199Y-26594D01*
X18191Y-26612D01*
X18182Y-26631D01*
X18168Y-26660D01*
X18153Y-26689D01*
X18136Y-26718D01*
X18118Y-26747D01*
X18099Y-26777D01*
X18079Y-26806D01*
X18058Y-26836D01*
X18036Y-26866D01*
X18012Y-26895D01*
X17988Y-26925D01*
X17963Y-26954D01*
X17937Y-26984D01*
X17910Y-27013D01*
X17882Y-27042D01*
X17854Y-27071D01*
X17825Y-27099D01*
X17795Y-27127D01*
X17765Y-27155D01*
X17734Y-27182D01*
X17703Y-27209D01*
X17671Y-27235D01*
X17639Y-27261D01*
X17607Y-27286D01*
X17574Y-27310D01*
X17541Y-27334D01*
X17507Y-27357D01*
X17473Y-27379D01*
X17440Y-27401D01*
X17406Y-27421D01*
X17372Y-27441D01*
X17338Y-27459D01*
X17304Y-27477D01*
X17276Y-27491D01*
X17242Y-27506D01*
X17204Y-27523D01*
X17162Y-27541D01*
X17118Y-27560D01*
X17073Y-27578D01*
X17028Y-27596D01*
X16985Y-27613D01*
X16945Y-27628D01*
X16909Y-27641D01*
X16879Y-27652D01*
X16856Y-27659D01*
X16840Y-27663D01*
X16826Y-27665D01*
X16813Y-27665D01*
X16802Y-27664D01*
X16790Y-27660D01*
X16779Y-27654D01*
X16766Y-27644D01*
X16751Y-27630D01*
X16734Y-27613D01*
X16714Y-27591D01*
X16690Y-27564D01*
X16660Y-27532D01*
X16630Y-27502D01*
X16600Y-27474D01*
X16569Y-27448D01*
X16538Y-27424D01*
X16507Y-27402D01*
X16475Y-27383D01*
X16442Y-27365D01*
X16410Y-27350D01*
X16377Y-27336D01*
X16344Y-27325D01*
X16311Y-27316D01*
X16278Y-27309D01*
X16245Y-27305D01*
X16211Y-27302D01*
X16178Y-27302D01*
X16144Y-27304D01*
X16111Y-27308D01*
X16078Y-27315D01*
X16045Y-27324D01*
X16010Y-27335D01*
X15977Y-27348D01*
X15945Y-27361D01*
X15914Y-27377D01*
X15883Y-27393D01*
X15854Y-27411D01*
X15826Y-27431D01*
X15798Y-27453D01*
X15771Y-27477D01*
X15744Y-27502D01*
X15717Y-27530D01*
X15691Y-27559D01*
X15664Y-27591D01*
X15638Y-27625D01*
X15612Y-27661D01*
X15519Y-27792D01*
X15519Y-27792D01*
X15449Y-27791D01*
X15449Y-27791D01*
X15436Y-27790D01*
X15419Y-27789D01*
X15400Y-27788D01*
X15378Y-27786D01*
X15355Y-27784D01*
X15330Y-27781D01*
X15304Y-27778D01*
X15278Y-27775D01*
X15251Y-27772D01*
X15226Y-27768D01*
X15226Y-27768D01*
X15226Y-27768D01*
G37*
G36*
X12892Y-24983D02*
X12859Y-24971D01*
X12827Y-24958D01*
X12796Y-24943D01*
X12765Y-24926D01*
X12735Y-24908D01*
X12706Y-24889D01*
X12678Y-24869D01*
X12651Y-24847D01*
X12624Y-24823D01*
X12599Y-24799D01*
X12574Y-24773D01*
X12551Y-24746D01*
X12528Y-24718D01*
X12507Y-24689D01*
X12486Y-24659D01*
X12467Y-24627D01*
X12448Y-24595D01*
X12431Y-24562D01*
X12415Y-24527D01*
X12400Y-24492D01*
X12387Y-24456D01*
X12375Y-24419D01*
X12364Y-24382D01*
X12354Y-24343D01*
X12346Y-24304D01*
X12339Y-24265D01*
X12335Y-24234D01*
X12332Y-24199D01*
X12331Y-24162D01*
X12330Y-24123D01*
X12331Y-24082D01*
X12333Y-24041D01*
X12336Y-24000D01*
X12339Y-23960D01*
X12344Y-23921D01*
X12350Y-23885D01*
X12356Y-23852D01*
X12364Y-23823D01*
X12376Y-23784D01*
X12389Y-23746D01*
X12404Y-23709D01*
X12419Y-23673D01*
X12437Y-23638D01*
X12455Y-23604D01*
X12474Y-23572D01*
X12495Y-23540D01*
X12516Y-23510D01*
X12539Y-23481D01*
X12563Y-23453D01*
X12588Y-23427D01*
X12614Y-23402D01*
X12641Y-23378D01*
X12669Y-23356D01*
X12698Y-23335D01*
X12728Y-23316D01*
X12759Y-23298D01*
X12791Y-23282D01*
X12825Y-23266D01*
X12859Y-23252D01*
X12894Y-23240D01*
X12928Y-23230D01*
X12963Y-23222D01*
X12998Y-23216D01*
X13033Y-23212D01*
X13068Y-23209D01*
X13103Y-23208D01*
X13137Y-23209D01*
X13172Y-23212D01*
X13206Y-23217D01*
X13240Y-23223D01*
X13274Y-23232D01*
X13308Y-23242D01*
X13341Y-23254D01*
X13374Y-23268D01*
X13406Y-23283D01*
X13438Y-23301D01*
X13470Y-23320D01*
X13501Y-23341D01*
X13531Y-23364D01*
X13556Y-23385D01*
X13581Y-23408D01*
X13605Y-23433D01*
X13629Y-23460D01*
X13652Y-23489D01*
X13674Y-23520D01*
X13696Y-23552D01*
X13716Y-23585D01*
X13736Y-23620D01*
X13754Y-23655D01*
X13771Y-23692D01*
X13787Y-23728D01*
X13801Y-23765D01*
X13813Y-23803D01*
X13824Y-23840D01*
X13831Y-23869D01*
X13837Y-23901D01*
X13842Y-23936D01*
X13845Y-23973D01*
X13848Y-24013D01*
X13850Y-24053D01*
X13851Y-24094D01*
X13851Y-24135D01*
X13850Y-24176D01*
X13848Y-24215D01*
X13845Y-24253D01*
X13841Y-24289D01*
X13836Y-24322D01*
X13830Y-24352D01*
X13820Y-24391D01*
X13809Y-24429D01*
X13796Y-24467D01*
X13782Y-24504D01*
X13766Y-24541D01*
X13749Y-24576D01*
X13732Y-24611D01*
X13713Y-24644D01*
X13693Y-24676D01*
X13672Y-24706D01*
X13650Y-24735D01*
X13628Y-24762D01*
X13605Y-24787D01*
X13582Y-24810D01*
X13550Y-24838D01*
X13520Y-24863D01*
X13489Y-24886D01*
X13459Y-24906D01*
X13428Y-24925D01*
X13396Y-24941D01*
X13365Y-24955D01*
X13332Y-24967D01*
X13298Y-24978D01*
X13263Y-24986D01*
X13226Y-24993D01*
X13187Y-24998D01*
X13147Y-25002D01*
X13104Y-25005D01*
X13072Y-25006D01*
X13044Y-25006D01*
X13021Y-25006D01*
X13000Y-25006D01*
X12981Y-25004D01*
X12964Y-25002D01*
X12947Y-24999D01*
X12930Y-24995D01*
X12912Y-24989D01*
X12892Y-24983D01*
X12892Y-24983D01*
X12892Y-24983D01*
G37*
G36*
X15549Y-24176D02*
X15521Y-24166D01*
X15494Y-24153D01*
X15468Y-24137D01*
X15442Y-24118D01*
X15418Y-24096D01*
X15395Y-24072D01*
X15373Y-24045D01*
X15352Y-24017D01*
X15333Y-23986D01*
X15316Y-23954D01*
X15300Y-23921D01*
X15285Y-23886D01*
X15273Y-23851D01*
X15263Y-23814D01*
X15255Y-23777D01*
X15249Y-23740D01*
X15245Y-23702D01*
X15244Y-23665D01*
X15245Y-23628D01*
X15249Y-23591D01*
X15256Y-23549D01*
X15266Y-23511D01*
X15278Y-23474D01*
X15293Y-23441D01*
X15310Y-23411D01*
X15330Y-23383D01*
X15352Y-23359D01*
X15375Y-23337D01*
X15401Y-23319D01*
X15429Y-23303D01*
X15459Y-23292D01*
X15491Y-23283D01*
X15524Y-23278D01*
X15560Y-23276D01*
X15590Y-23278D01*
X15620Y-23282D01*
X15649Y-23290D01*
X15677Y-23300D01*
X15704Y-23313D01*
X15731Y-23329D01*
X15756Y-23347D01*
X15780Y-23367D01*
X15802Y-23389D01*
X15824Y-23414D01*
X15844Y-23440D01*
X15862Y-23468D01*
X15880Y-23497D01*
X15895Y-23528D01*
X15909Y-23560D01*
X15921Y-23593D01*
X15931Y-23627D01*
X15939Y-23662D01*
X15945Y-23697D01*
X15949Y-23734D01*
X15952Y-23770D01*
X15951Y-23807D01*
X15949Y-23844D01*
X15944Y-23882D01*
X15937Y-23919D01*
X15927Y-23955D01*
X15914Y-23992D01*
X15898Y-24026D01*
X15879Y-24057D01*
X15858Y-24085D01*
X15834Y-24110D01*
X15808Y-24131D01*
X15780Y-24150D01*
X15751Y-24165D01*
X15720Y-24176D01*
X15687Y-24184D01*
X15654Y-24188D01*
X15619Y-24188D01*
X15584Y-24184D01*
X15549Y-24176D01*
X15549Y-24176D01*
X15549Y-24176D01*
G37*
G36*
X14141Y-23911D02*
X14113Y-23899D01*
X14087Y-23884D01*
X14062Y-23867D01*
X14038Y-23846D01*
X14016Y-23823D01*
X13995Y-23798D01*
X13976Y-23770D01*
X13959Y-23739D01*
X13943Y-23706D01*
X13928Y-23671D01*
X13916Y-23634D01*
X13905Y-23594D01*
X13896Y-23553D01*
X13889Y-23511D01*
X13884Y-23471D01*
X13881Y-23430D01*
X13881Y-23390D01*
X13882Y-23351D01*
X13885Y-23312D01*
X13890Y-23274D01*
X13897Y-23237D01*
X13905Y-23202D01*
X13915Y-23167D01*
X13927Y-23134D01*
X13941Y-23103D01*
X13956Y-23073D01*
X13973Y-23045D01*
X13991Y-23019D01*
X14011Y-22995D01*
X14032Y-22973D01*
X14054Y-22954D01*
X14078Y-22937D01*
X14103Y-22922D01*
X14129Y-22911D01*
X14155Y-22902D01*
X14183Y-22896D01*
X14212Y-22893D01*
X14240Y-22892D01*
X14269Y-22893D01*
X14297Y-22898D01*
X14323Y-22904D01*
X14348Y-22913D01*
X14372Y-22925D01*
X14388Y-22936D01*
X14404Y-22947D01*
X14420Y-22960D01*
X14435Y-22975D01*
X14450Y-22990D01*
X14464Y-23006D01*
X14477Y-23024D01*
X14489Y-23042D01*
X14501Y-23061D01*
X14512Y-23080D01*
X14531Y-23118D01*
X14531Y-23118D01*
X14562Y-23078D01*
X14562Y-23078D01*
X14585Y-23051D01*
X14611Y-23027D01*
X14639Y-23007D01*
X14667Y-22992D01*
X14697Y-22980D01*
X14728Y-22973D01*
X14759Y-22970D01*
X14790Y-22971D01*
X14821Y-22976D01*
X14851Y-22986D01*
X14880Y-23000D01*
X14908Y-23018D01*
X14930Y-23038D01*
X14951Y-23060D01*
X14970Y-23085D01*
X14986Y-23112D01*
X15001Y-23141D01*
X15014Y-23172D01*
X15026Y-23204D01*
X15035Y-23238D01*
X15042Y-23273D01*
X15048Y-23309D01*
X15051Y-23346D01*
X15053Y-23382D01*
X15053Y-23419D01*
X15050Y-23455D01*
X15046Y-23491D01*
X15040Y-23527D01*
X15031Y-23561D01*
X15021Y-23594D01*
X15009Y-23625D01*
X14995Y-23655D01*
X14978Y-23683D01*
X14960Y-23708D01*
X14939Y-23731D01*
X14912Y-23756D01*
X14883Y-23776D01*
X14853Y-23791D01*
X14822Y-23802D01*
X14791Y-23809D01*
X14759Y-23811D01*
X14728Y-23808D01*
X14698Y-23801D01*
X14668Y-23789D01*
X14639Y-23773D01*
X14611Y-23752D01*
X14585Y-23726D01*
X14579Y-23720D01*
X14573Y-23714D01*
X14567Y-23708D01*
X14562Y-23703D01*
X14557Y-23698D01*
X14553Y-23694D01*
X14549Y-23691D01*
X14545Y-23688D01*
X14543Y-23687D01*
X14541Y-23686D01*
X14540Y-23687D01*
X14538Y-23689D01*
X14536Y-23691D01*
X14533Y-23695D01*
X14530Y-23699D01*
X14527Y-23704D01*
X14524Y-23709D01*
X14520Y-23715D01*
X14517Y-23722D01*
X14514Y-23729D01*
X14503Y-23749D01*
X14492Y-23768D01*
X14480Y-23786D01*
X14467Y-23804D01*
X14453Y-23821D01*
X14438Y-23837D01*
X14423Y-23852D01*
X14407Y-23865D01*
X14391Y-23877D01*
X14374Y-23888D01*
X14354Y-23898D01*
X14332Y-23906D01*
X14308Y-23913D01*
X14284Y-23918D01*
X14258Y-23922D01*
X14232Y-23923D01*
X14207Y-23923D01*
X14183Y-23921D01*
X14161Y-23917D01*
X14141Y-23911D01*
X14141Y-23911D01*
X14141Y-23911D01*
G37*
G36*
X27470Y-35642D02*
X27431Y-35637D01*
X27392Y-35631D01*
X27354Y-35624D01*
X27316Y-35617D01*
X27277Y-35609D01*
X27239Y-35600D01*
X27201Y-35592D01*
X27163Y-35582D01*
X27125Y-35572D01*
X27087Y-35562D01*
X27050Y-35551D01*
X27012Y-35539D01*
X26975Y-35528D01*
X26938Y-35515D01*
X26901Y-35502D01*
X26865Y-35489D01*
X26828Y-35475D01*
X26792Y-35460D01*
X26756Y-35446D01*
X26721Y-35430D01*
X26685Y-35414D01*
X26650Y-35398D01*
X26615Y-35381D01*
X26581Y-35364D01*
X26547Y-35346D01*
X26513Y-35328D01*
X26479Y-35310D01*
X26446Y-35291D01*
X26413Y-35271D01*
X26380Y-35252D01*
X26348Y-35231D01*
X26316Y-35211D01*
X26285Y-35190D01*
X26254Y-35168D01*
X26223Y-35146D01*
X26193Y-35124D01*
X26164Y-35101D01*
X26139Y-35082D01*
X26114Y-35060D01*
X26086Y-35035D01*
X26057Y-35009D01*
X26028Y-34981D01*
X25998Y-34951D01*
X25968Y-34921D01*
X25938Y-34890D01*
X25909Y-34860D01*
X25881Y-34830D01*
X25855Y-34800D01*
X25831Y-34772D01*
X25808Y-34745D01*
X25789Y-34720D01*
X25772Y-34697D01*
X25751Y-34667D01*
X25731Y-34635D01*
X25712Y-34603D01*
X25694Y-34571D01*
X25676Y-34538D01*
X25660Y-34505D01*
X25644Y-34471D01*
X25629Y-34436D01*
X25615Y-34401D01*
X25602Y-34366D01*
X25590Y-34330D01*
X25579Y-34294D01*
X25569Y-34258D01*
X25559Y-34221D01*
X25551Y-34184D01*
X25544Y-34147D01*
X25537Y-34110D01*
X25532Y-34072D01*
X25527Y-34034D01*
X25524Y-33996D01*
X25521Y-33958D01*
X25520Y-33919D01*
X25519Y-33881D01*
X25520Y-33847D01*
X25521Y-33813D01*
X25523Y-33779D01*
X25526Y-33746D01*
X25529Y-33713D01*
X25534Y-33679D01*
X25539Y-33647D01*
X25545Y-33614D01*
X25551Y-33581D01*
X25559Y-33549D01*
X25567Y-33517D01*
X25576Y-33485D01*
X25586Y-33453D01*
X25596Y-33421D01*
X25608Y-33390D01*
X25620Y-33359D01*
X25632Y-33328D01*
X25646Y-33297D01*
X25660Y-33267D01*
X25675Y-33237D01*
X25690Y-33207D01*
X25707Y-33177D01*
X25724Y-33148D01*
X25742Y-33119D01*
X25760Y-33090D01*
X25779Y-33061D01*
X25799Y-33033D01*
X25820Y-33005D01*
X25841Y-32977D01*
X25863Y-32950D01*
X25885Y-32923D01*
X25909Y-32896D01*
X25932Y-32870D01*
X25957Y-32843D01*
X25982Y-32818D01*
X26008Y-32792D01*
X26035Y-32767D01*
X26062Y-32742D01*
X26090Y-32718D01*
X26118Y-32693D01*
X26147Y-32670D01*
X26177Y-32646D01*
X26207Y-32623D01*
X26238Y-32600D01*
X26270Y-32578D01*
X26302Y-32556D01*
X26335Y-32534D01*
X26368Y-32513D01*
X26402Y-32492D01*
X26437Y-32472D01*
X26472Y-32452D01*
X26508Y-32432D01*
X26544Y-32413D01*
X26581Y-32394D01*
X26619Y-32376D01*
X26657Y-32358D01*
X26696Y-32341D01*
X26735Y-32324D01*
X26775Y-32307D01*
X26815Y-32291D01*
X26856Y-32275D01*
X26897Y-32260D01*
X26939Y-32245D01*
X26964Y-32237D01*
X26989Y-32229D01*
X27013Y-32221D01*
X27039Y-32214D01*
X27064Y-32207D01*
X27091Y-32200D01*
X27120Y-32193D01*
X27150Y-32186D01*
X27182Y-32179D01*
X27216Y-32172D01*
X27254Y-32165D01*
X27294Y-32157D01*
X27338Y-32149D01*
X27386Y-32141D01*
X27437Y-32132D01*
X27494Y-32123D01*
X27555Y-32113D01*
X27605Y-32104D01*
X27648Y-32097D01*
X27687Y-32091D01*
X27721Y-32087D01*
X27751Y-32083D01*
X27780Y-32080D01*
X27808Y-32077D01*
X27837Y-32076D01*
X27867Y-32075D01*
X27899Y-32075D01*
X27935Y-32075D01*
X27976Y-32075D01*
X28023Y-32076D01*
X28078Y-32077D01*
X28147Y-32079D01*
X28203Y-32080D01*
X28248Y-32081D01*
X28282Y-32080D01*
X28306Y-32080D01*
X28323Y-32078D01*
X28333Y-32076D01*
X28337Y-32073D01*
X28336Y-32069D01*
X28333Y-32064D01*
X28318Y-32045D01*
X28305Y-32025D01*
X28295Y-32004D01*
X28288Y-31982D01*
X28283Y-31960D01*
X28280Y-31937D01*
X28281Y-31915D01*
X28284Y-31893D01*
X28289Y-31871D01*
X28298Y-31850D01*
X28312Y-31824D01*
X28330Y-31801D01*
X28352Y-31779D01*
X28377Y-31760D01*
X28404Y-31743D01*
X28434Y-31728D01*
X28466Y-31715D01*
X28499Y-31705D01*
X28534Y-31697D01*
X28569Y-31691D01*
X28606Y-31688D01*
X28642Y-31687D01*
X28679Y-31688D01*
X28715Y-31693D01*
X28751Y-31699D01*
X28785Y-31709D01*
X28818Y-31721D01*
X28849Y-31736D01*
X28879Y-31753D01*
X28905Y-31773D01*
X28931Y-31798D01*
X28952Y-31824D01*
X28968Y-31851D01*
X28979Y-31879D01*
X28986Y-31907D01*
X28987Y-31935D01*
X28984Y-31962D01*
X28976Y-31990D01*
X28963Y-32017D01*
X28946Y-32043D01*
X28924Y-32068D01*
X28898Y-32091D01*
X28867Y-32113D01*
X28832Y-32134D01*
X28798Y-32151D01*
X28798Y-32151D01*
X28849Y-32164D01*
X28849Y-32164D01*
X28900Y-32177D01*
X28949Y-32190D01*
X28997Y-32204D01*
X29043Y-32217D01*
X29087Y-32230D01*
X29131Y-32244D01*
X29172Y-32257D01*
X29212Y-32271D01*
X29251Y-32284D01*
X29288Y-32298D01*
X29323Y-32312D01*
X29357Y-32325D01*
X29389Y-32339D01*
X29419Y-32353D01*
X29447Y-32367D01*
X29474Y-32380D01*
X29500Y-32394D01*
X29523Y-32408D01*
X29545Y-32422D01*
X29565Y-32435D01*
X29597Y-32458D01*
X29628Y-32481D01*
X29658Y-32505D01*
X29687Y-32528D01*
X29716Y-32552D01*
X29745Y-32576D01*
X29772Y-32601D01*
X29800Y-32626D01*
X29826Y-32651D01*
X29852Y-32676D01*
X29877Y-32701D01*
X29902Y-32727D01*
X29926Y-32754D01*
X29949Y-32780D01*
X29972Y-32807D01*
X29994Y-32835D01*
X30016Y-32863D01*
X30037Y-32891D01*
X30057Y-32919D01*
X30077Y-32948D01*
X30097Y-32978D01*
X30116Y-33008D01*
X30134Y-33038D01*
X30152Y-33069D01*
X30169Y-33101D01*
X30186Y-33133D01*
X30202Y-33165D01*
X30218Y-33198D01*
X30233Y-33231D01*
X30248Y-33265D01*
X30263Y-33300D01*
X30277Y-33335D01*
X30290Y-33371D01*
X30303Y-33407D01*
X30316Y-33444D01*
X30328Y-33482D01*
X30340Y-33520D01*
X30351Y-33559D01*
X30362Y-33599D01*
X30372Y-33639D01*
X30383Y-33680D01*
X30392Y-33722D01*
X30402Y-33764D01*
X30411Y-33807D01*
X30419Y-33851D01*
X30427Y-33896D01*
X30435Y-33941D01*
X30443Y-33991D01*
X30450Y-34034D01*
X30456Y-34073D01*
X30460Y-34108D01*
X30463Y-34140D01*
X30466Y-34169D01*
X30467Y-34199D01*
X30468Y-34228D01*
X30467Y-34258D01*
X30467Y-34291D01*
X30466Y-34326D01*
X30464Y-34355D01*
X30463Y-34380D01*
X30460Y-34401D01*
X30458Y-34419D01*
X30454Y-34436D01*
X30449Y-34452D01*
X30443Y-34468D01*
X30435Y-34486D01*
X30426Y-34505D01*
X30412Y-34534D01*
X30397Y-34563D01*
X30380Y-34592D01*
X30362Y-34621D01*
X30343Y-34651D01*
X30323Y-34680D01*
X30302Y-34710D01*
X30280Y-34740D01*
X30256Y-34769D01*
X30232Y-34799D01*
X30207Y-34828D01*
X30181Y-34858D01*
X30154Y-34887D01*
X30127Y-34916D01*
X30098Y-34945D01*
X30069Y-34973D01*
X30040Y-35001D01*
X30009Y-35029D01*
X29978Y-35056D01*
X29947Y-35083D01*
X29915Y-35109D01*
X29883Y-35135D01*
X29851Y-35160D01*
X29818Y-35184D01*
X29785Y-35208D01*
X29751Y-35231D01*
X29718Y-35253D01*
X29684Y-35275D01*
X29650Y-35295D01*
X29616Y-35315D01*
X29582Y-35333D01*
X29548Y-35351D01*
X29520Y-35365D01*
X29486Y-35380D01*
X29448Y-35397D01*
X29406Y-35415D01*
X29362Y-35434D01*
X29317Y-35452D01*
X29272Y-35470D01*
X29229Y-35487D01*
X29189Y-35502D01*
X29153Y-35515D01*
X29123Y-35526D01*
X29100Y-35533D01*
X29084Y-35537D01*
X29070Y-35539D01*
X29057Y-35539D01*
X29046Y-35538D01*
X29035Y-35534D01*
X29023Y-35528D01*
X29010Y-35518D01*
X28995Y-35504D01*
X28978Y-35487D01*
X28958Y-35465D01*
X28934Y-35438D01*
X28904Y-35406D01*
X28875Y-35376D01*
X28844Y-35348D01*
X28813Y-35322D01*
X28782Y-35298D01*
X28751Y-35276D01*
X28719Y-35257D01*
X28686Y-35239D01*
X28654Y-35224D01*
X28621Y-35210D01*
X28588Y-35199D01*
X28555Y-35190D01*
X28522Y-35183D01*
X28489Y-35179D01*
X28455Y-35176D01*
X28422Y-35176D01*
X28389Y-35178D01*
X28355Y-35182D01*
X28322Y-35189D01*
X28289Y-35198D01*
X28254Y-35209D01*
X28221Y-35222D01*
X28189Y-35235D01*
X28158Y-35251D01*
X28127Y-35267D01*
X28098Y-35286D01*
X28070Y-35305D01*
X28042Y-35327D01*
X28015Y-35351D01*
X27988Y-35376D01*
X27961Y-35404D01*
X27935Y-35433D01*
X27908Y-35465D01*
X27882Y-35499D01*
X27856Y-35535D01*
X27763Y-35666D01*
X27763Y-35666D01*
X27693Y-35665D01*
X27693Y-35665D01*
X27680Y-35664D01*
X27663Y-35663D01*
X27644Y-35662D01*
X27622Y-35660D01*
X27599Y-35658D01*
X27574Y-35655D01*
X27548Y-35652D01*
X27522Y-35649D01*
X27495Y-35646D01*
X27470Y-35642D01*
X27470Y-35642D01*
X27470Y-35642D01*
G37*
G36*
X25136Y-32857D02*
X25103Y-32845D01*
X25071Y-32832D01*
X25040Y-32817D01*
X25009Y-32800D01*
X24979Y-32782D01*
X24950Y-32763D01*
X24922Y-32743D01*
X24895Y-32721D01*
X24868Y-32697D01*
X24843Y-32673D01*
X24818Y-32647D01*
X24795Y-32620D01*
X24772Y-32592D01*
X24751Y-32563D01*
X24730Y-32533D01*
X24711Y-32501D01*
X24692Y-32469D01*
X24675Y-32436D01*
X24659Y-32401D01*
X24645Y-32366D01*
X24631Y-32330D01*
X24619Y-32293D01*
X24608Y-32256D01*
X24598Y-32218D01*
X24590Y-32178D01*
X24583Y-32139D01*
X24579Y-32108D01*
X24576Y-32073D01*
X24575Y-32036D01*
X24574Y-31997D01*
X24575Y-31956D01*
X24577Y-31915D01*
X24580Y-31874D01*
X24584Y-31834D01*
X24588Y-31795D01*
X24594Y-31759D01*
X24601Y-31726D01*
X24608Y-31697D01*
X24620Y-31658D01*
X24633Y-31620D01*
X24648Y-31583D01*
X24664Y-31547D01*
X24681Y-31512D01*
X24699Y-31478D01*
X24718Y-31446D01*
X24739Y-31414D01*
X24761Y-31384D01*
X24783Y-31355D01*
X24807Y-31327D01*
X24832Y-31301D01*
X24858Y-31276D01*
X24885Y-31252D01*
X24913Y-31230D01*
X24942Y-31209D01*
X24972Y-31190D01*
X25003Y-31172D01*
X25035Y-31156D01*
X25069Y-31140D01*
X25103Y-31126D01*
X25138Y-31114D01*
X25173Y-31104D01*
X25207Y-31096D01*
X25242Y-31090D01*
X25277Y-31086D01*
X25312Y-31083D01*
X25347Y-31082D01*
X25381Y-31083D01*
X25416Y-31086D01*
X25450Y-31091D01*
X25484Y-31097D01*
X25518Y-31106D01*
X25552Y-31116D01*
X25585Y-31128D01*
X25618Y-31142D01*
X25651Y-31157D01*
X25683Y-31175D01*
X25714Y-31194D01*
X25745Y-31215D01*
X25775Y-31238D01*
X25800Y-31259D01*
X25825Y-31282D01*
X25849Y-31307D01*
X25873Y-31334D01*
X25896Y-31363D01*
X25918Y-31394D01*
X25940Y-31426D01*
X25960Y-31460D01*
X25980Y-31494D01*
X25998Y-31529D01*
X26015Y-31566D01*
X26031Y-31602D01*
X26045Y-31639D01*
X26058Y-31677D01*
X26068Y-31714D01*
X26075Y-31743D01*
X26081Y-31775D01*
X26086Y-31810D01*
X26090Y-31848D01*
X26092Y-31887D01*
X26094Y-31927D01*
X26095Y-31968D01*
X26095Y-32009D01*
X26094Y-32050D01*
X26092Y-32089D01*
X26089Y-32127D01*
X26085Y-32163D01*
X26080Y-32196D01*
X26074Y-32226D01*
X26064Y-32265D01*
X26053Y-32303D01*
X26040Y-32341D01*
X26026Y-32378D01*
X26010Y-32415D01*
X25994Y-32450D01*
X25976Y-32485D01*
X25957Y-32518D01*
X25937Y-32550D01*
X25916Y-32580D01*
X25895Y-32609D01*
X25872Y-32636D01*
X25849Y-32661D01*
X25826Y-32684D01*
X25794Y-32712D01*
X25764Y-32737D01*
X25733Y-32760D01*
X25703Y-32780D01*
X25672Y-32799D01*
X25641Y-32815D01*
X25609Y-32829D01*
X25576Y-32841D01*
X25542Y-32852D01*
X25507Y-32860D01*
X25470Y-32867D01*
X25431Y-32872D01*
X25391Y-32876D01*
X25348Y-32879D01*
X25316Y-32880D01*
X25288Y-32880D01*
X25265Y-32880D01*
X25244Y-32880D01*
X25225Y-32878D01*
X25208Y-32876D01*
X25191Y-32873D01*
X25174Y-32869D01*
X25156Y-32863D01*
X25136Y-32857D01*
X25136Y-32857D01*
X25136Y-32857D01*
G37*
G36*
X27793Y-32050D02*
X27765Y-32040D01*
X27738Y-32027D01*
X27712Y-32011D01*
X27686Y-31992D01*
X27662Y-31970D01*
X27639Y-31946D01*
X27617Y-31919D01*
X27596Y-31891D01*
X27577Y-31860D01*
X27560Y-31828D01*
X27544Y-31795D01*
X27530Y-31760D01*
X27517Y-31725D01*
X27507Y-31688D01*
X27499Y-31651D01*
X27493Y-31614D01*
X27489Y-31576D01*
X27488Y-31539D01*
X27489Y-31502D01*
X27493Y-31465D01*
X27500Y-31423D01*
X27510Y-31385D01*
X27522Y-31348D01*
X27537Y-31315D01*
X27554Y-31285D01*
X27574Y-31257D01*
X27596Y-31233D01*
X27620Y-31211D01*
X27645Y-31193D01*
X27673Y-31177D01*
X27703Y-31166D01*
X27735Y-31157D01*
X27769Y-31152D01*
X27804Y-31150D01*
X27834Y-31152D01*
X27864Y-31156D01*
X27893Y-31164D01*
X27921Y-31174D01*
X27949Y-31187D01*
X27975Y-31203D01*
X28000Y-31221D01*
X28024Y-31241D01*
X28047Y-31264D01*
X28068Y-31288D01*
X28088Y-31314D01*
X28107Y-31342D01*
X28124Y-31371D01*
X28139Y-31402D01*
X28153Y-31434D01*
X28165Y-31467D01*
X28175Y-31501D01*
X28183Y-31536D01*
X28189Y-31571D01*
X28194Y-31608D01*
X28196Y-31644D01*
X28195Y-31681D01*
X28193Y-31718D01*
X28188Y-31756D01*
X28181Y-31793D01*
X28171Y-31829D01*
X28158Y-31866D01*
X28142Y-31900D01*
X28124Y-31931D01*
X28102Y-31959D01*
X28078Y-31984D01*
X28052Y-32005D01*
X28025Y-32024D01*
X27995Y-32039D01*
X27964Y-32050D01*
X27931Y-32058D01*
X27898Y-32062D01*
X27863Y-32062D01*
X27828Y-32058D01*
X27793Y-32050D01*
X27793Y-32050D01*
X27793Y-32050D01*
G37*
G36*
X26385Y-31785D02*
X26357Y-31773D01*
X26331Y-31758D01*
X26306Y-31741D01*
X26282Y-31720D01*
X26260Y-31697D01*
X26239Y-31672D01*
X26220Y-31644D01*
X26203Y-31613D01*
X26187Y-31580D01*
X26172Y-31545D01*
X26160Y-31508D01*
X26149Y-31468D01*
X26140Y-31427D01*
X26133Y-31386D01*
X26128Y-31345D01*
X26126Y-31304D01*
X26125Y-31264D01*
X26126Y-31225D01*
X26129Y-31186D01*
X26134Y-31148D01*
X26141Y-31112D01*
X26149Y-31076D01*
X26160Y-31041D01*
X26172Y-31009D01*
X26185Y-30977D01*
X26200Y-30947D01*
X26217Y-30919D01*
X26235Y-30893D01*
X26255Y-30869D01*
X26276Y-30847D01*
X26298Y-30828D01*
X26322Y-30811D01*
X26347Y-30796D01*
X26373Y-30785D01*
X26399Y-30776D01*
X26427Y-30770D01*
X26456Y-30767D01*
X26485Y-30766D01*
X26513Y-30767D01*
X26541Y-30772D01*
X26567Y-30778D01*
X26593Y-30787D01*
X26616Y-30799D01*
X26632Y-30810D01*
X26648Y-30821D01*
X26664Y-30834D01*
X26679Y-30849D01*
X26694Y-30864D01*
X26708Y-30880D01*
X26721Y-30898D01*
X26734Y-30916D01*
X26745Y-30935D01*
X26756Y-30954D01*
X26775Y-30992D01*
X26775Y-30992D01*
X26806Y-30952D01*
X26806Y-30952D01*
X26830Y-30925D01*
X26855Y-30901D01*
X26883Y-30881D01*
X26912Y-30866D01*
X26941Y-30854D01*
X26972Y-30847D01*
X27003Y-30844D01*
X27034Y-30845D01*
X27065Y-30850D01*
X27095Y-30860D01*
X27124Y-30874D01*
X27152Y-30892D01*
X27174Y-30912D01*
X27195Y-30934D01*
X27214Y-30959D01*
X27230Y-30986D01*
X27245Y-31015D01*
X27258Y-31046D01*
X27270Y-31078D01*
X27279Y-31112D01*
X27286Y-31147D01*
X27292Y-31183D01*
X27295Y-31220D01*
X27297Y-31256D01*
X27297Y-31293D01*
X27294Y-31329D01*
X27290Y-31365D01*
X27284Y-31401D01*
X27276Y-31435D01*
X27265Y-31468D01*
X27253Y-31499D01*
X27239Y-31529D01*
X27222Y-31557D01*
X27204Y-31582D01*
X27183Y-31605D01*
X27156Y-31630D01*
X27127Y-31650D01*
X27097Y-31665D01*
X27066Y-31676D01*
X27035Y-31683D01*
X27004Y-31685D01*
X26972Y-31682D01*
X26942Y-31675D01*
X26912Y-31663D01*
X26883Y-31647D01*
X26855Y-31626D01*
X26829Y-31600D01*
X26823Y-31594D01*
X26817Y-31588D01*
X26812Y-31582D01*
X26806Y-31577D01*
X26801Y-31572D01*
X26797Y-31568D01*
X26793Y-31565D01*
X26790Y-31563D01*
X26787Y-31561D01*
X26785Y-31560D01*
X26784Y-31561D01*
X26782Y-31563D01*
X26780Y-31565D01*
X26777Y-31569D01*
X26774Y-31573D01*
X26771Y-31578D01*
X26768Y-31583D01*
X26764Y-31589D01*
X26761Y-31596D01*
X26758Y-31603D01*
X26748Y-31623D01*
X26736Y-31642D01*
X26724Y-31660D01*
X26711Y-31678D01*
X26697Y-31695D01*
X26682Y-31711D01*
X26667Y-31726D01*
X26651Y-31739D01*
X26635Y-31751D01*
X26618Y-31762D01*
X26598Y-31772D01*
X26576Y-31780D01*
X26553Y-31787D01*
X26528Y-31792D01*
X26502Y-31796D01*
X26476Y-31797D01*
X26451Y-31797D01*
X26427Y-31795D01*
X26405Y-31791D01*
X26385Y-31785D01*
X26385Y-31785D01*
X26385Y-31785D01*
G37*
G36*
X28729Y-52256D02*
X28691Y-52251D01*
X28652Y-52245D01*
X28614Y-52238D01*
X28575Y-52231D01*
X28537Y-52223D01*
X28499Y-52215D01*
X28461Y-52206D01*
X28423Y-52196D01*
X28385Y-52186D01*
X28347Y-52176D01*
X28310Y-52165D01*
X28272Y-52154D01*
X28235Y-52142D01*
X28198Y-52129D01*
X28161Y-52116D01*
X28125Y-52103D01*
X28088Y-52089D01*
X28052Y-52075D01*
X28016Y-52060D01*
X27981Y-52044D01*
X27945Y-52029D01*
X27910Y-52012D01*
X27875Y-51995D01*
X27841Y-51978D01*
X27806Y-51961D01*
X27773Y-51943D01*
X27739Y-51924D01*
X27706Y-51905D01*
X27673Y-51886D01*
X27640Y-51866D01*
X27608Y-51846D01*
X27576Y-51825D01*
X27545Y-51804D01*
X27514Y-51782D01*
X27483Y-51760D01*
X27453Y-51738D01*
X27423Y-51715D01*
X27399Y-51696D01*
X27373Y-51674D01*
X27346Y-51649D01*
X27317Y-51623D01*
X27288Y-51595D01*
X27258Y-51565D01*
X27228Y-51535D01*
X27198Y-51505D01*
X27169Y-51474D01*
X27141Y-51444D01*
X27115Y-51414D01*
X27090Y-51386D01*
X27068Y-51359D01*
X27049Y-51334D01*
X27032Y-51311D01*
X27011Y-51281D01*
X26991Y-51249D01*
X26972Y-51218D01*
X26953Y-51185D01*
X26936Y-51152D01*
X26919Y-51119D01*
X26904Y-51085D01*
X26889Y-51050D01*
X26875Y-51015D01*
X26862Y-50980D01*
X26850Y-50945D01*
X26839Y-50909D01*
X26828Y-50872D01*
X26819Y-50835D01*
X26811Y-50799D01*
X26803Y-50761D01*
X26797Y-50724D01*
X26792Y-50686D01*
X26787Y-50648D01*
X26784Y-50610D01*
X26781Y-50572D01*
X26780Y-50534D01*
X26779Y-50495D01*
X26779Y-50461D01*
X26781Y-50427D01*
X26783Y-50394D01*
X26785Y-50360D01*
X26789Y-50327D01*
X26793Y-50294D01*
X26799Y-50261D01*
X26804Y-50228D01*
X26811Y-50195D01*
X26819Y-50163D01*
X26827Y-50131D01*
X26836Y-50099D01*
X26846Y-50067D01*
X26856Y-50035D01*
X26867Y-50004D01*
X26879Y-49973D01*
X26892Y-49942D01*
X26906Y-49911D01*
X26920Y-49881D01*
X26935Y-49851D01*
X26950Y-49821D01*
X26967Y-49791D01*
X26984Y-49762D01*
X27001Y-49733D01*
X27020Y-49704D01*
X27039Y-49675D01*
X27059Y-49647D01*
X27079Y-49619D01*
X27101Y-49592D01*
X27123Y-49564D01*
X27145Y-49537D01*
X27168Y-49510D01*
X27192Y-49484D01*
X27217Y-49458D01*
X27242Y-49432D01*
X27268Y-49406D01*
X27295Y-49381D01*
X27322Y-49356D01*
X27350Y-49332D01*
X27378Y-49308D01*
X27407Y-49284D01*
X27437Y-49260D01*
X27467Y-49237D01*
X27498Y-49214D01*
X27530Y-49192D01*
X27562Y-49170D01*
X27595Y-49149D01*
X27628Y-49127D01*
X27662Y-49107D01*
X27697Y-49086D01*
X27732Y-49066D01*
X27768Y-49047D01*
X27804Y-49027D01*
X27841Y-49009D01*
X27879Y-48990D01*
X27917Y-48972D01*
X27955Y-48955D01*
X27995Y-48938D01*
X28034Y-48921D01*
X28075Y-48905D01*
X28115Y-48889D01*
X28157Y-48874D01*
X28199Y-48859D01*
X28224Y-48851D01*
X28249Y-48843D01*
X28273Y-48835D01*
X28298Y-48828D01*
X28324Y-48821D01*
X28351Y-48814D01*
X28380Y-48807D01*
X28410Y-48800D01*
X28442Y-48793D01*
X28476Y-48786D01*
X28514Y-48779D01*
X28554Y-48771D01*
X28598Y-48763D01*
X28645Y-48755D01*
X28697Y-48746D01*
X28754Y-48737D01*
X28815Y-48727D01*
X28865Y-48719D01*
X28908Y-48712D01*
X28946Y-48706D01*
X28980Y-48701D01*
X29011Y-48697D01*
X29040Y-48694D01*
X29068Y-48692D01*
X29097Y-48690D01*
X29126Y-48689D01*
X29159Y-48689D01*
X29195Y-48689D01*
X29236Y-48690D01*
X29283Y-48690D01*
X29337Y-48692D01*
X29407Y-48693D01*
X29463Y-48694D01*
X29508Y-48695D01*
X29542Y-48695D01*
X29566Y-48694D01*
X29583Y-48693D01*
X29592Y-48690D01*
X29596Y-48687D01*
X29596Y-48683D01*
X29593Y-48679D01*
X29578Y-48659D01*
X29565Y-48639D01*
X29555Y-48618D01*
X29547Y-48596D01*
X29543Y-48574D01*
X29540Y-48551D01*
X29540Y-48529D01*
X29543Y-48507D01*
X29549Y-48485D01*
X29557Y-48464D01*
X29572Y-48438D01*
X29590Y-48415D01*
X29612Y-48394D01*
X29637Y-48374D01*
X29664Y-48357D01*
X29694Y-48342D01*
X29725Y-48330D01*
X29759Y-48319D01*
X29794Y-48311D01*
X29829Y-48305D01*
X29866Y-48302D01*
X29902Y-48301D01*
X29939Y-48303D01*
X29975Y-48307D01*
X30011Y-48314D01*
X30045Y-48323D01*
X30078Y-48335D01*
X30109Y-48350D01*
X30138Y-48367D01*
X30165Y-48388D01*
X30191Y-48412D01*
X30212Y-48439D01*
X30228Y-48465D01*
X30239Y-48493D01*
X30245Y-48521D01*
X30247Y-48549D01*
X30244Y-48577D01*
X30236Y-48604D01*
X30223Y-48631D01*
X30206Y-48657D01*
X30184Y-48682D01*
X30158Y-48705D01*
X30127Y-48728D01*
X30092Y-48748D01*
X30058Y-48765D01*
X30058Y-48765D01*
X30109Y-48778D01*
X30109Y-48778D01*
X30160Y-48791D01*
X30209Y-48805D01*
X30257Y-48818D01*
X30303Y-48831D01*
X30347Y-48844D01*
X30390Y-48858D01*
X30432Y-48871D01*
X30472Y-48885D01*
X30511Y-48899D01*
X30547Y-48912D01*
X30583Y-48926D01*
X30616Y-48940D01*
X30648Y-48953D01*
X30679Y-48967D01*
X30707Y-48981D01*
X30734Y-48995D01*
X30760Y-49008D01*
X30783Y-49022D01*
X30805Y-49036D01*
X30825Y-49049D01*
X30856Y-49072D01*
X30887Y-49096D01*
X30918Y-49119D01*
X30947Y-49143D01*
X30976Y-49166D01*
X31005Y-49191D01*
X31032Y-49215D01*
X31059Y-49240D01*
X31086Y-49265D01*
X31112Y-49290D01*
X31137Y-49316D01*
X31161Y-49342D01*
X31185Y-49368D01*
X31209Y-49395D01*
X31232Y-49422D01*
X31254Y-49449D01*
X31275Y-49477D01*
X31297Y-49505D01*
X31317Y-49534D01*
X31337Y-49563D01*
X31356Y-49592D01*
X31375Y-49622D01*
X31394Y-49652D01*
X31412Y-49683D01*
X31429Y-49715D01*
X31446Y-49747D01*
X31462Y-49779D01*
X31478Y-49812D01*
X31493Y-49846D01*
X31508Y-49880D01*
X31523Y-49914D01*
X31537Y-49949D01*
X31550Y-49985D01*
X31563Y-50022D01*
X31576Y-50059D01*
X31588Y-50096D01*
X31600Y-50135D01*
X31611Y-50173D01*
X31622Y-50213D01*
X31632Y-50253D01*
X31642Y-50294D01*
X31652Y-50336D01*
X31661Y-50378D01*
X31670Y-50422D01*
X31679Y-50465D01*
X31687Y-50510D01*
X31695Y-50556D01*
X31703Y-50605D01*
X31710Y-50649D01*
X31715Y-50687D01*
X31720Y-50722D01*
X31723Y-50754D01*
X31725Y-50784D01*
X31727Y-50813D01*
X31727Y-50842D01*
X31727Y-50873D01*
X31727Y-50905D01*
X31725Y-50940D01*
X31724Y-50969D01*
X31722Y-50994D01*
X31720Y-51015D01*
X31717Y-51033D01*
X31714Y-51050D01*
X31709Y-51066D01*
X31703Y-51082D01*
X31695Y-51100D01*
X31686Y-51120D01*
X31672Y-51148D01*
X31657Y-51177D01*
X31640Y-51206D01*
X31622Y-51235D01*
X31603Y-51265D01*
X31583Y-51294D01*
X31562Y-51324D01*
X31539Y-51354D01*
X31516Y-51383D01*
X31492Y-51413D01*
X31467Y-51443D01*
X31441Y-51472D01*
X31414Y-51501D01*
X31386Y-51530D01*
X31358Y-51559D01*
X31329Y-51587D01*
X31299Y-51615D01*
X31269Y-51643D01*
X31238Y-51670D01*
X31207Y-51697D01*
X31175Y-51723D01*
X31143Y-51749D01*
X31111Y-51774D01*
X31078Y-51799D01*
X31044Y-51822D01*
X31011Y-51845D01*
X30977Y-51867D01*
X30944Y-51889D01*
X30910Y-51909D01*
X30876Y-51929D01*
X30842Y-51948D01*
X30808Y-51965D01*
X30780Y-51979D01*
X30746Y-51994D01*
X30708Y-52011D01*
X30666Y-52030D01*
X30621Y-52048D01*
X30576Y-52066D01*
X30532Y-52084D01*
X30489Y-52101D01*
X30449Y-52116D01*
X30413Y-52129D01*
X30383Y-52140D01*
X30360Y-52147D01*
X30344Y-52151D01*
X30330Y-52153D01*
X30317Y-52153D01*
X30306Y-52152D01*
X30294Y-52148D01*
X30283Y-52142D01*
X30270Y-52132D01*
X30255Y-52119D01*
X30238Y-52101D01*
X30218Y-52079D01*
X30194Y-52052D01*
X30164Y-52020D01*
X30134Y-51990D01*
X30104Y-51962D01*
X30073Y-51936D01*
X30042Y-51912D01*
X30010Y-51890D01*
X29979Y-51871D01*
X29946Y-51853D01*
X29914Y-51838D01*
X29881Y-51824D01*
X29848Y-51813D01*
X29815Y-51804D01*
X29782Y-51798D01*
X29748Y-51793D01*
X29715Y-51791D01*
X29682Y-51790D01*
X29648Y-51792D01*
X29615Y-51797D01*
X29582Y-51803D01*
X29549Y-51812D01*
X29514Y-51823D01*
X29481Y-51836D01*
X29449Y-51850D01*
X29417Y-51865D01*
X29387Y-51881D01*
X29358Y-51900D01*
X29330Y-51920D01*
X29302Y-51941D01*
X29274Y-51965D01*
X29248Y-51990D01*
X29221Y-52018D01*
X29195Y-52047D01*
X29168Y-52079D01*
X29142Y-52113D01*
X29116Y-52149D01*
X29023Y-52280D01*
X29023Y-52280D01*
X28953Y-52279D01*
X28953Y-52279D01*
X28940Y-52278D01*
X28923Y-52277D01*
X28904Y-52276D01*
X28882Y-52274D01*
X28859Y-52272D01*
X28834Y-52269D01*
X28808Y-52266D01*
X28781Y-52263D01*
X28755Y-52260D01*
X28729Y-52256D01*
X28729Y-52256D01*
X28729Y-52256D01*
G37*
G36*
X26396Y-49471D02*
X26363Y-49459D01*
X26331Y-49446D01*
X26299Y-49431D01*
X26269Y-49414D01*
X26239Y-49397D01*
X26210Y-49377D01*
X26182Y-49357D01*
X26155Y-49335D01*
X26128Y-49312D01*
X26103Y-49287D01*
X26078Y-49261D01*
X26055Y-49234D01*
X26032Y-49206D01*
X26010Y-49177D01*
X25990Y-49147D01*
X25971Y-49115D01*
X25952Y-49083D01*
X25935Y-49050D01*
X25919Y-49016D01*
X25904Y-48980D01*
X25891Y-48944D01*
X25879Y-48908D01*
X25868Y-48870D01*
X25858Y-48832D01*
X25849Y-48793D01*
X25842Y-48753D01*
X25839Y-48722D01*
X25836Y-48688D01*
X25834Y-48650D01*
X25834Y-48611D01*
X25835Y-48570D01*
X25837Y-48529D01*
X25840Y-48488D01*
X25843Y-48448D01*
X25848Y-48410D01*
X25854Y-48373D01*
X25860Y-48341D01*
X25868Y-48311D01*
X25880Y-48272D01*
X25893Y-48234D01*
X25908Y-48197D01*
X25923Y-48161D01*
X25940Y-48126D01*
X25959Y-48092D01*
X25978Y-48060D01*
X25999Y-48028D01*
X26020Y-47998D01*
X26043Y-47969D01*
X26067Y-47941D01*
X26092Y-47915D01*
X26118Y-47890D01*
X26145Y-47866D01*
X26173Y-47844D01*
X26202Y-47823D01*
X26232Y-47804D01*
X26263Y-47786D01*
X26295Y-47770D01*
X26329Y-47754D01*
X26363Y-47740D01*
X26398Y-47729D01*
X26432Y-47719D01*
X26467Y-47710D01*
X26502Y-47704D01*
X26537Y-47700D01*
X26572Y-47697D01*
X26607Y-47696D01*
X26641Y-47697D01*
X26676Y-47700D01*
X26710Y-47705D01*
X26744Y-47712D01*
X26778Y-47720D01*
X26812Y-47730D01*
X26845Y-47742D01*
X26878Y-47756D01*
X26910Y-47772D01*
X26942Y-47789D01*
X26974Y-47808D01*
X27005Y-47829D01*
X27035Y-47852D01*
X27060Y-47873D01*
X27085Y-47896D01*
X27109Y-47921D01*
X27133Y-47948D01*
X27156Y-47978D01*
X27178Y-48008D01*
X27200Y-48040D01*
X27220Y-48074D01*
X27240Y-48108D01*
X27258Y-48144D01*
X27275Y-48180D01*
X27291Y-48216D01*
X27305Y-48254D01*
X27317Y-48291D01*
X27328Y-48329D01*
X27335Y-48357D01*
X27341Y-48389D01*
X27346Y-48424D01*
X27349Y-48462D01*
X27352Y-48501D01*
X27354Y-48541D01*
X27355Y-48582D01*
X27355Y-48623D01*
X27354Y-48664D01*
X27352Y-48703D01*
X27349Y-48742D01*
X27345Y-48777D01*
X27340Y-48811D01*
X27334Y-48841D01*
X27324Y-48879D01*
X27313Y-48917D01*
X27300Y-48955D01*
X27286Y-48992D01*
X27270Y-49029D01*
X27253Y-49064D01*
X27236Y-49099D01*
X27217Y-49132D01*
X27197Y-49164D01*
X27176Y-49194D01*
X27154Y-49223D01*
X27132Y-49250D01*
X27109Y-49275D01*
X27085Y-49298D01*
X27054Y-49326D01*
X27024Y-49351D01*
X26993Y-49374D01*
X26963Y-49395D01*
X26932Y-49413D01*
X26900Y-49429D01*
X26868Y-49443D01*
X26836Y-49455D01*
X26802Y-49466D01*
X26766Y-49474D01*
X26730Y-49481D01*
X26691Y-49487D01*
X26651Y-49490D01*
X26608Y-49493D01*
X26576Y-49494D01*
X26548Y-49495D01*
X26525Y-49495D01*
X26504Y-49494D01*
X26485Y-49493D01*
X26468Y-49490D01*
X26451Y-49487D01*
X26434Y-49483D01*
X26416Y-49477D01*
X26396Y-49471D01*
X26396Y-49471D01*
X26396Y-49471D01*
G37*
G36*
X29053Y-48664D02*
X29025Y-48654D01*
X28998Y-48641D01*
X28972Y-48625D01*
X28946Y-48606D01*
X28922Y-48584D01*
X28899Y-48560D01*
X28877Y-48533D01*
X28856Y-48505D01*
X28837Y-48474D01*
X28820Y-48442D01*
X28804Y-48409D01*
X28789Y-48374D01*
X28777Y-48339D01*
X28767Y-48302D01*
X28759Y-48265D01*
X28753Y-48228D01*
X28749Y-48190D01*
X28748Y-48153D01*
X28749Y-48116D01*
X28753Y-48079D01*
X28760Y-48038D01*
X28770Y-47999D01*
X28782Y-47963D01*
X28797Y-47929D01*
X28814Y-47899D01*
X28834Y-47871D01*
X28856Y-47847D01*
X28879Y-47825D01*
X28905Y-47807D01*
X28933Y-47792D01*
X28963Y-47780D01*
X28995Y-47771D01*
X29028Y-47766D01*
X29064Y-47764D01*
X29094Y-47766D01*
X29124Y-47771D01*
X29153Y-47778D01*
X29181Y-47789D01*
X29208Y-47802D01*
X29235Y-47817D01*
X29260Y-47835D01*
X29284Y-47855D01*
X29306Y-47878D01*
X29328Y-47902D01*
X29348Y-47928D01*
X29366Y-47956D01*
X29383Y-47985D01*
X29399Y-48016D01*
X29413Y-48048D01*
X29425Y-48081D01*
X29435Y-48115D01*
X29443Y-48150D01*
X29449Y-48186D01*
X29453Y-48222D01*
X29455Y-48259D01*
X29455Y-48295D01*
X29453Y-48333D01*
X29448Y-48370D01*
X29441Y-48407D01*
X29431Y-48444D01*
X29418Y-48480D01*
X29402Y-48514D01*
X29383Y-48545D01*
X29362Y-48573D01*
X29338Y-48598D01*
X29312Y-48620D01*
X29284Y-48638D01*
X29255Y-48653D01*
X29224Y-48664D01*
X29191Y-48672D01*
X29158Y-48676D01*
X29123Y-48676D01*
X29088Y-48672D01*
X29053Y-48664D01*
X29053Y-48664D01*
X29053Y-48664D01*
G37*
G36*
X27645Y-48399D02*
X27617Y-48387D01*
X27591Y-48372D01*
X27566Y-48355D01*
X27542Y-48334D01*
X27520Y-48311D01*
X27499Y-48286D01*
X27480Y-48258D01*
X27463Y-48227D01*
X27447Y-48195D01*
X27432Y-48159D01*
X27420Y-48122D01*
X27409Y-48082D01*
X27400Y-48041D01*
X27393Y-48000D01*
X27388Y-47959D01*
X27385Y-47918D01*
X27385Y-47878D01*
X27386Y-47839D01*
X27389Y-47800D01*
X27394Y-47762D01*
X27401Y-47726D01*
X27409Y-47690D01*
X27419Y-47656D01*
X27431Y-47623D01*
X27445Y-47591D01*
X27460Y-47561D01*
X27477Y-47533D01*
X27495Y-47507D01*
X27515Y-47483D01*
X27536Y-47462D01*
X27558Y-47442D01*
X27582Y-47425D01*
X27607Y-47410D01*
X27633Y-47399D01*
X27659Y-47391D01*
X27687Y-47385D01*
X27716Y-47381D01*
X27744Y-47380D01*
X27773Y-47382D01*
X27801Y-47386D01*
X27827Y-47392D01*
X27852Y-47402D01*
X27876Y-47413D01*
X27892Y-47424D01*
X27908Y-47435D01*
X27924Y-47449D01*
X27939Y-47463D01*
X27954Y-47478D01*
X27968Y-47495D01*
X27981Y-47512D01*
X27993Y-47530D01*
X28005Y-47549D01*
X28016Y-47568D01*
X28035Y-47606D01*
X28035Y-47606D01*
X28066Y-47566D01*
X28066Y-47566D01*
X28089Y-47539D01*
X28115Y-47515D01*
X28143Y-47496D01*
X28171Y-47480D01*
X28201Y-47468D01*
X28232Y-47461D01*
X28263Y-47458D01*
X28294Y-47459D01*
X28325Y-47464D01*
X28355Y-47474D01*
X28384Y-47488D01*
X28412Y-47507D01*
X28434Y-47526D01*
X28455Y-47548D01*
X28473Y-47573D01*
X28490Y-47600D01*
X28505Y-47629D01*
X28518Y-47660D01*
X28529Y-47693D01*
X28539Y-47727D01*
X28546Y-47762D01*
X28552Y-47797D01*
X28555Y-47834D01*
X28557Y-47870D01*
X28556Y-47907D01*
X28554Y-47944D01*
X28550Y-47980D01*
X28544Y-48015D01*
X28535Y-48049D01*
X28525Y-48082D01*
X28513Y-48114D01*
X28499Y-48143D01*
X28482Y-48171D01*
X28464Y-48196D01*
X28443Y-48219D01*
X28416Y-48244D01*
X28387Y-48264D01*
X28357Y-48280D01*
X28326Y-48291D01*
X28295Y-48297D01*
X28263Y-48299D01*
X28232Y-48296D01*
X28202Y-48289D01*
X28172Y-48277D01*
X28143Y-48261D01*
X28115Y-48240D01*
X28089Y-48214D01*
X28083Y-48208D01*
X28077Y-48202D01*
X28071Y-48196D01*
X28066Y-48191D01*
X28061Y-48186D01*
X28057Y-48182D01*
X28053Y-48179D01*
X28049Y-48177D01*
X28047Y-48175D01*
X28045Y-48175D01*
X28044Y-48175D01*
X28042Y-48177D01*
X28039Y-48179D01*
X28037Y-48183D01*
X28034Y-48187D01*
X28031Y-48192D01*
X28028Y-48198D01*
X28024Y-48204D01*
X28021Y-48210D01*
X28018Y-48217D01*
X28007Y-48237D01*
X27996Y-48256D01*
X27984Y-48275D01*
X27971Y-48292D01*
X27957Y-48309D01*
X27942Y-48325D01*
X27926Y-48340D01*
X27911Y-48353D01*
X27894Y-48365D01*
X27878Y-48376D01*
X27858Y-48386D01*
X27836Y-48394D01*
X27812Y-48401D01*
X27787Y-48406D01*
X27762Y-48410D01*
X27736Y-48411D01*
X27711Y-48411D01*
X27687Y-48409D01*
X27665Y-48405D01*
X27645Y-48399D01*
X27645Y-48399D01*
X27645Y-48399D01*
G37*
G36*
X15422Y-52650D02*
X15384Y-52645D01*
X15345Y-52638D01*
X15307Y-52632D01*
X15268Y-52624D01*
X15230Y-52617D01*
X15192Y-52608D01*
X15154Y-52599D01*
X15116Y-52590D01*
X15078Y-52580D01*
X15040Y-52570D01*
X15003Y-52559D01*
X14965Y-52547D01*
X14928Y-52535D01*
X14891Y-52523D01*
X14854Y-52510D01*
X14818Y-52497D01*
X14781Y-52483D01*
X14745Y-52468D01*
X14709Y-52453D01*
X14674Y-52438D01*
X14638Y-52422D01*
X14603Y-52406D01*
X14568Y-52389D01*
X14534Y-52372D01*
X14499Y-52354D01*
X14465Y-52336D01*
X14432Y-52318D01*
X14399Y-52299D01*
X14366Y-52279D01*
X14333Y-52259D01*
X14301Y-52239D01*
X14269Y-52219D01*
X14238Y-52197D01*
X14207Y-52176D01*
X14176Y-52154D01*
X14146Y-52132D01*
X14116Y-52109D01*
X14092Y-52090D01*
X14066Y-52068D01*
X14039Y-52043D01*
X14010Y-52017D01*
X13980Y-51988D01*
X13951Y-51959D01*
X13921Y-51929D01*
X13891Y-51898D01*
X13862Y-51868D01*
X13834Y-51837D01*
X13808Y-51808D01*
X13783Y-51780D01*
X13761Y-51753D01*
X13741Y-51728D01*
X13725Y-51705D01*
X13704Y-51674D01*
X13684Y-51643D01*
X13665Y-51611D01*
X13646Y-51579D01*
X13629Y-51546D01*
X13612Y-51512D01*
X13597Y-51478D01*
X13582Y-51444D01*
X13568Y-51409D01*
X13555Y-51374D01*
X13543Y-51338D01*
X13532Y-51302D01*
X13521Y-51266D01*
X13512Y-51229D01*
X13504Y-51192D01*
X13496Y-51155D01*
X13490Y-51117D01*
X13484Y-51080D01*
X13480Y-51042D01*
X13476Y-51004D01*
X13474Y-50966D01*
X13472Y-50927D01*
X13472Y-50889D01*
X13472Y-50855D01*
X13474Y-50821D01*
X13476Y-50787D01*
X13478Y-50754D01*
X13482Y-50721D01*
X13486Y-50687D01*
X13491Y-50654D01*
X13497Y-50622D01*
X13504Y-50589D01*
X13512Y-50557D01*
X13520Y-50524D01*
X13529Y-50492D01*
X13539Y-50461D01*
X13549Y-50429D01*
X13560Y-50398D01*
X13572Y-50367D01*
X13585Y-50336D01*
X13598Y-50305D01*
X13613Y-50275D01*
X13628Y-50245D01*
X13643Y-50215D01*
X13659Y-50185D01*
X13677Y-50156D01*
X13694Y-50127D01*
X13713Y-50098D01*
X13732Y-50069D01*
X13752Y-50041D01*
X13772Y-50013D01*
X13794Y-49985D01*
X13815Y-49958D01*
X13838Y-49931D01*
X13861Y-49904D01*
X13885Y-49877D01*
X13910Y-49851D01*
X13935Y-49825D01*
X13961Y-49800D01*
X13987Y-49775D01*
X14015Y-49750D01*
X14043Y-49725D01*
X14071Y-49701D01*
X14100Y-49677D01*
X14130Y-49654D01*
X14160Y-49631D01*
X14191Y-49608D01*
X14223Y-49586D01*
X14255Y-49564D01*
X14288Y-49542D01*
X14321Y-49521D01*
X14355Y-49500D01*
X14390Y-49480D01*
X14425Y-49460D01*
X14461Y-49440D01*
X14497Y-49421D01*
X14534Y-49402D01*
X14572Y-49384D01*
X14610Y-49366D01*
X14648Y-49349D01*
X14688Y-49332D01*
X14727Y-49315D01*
X14768Y-49299D01*
X14808Y-49283D01*
X14850Y-49268D01*
X14892Y-49253D01*
X14917Y-49245D01*
X14941Y-49237D01*
X14966Y-49229D01*
X14991Y-49222D01*
X15017Y-49214D01*
X15044Y-49208D01*
X15072Y-49201D01*
X15102Y-49194D01*
X15135Y-49187D01*
X15169Y-49180D01*
X15206Y-49173D01*
X15247Y-49165D01*
X15291Y-49157D01*
X15338Y-49149D01*
X15390Y-49140D01*
X15446Y-49131D01*
X15508Y-49120D01*
X15558Y-49112D01*
X15601Y-49105D01*
X15639Y-49099D01*
X15673Y-49094D01*
X15704Y-49091D01*
X15733Y-49088D01*
X15761Y-49085D01*
X15789Y-49084D01*
X15819Y-49083D01*
X15852Y-49083D01*
X15888Y-49083D01*
X15929Y-49083D01*
X15976Y-49084D01*
X16030Y-49085D01*
X16100Y-49087D01*
X16156Y-49088D01*
X16201Y-49088D01*
X16234Y-49088D01*
X16259Y-49088D01*
X16276Y-49086D01*
X16285Y-49084D01*
X16289Y-49081D01*
X16289Y-49077D01*
X16285Y-49072D01*
X16271Y-49053D01*
X16258Y-49033D01*
X16248Y-49012D01*
X16240Y-48990D01*
X16235Y-48968D01*
X16233Y-48945D01*
X16233Y-48923D01*
X16236Y-48900D01*
X16242Y-48879D01*
X16250Y-48858D01*
X16265Y-48832D01*
X16283Y-48809D01*
X16305Y-48787D01*
X16329Y-48768D01*
X16357Y-48751D01*
X16387Y-48736D01*
X16418Y-48723D01*
X16452Y-48713D01*
X16486Y-48705D01*
X16522Y-48699D01*
X16559Y-48696D01*
X16595Y-48695D01*
X16632Y-48696D01*
X16668Y-48701D01*
X16704Y-48707D01*
X16738Y-48717D01*
X16771Y-48729D01*
X16802Y-48743D01*
X16831Y-48761D01*
X16858Y-48781D01*
X16884Y-48806D01*
X16905Y-48832D01*
X16921Y-48859D01*
X16932Y-48887D01*
X16938Y-48914D01*
X16940Y-48942D01*
X16937Y-48970D01*
X16929Y-48998D01*
X16916Y-49025D01*
X16899Y-49051D01*
X16877Y-49076D01*
X16851Y-49099D01*
X16820Y-49121D01*
X16785Y-49141D01*
X16751Y-49159D01*
X16751Y-49159D01*
X16802Y-49172D01*
X16802Y-49172D01*
X16853Y-49185D01*
X16902Y-49198D01*
X16949Y-49211D01*
X16996Y-49225D01*
X17040Y-49238D01*
X17083Y-49252D01*
X17125Y-49265D01*
X17165Y-49279D01*
X17203Y-49292D01*
X17240Y-49306D01*
X17276Y-49320D01*
X17309Y-49333D01*
X17341Y-49347D01*
X17372Y-49361D01*
X17400Y-49375D01*
X17427Y-49388D01*
X17452Y-49402D01*
X17476Y-49416D01*
X17498Y-49429D01*
X17518Y-49443D01*
X17549Y-49466D01*
X17580Y-49489D01*
X17611Y-49513D01*
X17640Y-49536D01*
X17669Y-49560D01*
X17698Y-49584D01*
X17725Y-49609D01*
X17752Y-49633D01*
X17779Y-49658D01*
X17805Y-49684D01*
X17830Y-49709D01*
X17854Y-49735D01*
X17878Y-49762D01*
X17902Y-49788D01*
X17924Y-49815D01*
X17947Y-49843D01*
X17968Y-49870D01*
X17989Y-49899D01*
X18010Y-49927D01*
X18030Y-49956D01*
X18049Y-49986D01*
X18068Y-50016D01*
X18087Y-50046D01*
X18105Y-50077D01*
X18122Y-50108D01*
X18139Y-50140D01*
X18155Y-50173D01*
X18171Y-50206D01*
X18186Y-50239D01*
X18201Y-50273D01*
X18216Y-50308D01*
X18229Y-50343D01*
X18243Y-50379D01*
X18256Y-50415D01*
X18269Y-50452D01*
X18281Y-50490D01*
X18292Y-50528D01*
X18304Y-50567D01*
X18315Y-50607D01*
X18325Y-50647D01*
X18335Y-50688D01*
X18345Y-50730D01*
X18354Y-50772D01*
X18363Y-50815D01*
X18372Y-50859D01*
X18380Y-50904D01*
X18388Y-50949D01*
X18396Y-50999D01*
X18403Y-51042D01*
X18408Y-51081D01*
X18413Y-51116D01*
X18416Y-51147D01*
X18418Y-51177D01*
X18420Y-51206D01*
X18420Y-51236D01*
X18420Y-51266D01*
X18419Y-51299D01*
X18418Y-51334D01*
X18417Y-51363D01*
X18415Y-51388D01*
X18413Y-51409D01*
X18410Y-51427D01*
X18407Y-51444D01*
X18402Y-51460D01*
X18396Y-51476D01*
X18388Y-51494D01*
X18379Y-51513D01*
X18365Y-51542D01*
X18350Y-51571D01*
X18333Y-51600D01*
X18315Y-51629D01*
X18296Y-51659D01*
X18276Y-51688D01*
X18255Y-51718D01*
X18232Y-51747D01*
X18209Y-51777D01*
X18185Y-51807D01*
X18160Y-51836D01*
X18134Y-51866D01*
X18107Y-51895D01*
X18079Y-51924D01*
X18051Y-51953D01*
X18022Y-51981D01*
X17992Y-52009D01*
X17962Y-52037D01*
X17931Y-52064D01*
X17900Y-52091D01*
X17868Y-52117D01*
X17836Y-52143D01*
X17803Y-52168D01*
X17771Y-52192D01*
X17737Y-52216D01*
X17704Y-52239D01*
X17670Y-52261D01*
X17637Y-52283D01*
X17603Y-52303D01*
X17569Y-52323D01*
X17535Y-52341D01*
X17501Y-52359D01*
X17473Y-52373D01*
X17439Y-52388D01*
X17401Y-52405D01*
X17359Y-52423D01*
X17314Y-52442D01*
X17269Y-52460D01*
X17225Y-52478D01*
X17182Y-52495D01*
X17142Y-52510D01*
X17106Y-52523D01*
X17076Y-52533D01*
X17052Y-52541D01*
X17037Y-52545D01*
X17023Y-52547D01*
X17010Y-52547D01*
X16999Y-52546D01*
X16987Y-52542D01*
X16975Y-52535D01*
X16963Y-52526D01*
X16948Y-52512D01*
X16931Y-52495D01*
X16911Y-52473D01*
X16887Y-52446D01*
X16857Y-52414D01*
X16827Y-52384D01*
X16797Y-52356D01*
X16766Y-52330D01*
X16735Y-52306D01*
X16703Y-52284D01*
X16671Y-52264D01*
X16639Y-52247D01*
X16607Y-52231D01*
X16574Y-52218D01*
X16541Y-52207D01*
X16508Y-52198D01*
X16475Y-52191D01*
X16441Y-52187D01*
X16408Y-52184D01*
X16375Y-52184D01*
X16341Y-52186D01*
X16308Y-52190D01*
X16275Y-52197D01*
X16242Y-52206D01*
X16207Y-52217D01*
X16174Y-52229D01*
X16141Y-52243D01*
X16110Y-52258D01*
X16080Y-52275D01*
X16051Y-52293D01*
X16022Y-52313D01*
X15995Y-52335D01*
X15967Y-52359D01*
X15940Y-52384D01*
X15914Y-52411D01*
X15888Y-52441D01*
X15861Y-52473D01*
X15835Y-52507D01*
X15808Y-52543D01*
X15716Y-52674D01*
X15716Y-52674D01*
X15646Y-52673D01*
X15646Y-52673D01*
X15633Y-52672D01*
X15616Y-52671D01*
X15597Y-52670D01*
X15575Y-52668D01*
X15551Y-52665D01*
X15527Y-52663D01*
X15501Y-52660D01*
X15474Y-52657D01*
X15448Y-52654D01*
X15422Y-52650D01*
X15422Y-52650D01*
X15422Y-52650D01*
G37*
G36*
X13088Y-49865D02*
X13056Y-49853D01*
X13024Y-49839D01*
X12992Y-49825D01*
X12962Y-49808D01*
X12932Y-49790D01*
X12903Y-49771D01*
X12875Y-49750D01*
X12848Y-49729D01*
X12821Y-49705D01*
X12796Y-49681D01*
X12771Y-49655D01*
X12747Y-49628D01*
X12725Y-49600D01*
X12703Y-49571D01*
X12683Y-49540D01*
X12663Y-49509D01*
X12645Y-49477D01*
X12628Y-49444D01*
X12612Y-49409D01*
X12597Y-49374D01*
X12584Y-49338D01*
X12571Y-49301D01*
X12560Y-49264D01*
X12551Y-49225D01*
X12542Y-49186D01*
X12535Y-49147D01*
X12532Y-49116D01*
X12529Y-49081D01*
X12527Y-49044D01*
X12527Y-49005D01*
X12528Y-48964D01*
X12530Y-48923D01*
X12533Y-48882D01*
X12536Y-48842D01*
X12541Y-48803D01*
X12547Y-48767D01*
X12553Y-48734D01*
X12561Y-48705D01*
X12573Y-48666D01*
X12586Y-48628D01*
X12601Y-48591D01*
X12616Y-48555D01*
X12633Y-48520D01*
X12652Y-48486D01*
X12671Y-48453D01*
X12692Y-48422D01*
X12713Y-48392D01*
X12736Y-48363D01*
X12760Y-48335D01*
X12785Y-48309D01*
X12811Y-48284D01*
X12838Y-48260D01*
X12866Y-48238D01*
X12895Y-48217D01*
X12925Y-48198D01*
X12956Y-48180D01*
X12987Y-48163D01*
X13022Y-48148D01*
X13056Y-48134D01*
X13091Y-48122D01*
X13125Y-48112D01*
X13160Y-48104D01*
X13195Y-48098D01*
X13230Y-48093D01*
X13265Y-48091D01*
X13299Y-48090D01*
X13334Y-48091D01*
X13369Y-48094D01*
X13403Y-48099D01*
X13437Y-48105D01*
X13471Y-48114D01*
X13505Y-48124D01*
X13538Y-48136D01*
X13571Y-48150D01*
X13603Y-48165D01*
X13635Y-48183D01*
X13667Y-48202D01*
X13698Y-48223D01*
X13728Y-48246D01*
X13753Y-48266D01*
X13778Y-48290D01*
X13802Y-48315D01*
X13826Y-48342D01*
X13849Y-48371D01*
X13871Y-48402D01*
X13893Y-48434D01*
X13913Y-48467D01*
X13933Y-48502D01*
X13951Y-48537D01*
X13968Y-48573D01*
X13984Y-48610D01*
X13998Y-48647D01*
X14010Y-48685D01*
X14021Y-48722D01*
X14028Y-48751D01*
X14034Y-48783D01*
X14038Y-48818D01*
X14042Y-48855D01*
X14045Y-48894D01*
X14047Y-48935D01*
X14048Y-48976D01*
X14048Y-49017D01*
X14047Y-49058D01*
X14045Y-49097D01*
X14042Y-49135D01*
X14038Y-49171D01*
X14033Y-49204D01*
X14027Y-49234D01*
X14017Y-49273D01*
X14005Y-49311D01*
X13993Y-49349D01*
X13978Y-49386D01*
X13963Y-49423D01*
X13946Y-49458D01*
X13928Y-49493D01*
X13910Y-49526D01*
X13890Y-49558D01*
X13869Y-49588D01*
X13847Y-49617D01*
X13825Y-49644D01*
X13802Y-49669D01*
X13778Y-49692D01*
X13747Y-49720D01*
X13717Y-49745D01*
X13686Y-49768D01*
X13655Y-49788D01*
X13625Y-49807D01*
X13593Y-49823D01*
X13561Y-49837D01*
X13529Y-49849D01*
X13495Y-49859D01*
X13459Y-49868D01*
X13423Y-49875D01*
X13384Y-49880D01*
X13344Y-49884D01*
X13301Y-49887D01*
X13269Y-49888D01*
X13241Y-49888D01*
X13217Y-49888D01*
X13197Y-49888D01*
X13178Y-49886D01*
X13161Y-49884D01*
X13144Y-49881D01*
X13127Y-49877D01*
X13109Y-49871D01*
X13088Y-49865D01*
X13088Y-49865D01*
X13088Y-49865D01*
G37*
G36*
X15745Y-49058D02*
X15718Y-49048D01*
X15691Y-49035D01*
X15664Y-49018D01*
X15639Y-48999D01*
X15615Y-48978D01*
X15592Y-48953D01*
X15570Y-48927D01*
X15549Y-48898D01*
X15530Y-48868D01*
X15512Y-48836D01*
X15497Y-48803D01*
X15482Y-48768D01*
X15470Y-48732D01*
X15460Y-48696D01*
X15452Y-48659D01*
X15445Y-48622D01*
X15442Y-48584D01*
X15440Y-48547D01*
X15442Y-48509D01*
X15445Y-48473D01*
X15453Y-48431D01*
X15463Y-48392D01*
X15475Y-48356D01*
X15490Y-48323D01*
X15507Y-48293D01*
X15527Y-48265D01*
X15548Y-48240D01*
X15572Y-48219D01*
X15598Y-48201D01*
X15626Y-48185D01*
X15656Y-48173D01*
X15688Y-48165D01*
X15721Y-48160D01*
X15757Y-48158D01*
X15787Y-48160D01*
X15817Y-48164D01*
X15846Y-48172D01*
X15874Y-48182D01*
X15901Y-48195D01*
X15927Y-48211D01*
X15953Y-48229D01*
X15977Y-48249D01*
X15999Y-48271D01*
X16021Y-48296D01*
X16041Y-48322D01*
X16059Y-48349D01*
X16076Y-48379D01*
X16092Y-48409D01*
X16106Y-48441D01*
X16118Y-48475D01*
X16128Y-48509D01*
X16136Y-48544D01*
X16142Y-48579D01*
X16146Y-48616D01*
X16148Y-48652D01*
X16148Y-48689D01*
X16146Y-48726D01*
X16141Y-48763D01*
X16134Y-48801D01*
X16124Y-48837D01*
X16111Y-48874D01*
X16095Y-48908D01*
X16076Y-48938D01*
X16055Y-48967D01*
X16031Y-48991D01*
X16005Y-49013D01*
X15977Y-49032D01*
X15948Y-49047D01*
X15917Y-49058D01*
X15884Y-49066D01*
X15851Y-49070D01*
X15816Y-49070D01*
X15781Y-49066D01*
X15745Y-49058D01*
X15745Y-49058D01*
X15745Y-49058D01*
G37*
G36*
X14338Y-48793D02*
X14310Y-48781D01*
X14284Y-48766D01*
X14259Y-48748D01*
X14235Y-48728D01*
X14213Y-48705D01*
X14192Y-48680D01*
X14173Y-48652D01*
X14155Y-48621D01*
X14140Y-48588D01*
X14125Y-48553D01*
X14113Y-48516D01*
X14102Y-48476D01*
X14093Y-48434D01*
X14086Y-48393D01*
X14081Y-48353D01*
X14078Y-48312D01*
X14078Y-48272D01*
X14079Y-48233D01*
X14082Y-48194D01*
X14087Y-48156D01*
X14094Y-48119D01*
X14102Y-48084D01*
X14112Y-48049D01*
X14124Y-48016D01*
X14138Y-47985D01*
X14153Y-47955D01*
X14170Y-47927D01*
X14188Y-47901D01*
X14208Y-47877D01*
X14229Y-47855D01*
X14251Y-47836D01*
X14275Y-47819D01*
X14300Y-47804D01*
X14325Y-47793D01*
X14352Y-47784D01*
X14380Y-47778D01*
X14409Y-47775D01*
X14437Y-47774D01*
X14466Y-47775D01*
X14494Y-47779D01*
X14520Y-47786D01*
X14545Y-47795D01*
X14569Y-47807D01*
X14585Y-47817D01*
X14601Y-47829D01*
X14617Y-47842D01*
X14632Y-47857D01*
X14646Y-47872D01*
X14660Y-47888D01*
X14674Y-47906D01*
X14686Y-47924D01*
X14698Y-47943D01*
X14708Y-47962D01*
X14728Y-48000D01*
X14728Y-48000D01*
X14759Y-47960D01*
X14759Y-47960D01*
X14782Y-47933D01*
X14808Y-47909D01*
X14836Y-47889D01*
X14864Y-47874D01*
X14894Y-47862D01*
X14925Y-47855D01*
X14956Y-47852D01*
X14987Y-47853D01*
X15017Y-47858D01*
X15048Y-47868D01*
X15077Y-47882D01*
X15105Y-47900D01*
X15127Y-47920D01*
X15148Y-47942D01*
X15166Y-47966D01*
X15183Y-47994D01*
X15198Y-48023D01*
X15211Y-48054D01*
X15222Y-48086D01*
X15232Y-48120D01*
X15239Y-48155D01*
X15245Y-48191D01*
X15248Y-48227D01*
X15250Y-48264D01*
X15249Y-48301D01*
X15247Y-48337D01*
X15243Y-48373D01*
X15237Y-48409D01*
X15228Y-48443D01*
X15218Y-48476D01*
X15206Y-48507D01*
X15191Y-48537D01*
X15175Y-48565D01*
X15157Y-48590D01*
X15136Y-48613D01*
X15109Y-48638D01*
X15080Y-48658D01*
X15050Y-48673D01*
X15019Y-48684D01*
X14988Y-48691D01*
X14956Y-48692D01*
X14925Y-48690D01*
X14894Y-48683D01*
X14864Y-48671D01*
X14835Y-48654D01*
X14808Y-48634D01*
X14782Y-48608D01*
X14776Y-48602D01*
X14770Y-48596D01*
X14764Y-48590D01*
X14759Y-48585D01*
X14754Y-48580D01*
X14749Y-48576D01*
X14746Y-48573D01*
X14742Y-48570D01*
X14740Y-48569D01*
X14738Y-48568D01*
X14737Y-48569D01*
X14735Y-48571D01*
X14732Y-48573D01*
X14730Y-48577D01*
X14727Y-48581D01*
X14724Y-48586D01*
X14721Y-48591D01*
X14717Y-48597D01*
X14714Y-48604D01*
X14710Y-48611D01*
X14700Y-48630D01*
X14689Y-48650D01*
X14677Y-48668D01*
X14664Y-48686D01*
X14649Y-48703D01*
X14635Y-48719D01*
X14619Y-48733D01*
X14604Y-48747D01*
X14587Y-48759D01*
X14571Y-48769D01*
X14551Y-48779D01*
X14529Y-48788D01*
X14505Y-48795D01*
X14480Y-48800D01*
X14455Y-48803D01*
X14429Y-48805D01*
X14404Y-48805D01*
X14380Y-48803D01*
X14358Y-48799D01*
X14338Y-48793D01*
X14338Y-48793D01*
X14338Y-48793D01*
G37*
G36*
X39163Y-55445D02*
X39124Y-55440D01*
X39085Y-55434D01*
X39047Y-55427D01*
X39008Y-55420D01*
X38970Y-55412D01*
X38932Y-55404D01*
X38894Y-55395D01*
X38856Y-55385D01*
X38818Y-55375D01*
X38780Y-55365D01*
X38743Y-55354D01*
X38705Y-55343D01*
X38668Y-55331D01*
X38631Y-55318D01*
X38594Y-55305D01*
X38558Y-55292D01*
X38521Y-55278D01*
X38485Y-55264D01*
X38449Y-55249D01*
X38414Y-55233D01*
X38378Y-55217D01*
X38343Y-55201D01*
X38308Y-55184D01*
X38274Y-55167D01*
X38240Y-55150D01*
X38206Y-55132D01*
X38172Y-55113D01*
X38139Y-55094D01*
X38106Y-55075D01*
X38073Y-55055D01*
X38041Y-55034D01*
X38009Y-55014D01*
X37978Y-54993D01*
X37947Y-54971D01*
X37916Y-54949D01*
X37886Y-54927D01*
X37856Y-54904D01*
X37832Y-54885D01*
X37806Y-54863D01*
X37779Y-54838D01*
X37750Y-54812D01*
X37721Y-54784D01*
X37691Y-54754D01*
X37661Y-54724D01*
X37631Y-54694D01*
X37602Y-54663D01*
X37574Y-54633D01*
X37548Y-54603D01*
X37523Y-54575D01*
X37501Y-54548D01*
X37482Y-54523D01*
X37465Y-54500D01*
X37444Y-54470D01*
X37424Y-54438D01*
X37405Y-54407D01*
X37387Y-54374D01*
X37369Y-54341D01*
X37352Y-54308D01*
X37337Y-54274D01*
X37322Y-54239D01*
X37308Y-54204D01*
X37295Y-54169D01*
X37283Y-54134D01*
X37272Y-54097D01*
X37262Y-54061D01*
X37252Y-54024D01*
X37244Y-53987D01*
X37237Y-53950D01*
X37230Y-53913D01*
X37225Y-53875D01*
X37220Y-53837D01*
X37217Y-53799D01*
X37214Y-53761D01*
X37213Y-53723D01*
X37212Y-53684D01*
X37213Y-53650D01*
X37214Y-53616D01*
X37216Y-53583D01*
X37219Y-53549D01*
X37222Y-53516D01*
X37226Y-53483D01*
X37232Y-53450D01*
X37238Y-53417D01*
X37244Y-53384D01*
X37252Y-53352D01*
X37260Y-53320D01*
X37269Y-53288D01*
X37279Y-53256D01*
X37289Y-53224D01*
X37300Y-53193D01*
X37312Y-53162D01*
X37325Y-53131D01*
X37339Y-53100D01*
X37353Y-53070D01*
X37368Y-53040D01*
X37383Y-53010D01*
X37400Y-52980D01*
X37417Y-52951D01*
X37434Y-52922D01*
X37453Y-52893D01*
X37472Y-52864D01*
X37492Y-52836D01*
X37512Y-52808D01*
X37534Y-52780D01*
X37556Y-52753D01*
X37578Y-52726D01*
X37601Y-52699D01*
X37625Y-52673D01*
X37650Y-52647D01*
X37675Y-52621D01*
X37701Y-52595D01*
X37728Y-52570D01*
X37755Y-52545D01*
X37783Y-52521D01*
X37811Y-52497D01*
X37840Y-52473D01*
X37870Y-52449D01*
X37900Y-52426D01*
X37931Y-52403D01*
X37963Y-52381D01*
X37995Y-52359D01*
X38028Y-52338D01*
X38061Y-52316D01*
X38095Y-52296D01*
X38130Y-52275D01*
X38165Y-52255D01*
X38201Y-52236D01*
X38237Y-52216D01*
X38274Y-52198D01*
X38312Y-52179D01*
X38350Y-52161D01*
X38388Y-52144D01*
X38428Y-52127D01*
X38467Y-52110D01*
X38508Y-52094D01*
X38549Y-52078D01*
X38590Y-52063D01*
X38632Y-52048D01*
X38657Y-52040D01*
X38682Y-52032D01*
X38706Y-52024D01*
X38732Y-52017D01*
X38757Y-52010D01*
X38784Y-52003D01*
X38813Y-51996D01*
X38843Y-51989D01*
X38875Y-51982D01*
X38909Y-51975D01*
X38947Y-51968D01*
X38987Y-51960D01*
X39031Y-51952D01*
X39079Y-51944D01*
X39130Y-51935D01*
X39187Y-51926D01*
X39248Y-51916D01*
X39298Y-51908D01*
X39341Y-51901D01*
X39380Y-51895D01*
X39413Y-51890D01*
X39444Y-51886D01*
X39473Y-51883D01*
X39501Y-51881D01*
X39530Y-51879D01*
X39559Y-51878D01*
X39592Y-51878D01*
X39628Y-51878D01*
X39669Y-51879D01*
X39716Y-51879D01*
X39771Y-51881D01*
X39840Y-51882D01*
X39896Y-51883D01*
X39941Y-51884D01*
X39975Y-51884D01*
X39999Y-51883D01*
X40016Y-51881D01*
X40025Y-51879D01*
X40030Y-51876D01*
X40029Y-51872D01*
X40026Y-51867D01*
X40011Y-51848D01*
X39998Y-51828D01*
X39988Y-51807D01*
X39981Y-51785D01*
X39976Y-51763D01*
X39973Y-51740D01*
X39973Y-51718D01*
X39976Y-51696D01*
X39982Y-51674D01*
X39990Y-51653D01*
X40005Y-51627D01*
X40023Y-51604D01*
X40045Y-51583D01*
X40070Y-51563D01*
X40097Y-51546D01*
X40127Y-51531D01*
X40158Y-51518D01*
X40192Y-51508D01*
X40227Y-51500D01*
X40262Y-51494D01*
X40299Y-51491D01*
X40335Y-51490D01*
X40372Y-51492D01*
X40408Y-51496D01*
X40444Y-51503D01*
X40478Y-51512D01*
X40511Y-51524D01*
X40542Y-51539D01*
X40572Y-51556D01*
X40598Y-51576D01*
X40624Y-51601D01*
X40645Y-51627D01*
X40661Y-51654D01*
X40672Y-51682D01*
X40678Y-51710D01*
X40680Y-51738D01*
X40677Y-51766D01*
X40669Y-51793D01*
X40656Y-51820D01*
X40639Y-51846D01*
X40617Y-51871D01*
X40591Y-51894D01*
X40560Y-51917D01*
X40525Y-51937D01*
X40491Y-51954D01*
X40491Y-51954D01*
X40542Y-51967D01*
X40542Y-51967D01*
X40593Y-51980D01*
X40642Y-51993D01*
X40690Y-52007D01*
X40736Y-52020D01*
X40780Y-52033D01*
X40824Y-52047D01*
X40865Y-52060D01*
X40905Y-52074D01*
X40944Y-52088D01*
X40981Y-52101D01*
X41016Y-52115D01*
X41049Y-52129D01*
X41081Y-52142D01*
X41112Y-52156D01*
X41140Y-52170D01*
X41167Y-52184D01*
X41193Y-52197D01*
X41216Y-52211D01*
X41238Y-52225D01*
X41258Y-52238D01*
X41289Y-52261D01*
X41320Y-52285D01*
X41351Y-52308D01*
X41380Y-52332D01*
X41409Y-52355D01*
X41438Y-52380D01*
X41465Y-52404D01*
X41492Y-52429D01*
X41519Y-52454D01*
X41545Y-52479D01*
X41570Y-52505D01*
X41594Y-52531D01*
X41618Y-52557D01*
X41642Y-52584D01*
X41665Y-52611D01*
X41687Y-52638D01*
X41708Y-52666D01*
X41730Y-52694D01*
X41750Y-52723D01*
X41770Y-52752D01*
X41790Y-52781D01*
X41808Y-52811D01*
X41827Y-52841D01*
X41845Y-52872D01*
X41862Y-52904D01*
X41879Y-52936D01*
X41895Y-52968D01*
X41911Y-53001D01*
X41926Y-53035D01*
X41941Y-53069D01*
X41956Y-53103D01*
X41970Y-53138D01*
X41983Y-53174D01*
X41996Y-53211D01*
X42009Y-53248D01*
X42021Y-53285D01*
X42033Y-53324D01*
X42044Y-53362D01*
X42055Y-53402D01*
X42065Y-53442D01*
X42075Y-53483D01*
X42085Y-53525D01*
X42094Y-53567D01*
X42103Y-53611D01*
X42112Y-53654D01*
X42120Y-53699D01*
X42128Y-53744D01*
X42136Y-53794D01*
X42143Y-53838D01*
X42149Y-53876D01*
X42153Y-53911D01*
X42156Y-53943D01*
X42158Y-53973D01*
X42160Y-54002D01*
X42160Y-54031D01*
X42160Y-54061D01*
X42160Y-54094D01*
X42158Y-54129D01*
X42157Y-54158D01*
X42156Y-54183D01*
X42153Y-54204D01*
X42151Y-54222D01*
X42147Y-54239D01*
X42142Y-54255D01*
X42136Y-54271D01*
X42128Y-54289D01*
X42119Y-54309D01*
X42105Y-54337D01*
X42090Y-54366D01*
X42073Y-54395D01*
X42055Y-54424D01*
X42036Y-54454D01*
X42016Y-54483D01*
X41995Y-54513D01*
X41973Y-54543D01*
X41949Y-54572D01*
X41925Y-54602D01*
X41900Y-54632D01*
X41874Y-54661D01*
X41847Y-54690D01*
X41819Y-54719D01*
X41791Y-54748D01*
X41762Y-54776D01*
X41732Y-54804D01*
X41702Y-54832D01*
X41671Y-54859D01*
X41640Y-54886D01*
X41608Y-54912D01*
X41576Y-54938D01*
X41544Y-54963D01*
X41511Y-54987D01*
X41478Y-55011D01*
X41444Y-55034D01*
X41410Y-55056D01*
X41377Y-55078D01*
X41343Y-55098D01*
X41309Y-55118D01*
X41275Y-55137D01*
X41241Y-55154D01*
X41213Y-55168D01*
X41179Y-55183D01*
X41141Y-55200D01*
X41099Y-55218D01*
X41055Y-55237D01*
X41010Y-55255D01*
X40965Y-55273D01*
X40922Y-55290D01*
X40882Y-55305D01*
X40846Y-55318D01*
X40816Y-55329D01*
X40793Y-55336D01*
X40777Y-55340D01*
X40763Y-55342D01*
X40750Y-55342D01*
X40739Y-55341D01*
X40727Y-55337D01*
X40716Y-55331D01*
X40703Y-55321D01*
X40688Y-55308D01*
X40671Y-55290D01*
X40651Y-55268D01*
X40627Y-55241D01*
X40597Y-55209D01*
X40567Y-55179D01*
X40537Y-55151D01*
X40506Y-55125D01*
X40475Y-55101D01*
X40444Y-55079D01*
X40412Y-55060D01*
X40379Y-55042D01*
X40347Y-55027D01*
X40314Y-55013D01*
X40281Y-55002D01*
X40248Y-54993D01*
X40215Y-54987D01*
X40182Y-54982D01*
X40148Y-54979D01*
X40115Y-54979D01*
X40081Y-54981D01*
X40048Y-54986D01*
X40015Y-54992D01*
X39982Y-55001D01*
X39947Y-55012D01*
X39914Y-55025D01*
X39882Y-55038D01*
X39851Y-55054D01*
X39820Y-55070D01*
X39791Y-55089D01*
X39763Y-55109D01*
X39735Y-55130D01*
X39708Y-55154D01*
X39681Y-55179D01*
X39654Y-55207D01*
X39628Y-55236D01*
X39601Y-55268D01*
X39575Y-55302D01*
X39549Y-55338D01*
X39456Y-55469D01*
X39456Y-55469D01*
X39386Y-55468D01*
X39386Y-55468D01*
X39373Y-55467D01*
X39356Y-55466D01*
X39337Y-55465D01*
X39315Y-55463D01*
X39292Y-55461D01*
X39267Y-55458D01*
X39241Y-55455D01*
X39215Y-55452D01*
X39188Y-55449D01*
X39163Y-55445D01*
X39163Y-55445D01*
X39163Y-55445D01*
G37*
G36*
X36829Y-52660D02*
X36796Y-52648D01*
X36764Y-52635D01*
X36733Y-52620D01*
X36702Y-52603D01*
X36672Y-52586D01*
X36643Y-52566D01*
X36615Y-52546D01*
X36588Y-52524D01*
X36561Y-52501D01*
X36536Y-52476D01*
X36511Y-52450D01*
X36488Y-52423D01*
X36465Y-52395D01*
X36444Y-52366D01*
X36423Y-52336D01*
X36404Y-52304D01*
X36385Y-52272D01*
X36368Y-52239D01*
X36352Y-52205D01*
X36337Y-52169D01*
X36324Y-52133D01*
X36312Y-52097D01*
X36301Y-52059D01*
X36291Y-52021D01*
X36283Y-51982D01*
X36276Y-51942D01*
X36272Y-51911D01*
X36269Y-51877D01*
X36268Y-51839D01*
X36267Y-51800D01*
X36268Y-51759D01*
X36270Y-51718D01*
X36273Y-51677D01*
X36276Y-51637D01*
X36281Y-51599D01*
X36287Y-51562D01*
X36293Y-51530D01*
X36301Y-51500D01*
X36313Y-51461D01*
X36326Y-51423D01*
X36341Y-51386D01*
X36356Y-51350D01*
X36374Y-51315D01*
X36392Y-51281D01*
X36411Y-51249D01*
X36432Y-51217D01*
X36454Y-51187D01*
X36476Y-51158D01*
X36500Y-51130D01*
X36525Y-51104D01*
X36551Y-51079D01*
X36578Y-51055D01*
X36606Y-51033D01*
X36635Y-51012D01*
X36665Y-50993D01*
X36696Y-50975D01*
X36728Y-50959D01*
X36762Y-50943D01*
X36796Y-50929D01*
X36831Y-50918D01*
X36865Y-50908D01*
X36900Y-50899D01*
X36935Y-50893D01*
X36970Y-50889D01*
X37005Y-50886D01*
X37040Y-50885D01*
X37074Y-50886D01*
X37109Y-50889D01*
X37143Y-50894D01*
X37177Y-50901D01*
X37211Y-50909D01*
X37245Y-50919D01*
X37278Y-50931D01*
X37311Y-50945D01*
X37343Y-50961D01*
X37375Y-50978D01*
X37407Y-50997D01*
X37438Y-51018D01*
X37468Y-51041D01*
X37493Y-51062D01*
X37518Y-51085D01*
X37542Y-51110D01*
X37566Y-51137D01*
X37589Y-51167D01*
X37611Y-51197D01*
X37633Y-51229D01*
X37653Y-51263D01*
X37673Y-51297D01*
X37691Y-51333D01*
X37708Y-51369D01*
X37724Y-51405D01*
X37738Y-51443D01*
X37750Y-51480D01*
X37761Y-51518D01*
X37768Y-51546D01*
X37774Y-51578D01*
X37779Y-51613D01*
X37782Y-51651D01*
X37785Y-51690D01*
X37787Y-51730D01*
X37788Y-51771D01*
X37788Y-51812D01*
X37787Y-51853D01*
X37785Y-51892D01*
X37782Y-51930D01*
X37778Y-51966D01*
X37773Y-52000D01*
X37767Y-52030D01*
X37757Y-52068D01*
X37746Y-52106D01*
X37733Y-52144D01*
X37719Y-52181D01*
X37703Y-52218D01*
X37686Y-52253D01*
X37669Y-52288D01*
X37650Y-52321D01*
X37630Y-52353D01*
X37609Y-52383D01*
X37587Y-52412D01*
X37565Y-52439D01*
X37542Y-52464D01*
X37519Y-52487D01*
X37487Y-52515D01*
X37457Y-52540D01*
X37426Y-52563D01*
X37396Y-52584D01*
X37365Y-52602D01*
X37334Y-52618D01*
X37302Y-52632D01*
X37269Y-52644D01*
X37235Y-52655D01*
X37200Y-52663D01*
X37163Y-52670D01*
X37124Y-52676D01*
X37084Y-52679D01*
X37041Y-52682D01*
X37009Y-52683D01*
X36981Y-52684D01*
X36958Y-52684D01*
X36937Y-52683D01*
X36918Y-52682D01*
X36901Y-52679D01*
X36884Y-52676D01*
X36867Y-52672D01*
X36849Y-52666D01*
X36829Y-52660D01*
X36829Y-52660D01*
X36829Y-52660D01*
G37*
G36*
X39486Y-51853D02*
X39458Y-51843D01*
X39431Y-51830D01*
X39405Y-51814D01*
X39379Y-51795D01*
X39355Y-51773D01*
X39332Y-51749D01*
X39310Y-51722D01*
X39289Y-51694D01*
X39270Y-51663D01*
X39253Y-51631D01*
X39237Y-51598D01*
X39222Y-51563D01*
X39210Y-51528D01*
X39200Y-51491D01*
X39192Y-51454D01*
X39186Y-51417D01*
X39182Y-51379D01*
X39181Y-51342D01*
X39182Y-51305D01*
X39186Y-51268D01*
X39193Y-51226D01*
X39203Y-51188D01*
X39215Y-51152D01*
X39230Y-51118D01*
X39247Y-51088D01*
X39267Y-51060D01*
X39289Y-51036D01*
X39312Y-51014D01*
X39338Y-50996D01*
X39366Y-50981D01*
X39396Y-50969D01*
X39428Y-50960D01*
X39461Y-50955D01*
X39497Y-50953D01*
X39527Y-50955D01*
X39557Y-50960D01*
X39586Y-50967D01*
X39614Y-50978D01*
X39641Y-50991D01*
X39668Y-51006D01*
X39693Y-51024D01*
X39717Y-51044D01*
X39739Y-51067D01*
X39761Y-51091D01*
X39781Y-51117D01*
X39799Y-51145D01*
X39817Y-51174D01*
X39832Y-51205D01*
X39846Y-51237D01*
X39858Y-51270D01*
X39868Y-51304D01*
X39876Y-51339D01*
X39882Y-51375D01*
X39886Y-51411D01*
X39889Y-51447D01*
X39888Y-51484D01*
X39886Y-51522D01*
X39881Y-51559D01*
X39874Y-51596D01*
X39864Y-51633D01*
X39851Y-51669D01*
X39835Y-51703D01*
X39816Y-51734D01*
X39795Y-51762D01*
X39771Y-51787D01*
X39745Y-51809D01*
X39717Y-51827D01*
X39688Y-51842D01*
X39657Y-51853D01*
X39624Y-51861D01*
X39591Y-51865D01*
X39556Y-51865D01*
X39521Y-51861D01*
X39486Y-51853D01*
X39486Y-51853D01*
X39486Y-51853D01*
G37*
G36*
X38078Y-51588D02*
X38050Y-51576D01*
X38024Y-51561D01*
X37999Y-51544D01*
X37975Y-51523D01*
X37953Y-51500D01*
X37932Y-51475D01*
X37913Y-51447D01*
X37896Y-51416D01*
X37880Y-51384D01*
X37865Y-51348D01*
X37853Y-51311D01*
X37842Y-51271D01*
X37833Y-51230D01*
X37826Y-51189D01*
X37821Y-51148D01*
X37818Y-51107D01*
X37818Y-51067D01*
X37819Y-51028D01*
X37822Y-50989D01*
X37827Y-50951D01*
X37834Y-50915D01*
X37842Y-50879D01*
X37852Y-50845D01*
X37864Y-50812D01*
X37878Y-50780D01*
X37893Y-50750D01*
X37910Y-50722D01*
X37928Y-50696D01*
X37948Y-50672D01*
X37969Y-50651D01*
X37991Y-50631D01*
X38015Y-50614D01*
X38040Y-50599D01*
X38066Y-50588D01*
X38092Y-50580D01*
X38120Y-50574D01*
X38149Y-50570D01*
X38177Y-50569D01*
X38206Y-50571D01*
X38234Y-50575D01*
X38260Y-50581D01*
X38286Y-50591D01*
X38309Y-50602D01*
X38325Y-50613D01*
X38341Y-50624D01*
X38357Y-50638D01*
X38372Y-50652D01*
X38387Y-50667D01*
X38401Y-50684D01*
X38414Y-50701D01*
X38426Y-50719D01*
X38438Y-50738D01*
X38449Y-50757D01*
X38468Y-50795D01*
X38468Y-50795D01*
X38499Y-50755D01*
X38499Y-50755D01*
X38522Y-50728D01*
X38548Y-50704D01*
X38576Y-50685D01*
X38604Y-50669D01*
X38634Y-50657D01*
X38665Y-50650D01*
X38696Y-50647D01*
X38727Y-50648D01*
X38758Y-50653D01*
X38788Y-50663D01*
X38817Y-50677D01*
X38845Y-50696D01*
X38867Y-50715D01*
X38888Y-50737D01*
X38907Y-50762D01*
X38923Y-50789D01*
X38938Y-50818D01*
X38951Y-50849D01*
X38963Y-50882D01*
X38972Y-50916D01*
X38979Y-50951D01*
X38985Y-50986D01*
X38988Y-51023D01*
X38990Y-51059D01*
X38990Y-51096D01*
X38987Y-51133D01*
X38983Y-51169D01*
X38977Y-51204D01*
X38968Y-51238D01*
X38958Y-51271D01*
X38946Y-51303D01*
X38932Y-51332D01*
X38915Y-51360D01*
X38897Y-51385D01*
X38876Y-51408D01*
X38849Y-51433D01*
X38820Y-51453D01*
X38790Y-51469D01*
X38759Y-51479D01*
X38728Y-51486D01*
X38696Y-51488D01*
X38665Y-51485D01*
X38635Y-51478D01*
X38605Y-51466D01*
X38576Y-51450D01*
X38548Y-51429D01*
X38522Y-51403D01*
X38516Y-51397D01*
X38510Y-51391D01*
X38504Y-51385D01*
X38499Y-51380D01*
X38494Y-51375D01*
X38490Y-51371D01*
X38486Y-51368D01*
X38482Y-51366D01*
X38480Y-51364D01*
X38478Y-51364D01*
X38477Y-51364D01*
X38475Y-51366D01*
X38473Y-51368D01*
X38470Y-51372D01*
X38467Y-51376D01*
X38464Y-51381D01*
X38461Y-51387D01*
X38457Y-51393D01*
X38454Y-51399D01*
X38451Y-51406D01*
X38440Y-51426D01*
X38429Y-51445D01*
X38417Y-51463D01*
X38404Y-51481D01*
X38390Y-51498D01*
X38375Y-51514D01*
X38360Y-51529D01*
X38344Y-51542D01*
X38328Y-51554D01*
X38311Y-51565D01*
X38291Y-51575D01*
X38269Y-51583D01*
X38245Y-51590D01*
X38221Y-51595D01*
X38195Y-51599D01*
X38169Y-51600D01*
X38144Y-51600D01*
X38120Y-51598D01*
X38098Y-51594D01*
X38078Y-51588D01*
X38078Y-51588D01*
X38078Y-51588D01*
G37*
G36*
X40580Y-37926D02*
X40541Y-37920D01*
X40503Y-37914D01*
X40464Y-37907D01*
X40426Y-37900D01*
X40387Y-37892D01*
X40349Y-37884D01*
X40311Y-37875D01*
X40273Y-37866D01*
X40235Y-37856D01*
X40198Y-37845D01*
X40160Y-37834D01*
X40123Y-37823D01*
X40086Y-37811D01*
X40049Y-37799D01*
X40012Y-37786D01*
X39975Y-37772D01*
X39939Y-37758D01*
X39903Y-37744D01*
X39867Y-37729D01*
X39831Y-37714D01*
X39796Y-37698D01*
X39761Y-37682D01*
X39726Y-37665D01*
X39691Y-37648D01*
X39657Y-37630D01*
X39623Y-37612D01*
X39589Y-37593D01*
X39556Y-37574D01*
X39523Y-37555D01*
X39491Y-37535D01*
X39458Y-37515D01*
X39427Y-37494D01*
X39395Y-37473D01*
X39364Y-37452D01*
X39334Y-37430D01*
X39304Y-37407D01*
X39274Y-37385D01*
X39250Y-37365D01*
X39224Y-37343D01*
X39196Y-37319D01*
X39167Y-37292D01*
X39138Y-37264D01*
X39108Y-37235D01*
X39078Y-37205D01*
X39048Y-37174D01*
X39019Y-37143D01*
X38992Y-37113D01*
X38965Y-37083D01*
X38941Y-37055D01*
X38919Y-37028D01*
X38899Y-37003D01*
X38882Y-36981D01*
X38861Y-36950D01*
X38841Y-36919D01*
X38822Y-36887D01*
X38804Y-36854D01*
X38786Y-36821D01*
X38770Y-36788D01*
X38754Y-36754D01*
X38739Y-36720D01*
X38725Y-36685D01*
X38712Y-36649D01*
X38700Y-36614D01*
X38689Y-36578D01*
X38679Y-36541D01*
X38670Y-36505D01*
X38661Y-36468D01*
X38654Y-36431D01*
X38647Y-36393D01*
X38642Y-36355D01*
X38637Y-36317D01*
X38634Y-36279D01*
X38631Y-36241D01*
X38630Y-36203D01*
X38629Y-36164D01*
X38630Y-36130D01*
X38631Y-36097D01*
X38633Y-36063D01*
X38636Y-36029D01*
X38639Y-35996D01*
X38644Y-35963D01*
X38649Y-35930D01*
X38655Y-35897D01*
X38662Y-35865D01*
X38669Y-35832D01*
X38677Y-35800D01*
X38686Y-35768D01*
X38696Y-35736D01*
X38707Y-35705D01*
X38718Y-35673D01*
X38730Y-35642D01*
X38742Y-35611D01*
X38756Y-35581D01*
X38770Y-35550D01*
X38785Y-35520D01*
X38801Y-35490D01*
X38817Y-35461D01*
X38834Y-35431D01*
X38852Y-35402D01*
X38870Y-35373D01*
X38889Y-35345D01*
X38909Y-35316D01*
X38930Y-35289D01*
X38951Y-35261D01*
X38973Y-35233D01*
X38996Y-35206D01*
X39019Y-35180D01*
X39043Y-35153D01*
X39067Y-35127D01*
X39093Y-35101D01*
X39118Y-35076D01*
X39145Y-35050D01*
X39172Y-35025D01*
X39200Y-35001D01*
X39228Y-34977D01*
X39258Y-34953D01*
X39287Y-34930D01*
X39318Y-34906D01*
X39349Y-34884D01*
X39380Y-34861D01*
X39412Y-34839D01*
X39445Y-34818D01*
X39479Y-34797D01*
X39513Y-34776D01*
X39547Y-34755D01*
X39582Y-34735D01*
X39618Y-34716D01*
X39655Y-34697D01*
X39692Y-34678D01*
X39729Y-34660D01*
X39767Y-34642D01*
X39806Y-34624D01*
X39845Y-34607D01*
X39885Y-34591D01*
X39925Y-34574D01*
X39966Y-34559D01*
X40007Y-34543D01*
X40049Y-34529D01*
X40074Y-34520D01*
X40099Y-34512D01*
X40124Y-34505D01*
X40149Y-34497D01*
X40175Y-34490D01*
X40202Y-34483D01*
X40230Y-34476D01*
X40260Y-34469D01*
X40292Y-34462D01*
X40327Y-34455D01*
X40364Y-34448D01*
X40404Y-34441D01*
X40448Y-34433D01*
X40496Y-34424D01*
X40548Y-34416D01*
X40604Y-34406D01*
X40665Y-34396D01*
X40715Y-34388D01*
X40759Y-34381D01*
X40797Y-34375D01*
X40831Y-34370D01*
X40862Y-34366D01*
X40891Y-34363D01*
X40919Y-34361D01*
X40947Y-34359D01*
X40977Y-34358D01*
X41009Y-34358D01*
X41045Y-34358D01*
X41087Y-34359D01*
X41134Y-34360D01*
X41188Y-34361D01*
X41257Y-34362D01*
X41313Y-34363D01*
X41358Y-34364D01*
X41392Y-34364D01*
X41417Y-34363D01*
X41433Y-34362D01*
X41443Y-34360D01*
X41447Y-34357D01*
X41447Y-34353D01*
X41443Y-34348D01*
X41428Y-34329D01*
X41415Y-34308D01*
X41405Y-34287D01*
X41398Y-34265D01*
X41393Y-34243D01*
X41391Y-34221D01*
X41391Y-34198D01*
X41394Y-34176D01*
X41399Y-34154D01*
X41408Y-34133D01*
X41422Y-34108D01*
X41441Y-34084D01*
X41462Y-34063D01*
X41487Y-34044D01*
X41514Y-34026D01*
X41544Y-34012D01*
X41576Y-33999D01*
X41609Y-33988D01*
X41644Y-33980D01*
X41680Y-33975D01*
X41716Y-33971D01*
X41753Y-33970D01*
X41789Y-33972D01*
X41826Y-33976D01*
X41861Y-33983D01*
X41895Y-33992D01*
X41928Y-34004D01*
X41960Y-34019D01*
X41989Y-34036D01*
X42016Y-34057D01*
X42041Y-34082D01*
X42062Y-34108D01*
X42078Y-34135D01*
X42090Y-34162D01*
X42096Y-34190D01*
X42097Y-34218D01*
X42094Y-34246D01*
X42086Y-34273D01*
X42073Y-34300D01*
X42056Y-34326D01*
X42035Y-34351D01*
X42008Y-34375D01*
X41978Y-34397D01*
X41943Y-34417D01*
X41909Y-34435D01*
X41909Y-34435D01*
X41960Y-34448D01*
X41960Y-34448D01*
X42010Y-34461D01*
X42059Y-34474D01*
X42107Y-34487D01*
X42153Y-34500D01*
X42198Y-34514D01*
X42241Y-34527D01*
X42282Y-34541D01*
X42322Y-34554D01*
X42361Y-34568D01*
X42398Y-34582D01*
X42433Y-34595D01*
X42467Y-34609D01*
X42499Y-34623D01*
X42529Y-34636D01*
X42558Y-34650D01*
X42585Y-34664D01*
X42610Y-34678D01*
X42633Y-34691D01*
X42655Y-34705D01*
X42675Y-34719D01*
X42707Y-34742D01*
X42738Y-34765D01*
X42768Y-34788D01*
X42798Y-34812D01*
X42827Y-34836D01*
X42855Y-34860D01*
X42883Y-34884D01*
X42910Y-34909D01*
X42936Y-34934D01*
X42962Y-34959D01*
X42987Y-34985D01*
X43012Y-35011D01*
X43036Y-35037D01*
X43059Y-35064D01*
X43082Y-35091D01*
X43104Y-35118D01*
X43126Y-35146D01*
X43147Y-35174D01*
X43167Y-35203D01*
X43187Y-35232D01*
X43207Y-35261D01*
X43226Y-35291D01*
X43244Y-35322D01*
X43262Y-35353D01*
X43279Y-35384D01*
X43296Y-35416D01*
X43313Y-35448D01*
X43328Y-35481D01*
X43344Y-35515D01*
X43359Y-35549D01*
X43373Y-35584D01*
X43387Y-35619D01*
X43400Y-35654D01*
X43413Y-35691D01*
X43426Y-35728D01*
X43438Y-35766D01*
X43450Y-35804D01*
X43461Y-35843D01*
X43472Y-35882D01*
X43483Y-35923D01*
X43493Y-35964D01*
X43502Y-36005D01*
X43512Y-36048D01*
X43521Y-36091D01*
X43529Y-36135D01*
X43538Y-36179D01*
X43545Y-36225D01*
X43554Y-36274D01*
X43560Y-36318D01*
X43566Y-36356D01*
X43570Y-36391D01*
X43574Y-36423D01*
X43576Y-36453D01*
X43577Y-36482D01*
X43578Y-36511D01*
X43578Y-36542D01*
X43577Y-36575D01*
X43576Y-36609D01*
X43574Y-36639D01*
X43573Y-36663D01*
X43571Y-36684D01*
X43568Y-36703D01*
X43564Y-36719D01*
X43559Y-36735D01*
X43553Y-36752D01*
X43546Y-36769D01*
X43537Y-36789D01*
X43523Y-36817D01*
X43507Y-36846D01*
X43490Y-36875D01*
X43473Y-36905D01*
X43454Y-36934D01*
X43433Y-36964D01*
X43412Y-36993D01*
X43390Y-37023D01*
X43367Y-37053D01*
X43342Y-37082D01*
X43317Y-37112D01*
X43291Y-37141D01*
X43264Y-37170D01*
X43237Y-37199D01*
X43208Y-37228D01*
X43179Y-37257D01*
X43150Y-37285D01*
X43120Y-37312D01*
X43089Y-37340D01*
X43057Y-37366D01*
X43026Y-37393D01*
X42993Y-37418D01*
X42961Y-37443D01*
X42928Y-37468D01*
X42895Y-37492D01*
X42861Y-37515D01*
X42828Y-37537D01*
X42794Y-37558D01*
X42760Y-37579D01*
X42726Y-37598D01*
X42692Y-37617D01*
X42658Y-37635D01*
X42630Y-37648D01*
X42597Y-37664D01*
X42558Y-37681D01*
X42516Y-37699D01*
X42472Y-37717D01*
X42427Y-37736D01*
X42382Y-37754D01*
X42339Y-37770D01*
X42299Y-37785D01*
X42264Y-37799D01*
X42233Y-37809D01*
X42210Y-37816D01*
X42195Y-37820D01*
X42180Y-37822D01*
X42168Y-37823D01*
X42156Y-37821D01*
X42145Y-37818D01*
X42133Y-37811D01*
X42120Y-37801D01*
X42105Y-37788D01*
X42088Y-37770D01*
X42068Y-37748D01*
X42044Y-37721D01*
X42015Y-37689D01*
X41985Y-37659D01*
X41954Y-37631D01*
X41924Y-37605D01*
X41892Y-37581D01*
X41861Y-37560D01*
X41829Y-37540D01*
X41797Y-37522D01*
X41764Y-37507D01*
X41731Y-37494D01*
X41698Y-37483D01*
X41665Y-37474D01*
X41632Y-37467D01*
X41599Y-37462D01*
X41566Y-37460D01*
X41532Y-37460D01*
X41499Y-37462D01*
X41466Y-37466D01*
X41432Y-37472D01*
X41399Y-37481D01*
X41365Y-37493D01*
X41331Y-37505D01*
X41299Y-37519D01*
X41268Y-37534D01*
X41238Y-37551D01*
X41208Y-37569D01*
X41180Y-37589D01*
X41152Y-37611D01*
X41125Y-37634D01*
X41098Y-37660D01*
X41071Y-37687D01*
X41045Y-37717D01*
X41019Y-37748D01*
X40992Y-37782D01*
X40966Y-37819D01*
X40874Y-37949D01*
X40874Y-37949D01*
X40804Y-37948D01*
X40804Y-37948D01*
X40790Y-37948D01*
X40774Y-37947D01*
X40754Y-37945D01*
X40732Y-37943D01*
X40709Y-37941D01*
X40684Y-37938D01*
X40658Y-37936D01*
X40632Y-37933D01*
X40606Y-37929D01*
X40580Y-37926D01*
X40580Y-37926D01*
X40580Y-37926D01*
G37*
G36*
X38246Y-35140D02*
X38213Y-35128D01*
X38181Y-35115D01*
X38150Y-35100D01*
X38119Y-35084D01*
X38089Y-35066D01*
X38061Y-35047D01*
X38032Y-35026D01*
X38005Y-35004D01*
X37979Y-34981D01*
X37953Y-34956D01*
X37929Y-34931D01*
X37905Y-34904D01*
X37882Y-34876D01*
X37861Y-34846D01*
X37840Y-34816D01*
X37821Y-34785D01*
X37803Y-34752D01*
X37785Y-34719D01*
X37770Y-34685D01*
X37755Y-34650D01*
X37741Y-34614D01*
X37729Y-34577D01*
X37718Y-34539D01*
X37708Y-34501D01*
X37700Y-34462D01*
X37693Y-34422D01*
X37689Y-34391D01*
X37686Y-34357D01*
X37685Y-34320D01*
X37685Y-34280D01*
X37685Y-34240D01*
X37687Y-34198D01*
X37690Y-34157D01*
X37694Y-34117D01*
X37699Y-34079D01*
X37704Y-34043D01*
X37711Y-34010D01*
X37718Y-33981D01*
X37730Y-33942D01*
X37743Y-33903D01*
X37758Y-33866D01*
X37774Y-33830D01*
X37791Y-33795D01*
X37809Y-33762D01*
X37829Y-33729D01*
X37849Y-33698D01*
X37871Y-33667D01*
X37894Y-33638D01*
X37918Y-33611D01*
X37942Y-33584D01*
X37968Y-33559D01*
X37995Y-33536D01*
X38023Y-33513D01*
X38052Y-33493D01*
X38082Y-33473D01*
X38113Y-33455D01*
X38145Y-33439D01*
X38179Y-33423D01*
X38213Y-33410D01*
X38248Y-33398D01*
X38283Y-33388D01*
X38318Y-33380D01*
X38352Y-33373D01*
X38387Y-33369D01*
X38422Y-33366D01*
X38457Y-33366D01*
X38492Y-33367D01*
X38526Y-33370D01*
X38561Y-33374D01*
X38595Y-33381D01*
X38629Y-33389D01*
X38662Y-33399D01*
X38695Y-33411D01*
X38728Y-33425D01*
X38761Y-33441D01*
X38793Y-33458D01*
X38824Y-33477D01*
X38855Y-33498D01*
X38886Y-33521D01*
X38911Y-33542D01*
X38935Y-33565D01*
X38960Y-33591D01*
X38983Y-33618D01*
X39006Y-33647D01*
X39029Y-33677D01*
X39050Y-33710D01*
X39071Y-33743D01*
X39090Y-33777D01*
X39108Y-33813D01*
X39125Y-33849D01*
X39141Y-33886D01*
X39155Y-33923D01*
X39168Y-33960D01*
X39179Y-33998D01*
X39185Y-34027D01*
X39191Y-34059D01*
X39196Y-34094D01*
X39200Y-34131D01*
X39203Y-34170D01*
X39205Y-34210D01*
X39205Y-34251D01*
X39205Y-34293D01*
X39204Y-34333D01*
X39202Y-34373D01*
X39199Y-34411D01*
X39195Y-34447D01*
X39190Y-34480D01*
X39184Y-34510D01*
X39174Y-34549D01*
X39163Y-34587D01*
X39150Y-34625D01*
X39136Y-34662D01*
X39120Y-34698D01*
X39104Y-34734D01*
X39086Y-34768D01*
X39067Y-34801D01*
X39047Y-34833D01*
X39026Y-34864D01*
X39005Y-34893D01*
X38982Y-34920D01*
X38959Y-34945D01*
X38936Y-34968D01*
X38905Y-34995D01*
X38874Y-35021D01*
X38843Y-35043D01*
X38813Y-35064D01*
X38782Y-35082D01*
X38751Y-35098D01*
X38719Y-35112D01*
X38686Y-35125D01*
X38652Y-35135D01*
X38617Y-35144D01*
X38580Y-35151D01*
X38542Y-35156D01*
X38501Y-35160D01*
X38458Y-35162D01*
X38426Y-35163D01*
X38399Y-35164D01*
X38375Y-35164D01*
X38354Y-35163D01*
X38336Y-35162D01*
X38318Y-35160D01*
X38302Y-35156D01*
X38285Y-35152D01*
X38266Y-35147D01*
X38246Y-35140D01*
X38246Y-35140D01*
X38246Y-35140D01*
G37*
G36*
X40903Y-34333D02*
X40875Y-34323D01*
X40848Y-34310D01*
X40822Y-34294D01*
X40797Y-34275D01*
X40772Y-34253D01*
X40749Y-34229D01*
X40727Y-34203D01*
X40707Y-34174D01*
X40688Y-34144D01*
X40670Y-34112D01*
X40654Y-34078D01*
X40640Y-34044D01*
X40628Y-34008D01*
X40617Y-33972D01*
X40609Y-33935D01*
X40603Y-33897D01*
X40599Y-33860D01*
X40598Y-33822D01*
X40599Y-33785D01*
X40603Y-33748D01*
X40610Y-33707D01*
X40620Y-33668D01*
X40633Y-33632D01*
X40648Y-33599D01*
X40665Y-33568D01*
X40684Y-33541D01*
X40706Y-33516D01*
X40730Y-33495D01*
X40756Y-33476D01*
X40784Y-33461D01*
X40813Y-33449D01*
X40845Y-33440D01*
X40879Y-33435D01*
X40914Y-33434D01*
X40945Y-33435D01*
X40974Y-33440D01*
X41003Y-33447D01*
X41032Y-33458D01*
X41059Y-33471D01*
X41085Y-33487D01*
X41110Y-33504D01*
X41134Y-33525D01*
X41157Y-33547D01*
X41178Y-33571D01*
X41198Y-33597D01*
X41217Y-33625D01*
X41234Y-33654D01*
X41249Y-33685D01*
X41263Y-33717D01*
X41275Y-33750D01*
X41285Y-33784D01*
X41293Y-33819D01*
X41300Y-33855D01*
X41304Y-33891D01*
X41306Y-33928D01*
X41306Y-33965D01*
X41303Y-34002D01*
X41298Y-34039D01*
X41291Y-34076D01*
X41281Y-34113D01*
X41269Y-34149D01*
X41253Y-34183D01*
X41234Y-34214D01*
X41212Y-34242D01*
X41189Y-34267D01*
X41163Y-34289D01*
X41135Y-34307D01*
X41105Y-34322D01*
X41074Y-34334D01*
X41042Y-34342D01*
X41008Y-34346D01*
X40974Y-34346D01*
X40938Y-34341D01*
X40903Y-34333D01*
X40903Y-34333D01*
X40903Y-34333D01*
G37*
G36*
X39495Y-34068D02*
X39467Y-34056D01*
X39441Y-34042D01*
X39416Y-34024D01*
X39393Y-34004D01*
X39370Y-33981D01*
X39350Y-33955D01*
X39331Y-33927D01*
X39313Y-33897D01*
X39297Y-33864D01*
X39283Y-33829D01*
X39270Y-33791D01*
X39259Y-33752D01*
X39250Y-33710D01*
X39243Y-33669D01*
X39239Y-33628D01*
X39236Y-33588D01*
X39235Y-33548D01*
X39236Y-33508D01*
X39239Y-33470D01*
X39244Y-33432D01*
X39251Y-33395D01*
X39260Y-33359D01*
X39270Y-33325D01*
X39282Y-33292D01*
X39295Y-33261D01*
X39310Y-33231D01*
X39327Y-33203D01*
X39345Y-33177D01*
X39365Y-33153D01*
X39386Y-33131D01*
X39409Y-33111D01*
X39433Y-33094D01*
X39458Y-33080D01*
X39483Y-33069D01*
X39510Y-33060D01*
X39538Y-33054D01*
X39566Y-33050D01*
X39595Y-33049D01*
X39623Y-33051D01*
X39651Y-33055D01*
X39678Y-33062D01*
X39703Y-33071D01*
X39726Y-33083D01*
X39742Y-33093D01*
X39758Y-33105D01*
X39774Y-33118D01*
X39789Y-33132D01*
X39804Y-33147D01*
X39818Y-33164D01*
X39831Y-33181D01*
X39844Y-33199D01*
X39855Y-33218D01*
X39866Y-33238D01*
X39885Y-33275D01*
X39885Y-33275D01*
X39916Y-33236D01*
X39916Y-33236D01*
X39940Y-33208D01*
X39966Y-33185D01*
X39993Y-33165D01*
X40022Y-33149D01*
X40052Y-33138D01*
X40082Y-33130D01*
X40113Y-33127D01*
X40144Y-33128D01*
X40175Y-33134D01*
X40205Y-33143D01*
X40234Y-33157D01*
X40262Y-33176D01*
X40285Y-33195D01*
X40305Y-33217D01*
X40324Y-33242D01*
X40341Y-33269D01*
X40356Y-33298D01*
X40369Y-33329D01*
X40380Y-33362D01*
X40389Y-33396D01*
X40397Y-33431D01*
X40402Y-33467D01*
X40406Y-33503D01*
X40407Y-33540D01*
X40407Y-33576D01*
X40405Y-33613D01*
X40400Y-33649D01*
X40394Y-33684D01*
X40386Y-33718D01*
X40376Y-33751D01*
X40363Y-33783D01*
X40349Y-33813D01*
X40333Y-33840D01*
X40314Y-33866D01*
X40294Y-33888D01*
X40266Y-33913D01*
X40237Y-33933D01*
X40207Y-33949D01*
X40176Y-33960D01*
X40145Y-33966D01*
X40114Y-33968D01*
X40083Y-33965D01*
X40052Y-33958D01*
X40022Y-33946D01*
X39993Y-33930D01*
X39965Y-33909D01*
X39939Y-33884D01*
X39933Y-33877D01*
X39927Y-33871D01*
X39922Y-33865D01*
X39916Y-33860D01*
X39911Y-33856D01*
X39907Y-33852D01*
X39903Y-33848D01*
X39900Y-33846D01*
X39897Y-33844D01*
X39896Y-33844D01*
X39894Y-33844D01*
X39892Y-33846D01*
X39890Y-33849D01*
X39887Y-33852D01*
X39884Y-33856D01*
X39881Y-33861D01*
X39878Y-33867D01*
X39875Y-33873D01*
X39871Y-33879D01*
X39868Y-33886D01*
X39858Y-33906D01*
X39847Y-33925D01*
X39834Y-33944D01*
X39821Y-33962D01*
X39807Y-33978D01*
X39792Y-33994D01*
X39777Y-34009D01*
X39761Y-34022D01*
X39745Y-34035D01*
X39728Y-34045D01*
X39709Y-34055D01*
X39687Y-34063D01*
X39663Y-34070D01*
X39638Y-34076D01*
X39612Y-34079D01*
X39587Y-34081D01*
X39562Y-34081D01*
X39538Y-34078D01*
X39515Y-34074D01*
X39495Y-34068D01*
X39495Y-34068D01*
X39495Y-34068D01*
G37*
G36*
X46331Y-27633D02*
X46293Y-27627D01*
X46255Y-27621D01*
X46217Y-27613D01*
X46180Y-27605D01*
X46142Y-27596D01*
X46105Y-27587D01*
X46067Y-27577D01*
X46031Y-27565D01*
X45994Y-27554D01*
X45957Y-27541D01*
X45921Y-27528D01*
X45886Y-27514D01*
X45850Y-27499D01*
X45815Y-27484D01*
X45780Y-27468D01*
X45746Y-27451D01*
X45712Y-27434D01*
X45679Y-27416D01*
X45646Y-27397D01*
X45614Y-27378D01*
X45582Y-27358D01*
X45551Y-27337D01*
X45520Y-27316D01*
X45490Y-27294D01*
X45461Y-27272D01*
X45436Y-27252D01*
X45409Y-27228D01*
X45380Y-27201D01*
X45350Y-27172D01*
X45320Y-27142D01*
X45291Y-27111D01*
X45264Y-27081D01*
X45239Y-27052D01*
X45217Y-27026D01*
X45200Y-27003D01*
X45178Y-26971D01*
X45159Y-26939D01*
X45140Y-26905D01*
X45123Y-26871D01*
X45107Y-26836D01*
X45093Y-26801D01*
X45080Y-26764D01*
X45069Y-26728D01*
X45059Y-26690D01*
X45050Y-26653D01*
X45044Y-26614D01*
X45038Y-26576D01*
X45034Y-26537D01*
X45032Y-26498D01*
X45031Y-26459D01*
X45032Y-26425D01*
X45033Y-26391D01*
X45036Y-26357D01*
X45041Y-26324D01*
X45046Y-26291D01*
X45052Y-26259D01*
X45060Y-26226D01*
X45069Y-26194D01*
X45079Y-26163D01*
X45090Y-26131D01*
X45102Y-26100D01*
X45115Y-26069D01*
X45130Y-26039D01*
X45145Y-26009D01*
X45162Y-25980D01*
X45179Y-25950D01*
X45198Y-25922D01*
X45218Y-25893D01*
X45238Y-25865D01*
X45260Y-25838D01*
X45283Y-25811D01*
X45307Y-25784D01*
X45331Y-25758D01*
X45357Y-25733D01*
X45384Y-25707D01*
X45411Y-25683D01*
X45440Y-25659D01*
X45470Y-25635D01*
X45500Y-25612D01*
X45532Y-25590D01*
X45564Y-25568D01*
X45597Y-25547D01*
X45631Y-25526D01*
X45666Y-25506D01*
X45702Y-25486D01*
X45739Y-25468D01*
X45777Y-25449D01*
X45815Y-25432D01*
X45855Y-25415D01*
X45895Y-25399D01*
X45936Y-25383D01*
X45978Y-25368D01*
X46003Y-25359D01*
X46029Y-25351D01*
X46055Y-25344D01*
X46082Y-25337D01*
X46112Y-25330D01*
X46146Y-25323D01*
X46183Y-25315D01*
X46225Y-25307D01*
X46272Y-25299D01*
X46326Y-25290D01*
X46388Y-25280D01*
X46434Y-25272D01*
X46471Y-25266D01*
X46503Y-25262D01*
X46531Y-25258D01*
X46557Y-25256D01*
X46584Y-25255D01*
X46613Y-25254D01*
X46647Y-25254D01*
X46687Y-25255D01*
X46737Y-25256D01*
X46783Y-25257D01*
X46820Y-25258D01*
X46850Y-25258D01*
X46873Y-25258D01*
X46889Y-25258D01*
X46900Y-25257D01*
X46907Y-25255D01*
X46909Y-25253D01*
X46909Y-25251D01*
X46907Y-25247D01*
X46897Y-25235D01*
X46888Y-25221D01*
X46882Y-25207D01*
X46877Y-25193D01*
X46873Y-25178D01*
X46872Y-25163D01*
X46872Y-25148D01*
X46874Y-25133D01*
X46878Y-25118D01*
X46883Y-25104D01*
X46898Y-25081D01*
X46917Y-25059D01*
X46941Y-25041D01*
X46968Y-25026D01*
X46998Y-25014D01*
X47031Y-25005D01*
X47064Y-24999D01*
X47099Y-24996D01*
X47134Y-24997D01*
X47169Y-25001D01*
X47202Y-25008D01*
X47233Y-25020D01*
X47262Y-25035D01*
X47288Y-25053D01*
X47312Y-25077D01*
X47328Y-25102D01*
X47339Y-25127D01*
X47343Y-25153D01*
X47341Y-25179D01*
X47332Y-25205D01*
X47318Y-25230D01*
X47298Y-25253D01*
X47272Y-25274D01*
X47240Y-25294D01*
X47217Y-25305D01*
X47217Y-25305D01*
X47251Y-25314D01*
X47251Y-25314D01*
X47299Y-25326D01*
X47345Y-25339D01*
X47389Y-25352D01*
X47431Y-25364D01*
X47470Y-25377D01*
X47508Y-25390D01*
X47543Y-25403D01*
X47577Y-25416D01*
X47608Y-25429D01*
X47636Y-25442D01*
X47663Y-25456D01*
X47687Y-25469D01*
X47709Y-25482D01*
X47728Y-25495D01*
X47759Y-25517D01*
X47789Y-25540D01*
X47818Y-25563D01*
X47846Y-25587D01*
X47873Y-25611D01*
X47899Y-25635D01*
X47924Y-25660D01*
X47949Y-25685D01*
X47972Y-25711D01*
X47995Y-25737D01*
X48016Y-25764D01*
X48037Y-25791D01*
X48058Y-25819D01*
X48077Y-25848D01*
X48096Y-25877D01*
X48113Y-25907D01*
X48131Y-25938D01*
X48147Y-25969D01*
X48163Y-26001D01*
X48178Y-26034D01*
X48192Y-26068D01*
X48206Y-26102D01*
X48218Y-26137D01*
X48231Y-26174D01*
X48243Y-26211D01*
X48254Y-26249D01*
X48264Y-26288D01*
X48274Y-26328D01*
X48283Y-26369D01*
X48292Y-26411D01*
X48301Y-26455D01*
X48308Y-26499D01*
X48314Y-26532D01*
X48318Y-26561D01*
X48322Y-26587D01*
X48325Y-26610D01*
X48327Y-26631D01*
X48329Y-26651D01*
X48330Y-26670D01*
X48330Y-26690D01*
X48330Y-26710D01*
X48329Y-26732D01*
X48329Y-26755D01*
X48328Y-26775D01*
X48327Y-26791D01*
X48325Y-26805D01*
X48323Y-26817D01*
X48321Y-26828D01*
X48318Y-26839D01*
X48314Y-26850D01*
X48309Y-26862D01*
X48302Y-26875D01*
X48288Y-26903D01*
X48273Y-26931D01*
X48255Y-26959D01*
X48236Y-26988D01*
X48215Y-27017D01*
X48193Y-27045D01*
X48170Y-27074D01*
X48145Y-27103D01*
X48119Y-27131D01*
X48092Y-27159D01*
X48064Y-27187D01*
X48035Y-27214D01*
X48006Y-27240D01*
X47975Y-27266D01*
X47944Y-27291D01*
X47913Y-27316D01*
X47881Y-27339D01*
X47848Y-27361D01*
X47816Y-27383D01*
X47783Y-27403D01*
X47750Y-27421D01*
X47717Y-27439D01*
X47692Y-27451D01*
X47661Y-27465D01*
X47625Y-27480D01*
X47587Y-27496D01*
X47548Y-27512D01*
X47510Y-27527D01*
X47475Y-27540D01*
X47445Y-27551D01*
X47422Y-27559D01*
X47408Y-27562D01*
X47398Y-27564D01*
X47390Y-27564D01*
X47382Y-27563D01*
X47375Y-27561D01*
X47367Y-27556D01*
X47358Y-27550D01*
X47348Y-27541D01*
X47337Y-27529D01*
X47323Y-27514D01*
X47307Y-27496D01*
X47279Y-27466D01*
X47251Y-27439D01*
X47221Y-27414D01*
X47191Y-27393D01*
X47161Y-27374D01*
X47130Y-27358D01*
X47099Y-27345D01*
X47068Y-27335D01*
X47036Y-27327D01*
X47004Y-27323D01*
X46973Y-27322D01*
X46941Y-27324D01*
X46909Y-27328D01*
X46878Y-27336D01*
X46843Y-27348D01*
X46811Y-27361D01*
X46780Y-27377D01*
X46750Y-27395D01*
X46722Y-27415D01*
X46695Y-27438D01*
X46668Y-27464D01*
X46641Y-27493D01*
X46615Y-27526D01*
X46589Y-27561D01*
X46527Y-27648D01*
X46527Y-27648D01*
X46480Y-27648D01*
X46480Y-27648D01*
X46472Y-27647D01*
X46460Y-27647D01*
X46448Y-27646D01*
X46433Y-27644D01*
X46417Y-27643D01*
X46401Y-27641D01*
X46383Y-27639D01*
X46366Y-27637D01*
X46348Y-27635D01*
X46331Y-27633D01*
X46331Y-27633D01*
X46331Y-27633D01*
G37*
G36*
X44775Y-25776D02*
X44742Y-25763D01*
X44710Y-25748D01*
X44679Y-25731D01*
X44649Y-25712D01*
X44621Y-25690D01*
X44594Y-25667D01*
X44569Y-25641D01*
X44544Y-25614D01*
X44522Y-25584D01*
X44501Y-25554D01*
X44482Y-25521D01*
X44465Y-25487D01*
X44449Y-25452D01*
X44435Y-25415D01*
X44424Y-25377D01*
X44414Y-25337D01*
X44407Y-25297D01*
X44404Y-25272D01*
X44402Y-25244D01*
X44401Y-25213D01*
X44401Y-25181D01*
X44403Y-25148D01*
X44405Y-25115D01*
X44408Y-25083D01*
X44413Y-25053D01*
X44418Y-25026D01*
X44423Y-25003D01*
X44435Y-24965D01*
X44449Y-24928D01*
X44465Y-24893D01*
X44482Y-24860D01*
X44501Y-24828D01*
X44522Y-24798D01*
X44544Y-24770D01*
X44568Y-24744D01*
X44593Y-24719D01*
X44620Y-24697D01*
X44648Y-24676D01*
X44677Y-24658D01*
X44708Y-24642D01*
X44741Y-24627D01*
X44775Y-24615D01*
X44809Y-24605D01*
X44843Y-24598D01*
X44877Y-24594D01*
X44911Y-24593D01*
X44945Y-24594D01*
X44979Y-24598D01*
X45012Y-24604D01*
X45045Y-24613D01*
X45078Y-24624D01*
X45110Y-24639D01*
X45141Y-24655D01*
X45172Y-24674D01*
X45202Y-24696D01*
X45227Y-24718D01*
X45251Y-24743D01*
X45275Y-24770D01*
X45297Y-24801D01*
X45318Y-24833D01*
X45338Y-24867D01*
X45356Y-24903D01*
X45372Y-24939D01*
X45386Y-24977D01*
X45397Y-25014D01*
X45403Y-25042D01*
X45408Y-25073D01*
X45412Y-25108D01*
X45414Y-25145D01*
X45415Y-25183D01*
X45415Y-25221D01*
X45413Y-25259D01*
X45410Y-25294D01*
X45406Y-25327D01*
X45401Y-25356D01*
X45391Y-25391D01*
X45380Y-25427D01*
X45367Y-25462D01*
X45352Y-25495D01*
X45335Y-25528D01*
X45318Y-25558D01*
X45298Y-25587D01*
X45278Y-25614D01*
X45257Y-25639D01*
X45235Y-25661D01*
X45206Y-25686D01*
X45178Y-25708D01*
X45149Y-25727D01*
X45120Y-25744D01*
X45091Y-25757D01*
X45060Y-25768D01*
X45027Y-25777D01*
X44993Y-25783D01*
X44956Y-25788D01*
X44917Y-25790D01*
X44895Y-25791D01*
X44877Y-25792D01*
X44861Y-25792D01*
X44848Y-25791D01*
X44835Y-25790D01*
X44824Y-25789D01*
X44812Y-25786D01*
X44801Y-25784D01*
X44789Y-25780D01*
X44775Y-25776D01*
X44775Y-25776D01*
X44775Y-25776D01*
G37*
G36*
X46547Y-25238D02*
X46518Y-25227D01*
X46491Y-25211D01*
X46466Y-25190D01*
X46442Y-25166D01*
X46420Y-25138D01*
X46400Y-25107D01*
X46383Y-25073D01*
X46369Y-25037D01*
X46357Y-25000D01*
X46349Y-24962D01*
X46344Y-24924D01*
X46343Y-24886D01*
X46347Y-24848D01*
X46354Y-24810D01*
X46365Y-24775D01*
X46379Y-24744D01*
X46395Y-24716D01*
X46415Y-24693D01*
X46438Y-24673D01*
X46463Y-24658D01*
X46491Y-24647D01*
X46521Y-24640D01*
X46554Y-24638D01*
X46583Y-24640D01*
X46612Y-24647D01*
X46639Y-24657D01*
X46664Y-24671D01*
X46688Y-24688D01*
X46711Y-24708D01*
X46732Y-24732D01*
X46751Y-24757D01*
X46767Y-24785D01*
X46782Y-24815D01*
X46794Y-24847D01*
X46803Y-24879D01*
X46810Y-24914D01*
X46814Y-24948D01*
X46815Y-24984D01*
X46813Y-25020D01*
X46808Y-25055D01*
X46799Y-25091D01*
X46786Y-25124D01*
X46770Y-25154D01*
X46750Y-25180D01*
X46727Y-25203D01*
X46701Y-25220D01*
X46673Y-25234D01*
X46643Y-25242D01*
X46612Y-25246D01*
X46580Y-25245D01*
X46547Y-25238D01*
X46547Y-25238D01*
X46547Y-25238D01*
G37*
G36*
X45608Y-25061D02*
X45584Y-25050D01*
X45562Y-25036D01*
X45541Y-25019D01*
X45522Y-24999D01*
X45505Y-24977D01*
X45489Y-24951D01*
X45475Y-24923D01*
X45463Y-24892D01*
X45453Y-24858D01*
X45445Y-24822D01*
X45438Y-24780D01*
X45435Y-24739D01*
X45435Y-24698D01*
X45438Y-24658D01*
X45444Y-24620D01*
X45453Y-24583D01*
X45464Y-24549D01*
X45478Y-24516D01*
X45494Y-24487D01*
X45513Y-24460D01*
X45534Y-24437D01*
X45558Y-24418D01*
X45583Y-24402D01*
X45600Y-24395D01*
X45618Y-24389D01*
X45636Y-24385D01*
X45655Y-24382D01*
X45675Y-24382D01*
X45694Y-24383D01*
X45712Y-24386D01*
X45730Y-24390D01*
X45747Y-24396D01*
X45762Y-24404D01*
X45773Y-24411D01*
X45784Y-24419D01*
X45794Y-24427D01*
X45804Y-24437D01*
X45814Y-24447D01*
X45823Y-24458D01*
X45832Y-24470D01*
X45841Y-24482D01*
X45848Y-24494D01*
X45855Y-24507D01*
X45868Y-24533D01*
X45868Y-24533D01*
X45889Y-24506D01*
X45889Y-24506D01*
X45908Y-24484D01*
X45929Y-24466D01*
X45951Y-24452D01*
X45975Y-24442D01*
X46000Y-24436D01*
X46024Y-24434D01*
X46049Y-24435D01*
X46073Y-24441D01*
X46097Y-24452D01*
X46120Y-24466D01*
X46142Y-24487D01*
X46161Y-24511D01*
X46178Y-24540D01*
X46192Y-24571D01*
X46202Y-24605D01*
X46210Y-24641D01*
X46215Y-24678D01*
X46216Y-24715D01*
X46215Y-24753D01*
X46210Y-24789D01*
X46203Y-24825D01*
X46192Y-24858D01*
X46178Y-24889D01*
X46161Y-24917D01*
X46141Y-24941D01*
X46118Y-24961D01*
X46095Y-24976D01*
X46070Y-24986D01*
X46046Y-24992D01*
X46021Y-24994D01*
X45996Y-24992D01*
X45971Y-24985D01*
X45948Y-24974D01*
X45925Y-24958D01*
X45904Y-24938D01*
X45900Y-24934D01*
X45896Y-24930D01*
X45893Y-24926D01*
X45889Y-24922D01*
X45886Y-24919D01*
X45883Y-24917D01*
X45880Y-24915D01*
X45878Y-24913D01*
X45876Y-24912D01*
X45875Y-24912D01*
X45874Y-24912D01*
X45873Y-24913D01*
X45871Y-24915D01*
X45870Y-24917D01*
X45868Y-24920D01*
X45866Y-24923D01*
X45863Y-24927D01*
X45861Y-24931D01*
X45859Y-24935D01*
X45857Y-24940D01*
X45850Y-24953D01*
X45842Y-24966D01*
X45834Y-24978D01*
X45825Y-24990D01*
X45816Y-25001D01*
X45806Y-25012D01*
X45796Y-25022D01*
X45785Y-25031D01*
X45775Y-25039D01*
X45764Y-25046D01*
X45750Y-25052D01*
X45736Y-25058D01*
X45720Y-25062D01*
X45703Y-25066D01*
X45686Y-25068D01*
X45669Y-25069D01*
X45652Y-25069D01*
X45636Y-25068D01*
X45622Y-25065D01*
X45608Y-25061D01*
X45608Y-25061D01*
X45608Y-25061D01*
G37*
G36*
X47197Y-46097D02*
X47159Y-46092D01*
X47121Y-46085D01*
X47083Y-46078D01*
X47046Y-46070D01*
X47008Y-46061D01*
X46971Y-46051D01*
X46934Y-46041D01*
X46897Y-46030D01*
X46860Y-46018D01*
X46824Y-46006D01*
X46787Y-45992D01*
X46752Y-45978D01*
X46716Y-45964D01*
X46681Y-45948D01*
X46647Y-45932D01*
X46612Y-45916D01*
X46578Y-45898D01*
X46545Y-45880D01*
X46512Y-45861D01*
X46480Y-45842D01*
X46448Y-45822D01*
X46417Y-45802D01*
X46386Y-45781D01*
X46356Y-45759D01*
X46327Y-45737D01*
X46302Y-45717D01*
X46275Y-45693D01*
X46246Y-45666D01*
X46216Y-45637D01*
X46186Y-45606D01*
X46157Y-45576D01*
X46130Y-45546D01*
X46105Y-45517D01*
X46083Y-45491D01*
X46066Y-45467D01*
X46045Y-45436D01*
X46025Y-45403D01*
X46006Y-45370D01*
X45989Y-45336D01*
X45974Y-45301D01*
X45959Y-45265D01*
X45946Y-45229D01*
X45935Y-45192D01*
X45925Y-45155D01*
X45917Y-45117D01*
X45910Y-45079D01*
X45904Y-45040D01*
X45900Y-45001D01*
X45898Y-44962D01*
X45897Y-44923D01*
X45898Y-44889D01*
X45900Y-44855D01*
X45903Y-44822D01*
X45907Y-44789D01*
X45912Y-44756D01*
X45919Y-44723D01*
X45926Y-44691D01*
X45935Y-44659D01*
X45945Y-44627D01*
X45956Y-44596D01*
X45968Y-44565D01*
X45981Y-44534D01*
X45996Y-44504D01*
X46011Y-44474D01*
X46028Y-44444D01*
X46045Y-44415D01*
X46064Y-44386D01*
X46084Y-44358D01*
X46104Y-44330D01*
X46126Y-44302D01*
X46149Y-44275D01*
X46173Y-44249D01*
X46197Y-44223D01*
X46223Y-44197D01*
X46250Y-44172D01*
X46278Y-44147D01*
X46306Y-44123D01*
X46336Y-44100D01*
X46366Y-44077D01*
X46398Y-44054D01*
X46430Y-44033D01*
X46463Y-44011D01*
X46497Y-43991D01*
X46533Y-43970D01*
X46568Y-43951D01*
X46605Y-43932D01*
X46643Y-43914D01*
X46681Y-43896D01*
X46721Y-43879D01*
X46761Y-43863D01*
X46802Y-43847D01*
X46844Y-43833D01*
X46869Y-43824D01*
X46895Y-43816D01*
X46921Y-43809D01*
X46949Y-43801D01*
X46979Y-43794D01*
X47012Y-43787D01*
X47049Y-43780D01*
X47091Y-43772D01*
X47138Y-43764D01*
X47193Y-43754D01*
X47254Y-43744D01*
X47300Y-43737D01*
X47337Y-43731D01*
X47369Y-43726D01*
X47397Y-43723D01*
X47423Y-43721D01*
X47450Y-43719D01*
X47479Y-43719D01*
X47513Y-43719D01*
X47554Y-43720D01*
X47603Y-43721D01*
X47649Y-43722D01*
X47687Y-43722D01*
X47716Y-43723D01*
X47739Y-43723D01*
X47755Y-43722D01*
X47766Y-43721D01*
X47773Y-43720D01*
X47775Y-43718D01*
X47775Y-43715D01*
X47773Y-43712D01*
X47763Y-43699D01*
X47754Y-43686D01*
X47748Y-43672D01*
X47743Y-43657D01*
X47739Y-43642D01*
X47738Y-43627D01*
X47738Y-43612D01*
X47740Y-43597D01*
X47744Y-43583D01*
X47749Y-43569D01*
X47764Y-43545D01*
X47783Y-43524D01*
X47807Y-43506D01*
X47834Y-43491D01*
X47865Y-43478D01*
X47897Y-43469D01*
X47931Y-43463D01*
X47965Y-43460D01*
X48000Y-43461D01*
X48035Y-43465D01*
X48068Y-43473D01*
X48100Y-43484D01*
X48129Y-43499D01*
X48155Y-43518D01*
X48178Y-43542D01*
X48195Y-43566D01*
X48205Y-43592D01*
X48209Y-43618D01*
X48207Y-43644D01*
X48199Y-43670D01*
X48184Y-43694D01*
X48164Y-43717D01*
X48138Y-43739D01*
X48106Y-43758D01*
X48083Y-43770D01*
X48083Y-43770D01*
X48117Y-43779D01*
X48117Y-43779D01*
X48165Y-43791D01*
X48211Y-43804D01*
X48255Y-43816D01*
X48297Y-43829D01*
X48336Y-43842D01*
X48374Y-43855D01*
X48409Y-43868D01*
X48443Y-43881D01*
X48474Y-43894D01*
X48502Y-43907D01*
X48529Y-43920D01*
X48553Y-43933D01*
X48575Y-43946D01*
X48594Y-43959D01*
X48625Y-43982D01*
X48655Y-44005D01*
X48684Y-44028D01*
X48712Y-44051D01*
X48739Y-44075D01*
X48765Y-44100D01*
X48790Y-44124D01*
X48815Y-44150D01*
X48838Y-44175D01*
X48861Y-44202D01*
X48883Y-44229D01*
X48904Y-44256D01*
X48924Y-44284D01*
X48943Y-44312D01*
X48962Y-44342D01*
X48980Y-44372D01*
X48997Y-44402D01*
X49013Y-44434D01*
X49029Y-44466D01*
X49044Y-44499D01*
X49058Y-44532D01*
X49072Y-44567D01*
X49085Y-44602D01*
X49097Y-44638D01*
X49109Y-44675D01*
X49120Y-44714D01*
X49130Y-44753D01*
X49140Y-44793D01*
X49150Y-44834D01*
X49158Y-44876D01*
X49167Y-44919D01*
X49174Y-44963D01*
X49180Y-44996D01*
X49184Y-45025D01*
X49188Y-45051D01*
X49191Y-45074D01*
X49193Y-45095D01*
X49195Y-45115D01*
X49196Y-45135D01*
X49196Y-45154D01*
X49196Y-45175D01*
X49195Y-45197D01*
X49195Y-45220D01*
X49194Y-45239D01*
X49193Y-45256D01*
X49191Y-45270D01*
X49189Y-45282D01*
X49187Y-45293D01*
X49184Y-45304D01*
X49180Y-45315D01*
X49175Y-45326D01*
X49169Y-45339D01*
X49155Y-45367D01*
X49139Y-45395D01*
X49121Y-45424D01*
X49102Y-45452D01*
X49082Y-45481D01*
X49060Y-45510D01*
X49036Y-45539D01*
X49011Y-45567D01*
X48985Y-45596D01*
X48958Y-45624D01*
X48930Y-45651D01*
X48902Y-45678D01*
X48872Y-45705D01*
X48841Y-45731D01*
X48810Y-45756D01*
X48779Y-45780D01*
X48747Y-45804D01*
X48714Y-45826D01*
X48682Y-45847D01*
X48649Y-45867D01*
X48616Y-45886D01*
X48583Y-45903D01*
X48558Y-45915D01*
X48527Y-45929D01*
X48491Y-45945D01*
X48453Y-45961D01*
X48414Y-45977D01*
X48376Y-45992D01*
X48341Y-46005D01*
X48311Y-46016D01*
X48288Y-46023D01*
X48274Y-46027D01*
X48264Y-46028D01*
X48256Y-46029D01*
X48248Y-46028D01*
X48241Y-46025D01*
X48233Y-46021D01*
X48224Y-46014D01*
X48215Y-46005D01*
X48203Y-45994D01*
X48190Y-45979D01*
X48174Y-45961D01*
X48145Y-45931D01*
X48117Y-45904D01*
X48087Y-45879D01*
X48057Y-45857D01*
X48027Y-45838D01*
X47996Y-45822D01*
X47965Y-45809D01*
X47934Y-45799D01*
X47902Y-45792D01*
X47870Y-45788D01*
X47839Y-45786D01*
X47807Y-45788D01*
X47775Y-45793D01*
X47744Y-45801D01*
X47709Y-45813D01*
X47677Y-45826D01*
X47646Y-45842D01*
X47617Y-45859D01*
X47588Y-45880D01*
X47561Y-45903D01*
X47534Y-45929D01*
X47508Y-45958D01*
X47481Y-45990D01*
X47455Y-46026D01*
X47393Y-46113D01*
X47393Y-46113D01*
X47347Y-46112D01*
X47347Y-46112D01*
X47338Y-46112D01*
X47327Y-46111D01*
X47314Y-46110D01*
X47299Y-46109D01*
X47283Y-46108D01*
X47267Y-46106D01*
X47250Y-46104D01*
X47232Y-46102D01*
X47215Y-46100D01*
X47197Y-46097D01*
X47197Y-46097D01*
X47197Y-46097D01*
G37*
G36*
X45641Y-44240D02*
X45608Y-44228D01*
X45576Y-44213D01*
X45545Y-44196D01*
X45516Y-44176D01*
X45487Y-44155D01*
X45460Y-44131D01*
X45435Y-44106D01*
X45411Y-44078D01*
X45388Y-44049D01*
X45367Y-44018D01*
X45348Y-43986D01*
X45331Y-43952D01*
X45315Y-43916D01*
X45302Y-43879D01*
X45290Y-43841D01*
X45280Y-43802D01*
X45273Y-43762D01*
X45270Y-43737D01*
X45268Y-43708D01*
X45267Y-43678D01*
X45268Y-43645D01*
X45269Y-43612D01*
X45271Y-43580D01*
X45275Y-43548D01*
X45279Y-43518D01*
X45284Y-43491D01*
X45290Y-43467D01*
X45302Y-43429D01*
X45315Y-43393D01*
X45331Y-43358D01*
X45348Y-43325D01*
X45367Y-43293D01*
X45388Y-43263D01*
X45410Y-43235D01*
X45434Y-43208D01*
X45459Y-43184D01*
X45486Y-43161D01*
X45514Y-43141D01*
X45543Y-43122D01*
X45574Y-43106D01*
X45608Y-43091D01*
X45641Y-43079D01*
X45675Y-43070D01*
X45709Y-43063D01*
X45743Y-43059D01*
X45777Y-43057D01*
X45811Y-43058D01*
X45845Y-43062D01*
X45879Y-43068D01*
X45912Y-43077D01*
X45944Y-43089D01*
X45976Y-43103D01*
X46007Y-43120D01*
X46038Y-43139D01*
X46068Y-43161D01*
X46093Y-43182D01*
X46117Y-43207D01*
X46141Y-43235D01*
X46163Y-43265D01*
X46184Y-43298D01*
X46204Y-43332D01*
X46222Y-43367D01*
X46238Y-43404D01*
X46252Y-43441D01*
X46263Y-43479D01*
X46269Y-43506D01*
X46274Y-43538D01*
X46278Y-43573D01*
X46280Y-43610D01*
X46281Y-43648D01*
X46281Y-43686D01*
X46279Y-43723D01*
X46277Y-43759D01*
X46272Y-43791D01*
X46267Y-43820D01*
X46257Y-43856D01*
X46246Y-43892D01*
X46233Y-43926D01*
X46218Y-43960D01*
X46201Y-43992D01*
X46184Y-44023D01*
X46165Y-44052D01*
X46144Y-44079D01*
X46123Y-44103D01*
X46101Y-44125D01*
X46072Y-44151D01*
X46044Y-44173D01*
X46015Y-44192D01*
X45986Y-44208D01*
X45957Y-44222D01*
X45926Y-44233D01*
X45894Y-44242D01*
X45859Y-44248D01*
X45823Y-44252D01*
X45783Y-44255D01*
X45762Y-44256D01*
X45743Y-44256D01*
X45727Y-44256D01*
X45714Y-44256D01*
X45701Y-44255D01*
X45690Y-44253D01*
X45679Y-44251D01*
X45667Y-44248D01*
X45655Y-44245D01*
X45641Y-44240D01*
X45641Y-44240D01*
X45641Y-44240D01*
G37*
G36*
X47413Y-43702D02*
X47385Y-43691D01*
X47357Y-43675D01*
X47332Y-43655D01*
X47308Y-43630D01*
X47286Y-43602D01*
X47266Y-43571D01*
X47249Y-43538D01*
X47235Y-43502D01*
X47223Y-43465D01*
X47215Y-43427D01*
X47210Y-43389D01*
X47210Y-43350D01*
X47213Y-43312D01*
X47220Y-43274D01*
X47231Y-43239D01*
X47245Y-43208D01*
X47262Y-43181D01*
X47281Y-43157D01*
X47304Y-43138D01*
X47329Y-43123D01*
X47357Y-43111D01*
X47388Y-43105D01*
X47420Y-43102D01*
X47449Y-43105D01*
X47478Y-43111D01*
X47505Y-43121D01*
X47530Y-43135D01*
X47555Y-43153D01*
X47577Y-43173D01*
X47598Y-43196D01*
X47617Y-43222D01*
X47633Y-43250D01*
X47648Y-43280D01*
X47660Y-43311D01*
X47670Y-43344D01*
X47676Y-43378D01*
X47680Y-43413D01*
X47682Y-43448D01*
X47679Y-43484D01*
X47674Y-43520D01*
X47665Y-43555D01*
X47653Y-43589D01*
X47636Y-43619D01*
X47616Y-43645D01*
X47593Y-43667D01*
X47567Y-43685D01*
X47539Y-43698D01*
X47510Y-43707D01*
X47478Y-43711D01*
X47446Y-43709D01*
X47413Y-43702D01*
X47413Y-43702D01*
X47413Y-43702D01*
G37*
G36*
X46474Y-43526D02*
X46450Y-43515D01*
X46428Y-43501D01*
X46407Y-43484D01*
X46388Y-43464D01*
X46371Y-43441D01*
X46355Y-43415D01*
X46341Y-43387D01*
X46329Y-43356D01*
X46319Y-43323D01*
X46311Y-43287D01*
X46304Y-43245D01*
X46301Y-43203D01*
X46301Y-43162D01*
X46304Y-43123D01*
X46310Y-43084D01*
X46319Y-43048D01*
X46330Y-43013D01*
X46344Y-42981D01*
X46361Y-42951D01*
X46379Y-42925D01*
X46401Y-42902D01*
X46424Y-42882D01*
X46449Y-42867D01*
X46466Y-42859D01*
X46484Y-42853D01*
X46503Y-42849D01*
X46522Y-42847D01*
X46541Y-42846D01*
X46560Y-42847D01*
X46578Y-42850D01*
X46596Y-42855D01*
X46613Y-42861D01*
X46628Y-42869D01*
X46639Y-42875D01*
X46650Y-42883D01*
X46660Y-42892D01*
X46670Y-42902D01*
X46680Y-42912D01*
X46689Y-42923D01*
X46698Y-42934D01*
X46707Y-42946D01*
X46714Y-42959D01*
X46721Y-42972D01*
X46734Y-42997D01*
X46734Y-42997D01*
X46755Y-42971D01*
X46755Y-42971D01*
X46774Y-42949D01*
X46795Y-42931D01*
X46818Y-42917D01*
X46841Y-42907D01*
X46866Y-42900D01*
X46890Y-42898D01*
X46915Y-42900D01*
X46940Y-42906D01*
X46963Y-42916D01*
X46986Y-42931D01*
X47008Y-42951D01*
X47028Y-42976D01*
X47044Y-43004D01*
X47058Y-43036D01*
X47068Y-43070D01*
X47076Y-43105D01*
X47081Y-43142D01*
X47082Y-43180D01*
X47081Y-43217D01*
X47076Y-43254D01*
X47069Y-43289D01*
X47058Y-43323D01*
X47044Y-43354D01*
X47027Y-43382D01*
X47007Y-43406D01*
X46984Y-43425D01*
X46961Y-43440D01*
X46937Y-43451D01*
X46912Y-43457D01*
X46887Y-43459D01*
X46862Y-43456D01*
X46837Y-43449D01*
X46814Y-43438D01*
X46791Y-43423D01*
X46770Y-43403D01*
X46766Y-43398D01*
X46762Y-43394D01*
X46759Y-43390D01*
X46755Y-43387D01*
X46752Y-43384D01*
X46749Y-43381D01*
X46746Y-43379D01*
X46744Y-43377D01*
X46742Y-43376D01*
X46741Y-43376D01*
X46740Y-43376D01*
X46739Y-43378D01*
X46737Y-43379D01*
X46736Y-43382D01*
X46734Y-43384D01*
X46732Y-43388D01*
X46730Y-43391D01*
X46727Y-43395D01*
X46725Y-43400D01*
X46723Y-43404D01*
X46716Y-43418D01*
X46709Y-43430D01*
X46700Y-43443D01*
X46692Y-43455D01*
X46682Y-43466D01*
X46672Y-43476D01*
X46662Y-43486D01*
X46652Y-43495D01*
X46641Y-43503D01*
X46630Y-43510D01*
X46617Y-43517D01*
X46602Y-43522D01*
X46586Y-43527D01*
X46569Y-43531D01*
X46552Y-43533D01*
X46535Y-43534D01*
X46519Y-43534D01*
X46503Y-43532D01*
X46488Y-43530D01*
X46474Y-43526D01*
X46474Y-43526D01*
X46474Y-43526D01*
G37*
G36*
X47158Y-54326D02*
X47120Y-54320D01*
X47082Y-54314D01*
X47044Y-54306D01*
X47006Y-54298D01*
X46969Y-54289D01*
X46931Y-54280D01*
X46894Y-54269D01*
X46857Y-54258D01*
X46821Y-54247D01*
X46784Y-54234D01*
X46748Y-54221D01*
X46712Y-54207D01*
X46677Y-54192D01*
X46642Y-54177D01*
X46607Y-54161D01*
X46573Y-54144D01*
X46539Y-54127D01*
X46506Y-54109D01*
X46473Y-54090D01*
X46441Y-54071D01*
X46409Y-54051D01*
X46378Y-54030D01*
X46347Y-54009D01*
X46317Y-53987D01*
X46287Y-53965D01*
X46263Y-53945D01*
X46236Y-53921D01*
X46207Y-53894D01*
X46177Y-53865D01*
X46147Y-53835D01*
X46118Y-53804D01*
X46090Y-53774D01*
X46065Y-53745D01*
X46044Y-53719D01*
X46026Y-53696D01*
X46005Y-53664D01*
X45985Y-53632D01*
X45967Y-53598D01*
X45950Y-53564D01*
X45934Y-53529D01*
X45920Y-53494D01*
X45907Y-53457D01*
X45896Y-53421D01*
X45886Y-53383D01*
X45877Y-53345D01*
X45870Y-53307D01*
X45865Y-53269D01*
X45861Y-53230D01*
X45859Y-53191D01*
X45858Y-53151D01*
X45858Y-53117D01*
X45860Y-53084D01*
X45863Y-53050D01*
X45867Y-53017D01*
X45873Y-52984D01*
X45879Y-52952D01*
X45887Y-52919D01*
X45896Y-52887D01*
X45906Y-52855D01*
X45917Y-52824D01*
X45929Y-52793D01*
X45942Y-52762D01*
X45956Y-52732D01*
X45972Y-52702D01*
X45988Y-52672D01*
X46006Y-52643D01*
X46025Y-52615D01*
X46044Y-52586D01*
X46065Y-52558D01*
X46087Y-52531D01*
X46110Y-52504D01*
X46133Y-52477D01*
X46158Y-52451D01*
X46184Y-52426D01*
X46210Y-52400D01*
X46238Y-52376D01*
X46267Y-52352D01*
X46296Y-52328D01*
X46327Y-52305D01*
X46358Y-52283D01*
X46391Y-52261D01*
X46424Y-52240D01*
X46458Y-52219D01*
X46493Y-52199D01*
X46529Y-52179D01*
X46566Y-52160D01*
X46604Y-52142D01*
X46642Y-52125D01*
X46681Y-52108D01*
X46722Y-52091D01*
X46762Y-52076D01*
X46804Y-52061D01*
X46830Y-52052D01*
X46855Y-52044D01*
X46882Y-52037D01*
X46909Y-52030D01*
X46939Y-52023D01*
X46972Y-52016D01*
X47009Y-52008D01*
X47051Y-52000D01*
X47099Y-51992D01*
X47153Y-51983D01*
X47215Y-51973D01*
X47260Y-51965D01*
X47298Y-51959D01*
X47330Y-51955D01*
X47358Y-51951D01*
X47384Y-51949D01*
X47411Y-51948D01*
X47440Y-51947D01*
X47474Y-51947D01*
X47514Y-51948D01*
X47563Y-51949D01*
X47610Y-51950D01*
X47647Y-51951D01*
X47677Y-51951D01*
X47699Y-51951D01*
X47716Y-51951D01*
X47727Y-51950D01*
X47733Y-51948D01*
X47736Y-51946D01*
X47736Y-51944D01*
X47733Y-51940D01*
X47723Y-51928D01*
X47715Y-51914D01*
X47708Y-51900D01*
X47703Y-51885D01*
X47700Y-51871D01*
X47699Y-51856D01*
X47699Y-51841D01*
X47701Y-51826D01*
X47704Y-51811D01*
X47710Y-51797D01*
X47725Y-51773D01*
X47744Y-51752D01*
X47768Y-51734D01*
X47795Y-51719D01*
X47825Y-51707D01*
X47857Y-51697D01*
X47891Y-51692D01*
X47926Y-51689D01*
X47961Y-51690D01*
X47995Y-51694D01*
X48029Y-51701D01*
X48060Y-51713D01*
X48089Y-51728D01*
X48115Y-51746D01*
X48138Y-51770D01*
X48155Y-51795D01*
X48166Y-51820D01*
X48170Y-51846D01*
X48167Y-51872D01*
X48159Y-51898D01*
X48145Y-51923D01*
X48125Y-51946D01*
X48098Y-51967D01*
X48066Y-51987D01*
X48044Y-51998D01*
X48044Y-51998D01*
X48078Y-52007D01*
X48078Y-52007D01*
X48126Y-52019D01*
X48172Y-52032D01*
X48215Y-52045D01*
X48257Y-52057D01*
X48297Y-52070D01*
X48335Y-52083D01*
X48370Y-52096D01*
X48403Y-52109D01*
X48434Y-52122D01*
X48463Y-52135D01*
X48490Y-52148D01*
X48514Y-52162D01*
X48536Y-52175D01*
X48555Y-52188D01*
X48586Y-52210D01*
X48616Y-52233D01*
X48645Y-52256D01*
X48672Y-52280D01*
X48700Y-52304D01*
X48726Y-52328D01*
X48751Y-52353D01*
X48775Y-52378D01*
X48799Y-52404D01*
X48821Y-52430D01*
X48843Y-52457D01*
X48864Y-52484D01*
X48884Y-52512D01*
X48904Y-52541D01*
X48922Y-52570D01*
X48940Y-52600D01*
X48957Y-52631D01*
X48974Y-52662D01*
X48989Y-52694D01*
X49004Y-52727D01*
X49019Y-52761D01*
X49032Y-52795D01*
X49045Y-52830D01*
X49058Y-52867D01*
X49069Y-52904D01*
X49080Y-52942D01*
X49091Y-52981D01*
X49101Y-53021D01*
X49110Y-53062D01*
X49119Y-53104D01*
X49127Y-53147D01*
X49135Y-53192D01*
X49141Y-53225D01*
X49145Y-53254D01*
X49149Y-53279D01*
X49152Y-53303D01*
X49154Y-53324D01*
X49155Y-53344D01*
X49156Y-53363D01*
X49157Y-53383D01*
X49157Y-53403D01*
X49156Y-53425D01*
X49155Y-53448D01*
X49154Y-53468D01*
X49153Y-53484D01*
X49152Y-53498D01*
X49150Y-53510D01*
X49148Y-53521D01*
X49144Y-53532D01*
X49140Y-53543D01*
X49135Y-53555D01*
X49129Y-53568D01*
X49115Y-53595D01*
X49100Y-53624D01*
X49082Y-53652D01*
X49063Y-53681D01*
X49042Y-53709D01*
X49020Y-53738D01*
X48997Y-53767D01*
X48972Y-53796D01*
X48946Y-53824D01*
X48919Y-53852D01*
X48891Y-53880D01*
X48862Y-53907D01*
X48833Y-53933D01*
X48802Y-53959D01*
X48771Y-53984D01*
X48739Y-54009D01*
X48707Y-54032D01*
X48675Y-54054D01*
X48642Y-54075D01*
X48610Y-54095D01*
X48577Y-54114D01*
X48544Y-54132D01*
X48519Y-54144D01*
X48487Y-54158D01*
X48452Y-54173D01*
X48413Y-54189D01*
X48374Y-54205D01*
X48337Y-54220D01*
X48302Y-54233D01*
X48272Y-54244D01*
X48249Y-54252D01*
X48235Y-54255D01*
X48225Y-54257D01*
X48217Y-54257D01*
X48209Y-54256D01*
X48201Y-54254D01*
X48193Y-54249D01*
X48185Y-54243D01*
X48175Y-54234D01*
X48164Y-54222D01*
X48150Y-54207D01*
X48134Y-54189D01*
X48106Y-54159D01*
X48077Y-54132D01*
X48048Y-54107D01*
X48018Y-54086D01*
X47988Y-54067D01*
X47957Y-54051D01*
X47926Y-54038D01*
X47894Y-54028D01*
X47863Y-54020D01*
X47831Y-54016D01*
X47799Y-54015D01*
X47768Y-54017D01*
X47736Y-54021D01*
X47704Y-54029D01*
X47670Y-54041D01*
X47637Y-54054D01*
X47607Y-54070D01*
X47577Y-54088D01*
X47549Y-54108D01*
X47521Y-54131D01*
X47495Y-54157D01*
X47468Y-54186D01*
X47442Y-54219D01*
X47415Y-54254D01*
X47354Y-54341D01*
X47354Y-54341D01*
X47307Y-54341D01*
X47307Y-54341D01*
X47298Y-54340D01*
X47287Y-54340D01*
X47274Y-54339D01*
X47260Y-54337D01*
X47244Y-54336D01*
X47227Y-54334D01*
X47210Y-54332D01*
X47193Y-54330D01*
X47175Y-54328D01*
X47158Y-54326D01*
X47158Y-54326D01*
X47158Y-54326D01*
G37*
G36*
X45602Y-52469D02*
X45569Y-52456D01*
X45537Y-52441D01*
X45506Y-52424D01*
X45476Y-52405D01*
X45448Y-52383D01*
X45421Y-52360D01*
X45395Y-52334D01*
X45371Y-52307D01*
X45349Y-52277D01*
X45328Y-52246D01*
X45309Y-52214D01*
X45291Y-52180D01*
X45276Y-52144D01*
X45262Y-52108D01*
X45250Y-52070D01*
X45241Y-52030D01*
X45233Y-51990D01*
X45230Y-51965D01*
X45229Y-51937D01*
X45228Y-51906D01*
X45228Y-51874D01*
X45230Y-51841D01*
X45232Y-51808D01*
X45235Y-51776D01*
X45239Y-51746D01*
X45244Y-51719D01*
X45250Y-51696D01*
X45262Y-51658D01*
X45276Y-51621D01*
X45292Y-51586D01*
X45309Y-51553D01*
X45328Y-51521D01*
X45349Y-51491D01*
X45371Y-51463D01*
X45395Y-51437D01*
X45420Y-51412D01*
X45447Y-51390D01*
X45475Y-51369D01*
X45504Y-51351D01*
X45535Y-51334D01*
X45568Y-51320D01*
X45602Y-51308D01*
X45636Y-51298D01*
X45670Y-51291D01*
X45704Y-51287D01*
X45738Y-51286D01*
X45772Y-51287D01*
X45806Y-51290D01*
X45839Y-51297D01*
X45872Y-51306D01*
X45905Y-51317D01*
X45937Y-51331D01*
X45968Y-51348D01*
X45999Y-51367D01*
X46029Y-51389D01*
X46054Y-51411D01*
X46078Y-51435D01*
X46101Y-51463D01*
X46124Y-51493D01*
X46145Y-51526D01*
X46165Y-51560D01*
X46183Y-51596D01*
X46199Y-51632D01*
X46213Y-51670D01*
X46224Y-51707D01*
X46230Y-51734D01*
X46235Y-51766D01*
X46238Y-51801D01*
X46241Y-51838D01*
X46242Y-51876D01*
X46242Y-51914D01*
X46240Y-51952D01*
X46237Y-51987D01*
X46233Y-52020D01*
X46228Y-52048D01*
X46218Y-52084D01*
X46207Y-52120D01*
X46193Y-52155D01*
X46179Y-52188D01*
X46162Y-52221D01*
X46144Y-52251D01*
X46125Y-52280D01*
X46105Y-52307D01*
X46084Y-52332D01*
X46062Y-52354D01*
X46033Y-52379D01*
X46005Y-52401D01*
X45976Y-52420D01*
X45947Y-52437D01*
X45917Y-52450D01*
X45887Y-52461D01*
X45854Y-52470D01*
X45820Y-52476D01*
X45783Y-52481D01*
X45744Y-52483D01*
X45722Y-52484D01*
X45704Y-52484D01*
X45688Y-52484D01*
X45674Y-52484D01*
X45662Y-52483D01*
X45650Y-52482D01*
X45639Y-52479D01*
X45628Y-52477D01*
X45616Y-52473D01*
X45602Y-52469D01*
X45602Y-52469D01*
X45602Y-52469D01*
G37*
G36*
X47373Y-51931D02*
X47345Y-51920D01*
X47318Y-51904D01*
X47293Y-51883D01*
X47269Y-51859D01*
X47247Y-51830D01*
X47227Y-51799D01*
X47210Y-51766D01*
X47195Y-51730D01*
X47184Y-51693D01*
X47176Y-51655D01*
X47171Y-51617D01*
X47170Y-51579D01*
X47173Y-51541D01*
X47181Y-51502D01*
X47191Y-51468D01*
X47205Y-51437D01*
X47222Y-51409D01*
X47242Y-51386D01*
X47265Y-51366D01*
X47290Y-51351D01*
X47318Y-51340D01*
X47348Y-51333D01*
X47381Y-51331D01*
X47410Y-51333D01*
X47438Y-51339D01*
X47465Y-51350D01*
X47491Y-51364D01*
X47515Y-51381D01*
X47538Y-51401D01*
X47558Y-51425D01*
X47577Y-51450D01*
X47594Y-51478D01*
X47609Y-51508D01*
X47621Y-51539D01*
X47630Y-51572D01*
X47637Y-51606D01*
X47641Y-51641D01*
X47642Y-51677D01*
X47640Y-51713D01*
X47635Y-51748D01*
X47626Y-51784D01*
X47613Y-51817D01*
X47597Y-51847D01*
X47577Y-51873D01*
X47554Y-51896D01*
X47528Y-51913D01*
X47500Y-51927D01*
X47470Y-51935D01*
X47439Y-51939D01*
X47407Y-51938D01*
X47373Y-51931D01*
X47373Y-51931D01*
X47373Y-51931D01*
G37*
G36*
X46435Y-51754D02*
X46411Y-51743D01*
X46389Y-51729D01*
X46368Y-51712D01*
X46349Y-51692D01*
X46331Y-51669D01*
X46316Y-51644D01*
X46302Y-51615D01*
X46290Y-51584D01*
X46280Y-51551D01*
X46272Y-51515D01*
X46265Y-51473D01*
X46262Y-51432D01*
X46262Y-51391D01*
X46265Y-51351D01*
X46271Y-51313D01*
X46279Y-51276D01*
X46291Y-51241D01*
X46305Y-51209D01*
X46321Y-51180D01*
X46340Y-51153D01*
X46361Y-51130D01*
X46384Y-51111D01*
X46410Y-51095D01*
X46427Y-51088D01*
X46445Y-51082D01*
X46463Y-51078D01*
X46482Y-51075D01*
X46501Y-51075D01*
X46520Y-51076D01*
X46539Y-51079D01*
X46557Y-51083D01*
X46573Y-51089D01*
X46589Y-51097D01*
X46600Y-51104D01*
X46610Y-51112D01*
X46621Y-51120D01*
X46631Y-51130D01*
X46641Y-51140D01*
X46650Y-51151D01*
X46659Y-51163D01*
X46667Y-51175D01*
X46675Y-51187D01*
X46682Y-51200D01*
X46695Y-51225D01*
X46695Y-51225D01*
X46715Y-51199D01*
X46715Y-51199D01*
X46735Y-51177D01*
X46756Y-51159D01*
X46778Y-51145D01*
X46802Y-51135D01*
X46826Y-51129D01*
X46851Y-51127D01*
X46876Y-51128D01*
X46900Y-51134D01*
X46924Y-51145D01*
X46946Y-51159D01*
X46969Y-51180D01*
X46988Y-51204D01*
X47005Y-51233D01*
X47018Y-51264D01*
X47029Y-51298D01*
X47037Y-51334D01*
X47041Y-51371D01*
X47043Y-51408D01*
X47042Y-51446D01*
X47037Y-51482D01*
X47029Y-51518D01*
X47019Y-51551D01*
X47005Y-51582D01*
X46988Y-51610D01*
X46967Y-51634D01*
X46945Y-51654D01*
X46922Y-51669D01*
X46897Y-51679D01*
X46872Y-51685D01*
X46847Y-51687D01*
X46822Y-51685D01*
X46798Y-51678D01*
X46774Y-51667D01*
X46752Y-51651D01*
X46731Y-51631D01*
X46727Y-51627D01*
X46723Y-51623D01*
X46719Y-51619D01*
X46716Y-51615D01*
X46712Y-51612D01*
X46709Y-51610D01*
X46707Y-51607D01*
X46705Y-51606D01*
X46703Y-51605D01*
X46702Y-51604D01*
X46701Y-51605D01*
X46700Y-51606D01*
X46698Y-51608D01*
X46696Y-51610D01*
X46694Y-51613D01*
X46692Y-51616D01*
X46690Y-51620D01*
X46688Y-51624D01*
X46686Y-51628D01*
X46683Y-51633D01*
X46677Y-51646D01*
X46669Y-51659D01*
X46661Y-51671D01*
X46652Y-51683D01*
X46643Y-51694D01*
X46633Y-51705D01*
X46623Y-51715D01*
X46612Y-51723D01*
X46601Y-51731D01*
X46590Y-51739D01*
X46577Y-51745D01*
X46563Y-51751D01*
X46547Y-51755D01*
X46530Y-51759D01*
X46513Y-51761D01*
X46496Y-51762D01*
X46479Y-51762D01*
X46463Y-51761D01*
X46448Y-51758D01*
X46435Y-51754D01*
X46435Y-51754D01*
X46435Y-51754D01*
G37*
G36*
X39442Y-47121D02*
X39403Y-47115D01*
X39365Y-47109D01*
X39328Y-47102D01*
X39290Y-47093D01*
X39252Y-47085D01*
X39215Y-47075D01*
X39178Y-47065D01*
X39141Y-47054D01*
X39104Y-47042D01*
X39068Y-47029D01*
X39032Y-47016D01*
X38996Y-47002D01*
X38960Y-46987D01*
X38925Y-46972D01*
X38891Y-46956D01*
X38856Y-46939D01*
X38823Y-46922D01*
X38789Y-46904D01*
X38756Y-46885D01*
X38724Y-46866D01*
X38692Y-46846D01*
X38661Y-46825D01*
X38630Y-46804D01*
X38600Y-46782D01*
X38571Y-46760D01*
X38546Y-46740D01*
X38519Y-46716D01*
X38490Y-46689D01*
X38460Y-46660D01*
X38430Y-46630D01*
X38401Y-46599D01*
X38374Y-46569D01*
X38349Y-46541D01*
X38327Y-46514D01*
X38310Y-46491D01*
X38289Y-46459D01*
X38269Y-46427D01*
X38250Y-46394D01*
X38233Y-46359D01*
X38218Y-46325D01*
X38203Y-46289D01*
X38191Y-46253D01*
X38179Y-46216D01*
X38169Y-46179D01*
X38161Y-46141D01*
X38154Y-46102D01*
X38148Y-46064D01*
X38144Y-46025D01*
X38142Y-45986D01*
X38141Y-45947D01*
X38142Y-45913D01*
X38144Y-45879D01*
X38147Y-45846D01*
X38151Y-45812D01*
X38156Y-45779D01*
X38163Y-45747D01*
X38170Y-45714D01*
X38179Y-45682D01*
X38189Y-45651D01*
X38200Y-45619D01*
X38212Y-45588D01*
X38226Y-45558D01*
X38240Y-45527D01*
X38255Y-45497D01*
X38272Y-45468D01*
X38289Y-45439D01*
X38308Y-45410D01*
X38328Y-45381D01*
X38348Y-45354D01*
X38370Y-45326D01*
X38393Y-45299D01*
X38417Y-45272D01*
X38441Y-45246D01*
X38467Y-45221D01*
X38494Y-45196D01*
X38522Y-45171D01*
X38550Y-45147D01*
X38580Y-45123D01*
X38610Y-45101D01*
X38642Y-45078D01*
X38674Y-45056D01*
X38707Y-45035D01*
X38742Y-45014D01*
X38777Y-44994D01*
X38813Y-44975D01*
X38849Y-44956D01*
X38887Y-44937D01*
X38925Y-44920D01*
X38965Y-44903D01*
X39005Y-44887D01*
X39046Y-44871D01*
X39088Y-44856D01*
X39113Y-44848D01*
X39139Y-44840D01*
X39165Y-44832D01*
X39193Y-44825D01*
X39223Y-44818D01*
X39256Y-44811D01*
X39293Y-44803D01*
X39335Y-44796D01*
X39383Y-44787D01*
X39437Y-44778D01*
X39498Y-44768D01*
X39544Y-44760D01*
X39581Y-44754D01*
X39613Y-44750D01*
X39641Y-44747D01*
X39667Y-44744D01*
X39694Y-44743D01*
X39723Y-44743D01*
X39757Y-44743D01*
X39798Y-44743D01*
X39847Y-44744D01*
X39893Y-44745D01*
X39931Y-44746D01*
X39960Y-44746D01*
X39983Y-44746D01*
X39999Y-44746D01*
X40010Y-44745D01*
X40017Y-44744D01*
X40020Y-44741D01*
X40019Y-44739D01*
X40017Y-44736D01*
X40007Y-44723D01*
X39999Y-44709D01*
X39992Y-44695D01*
X39987Y-44681D01*
X39984Y-44666D01*
X39982Y-44651D01*
X39982Y-44636D01*
X39984Y-44621D01*
X39988Y-44607D01*
X39993Y-44593D01*
X40008Y-44569D01*
X40028Y-44548D01*
X40051Y-44529D01*
X40079Y-44514D01*
X40109Y-44502D01*
X40141Y-44493D01*
X40175Y-44487D01*
X40209Y-44484D01*
X40244Y-44485D01*
X40279Y-44489D01*
X40312Y-44497D01*
X40344Y-44508D01*
X40373Y-44523D01*
X40399Y-44542D01*
X40422Y-44565D01*
X40439Y-44590D01*
X40449Y-44616D01*
X40453Y-44642D01*
X40451Y-44668D01*
X40443Y-44693D01*
X40428Y-44718D01*
X40408Y-44741D01*
X40382Y-44763D01*
X40350Y-44782D01*
X40327Y-44794D01*
X40327Y-44794D01*
X40361Y-44802D01*
X40361Y-44802D01*
X40409Y-44815D01*
X40455Y-44827D01*
X40499Y-44840D01*
X40541Y-44853D01*
X40580Y-44866D01*
X40618Y-44878D01*
X40654Y-44891D01*
X40687Y-44904D01*
X40718Y-44918D01*
X40747Y-44931D01*
X40773Y-44944D01*
X40797Y-44957D01*
X40819Y-44970D01*
X40838Y-44983D01*
X40869Y-45005D01*
X40899Y-45028D01*
X40928Y-45051D01*
X40956Y-45075D01*
X40983Y-45099D01*
X41009Y-45123D01*
X41034Y-45148D01*
X41059Y-45173D01*
X41082Y-45199D01*
X41105Y-45225D01*
X41127Y-45252D01*
X41148Y-45280D01*
X41168Y-45307D01*
X41187Y-45336D01*
X41206Y-45365D01*
X41224Y-45395D01*
X41241Y-45426D01*
X41257Y-45457D01*
X41273Y-45489D01*
X41288Y-45522D01*
X41302Y-45556D01*
X41316Y-45590D01*
X41329Y-45626D01*
X41341Y-45662D01*
X41353Y-45699D01*
X41364Y-45737D01*
X41374Y-45776D01*
X41384Y-45816D01*
X41394Y-45857D01*
X41402Y-45900D01*
X41411Y-45943D01*
X41419Y-45987D01*
X41424Y-46020D01*
X41429Y-46049D01*
X41432Y-46075D01*
X41435Y-46098D01*
X41437Y-46119D01*
X41439Y-46139D01*
X41440Y-46158D01*
X41440Y-46178D01*
X41440Y-46198D01*
X41440Y-46220D01*
X41439Y-46243D01*
X41438Y-46263D01*
X41437Y-46279D01*
X41435Y-46293D01*
X41434Y-46306D01*
X41431Y-46317D01*
X41428Y-46327D01*
X41424Y-46338D01*
X41419Y-46350D01*
X41413Y-46363D01*
X41399Y-46391D01*
X41383Y-46419D01*
X41365Y-46447D01*
X41346Y-46476D01*
X41326Y-46505D01*
X41304Y-46534D01*
X41280Y-46562D01*
X41255Y-46591D01*
X41230Y-46619D01*
X41203Y-46647D01*
X41175Y-46675D01*
X41146Y-46702D01*
X41116Y-46729D01*
X41086Y-46754D01*
X41055Y-46780D01*
X41023Y-46804D01*
X40991Y-46827D01*
X40959Y-46850D01*
X40926Y-46871D01*
X40893Y-46891D01*
X40860Y-46909D01*
X40827Y-46927D01*
X40802Y-46939D01*
X40771Y-46953D01*
X40735Y-46968D01*
X40697Y-46984D01*
X40658Y-47000D01*
X40620Y-47015D01*
X40585Y-47028D01*
X40555Y-47039D01*
X40532Y-47047D01*
X40518Y-47051D01*
X40508Y-47052D01*
X40500Y-47052D01*
X40492Y-47051D01*
X40485Y-47049D01*
X40477Y-47044D01*
X40468Y-47038D01*
X40459Y-47029D01*
X40447Y-47017D01*
X40434Y-47003D01*
X40418Y-46985D01*
X40390Y-46954D01*
X40361Y-46927D01*
X40331Y-46903D01*
X40302Y-46881D01*
X40271Y-46862D01*
X40240Y-46846D01*
X40209Y-46833D01*
X40178Y-46823D01*
X40146Y-46816D01*
X40115Y-46811D01*
X40083Y-46810D01*
X40051Y-46812D01*
X40019Y-46817D01*
X39988Y-46825D01*
X39953Y-46836D01*
X39921Y-46850D01*
X39890Y-46865D01*
X39861Y-46883D01*
X39832Y-46903D01*
X39805Y-46927D01*
X39778Y-46952D01*
X39752Y-46981D01*
X39725Y-47014D01*
X39699Y-47050D01*
X39637Y-47137D01*
X39637Y-47137D01*
X39591Y-47136D01*
X39591Y-47136D01*
X39582Y-47136D01*
X39571Y-47135D01*
X39558Y-47134D01*
X39543Y-47133D01*
X39528Y-47131D01*
X39511Y-47129D01*
X39494Y-47128D01*
X39476Y-47125D01*
X39459Y-47123D01*
X39442Y-47121D01*
X39442Y-47121D01*
X39442Y-47121D01*
G37*
G36*
X37886Y-45264D02*
X37852Y-45251D01*
X37820Y-45237D01*
X37789Y-45219D01*
X37760Y-45200D01*
X37731Y-45178D01*
X37704Y-45155D01*
X37679Y-45129D01*
X37655Y-45102D01*
X37632Y-45073D01*
X37611Y-45042D01*
X37592Y-45009D01*
X37575Y-44975D01*
X37559Y-44940D01*
X37546Y-44903D01*
X37534Y-44865D01*
X37524Y-44826D01*
X37517Y-44785D01*
X37514Y-44760D01*
X37512Y-44732D01*
X37511Y-44701D01*
X37512Y-44669D01*
X37513Y-44636D01*
X37515Y-44603D01*
X37519Y-44572D01*
X37523Y-44542D01*
X37528Y-44515D01*
X37534Y-44491D01*
X37546Y-44453D01*
X37560Y-44417D01*
X37575Y-44382D01*
X37592Y-44348D01*
X37611Y-44317D01*
X37632Y-44287D01*
X37654Y-44258D01*
X37678Y-44232D01*
X37703Y-44208D01*
X37730Y-44185D01*
X37758Y-44165D01*
X37788Y-44146D01*
X37818Y-44130D01*
X37852Y-44115D01*
X37885Y-44103D01*
X37919Y-44093D01*
X37953Y-44087D01*
X37988Y-44082D01*
X38022Y-44081D01*
X38056Y-44082D01*
X38089Y-44086D01*
X38123Y-44092D01*
X38156Y-44101D01*
X38188Y-44113D01*
X38220Y-44127D01*
X38252Y-44143D01*
X38282Y-44163D01*
X38312Y-44185D01*
X38337Y-44206D01*
X38361Y-44231D01*
X38385Y-44258D01*
X38407Y-44289D01*
X38429Y-44321D01*
X38448Y-44355D01*
X38466Y-44391D01*
X38482Y-44428D01*
X38496Y-44465D01*
X38507Y-44502D01*
X38513Y-44530D01*
X38518Y-44561D01*
X38522Y-44596D01*
X38524Y-44633D01*
X38525Y-44671D01*
X38525Y-44710D01*
X38524Y-44747D01*
X38521Y-44783D01*
X38517Y-44815D01*
X38511Y-44844D01*
X38502Y-44880D01*
X38490Y-44915D01*
X38477Y-44950D01*
X38462Y-44984D01*
X38446Y-45016D01*
X38428Y-45047D01*
X38409Y-45076D01*
X38389Y-45103D01*
X38367Y-45127D01*
X38346Y-45149D01*
X38317Y-45174D01*
X38288Y-45196D01*
X38259Y-45216D01*
X38231Y-45232D01*
X38201Y-45245D01*
X38170Y-45256D01*
X38138Y-45265D01*
X38103Y-45272D01*
X38067Y-45276D01*
X38027Y-45279D01*
X38006Y-45279D01*
X37987Y-45280D01*
X37972Y-45280D01*
X37958Y-45279D01*
X37945Y-45278D01*
X37934Y-45277D01*
X37923Y-45275D01*
X37911Y-45272D01*
X37899Y-45268D01*
X37886Y-45264D01*
X37886Y-45264D01*
X37886Y-45264D01*
G37*
G36*
X39657Y-44726D02*
X39629Y-44715D01*
X39602Y-44699D01*
X39576Y-44678D01*
X39552Y-44654D01*
X39530Y-44626D01*
X39510Y-44595D01*
X39493Y-44561D01*
X39479Y-44526D01*
X39467Y-44489D01*
X39459Y-44451D01*
X39455Y-44412D01*
X39454Y-44374D01*
X39457Y-44336D01*
X39464Y-44298D01*
X39475Y-44263D01*
X39489Y-44232D01*
X39506Y-44205D01*
X39526Y-44181D01*
X39548Y-44162D01*
X39574Y-44146D01*
X39601Y-44135D01*
X39632Y-44128D01*
X39664Y-44126D01*
X39694Y-44128D01*
X39722Y-44135D01*
X39749Y-44145D01*
X39774Y-44159D01*
X39799Y-44176D01*
X39821Y-44197D01*
X39842Y-44220D01*
X39861Y-44245D01*
X39878Y-44273D01*
X39892Y-44303D01*
X39904Y-44335D01*
X39914Y-44368D01*
X39921Y-44402D01*
X39925Y-44437D01*
X39926Y-44472D01*
X39924Y-44508D01*
X39918Y-44544D01*
X39909Y-44579D01*
X39897Y-44613D01*
X39880Y-44643D01*
X39860Y-44669D01*
X39837Y-44691D01*
X39811Y-44709D01*
X39784Y-44722D01*
X39754Y-44731D01*
X39722Y-44734D01*
X39690Y-44733D01*
X39657Y-44726D01*
X39657Y-44726D01*
X39657Y-44726D01*
G37*
G36*
X38718Y-44549D02*
X38695Y-44539D01*
X38672Y-44525D01*
X38652Y-44508D01*
X38632Y-44488D01*
X38615Y-44465D01*
X38599Y-44439D01*
X38585Y-44411D01*
X38573Y-44380D01*
X38563Y-44346D01*
X38555Y-44310D01*
X38549Y-44268D01*
X38545Y-44227D01*
X38545Y-44186D01*
X38548Y-44146D01*
X38554Y-44108D01*
X38563Y-44071D01*
X38574Y-44037D01*
X38588Y-44005D01*
X38605Y-43975D01*
X38623Y-43949D01*
X38645Y-43925D01*
X38668Y-43906D01*
X38693Y-43890D01*
X38710Y-43883D01*
X38728Y-43877D01*
X38747Y-43873D01*
X38766Y-43871D01*
X38785Y-43870D01*
X38804Y-43871D01*
X38822Y-43874D01*
X38840Y-43878D01*
X38857Y-43884D01*
X38872Y-43892D01*
X38883Y-43899D01*
X38894Y-43907D01*
X38904Y-43916D01*
X38914Y-43925D01*
X38924Y-43935D01*
X38934Y-43946D01*
X38942Y-43958D01*
X38951Y-43970D01*
X38959Y-43983D01*
X38966Y-43995D01*
X38979Y-44021D01*
X38979Y-44021D01*
X38999Y-43994D01*
X38999Y-43994D01*
X39018Y-43973D01*
X39039Y-43955D01*
X39062Y-43940D01*
X39085Y-43930D01*
X39110Y-43924D01*
X39135Y-43922D01*
X39159Y-43924D01*
X39184Y-43930D01*
X39207Y-43940D01*
X39230Y-43954D01*
X39252Y-43975D01*
X39272Y-44000D01*
X39288Y-44028D01*
X39302Y-44060D01*
X39312Y-44093D01*
X39320Y-44129D01*
X39325Y-44166D01*
X39327Y-44203D01*
X39325Y-44241D01*
X39321Y-44278D01*
X39313Y-44313D01*
X39302Y-44347D01*
X39288Y-44378D01*
X39271Y-44405D01*
X39251Y-44429D01*
X39228Y-44449D01*
X39205Y-44464D01*
X39181Y-44474D01*
X39156Y-44481D01*
X39131Y-44482D01*
X39106Y-44480D01*
X39081Y-44473D01*
X39058Y-44462D01*
X39035Y-44446D01*
X39014Y-44426D01*
X39010Y-44422D01*
X39007Y-44418D01*
X39003Y-44414D01*
X38999Y-44411D01*
X38996Y-44408D01*
X38993Y-44405D01*
X38990Y-44403D01*
X38988Y-44401D01*
X38986Y-44400D01*
X38985Y-44400D01*
X38984Y-44400D01*
X38983Y-44401D01*
X38982Y-44403D01*
X38980Y-44405D01*
X38978Y-44408D01*
X38976Y-44411D01*
X38974Y-44415D01*
X38971Y-44419D01*
X38969Y-44423D01*
X38967Y-44428D01*
X38960Y-44441D01*
X38953Y-44454D01*
X38944Y-44466D01*
X38936Y-44478D01*
X38926Y-44489D01*
X38916Y-44500D01*
X38906Y-44510D01*
X38896Y-44519D01*
X38885Y-44527D01*
X38874Y-44534D01*
X38861Y-44540D01*
X38846Y-44546D01*
X38830Y-44551D01*
X38814Y-44554D01*
X38796Y-44556D01*
X38779Y-44558D01*
X38763Y-44557D01*
X38747Y-44556D01*
X38732Y-44553D01*
X38718Y-44549D01*
X38718Y-44549D01*
X38718Y-44549D01*
G37*
M02*
